%TF.GenerationSoftware,KiCad,Pcbnew,9.0.7*%
%TF.CreationDate,2026-04-20T21:53:37-03:00*%
%TF.ProjectId,Sao_SUN,53616f5f-5355-44e2-9e6b-696361645f70,rev?*%
%TF.SameCoordinates,Original*%
%TF.FileFunction,Profile,NP*%
%FSLAX46Y46*%
G04 Gerber Fmt 4.6, Leading zero omitted, Abs format (unit mm)*
G04 Created by KiCad (PCBNEW 9.0.7) date 2026-04-20 21:53:37*
%MOMM*%
%LPD*%
G01*
G04 APERTURE LIST*
%TA.AperFunction,Profile*%
%ADD10C,0.100000*%
%TD*%
G04 APERTURE END LIST*
D10*
X213139622Y-81027826D02*
X214092996Y-81107883D01*
X215042181Y-81227793D01*
X215985512Y-81387346D01*
X216921334Y-81586261D01*
X217848006Y-81824190D01*
X218763901Y-82100715D01*
X219667413Y-82415351D01*
X220556958Y-82767547D01*
X221430973Y-83156683D01*
X222287926Y-83582079D01*
X223126315Y-84042986D01*
X223944666Y-84538598D01*
X224741546Y-85068044D01*
X225515556Y-85630395D01*
X226265339Y-86224665D01*
X226989578Y-86849811D01*
X227687003Y-87504738D01*
X228356391Y-88188294D01*
X228996568Y-88899282D01*
X229606410Y-89636455D01*
X230184848Y-90398518D01*
X230730866Y-91184135D01*
X231243507Y-91991928D01*
X231721871Y-92820480D01*
X232165120Y-93668337D01*
X232572476Y-94534011D01*
X232943223Y-95415984D01*
X233276712Y-96312709D01*
X233572358Y-97222613D01*
X233829641Y-98144098D01*
X234048111Y-99075549D01*
X234227384Y-100015332D01*
X234367146Y-100961798D01*
X234467151Y-101913286D01*
X234527225Y-102868127D01*
X234547261Y-103824646D01*
X234527225Y-104781165D01*
X234467151Y-105736006D01*
X234367146Y-106687494D01*
X234227384Y-107633960D01*
X234048111Y-108573743D01*
X233829641Y-109505194D01*
X233572358Y-110426679D01*
X233276712Y-111336583D01*
X232943223Y-112233308D01*
X232572476Y-113115281D01*
X232165120Y-113980955D01*
X231721871Y-114828812D01*
X231243507Y-115657364D01*
X230730866Y-116465157D01*
X230184848Y-117250774D01*
X229606410Y-118012837D01*
X228996568Y-118750010D01*
X228356391Y-119460998D01*
X227687003Y-120144554D01*
X226989578Y-120799481D01*
X226265339Y-121424627D01*
X225515556Y-122018897D01*
X224741546Y-122581248D01*
X223944666Y-123110694D01*
X223126315Y-123606306D01*
X222287926Y-124067213D01*
X221430973Y-124492609D01*
X220556958Y-124881745D01*
X219667413Y-125233941D01*
X218763901Y-125548577D01*
X217848006Y-125825102D01*
X216921334Y-126063031D01*
X215985512Y-126261946D01*
X215042181Y-126421499D01*
X214092996Y-126541409D01*
X213139622Y-126621466D01*
X212183733Y-126661529D01*
X211227003Y-126661529D01*
X210271114Y-126621466D01*
X209317740Y-126541409D01*
X208368555Y-126421499D01*
X207425224Y-126261946D01*
X206489402Y-126063031D01*
X205562730Y-125825102D01*
X204646835Y-125548577D01*
X203743323Y-125233941D01*
X202853778Y-124881745D01*
X201979763Y-124492609D01*
X201122810Y-124067213D01*
X200284422Y-123606306D01*
X199466070Y-123110694D01*
X198669190Y-122581248D01*
X197895180Y-122018897D01*
X197145397Y-121424627D01*
X196421158Y-120799481D01*
X195723733Y-120144554D01*
X195054345Y-119460998D01*
X194414168Y-118750010D01*
X193804326Y-118012837D01*
X193225888Y-117250774D01*
X192679870Y-116465157D01*
X192167229Y-115657364D01*
X191688865Y-114828812D01*
X191245616Y-113980955D01*
X190838260Y-113115281D01*
X190467513Y-112233308D01*
X190134024Y-111336583D01*
X189838378Y-110426679D01*
X189581095Y-109505194D01*
X189362625Y-108573743D01*
X189183352Y-107633960D01*
X189043590Y-106687494D01*
X188943585Y-105736006D01*
X188883511Y-104781165D01*
X188863475Y-103824646D01*
X188883511Y-102868127D01*
X188943585Y-101913286D01*
X189043590Y-100961798D01*
X189183352Y-100015332D01*
X189362625Y-99075549D01*
X189581095Y-98144098D01*
X189838378Y-97222613D01*
X190134024Y-96312709D01*
X190467513Y-95415984D01*
X190838260Y-94534011D01*
X191245616Y-93668337D01*
X191688865Y-92820480D01*
X192167229Y-91991928D01*
X192679870Y-91184135D01*
X193225888Y-90398518D01*
X193804326Y-89636455D01*
X194414168Y-88899282D01*
X195054345Y-88188294D01*
X195723733Y-87504738D01*
X196421158Y-86849811D01*
X197145397Y-86224665D01*
X197895180Y-85630395D01*
X198669190Y-85068044D01*
X199466070Y-84538598D01*
X200284421Y-84042986D01*
X201122810Y-83582079D01*
X201979763Y-83156683D01*
X202853778Y-82767547D01*
X203743323Y-82415351D01*
X204646835Y-82100715D01*
X205562730Y-81824190D01*
X206489402Y-81586261D01*
X207425224Y-81387346D01*
X208368555Y-81227793D01*
X209317740Y-81107883D01*
X210271114Y-81027826D01*
X211227003Y-80987763D01*
X212183733Y-80987763D01*
X213139622Y-81027826D01*
M02*
