%TF.GenerationSoftware,KiCad,Pcbnew,9.0.7*%
%TF.CreationDate,2026-04-20T21:53:37-03:00*%
%TF.ProjectId,Sao_SUN,53616f5f-5355-44e2-9e6b-696361645f70,rev?*%
%TF.SameCoordinates,Original*%
%TF.FileFunction,Soldermask,Top*%
%TF.FilePolarity,Negative*%
%FSLAX46Y46*%
G04 Gerber Fmt 4.6, Leading zero omitted, Abs format (unit mm)*
G04 Created by KiCad (PCBNEW 9.0.7) date 2026-04-20 21:53:37*
%MOMM*%
%LPD*%
G01*
G04 APERTURE LIST*
G04 Aperture macros list*
%AMRoundRect*
0 Rectangle with rounded corners*
0 $1 Rounding radius*
0 $2 $3 $4 $5 $6 $7 $8 $9 X,Y pos of 4 corners*
0 Add a 4 corners polygon primitive as box body*
4,1,4,$2,$3,$4,$5,$6,$7,$8,$9,$2,$3,0*
0 Add four circle primitives for the rounded corners*
1,1,$1+$1,$2,$3*
1,1,$1+$1,$4,$5*
1,1,$1+$1,$6,$7*
1,1,$1+$1,$8,$9*
0 Add four rect primitives between the rounded corners*
20,1,$1+$1,$2,$3,$4,$5,0*
20,1,$1+$1,$4,$5,$6,$7,0*
20,1,$1+$1,$6,$7,$8,$9,0*
20,1,$1+$1,$8,$9,$2,$3,0*%
G04 Aperture macros list end*
%ADD10C,0.500000*%
%ADD11RoundRect,0.250001X-0.573257X-0.525267X0.334746X-0.701765X0.573257X0.525267X-0.334746X0.701765X0*%
%ADD12RoundRect,0.250001X0.749232X-0.207800X0.417742X0.655760X-0.749232X0.207800X-0.417742X-0.655760X0*%
%ADD13RoundRect,0.250001X-0.168266X0.759089X-0.775119X0.060984X0.168266X-0.759089X0.775119X-0.060984X0*%
G04 APERTURE END LIST*
D10*
X211500000Y-81600000D02*
X211957860Y-82367224D01*
X212440469Y-83270570D01*
X212762209Y-84198665D01*
X213034450Y-85386626D01*
X213269567Y-86859203D01*
X213220069Y-88839138D01*
X212997326Y-90534457D01*
X212649102Y-91795271D01*
X212647426Y-91803377D01*
X213028847Y-91836138D01*
X213714163Y-91934672D01*
X214361031Y-92065744D01*
X214591970Y-91372924D01*
X215210700Y-90717071D01*
X215730433Y-90160214D01*
X216720401Y-89491986D01*
X217462876Y-89071249D01*
X218180603Y-88687637D01*
X218997326Y-88266901D01*
X219653180Y-87908037D01*
X220370906Y-87375930D01*
X221101007Y-86831448D01*
X221793985Y-85965226D01*
X222214721Y-85235125D01*
X222647832Y-84368903D01*
X222796327Y-84010040D01*
X222722079Y-85841480D01*
X222647832Y-86893321D01*
X222437464Y-87809041D01*
X222090975Y-88947504D01*
X221608366Y-89999344D01*
X220952512Y-91051185D01*
X220408030Y-91806035D01*
X219752177Y-92672257D01*
X219083948Y-93550853D01*
X218654036Y-93980765D01*
X218648369Y-93987439D01*
X218772594Y-94072383D01*
X219320879Y-94495173D01*
X219844132Y-94948575D01*
X219860758Y-94964732D01*
X219873998Y-94945860D01*
X220451165Y-94477269D01*
X221354511Y-94093656D01*
X222369228Y-93969910D01*
X227517059Y-94007034D01*
X228482278Y-93858539D01*
X229286626Y-93499676D01*
X230140473Y-93017067D01*
X230623083Y-92658203D01*
X231142816Y-92373588D01*
X230573584Y-93388304D01*
X230090975Y-94118406D01*
X229435122Y-94922754D01*
X228643147Y-95689979D01*
X227789300Y-96407706D01*
X226885955Y-97038810D01*
X226007359Y-97595667D01*
X224460534Y-98263895D01*
X223445817Y-98560885D01*
X222633696Y-98761377D01*
X222674305Y-98843974D01*
X222943822Y-99481726D01*
X223010968Y-99669915D01*
X223020466Y-99669915D01*
X223058603Y-99767869D01*
X223201732Y-100208374D01*
X223216710Y-100205179D01*
X223724069Y-100192805D01*
X224565541Y-100205179D01*
X225345141Y-100427922D01*
X226421731Y-100972404D01*
X227659190Y-101690131D01*
X228884275Y-102407857D01*
X229762871Y-102939965D01*
X230987956Y-103373076D01*
X231891302Y-103558695D01*
X232943142Y-103496822D01*
X233586621Y-103410199D01*
X234279599Y-103410199D01*
X233920735Y-103694815D01*
X233153511Y-104152675D01*
X232250165Y-104635284D01*
X231322070Y-104957024D01*
X230134109Y-105229265D01*
X228661532Y-105464382D01*
X226681597Y-105414884D01*
X224986278Y-105192141D01*
X223725464Y-104843917D01*
X223717358Y-104842241D01*
X223684597Y-105223662D01*
X223586063Y-105908978D01*
X223454991Y-106555846D01*
X224147811Y-106786785D01*
X224803664Y-107405515D01*
X225360521Y-107925248D01*
X226028749Y-108915216D01*
X226449486Y-109657691D01*
X226833098Y-110375418D01*
X227253834Y-111192141D01*
X227612698Y-111847995D01*
X228144805Y-112565721D01*
X228689287Y-113295822D01*
X229555509Y-113988800D01*
X230285610Y-114409536D01*
X231151832Y-114842647D01*
X231510695Y-114991142D01*
X229679255Y-114916894D01*
X228627414Y-114842647D01*
X227711694Y-114632279D01*
X226573231Y-114285790D01*
X225521391Y-113803181D01*
X224469550Y-113147327D01*
X223714700Y-112602845D01*
X222848478Y-111946992D01*
X221969882Y-111278763D01*
X221539970Y-110848851D01*
X221533296Y-110843184D01*
X221448352Y-110967409D01*
X221025562Y-111515694D01*
X220572160Y-112038947D01*
X220556003Y-112055573D01*
X220574875Y-112068813D01*
X221043466Y-112645980D01*
X221427079Y-113549326D01*
X221550825Y-114564043D01*
X221513701Y-119711874D01*
X221662196Y-120677093D01*
X222021059Y-121481441D01*
X222503668Y-122335288D01*
X222862532Y-122817898D01*
X223147147Y-123337631D01*
X222132431Y-122768399D01*
X221402329Y-122285790D01*
X220597981Y-121629937D01*
X219830756Y-120837962D01*
X219113029Y-119984115D01*
X218481925Y-119080770D01*
X217925068Y-118202174D01*
X217256840Y-116655349D01*
X216959850Y-115640632D01*
X216759358Y-114828511D01*
X216006114Y-115090378D01*
X215379069Y-115294542D01*
X215385633Y-115447671D01*
X215394638Y-115816879D01*
X215382264Y-116658351D01*
X215159521Y-117437951D01*
X214615039Y-118514541D01*
X213897312Y-119752000D01*
X213179586Y-120977085D01*
X212647478Y-121855681D01*
X212214367Y-123080766D01*
X212028748Y-123984112D01*
X212090621Y-125035952D01*
X212177244Y-125679431D01*
X212177244Y-126372409D01*
X211892628Y-126013545D01*
X211434768Y-125246321D01*
X210952159Y-124342975D01*
X210630419Y-123414880D01*
X210358178Y-122226919D01*
X210123061Y-120754342D01*
X210172559Y-118774407D01*
X210395302Y-117079088D01*
X210743526Y-115818274D01*
X210745202Y-115810168D01*
X210363781Y-115777407D01*
X209678465Y-115678873D01*
X209031597Y-115547801D01*
X208800658Y-116240621D01*
X208181928Y-116896474D01*
X207662195Y-117453331D01*
X206672227Y-118121559D01*
X205929752Y-118542296D01*
X205212025Y-118925908D01*
X204395302Y-119346644D01*
X203739448Y-119705508D01*
X203021722Y-120237615D01*
X202291621Y-120782097D01*
X201598643Y-121648319D01*
X201177907Y-122378420D01*
X200744796Y-123244642D01*
X200596301Y-123603505D01*
X200670549Y-121772065D01*
X200744796Y-120720224D01*
X200955164Y-119804504D01*
X201301653Y-118666041D01*
X201784262Y-117614201D01*
X202440116Y-116562360D01*
X202984598Y-115807510D01*
X203640451Y-114941288D01*
X204308680Y-114062692D01*
X204738592Y-113632780D01*
X204744259Y-113626106D01*
X204620034Y-113541162D01*
X204071749Y-113118372D01*
X203548496Y-112664970D01*
X203531870Y-112648813D01*
X203518630Y-112667685D01*
X202941463Y-113136276D01*
X202038117Y-113519889D01*
X201023400Y-113643635D01*
X195875569Y-113606511D01*
X194910350Y-113755006D01*
X194106002Y-114113869D01*
X193252155Y-114596478D01*
X192769545Y-114955342D01*
X192249812Y-115239957D01*
X192819044Y-114225241D01*
X193301653Y-113495139D01*
X193957506Y-112690791D01*
X194749481Y-111923566D01*
X195603328Y-111205839D01*
X196506673Y-110574735D01*
X197385269Y-110017878D01*
X198932094Y-109349650D01*
X199946811Y-109052660D01*
X200758932Y-108852168D01*
X200718323Y-108769571D01*
X200448806Y-108131819D01*
X200381660Y-107943630D01*
X200372162Y-107943630D01*
X200334025Y-107845676D01*
X200190896Y-107405171D01*
X200175918Y-107408366D01*
X199668559Y-107420740D01*
X198827087Y-107408366D01*
X198047487Y-107185623D01*
X196970897Y-106641141D01*
X195733438Y-105923414D01*
X194508353Y-105205688D01*
X193629757Y-104673580D01*
X192404672Y-104240469D01*
X191501326Y-104054850D01*
X190449486Y-104116723D01*
X189806007Y-104203346D01*
X189113029Y-104203346D01*
X189471893Y-103918730D01*
X190239117Y-103460870D01*
X191142463Y-102978261D01*
X192070558Y-102656521D01*
X193258519Y-102384280D01*
X194731096Y-102149163D01*
X196711031Y-102198661D01*
X198406350Y-102421404D01*
X199667164Y-102769628D01*
X199675270Y-102771304D01*
X199708031Y-102389883D01*
X199806565Y-101704567D01*
X199937637Y-101057699D01*
X199244817Y-100826760D01*
X198588964Y-100208030D01*
X198032107Y-99688297D01*
X197363879Y-98698329D01*
X196943142Y-97955854D01*
X196559530Y-97238127D01*
X196138794Y-96421404D01*
X195779930Y-95765550D01*
X195247823Y-95047824D01*
X194703341Y-94317723D01*
X193837119Y-93624745D01*
X193107018Y-93204009D01*
X192240796Y-92770898D01*
X191881933Y-92622403D01*
X193713373Y-92696651D01*
X194765214Y-92770898D01*
X195680934Y-92981266D01*
X196819397Y-93327755D01*
X197871237Y-93810364D01*
X198923078Y-94466218D01*
X199677928Y-95010700D01*
X200544150Y-95666553D01*
X201422746Y-96334782D01*
X201852658Y-96764694D01*
X201859332Y-96770361D01*
X201944276Y-96646136D01*
X202367066Y-96097851D01*
X202820468Y-95574598D01*
X202836625Y-95557972D01*
X202817753Y-95544732D01*
X202349162Y-94967565D01*
X201965549Y-94064219D01*
X201841803Y-93049502D01*
X201878927Y-87901671D01*
X201730432Y-86936452D01*
X201371569Y-86132104D01*
X200888960Y-85278257D01*
X200530096Y-84795647D01*
X200245481Y-84275914D01*
X201260197Y-84845146D01*
X201990299Y-85327755D01*
X202794647Y-85983608D01*
X203561872Y-86775583D01*
X204279599Y-87629430D01*
X204910703Y-88532775D01*
X205467560Y-89411371D01*
X206135788Y-90958196D01*
X206432778Y-91972913D01*
X206633270Y-92785034D01*
X207334055Y-92512118D01*
X208013559Y-92319003D01*
X208006886Y-92161444D01*
X207997990Y-91796666D01*
X208010364Y-90955194D01*
X208233107Y-90175594D01*
X208777589Y-89099004D01*
X209495316Y-87861545D01*
X210213042Y-86636460D01*
X210745150Y-85757864D01*
X211178261Y-84532779D01*
X211363880Y-83629433D01*
X211302007Y-82577593D01*
X211215384Y-81934114D01*
X211215384Y-81241136D01*
X211500000Y-81600000D01*
D11*
%TO.C,D2*%
X217462913Y-104995054D03*
X220383255Y-105562714D03*
%TD*%
D12*
%TO.C,D3*%
X209557315Y-98355655D03*
X208491171Y-95578253D03*
%TD*%
D13*
%TO.C,D1*%
X207859703Y-108244691D03*
X205907929Y-110489953D03*
%TD*%
M02*
