%TF.GenerationSoftware,KiCad,Pcbnew,9.0.7*%
%TF.CreationDate,2026-04-20T21:53:37-03:00*%
%TF.ProjectId,Sao_SUN,53616f5f-5355-44e2-9e6b-696361645f70,rev?*%
%TF.SameCoordinates,Original*%
%TF.FileFunction,Legend,Top*%
%TF.FilePolarity,Positive*%
%FSLAX46Y46*%
G04 Gerber Fmt 4.6, Leading zero omitted, Abs format (unit mm)*
G04 Created by KiCad (PCBNEW 9.0.7) date 2026-04-20 21:53:37*
%MOMM*%
%LPD*%
G01*
G04 APERTURE LIST*
G04 Aperture macros list*
%AMRoundRect*
0 Rectangle with rounded corners*
0 $1 Rounding radius*
0 $2 $3 $4 $5 $6 $7 $8 $9 X,Y pos of 4 corners*
0 Add a 4 corners polygon primitive as box body*
4,1,4,$2,$3,$4,$5,$6,$7,$8,$9,$2,$3,0*
0 Add four circle primitives for the rounded corners*
1,1,$1+$1,$2,$3*
1,1,$1+$1,$4,$5*
1,1,$1+$1,$6,$7*
1,1,$1+$1,$8,$9*
0 Add four rect primitives between the rounded corners*
20,1,$1+$1,$2,$3,$4,$5,0*
20,1,$1+$1,$4,$5,$6,$7,0*
20,1,$1+$1,$6,$7,$8,$9,0*
20,1,$1+$1,$8,$9,$2,$3,0*%
G04 Aperture macros list end*
%ADD10C,0.200000*%
%ADD11C,1.400000*%
%ADD12C,0.150000*%
%ADD13C,0.120000*%
%ADD14C,0.500000*%
%ADD15RoundRect,0.250001X-0.573257X-0.525267X0.334746X-0.701765X0.573257X0.525267X-0.334746X0.701765X0*%
%ADD16RoundRect,0.250001X0.749232X-0.207800X0.417742X0.655760X-0.749232X0.207800X-0.417742X-0.655760X0*%
%ADD17RoundRect,0.250001X-0.168266X0.759089X-0.775119X0.060984X0.168266X-0.759089X0.775119X-0.060984X0*%
G04 APERTURE END LIST*
D10*
X213145901Y-80928024D02*
X214103449Y-81008431D01*
X215056789Y-81128866D01*
X216004250Y-81289117D01*
X216944169Y-81488903D01*
X217874898Y-81727873D01*
X218794803Y-82005609D01*
X219702271Y-82321623D01*
X220595709Y-82675360D01*
X221473551Y-83066201D01*
X222334256Y-83493458D01*
X223176315Y-83956384D01*
X223998249Y-84454165D01*
X224798618Y-84985929D01*
X225576016Y-85550742D01*
X226329081Y-86147614D01*
X227056491Y-86775497D01*
X227756969Y-87433290D01*
X228429288Y-88119840D01*
X229072268Y-88833940D01*
X229684779Y-89574340D01*
X230265749Y-90339740D01*
X230814158Y-91128796D01*
X231329043Y-91940126D01*
X231809502Y-92772305D01*
X232254691Y-93623873D01*
X232663830Y-94493337D01*
X233036201Y-95379172D01*
X233371150Y-96279823D01*
X233668089Y-97193709D01*
X233926499Y-98119229D01*
X234145926Y-99054758D01*
X234325984Y-99998655D01*
X234466357Y-100949264D01*
X234566801Y-101904918D01*
X234627137Y-102863939D01*
X234647261Y-103824646D01*
X234627137Y-104785353D01*
X234566801Y-105744374D01*
X234466357Y-106700028D01*
X234325984Y-107650637D01*
X234145926Y-108594534D01*
X233926499Y-109530063D01*
X233668089Y-110455583D01*
X233371150Y-111369469D01*
X233036201Y-112270120D01*
X232663830Y-113155955D01*
X232254691Y-114025419D01*
X231809502Y-114876987D01*
X231329043Y-115709166D01*
X230814158Y-116520496D01*
X230265749Y-117309552D01*
X229684779Y-118074952D01*
X229072268Y-118815352D01*
X228429288Y-119529452D01*
X227756969Y-120216002D01*
X227056491Y-120873795D01*
X226329081Y-121501678D01*
X225576016Y-122098550D01*
X224798618Y-122663363D01*
X223998249Y-123195127D01*
X223176315Y-123692908D01*
X222334256Y-124155834D01*
X221473551Y-124583091D01*
X220595709Y-124973932D01*
X219702271Y-125327669D01*
X218794803Y-125643683D01*
X217874898Y-125921419D01*
X216944169Y-126160389D01*
X216004250Y-126360175D01*
X215809012Y-126393197D01*
X215809012Y-115299759D01*
X215997201Y-115232613D01*
X216634953Y-114963096D01*
X216717550Y-114922487D01*
X216918042Y-115734608D01*
X217215032Y-116749325D01*
X217883260Y-118296150D01*
X218440117Y-119174746D01*
X219071221Y-120078091D01*
X219788948Y-120931938D01*
X220556173Y-121723913D01*
X221360521Y-122379766D01*
X222090623Y-122862375D01*
X223105339Y-123431607D01*
X222820724Y-122911874D01*
X222461860Y-122429264D01*
X221979251Y-121575417D01*
X221620388Y-120771069D01*
X221471893Y-119805850D01*
X221509017Y-114658019D01*
X221385271Y-113643302D01*
X221001658Y-112739956D01*
X220533067Y-112162789D01*
X220514195Y-112149549D01*
X220530352Y-112132923D01*
X220983754Y-111609670D01*
X221406544Y-111061385D01*
X221491488Y-110937160D01*
X221498162Y-110942827D01*
X221928074Y-111372739D01*
X222806670Y-112040968D01*
X223672892Y-112696821D01*
X224427742Y-113241303D01*
X225479583Y-113897157D01*
X226531423Y-114379766D01*
X227669886Y-114726255D01*
X228585606Y-114936623D01*
X229637447Y-115010870D01*
X231468887Y-115085118D01*
X231110024Y-114936623D01*
X230243802Y-114503512D01*
X229513701Y-114082776D01*
X228647479Y-113389798D01*
X228102997Y-112659697D01*
X227570890Y-111941971D01*
X227212026Y-111286117D01*
X226791290Y-110469394D01*
X226407678Y-109751667D01*
X225986941Y-109009192D01*
X225318713Y-108019224D01*
X224761856Y-107499491D01*
X224106003Y-106880761D01*
X223413183Y-106649822D01*
X223544255Y-106002954D01*
X223642789Y-105317638D01*
X223675550Y-104936217D01*
X223683656Y-104937893D01*
X224944470Y-105286117D01*
X226639789Y-105508860D01*
X228619724Y-105558358D01*
X230092301Y-105323241D01*
X231280262Y-105051000D01*
X232208357Y-104729260D01*
X233111703Y-104246651D01*
X233878927Y-103788791D01*
X234237791Y-103504175D01*
X233544813Y-103504175D01*
X232901334Y-103590798D01*
X231849494Y-103652671D01*
X230946148Y-103467052D01*
X229721063Y-103033941D01*
X228842467Y-102501833D01*
X227617382Y-101784107D01*
X226379923Y-101066380D01*
X225303333Y-100521898D01*
X224523733Y-100299155D01*
X223682261Y-100286781D01*
X223174902Y-100299155D01*
X223159924Y-100302350D01*
X223016795Y-99861845D01*
X222978658Y-99763891D01*
X222969160Y-99763891D01*
X222902014Y-99575702D01*
X222632497Y-98937950D01*
X222591888Y-98855353D01*
X223404009Y-98654861D01*
X224418726Y-98357871D01*
X225965551Y-97689643D01*
X226844147Y-97132786D01*
X227747492Y-96501682D01*
X228601339Y-95783955D01*
X229393314Y-95016730D01*
X230049167Y-94212382D01*
X230531776Y-93482280D01*
X231101008Y-92467564D01*
X230581275Y-92752179D01*
X230098665Y-93111043D01*
X229244818Y-93593652D01*
X228440470Y-93952515D01*
X227475251Y-94101010D01*
X222327420Y-94063886D01*
X221312703Y-94187632D01*
X220409357Y-94571245D01*
X219832190Y-95039836D01*
X219818950Y-95058708D01*
X219802324Y-95042551D01*
X219279071Y-94589149D01*
X218730786Y-94166359D01*
X218606561Y-94081415D01*
X218612228Y-94074741D01*
X219042140Y-93644829D01*
X219710369Y-92766233D01*
X220366222Y-91900011D01*
X220910704Y-91145161D01*
X221566558Y-90093320D01*
X222049167Y-89041480D01*
X222395656Y-87903017D01*
X222606024Y-86987297D01*
X222680271Y-85935456D01*
X222754519Y-84104016D01*
X222606024Y-84462879D01*
X222172913Y-85329101D01*
X221752177Y-86059202D01*
X221059199Y-86925424D01*
X220329098Y-87469906D01*
X219611372Y-88002013D01*
X218955518Y-88360877D01*
X218138795Y-88781613D01*
X217421068Y-89165225D01*
X216678593Y-89585962D01*
X215688625Y-90254190D01*
X215168892Y-90811047D01*
X214550162Y-91466900D01*
X214319223Y-92159720D01*
X213672355Y-92028648D01*
X212987039Y-91930114D01*
X212605618Y-91897353D01*
X212607294Y-91889247D01*
X212955518Y-90628433D01*
X213178261Y-88933114D01*
X213227759Y-86953179D01*
X212992642Y-85480602D01*
X212720401Y-84292641D01*
X212398661Y-83364546D01*
X211916052Y-82461200D01*
X211458192Y-81693976D01*
X211173576Y-81335112D01*
X211173576Y-82028090D01*
X211260199Y-82671569D01*
X211322072Y-83723409D01*
X211136453Y-84626755D01*
X210703342Y-85851840D01*
X210171234Y-86730436D01*
X209453508Y-87955521D01*
X208735781Y-89192980D01*
X208191299Y-90269570D01*
X207968556Y-91049170D01*
X207956182Y-91890642D01*
X207968556Y-92398001D01*
X207971751Y-92412979D01*
X207531246Y-92556108D01*
X206970898Y-92774272D01*
X206970898Y-81381704D01*
X207406486Y-81289117D01*
X208353947Y-81128866D01*
X209307287Y-81008431D01*
X210264835Y-80928024D01*
X211224909Y-80887785D01*
X212185827Y-80887785D01*
X213145901Y-80928024D01*
G36*
X213145901Y-80928024D02*
G01*
X214103449Y-81008431D01*
X215056789Y-81128866D01*
X216004250Y-81289117D01*
X216944169Y-81488903D01*
X217874898Y-81727873D01*
X218794803Y-82005609D01*
X219702271Y-82321623D01*
X220595709Y-82675360D01*
X221473551Y-83066201D01*
X222334256Y-83493458D01*
X223176315Y-83956384D01*
X223998249Y-84454165D01*
X224798618Y-84985929D01*
X225576016Y-85550742D01*
X226329081Y-86147614D01*
X227056491Y-86775497D01*
X227756969Y-87433290D01*
X228429288Y-88119840D01*
X229072268Y-88833940D01*
X229684779Y-89574340D01*
X230265749Y-90339740D01*
X230814158Y-91128796D01*
X231329043Y-91940126D01*
X231809502Y-92772305D01*
X232254691Y-93623873D01*
X232663830Y-94493337D01*
X233036201Y-95379172D01*
X233371150Y-96279823D01*
X233668089Y-97193709D01*
X233926499Y-98119229D01*
X234145926Y-99054758D01*
X234325984Y-99998655D01*
X234466357Y-100949264D01*
X234566801Y-101904918D01*
X234627137Y-102863939D01*
X234647261Y-103824646D01*
X234627137Y-104785353D01*
X234566801Y-105744374D01*
X234466357Y-106700028D01*
X234325984Y-107650637D01*
X234145926Y-108594534D01*
X233926499Y-109530063D01*
X233668089Y-110455583D01*
X233371150Y-111369469D01*
X233036201Y-112270120D01*
X232663830Y-113155955D01*
X232254691Y-114025419D01*
X231809502Y-114876987D01*
X231329043Y-115709166D01*
X230814158Y-116520496D01*
X230265749Y-117309552D01*
X229684779Y-118074952D01*
X229072268Y-118815352D01*
X228429288Y-119529452D01*
X227756969Y-120216002D01*
X227056491Y-120873795D01*
X226329081Y-121501678D01*
X225576016Y-122098550D01*
X224798618Y-122663363D01*
X223998249Y-123195127D01*
X223176315Y-123692908D01*
X222334256Y-124155834D01*
X221473551Y-124583091D01*
X220595709Y-124973932D01*
X219702271Y-125327669D01*
X218794803Y-125643683D01*
X217874898Y-125921419D01*
X216944169Y-126160389D01*
X216004250Y-126360175D01*
X215809012Y-126393197D01*
X215809012Y-115299759D01*
X215997201Y-115232613D01*
X216634953Y-114963096D01*
X216717550Y-114922487D01*
X216918042Y-115734608D01*
X217215032Y-116749325D01*
X217883260Y-118296150D01*
X218440117Y-119174746D01*
X219071221Y-120078091D01*
X219788948Y-120931938D01*
X220556173Y-121723913D01*
X221360521Y-122379766D01*
X222090623Y-122862375D01*
X223105339Y-123431607D01*
X222820724Y-122911874D01*
X222461860Y-122429264D01*
X221979251Y-121575417D01*
X221620388Y-120771069D01*
X221471893Y-119805850D01*
X221509017Y-114658019D01*
X221385271Y-113643302D01*
X221001658Y-112739956D01*
X220533067Y-112162789D01*
X220514195Y-112149549D01*
X220530352Y-112132923D01*
X220983754Y-111609670D01*
X221406544Y-111061385D01*
X221491488Y-110937160D01*
X221498162Y-110942827D01*
X221928074Y-111372739D01*
X222806670Y-112040968D01*
X223672892Y-112696821D01*
X224427742Y-113241303D01*
X225479583Y-113897157D01*
X226531423Y-114379766D01*
X227669886Y-114726255D01*
X228585606Y-114936623D01*
X229637447Y-115010870D01*
X231468887Y-115085118D01*
X231110024Y-114936623D01*
X230243802Y-114503512D01*
X229513701Y-114082776D01*
X228647479Y-113389798D01*
X228102997Y-112659697D01*
X227570890Y-111941971D01*
X227212026Y-111286117D01*
X226791290Y-110469394D01*
X226407678Y-109751667D01*
X225986941Y-109009192D01*
X225318713Y-108019224D01*
X224761856Y-107499491D01*
X224106003Y-106880761D01*
X223413183Y-106649822D01*
X223544255Y-106002954D01*
X223642789Y-105317638D01*
X223675550Y-104936217D01*
X223683656Y-104937893D01*
X224944470Y-105286117D01*
X226639789Y-105508860D01*
X228619724Y-105558358D01*
X230092301Y-105323241D01*
X231280262Y-105051000D01*
X232208357Y-104729260D01*
X233111703Y-104246651D01*
X233878927Y-103788791D01*
X234237791Y-103504175D01*
X233544813Y-103504175D01*
X232901334Y-103590798D01*
X231849494Y-103652671D01*
X230946148Y-103467052D01*
X229721063Y-103033941D01*
X228842467Y-102501833D01*
X227617382Y-101784107D01*
X226379923Y-101066380D01*
X225303333Y-100521898D01*
X224523733Y-100299155D01*
X223682261Y-100286781D01*
X223174902Y-100299155D01*
X223159924Y-100302350D01*
X223016795Y-99861845D01*
X222978658Y-99763891D01*
X222969160Y-99763891D01*
X222902014Y-99575702D01*
X222632497Y-98937950D01*
X222591888Y-98855353D01*
X223404009Y-98654861D01*
X224418726Y-98357871D01*
X225965551Y-97689643D01*
X226844147Y-97132786D01*
X227747492Y-96501682D01*
X228601339Y-95783955D01*
X229393314Y-95016730D01*
X230049167Y-94212382D01*
X230531776Y-93482280D01*
X231101008Y-92467564D01*
X230581275Y-92752179D01*
X230098665Y-93111043D01*
X229244818Y-93593652D01*
X228440470Y-93952515D01*
X227475251Y-94101010D01*
X222327420Y-94063886D01*
X221312703Y-94187632D01*
X220409357Y-94571245D01*
X219832190Y-95039836D01*
X219818950Y-95058708D01*
X219802324Y-95042551D01*
X219279071Y-94589149D01*
X218730786Y-94166359D01*
X218606561Y-94081415D01*
X218612228Y-94074741D01*
X219042140Y-93644829D01*
X219710369Y-92766233D01*
X220366222Y-91900011D01*
X220910704Y-91145161D01*
X221566558Y-90093320D01*
X222049167Y-89041480D01*
X222395656Y-87903017D01*
X222606024Y-86987297D01*
X222680271Y-85935456D01*
X222754519Y-84104016D01*
X222606024Y-84462879D01*
X222172913Y-85329101D01*
X221752177Y-86059202D01*
X221059199Y-86925424D01*
X220329098Y-87469906D01*
X219611372Y-88002013D01*
X218955518Y-88360877D01*
X218138795Y-88781613D01*
X217421068Y-89165225D01*
X216678593Y-89585962D01*
X215688625Y-90254190D01*
X215168892Y-90811047D01*
X214550162Y-91466900D01*
X214319223Y-92159720D01*
X213672355Y-92028648D01*
X212987039Y-91930114D01*
X212605618Y-91897353D01*
X212607294Y-91889247D01*
X212955518Y-90628433D01*
X213178261Y-88933114D01*
X213227759Y-86953179D01*
X212992642Y-85480602D01*
X212720401Y-84292641D01*
X212398661Y-83364546D01*
X211916052Y-82461200D01*
X211458192Y-81693976D01*
X211173576Y-81335112D01*
X211173576Y-82028090D01*
X211260199Y-82671569D01*
X211322072Y-83723409D01*
X211136453Y-84626755D01*
X210703342Y-85851840D01*
X210171234Y-86730436D01*
X209453508Y-87955521D01*
X208735781Y-89192980D01*
X208191299Y-90269570D01*
X207968556Y-91049170D01*
X207956182Y-91890642D01*
X207968556Y-92398001D01*
X207971751Y-92412979D01*
X207531246Y-92556108D01*
X206970898Y-92774272D01*
X206970898Y-81381704D01*
X207406486Y-81289117D01*
X208353947Y-81128866D01*
X209307287Y-81008431D01*
X210264835Y-80928024D01*
X211224909Y-80887785D01*
X212185827Y-80887785D01*
X213145901Y-80928024D01*
G37*
D11*
X223107720Y-103824646D02*
G75*
G02*
X200303016Y-103824646I-11402352J0D01*
G01*
X200303016Y-103824646D02*
G75*
G02*
X223107720Y-103824646I11402352J0D01*
G01*
D10*
X207500000Y-92501738D02*
X207311811Y-92568884D01*
X206674059Y-92838401D01*
X206591462Y-92879010D01*
X206390970Y-92066889D01*
X206093980Y-91052172D01*
X205425752Y-89505347D01*
X204868895Y-88626751D01*
X204237791Y-87723406D01*
X203520064Y-86869559D01*
X202752839Y-86077584D01*
X201948491Y-85421731D01*
X201218389Y-84939122D01*
X200203673Y-84369890D01*
X200488288Y-84889623D01*
X200847152Y-85372233D01*
X201329761Y-86226080D01*
X201688624Y-87030428D01*
X201837119Y-87995647D01*
X201799995Y-93143478D01*
X201923741Y-94158195D01*
X202307354Y-95061541D01*
X202775945Y-95638708D01*
X202794817Y-95651948D01*
X202778660Y-95668574D01*
X202325258Y-96191827D01*
X201902468Y-96740112D01*
X201817524Y-96864337D01*
X201810850Y-96858670D01*
X201380938Y-96428758D01*
X200502342Y-95760529D01*
X199636120Y-95104676D01*
X198881270Y-94560194D01*
X197829429Y-93904340D01*
X196777589Y-93421731D01*
X195639126Y-93075242D01*
X194723406Y-92864874D01*
X193671565Y-92790627D01*
X191840125Y-92716379D01*
X192198988Y-92864874D01*
X193065210Y-93297985D01*
X193795311Y-93718721D01*
X194661533Y-94411699D01*
X195206015Y-95141800D01*
X195738122Y-95859526D01*
X196096986Y-96515380D01*
X196517722Y-97332103D01*
X196901334Y-98049830D01*
X197322071Y-98792305D01*
X197990299Y-99782273D01*
X198547156Y-100302006D01*
X199203009Y-100920736D01*
X199895829Y-101151675D01*
X199764757Y-101798543D01*
X199666223Y-102483859D01*
X199633462Y-102865280D01*
X199625356Y-102863604D01*
X198364542Y-102515380D01*
X196669223Y-102292637D01*
X194689288Y-102243139D01*
X193216711Y-102478256D01*
X192028750Y-102750497D01*
X191100655Y-103072237D01*
X190197309Y-103554846D01*
X189430085Y-104012706D01*
X189071221Y-104297322D01*
X189764199Y-104297322D01*
X190407678Y-104210699D01*
X191459518Y-104148826D01*
X192362864Y-104334445D01*
X193587949Y-104767556D01*
X194466545Y-105299664D01*
X195691630Y-106017390D01*
X196929089Y-106735117D01*
X198005679Y-107279599D01*
X198785279Y-107502342D01*
X199626751Y-107514716D01*
X200134110Y-107502342D01*
X200149088Y-107499147D01*
X200292217Y-107939652D01*
X200330354Y-108037606D01*
X200339852Y-108037606D01*
X200406998Y-108225795D01*
X200676515Y-108863547D01*
X200717124Y-108946144D01*
X199905003Y-109146636D01*
X198890286Y-109443626D01*
X197343461Y-110111854D01*
X196464865Y-110668711D01*
X195561520Y-111299815D01*
X194707673Y-112017542D01*
X193915698Y-112784767D01*
X193259845Y-113589115D01*
X192777236Y-114319217D01*
X192208004Y-115333933D01*
X192727737Y-115049318D01*
X193210347Y-114690454D01*
X194064194Y-114207845D01*
X194868542Y-113848982D01*
X195833761Y-113700487D01*
X200981592Y-113737611D01*
X201996309Y-113613865D01*
X202899655Y-113230252D01*
X203476822Y-112761661D01*
X203490062Y-112742789D01*
X203506688Y-112758946D01*
X204029941Y-113212348D01*
X204578226Y-113635138D01*
X204702451Y-113720082D01*
X204696784Y-113726756D01*
X204266872Y-114156668D01*
X203598643Y-115035264D01*
X202942790Y-115901486D01*
X202398308Y-116656336D01*
X201742454Y-117708177D01*
X201259845Y-118760017D01*
X200913356Y-119898480D01*
X200702988Y-120814200D01*
X200628741Y-121866041D01*
X200554493Y-123697481D01*
X200702988Y-123338618D01*
X201136099Y-122472396D01*
X201556835Y-121742295D01*
X202249813Y-120876073D01*
X202979914Y-120331591D01*
X203697640Y-119799484D01*
X204353494Y-119440620D01*
X205170217Y-119019884D01*
X205887944Y-118636272D01*
X206630419Y-118215535D01*
X207620387Y-117547307D01*
X208140120Y-116990450D01*
X208758850Y-116334597D01*
X208989789Y-115641777D01*
X209636657Y-115772849D01*
X210321973Y-115871383D01*
X210703394Y-115904144D01*
X210701718Y-115912250D01*
X210353494Y-117173064D01*
X210130751Y-118868383D01*
X210081253Y-120848318D01*
X210316370Y-122320895D01*
X210588611Y-123508856D01*
X210910351Y-124436951D01*
X211392960Y-125340297D01*
X211850820Y-126107521D01*
X212135436Y-126466385D01*
X212135436Y-125773407D01*
X212048813Y-125129928D01*
X211986940Y-124078088D01*
X212172559Y-123174742D01*
X212605670Y-121949657D01*
X213137778Y-121071061D01*
X213855504Y-119845976D01*
X214573231Y-118608517D01*
X215117713Y-117531927D01*
X215340456Y-116752327D01*
X215352830Y-115910855D01*
X215340456Y-115403496D01*
X215337261Y-115388518D01*
X215777766Y-115245389D01*
X216338114Y-115027225D01*
X216338114Y-126289209D01*
X216004250Y-126360175D01*
X215056789Y-126520426D01*
X214103449Y-126640861D01*
X213145901Y-126721268D01*
X212185827Y-126761507D01*
X211224909Y-126761507D01*
X210264835Y-126721268D01*
X209307287Y-126640861D01*
X208353947Y-126520426D01*
X207406486Y-126360175D01*
X206466567Y-126160389D01*
X205535838Y-125921419D01*
X204615933Y-125643683D01*
X203708465Y-125327669D01*
X202815027Y-124973932D01*
X201937185Y-124583091D01*
X201076480Y-124155834D01*
X200234422Y-123692908D01*
X199412487Y-123195127D01*
X198612118Y-122663363D01*
X197834720Y-122098550D01*
X197081655Y-121501678D01*
X196354245Y-120873795D01*
X195653767Y-120216002D01*
X194981448Y-119529452D01*
X194338468Y-118815352D01*
X193725957Y-118074952D01*
X193144987Y-117309552D01*
X192596578Y-116520496D01*
X192081693Y-115709166D01*
X191601234Y-114876987D01*
X191156045Y-114025419D01*
X190746906Y-113155955D01*
X190374535Y-112270120D01*
X190039586Y-111369469D01*
X189742647Y-110455583D01*
X189484237Y-109530063D01*
X189264810Y-108594534D01*
X189084752Y-107650637D01*
X188944379Y-106700028D01*
X188843935Y-105744374D01*
X188783599Y-104785353D01*
X188763475Y-103824646D01*
X188783599Y-102863939D01*
X188843935Y-101904918D01*
X188944379Y-100949264D01*
X189084752Y-99998655D01*
X189264810Y-99054758D01*
X189484237Y-98119229D01*
X189742647Y-97193709D01*
X190039586Y-96279823D01*
X190374535Y-95379172D01*
X190746906Y-94493337D01*
X191156045Y-93623873D01*
X191601234Y-92772305D01*
X192081693Y-91940126D01*
X192596578Y-91128796D01*
X193144987Y-90339740D01*
X193725957Y-89574340D01*
X194338468Y-88833940D01*
X194981448Y-88119840D01*
X195653767Y-87433290D01*
X196354245Y-86775497D01*
X197081655Y-86147614D01*
X197834720Y-85550742D01*
X198612118Y-84985929D01*
X199412487Y-84454165D01*
X200234421Y-83956384D01*
X201076480Y-83493458D01*
X201937185Y-83066201D01*
X202815027Y-82675360D01*
X203708465Y-82321623D01*
X204615933Y-82005609D01*
X205535838Y-81727873D01*
X206466567Y-81488903D01*
X207406486Y-81289117D01*
X207500000Y-81273300D01*
X207500000Y-92501738D01*
G36*
X207500000Y-92501738D02*
G01*
X207311811Y-92568884D01*
X206674059Y-92838401D01*
X206591462Y-92879010D01*
X206390970Y-92066889D01*
X206093980Y-91052172D01*
X205425752Y-89505347D01*
X204868895Y-88626751D01*
X204237791Y-87723406D01*
X203520064Y-86869559D01*
X202752839Y-86077584D01*
X201948491Y-85421731D01*
X201218389Y-84939122D01*
X200203673Y-84369890D01*
X200488288Y-84889623D01*
X200847152Y-85372233D01*
X201329761Y-86226080D01*
X201688624Y-87030428D01*
X201837119Y-87995647D01*
X201799995Y-93143478D01*
X201923741Y-94158195D01*
X202307354Y-95061541D01*
X202775945Y-95638708D01*
X202794817Y-95651948D01*
X202778660Y-95668574D01*
X202325258Y-96191827D01*
X201902468Y-96740112D01*
X201817524Y-96864337D01*
X201810850Y-96858670D01*
X201380938Y-96428758D01*
X200502342Y-95760529D01*
X199636120Y-95104676D01*
X198881270Y-94560194D01*
X197829429Y-93904340D01*
X196777589Y-93421731D01*
X195639126Y-93075242D01*
X194723406Y-92864874D01*
X193671565Y-92790627D01*
X191840125Y-92716379D01*
X192198988Y-92864874D01*
X193065210Y-93297985D01*
X193795311Y-93718721D01*
X194661533Y-94411699D01*
X195206015Y-95141800D01*
X195738122Y-95859526D01*
X196096986Y-96515380D01*
X196517722Y-97332103D01*
X196901334Y-98049830D01*
X197322071Y-98792305D01*
X197990299Y-99782273D01*
X198547156Y-100302006D01*
X199203009Y-100920736D01*
X199895829Y-101151675D01*
X199764757Y-101798543D01*
X199666223Y-102483859D01*
X199633462Y-102865280D01*
X199625356Y-102863604D01*
X198364542Y-102515380D01*
X196669223Y-102292637D01*
X194689288Y-102243139D01*
X193216711Y-102478256D01*
X192028750Y-102750497D01*
X191100655Y-103072237D01*
X190197309Y-103554846D01*
X189430085Y-104012706D01*
X189071221Y-104297322D01*
X189764199Y-104297322D01*
X190407678Y-104210699D01*
X191459518Y-104148826D01*
X192362864Y-104334445D01*
X193587949Y-104767556D01*
X194466545Y-105299664D01*
X195691630Y-106017390D01*
X196929089Y-106735117D01*
X198005679Y-107279599D01*
X198785279Y-107502342D01*
X199626751Y-107514716D01*
X200134110Y-107502342D01*
X200149088Y-107499147D01*
X200292217Y-107939652D01*
X200330354Y-108037606D01*
X200339852Y-108037606D01*
X200406998Y-108225795D01*
X200676515Y-108863547D01*
X200717124Y-108946144D01*
X199905003Y-109146636D01*
X198890286Y-109443626D01*
X197343461Y-110111854D01*
X196464865Y-110668711D01*
X195561520Y-111299815D01*
X194707673Y-112017542D01*
X193915698Y-112784767D01*
X193259845Y-113589115D01*
X192777236Y-114319217D01*
X192208004Y-115333933D01*
X192727737Y-115049318D01*
X193210347Y-114690454D01*
X194064194Y-114207845D01*
X194868542Y-113848982D01*
X195833761Y-113700487D01*
X200981592Y-113737611D01*
X201996309Y-113613865D01*
X202899655Y-113230252D01*
X203476822Y-112761661D01*
X203490062Y-112742789D01*
X203506688Y-112758946D01*
X204029941Y-113212348D01*
X204578226Y-113635138D01*
X204702451Y-113720082D01*
X204696784Y-113726756D01*
X204266872Y-114156668D01*
X203598643Y-115035264D01*
X202942790Y-115901486D01*
X202398308Y-116656336D01*
X201742454Y-117708177D01*
X201259845Y-118760017D01*
X200913356Y-119898480D01*
X200702988Y-120814200D01*
X200628741Y-121866041D01*
X200554493Y-123697481D01*
X200702988Y-123338618D01*
X201136099Y-122472396D01*
X201556835Y-121742295D01*
X202249813Y-120876073D01*
X202979914Y-120331591D01*
X203697640Y-119799484D01*
X204353494Y-119440620D01*
X205170217Y-119019884D01*
X205887944Y-118636272D01*
X206630419Y-118215535D01*
X207620387Y-117547307D01*
X208140120Y-116990450D01*
X208758850Y-116334597D01*
X208989789Y-115641777D01*
X209636657Y-115772849D01*
X210321973Y-115871383D01*
X210703394Y-115904144D01*
X210701718Y-115912250D01*
X210353494Y-117173064D01*
X210130751Y-118868383D01*
X210081253Y-120848318D01*
X210316370Y-122320895D01*
X210588611Y-123508856D01*
X210910351Y-124436951D01*
X211392960Y-125340297D01*
X211850820Y-126107521D01*
X212135436Y-126466385D01*
X212135436Y-125773407D01*
X212048813Y-125129928D01*
X211986940Y-124078088D01*
X212172559Y-123174742D01*
X212605670Y-121949657D01*
X213137778Y-121071061D01*
X213855504Y-119845976D01*
X214573231Y-118608517D01*
X215117713Y-117531927D01*
X215340456Y-116752327D01*
X215352830Y-115910855D01*
X215340456Y-115403496D01*
X215337261Y-115388518D01*
X215777766Y-115245389D01*
X216338114Y-115027225D01*
X216338114Y-126289209D01*
X216004250Y-126360175D01*
X215056789Y-126520426D01*
X214103449Y-126640861D01*
X213145901Y-126721268D01*
X212185827Y-126761507D01*
X211224909Y-126761507D01*
X210264835Y-126721268D01*
X209307287Y-126640861D01*
X208353947Y-126520426D01*
X207406486Y-126360175D01*
X206466567Y-126160389D01*
X205535838Y-125921419D01*
X204615933Y-125643683D01*
X203708465Y-125327669D01*
X202815027Y-124973932D01*
X201937185Y-124583091D01*
X201076480Y-124155834D01*
X200234422Y-123692908D01*
X199412487Y-123195127D01*
X198612118Y-122663363D01*
X197834720Y-122098550D01*
X197081655Y-121501678D01*
X196354245Y-120873795D01*
X195653767Y-120216002D01*
X194981448Y-119529452D01*
X194338468Y-118815352D01*
X193725957Y-118074952D01*
X193144987Y-117309552D01*
X192596578Y-116520496D01*
X192081693Y-115709166D01*
X191601234Y-114876987D01*
X191156045Y-114025419D01*
X190746906Y-113155955D01*
X190374535Y-112270120D01*
X190039586Y-111369469D01*
X189742647Y-110455583D01*
X189484237Y-109530063D01*
X189264810Y-108594534D01*
X189084752Y-107650637D01*
X188944379Y-106700028D01*
X188843935Y-105744374D01*
X188783599Y-104785353D01*
X188763475Y-103824646D01*
X188783599Y-102863939D01*
X188843935Y-101904918D01*
X188944379Y-100949264D01*
X189084752Y-99998655D01*
X189264810Y-99054758D01*
X189484237Y-98119229D01*
X189742647Y-97193709D01*
X190039586Y-96279823D01*
X190374535Y-95379172D01*
X190746906Y-94493337D01*
X191156045Y-93623873D01*
X191601234Y-92772305D01*
X192081693Y-91940126D01*
X192596578Y-91128796D01*
X193144987Y-90339740D01*
X193725957Y-89574340D01*
X194338468Y-88833940D01*
X194981448Y-88119840D01*
X195653767Y-87433290D01*
X196354245Y-86775497D01*
X197081655Y-86147614D01*
X197834720Y-85550742D01*
X198612118Y-84985929D01*
X199412487Y-84454165D01*
X200234421Y-83956384D01*
X201076480Y-83493458D01*
X201937185Y-83066201D01*
X202815027Y-82675360D01*
X203708465Y-82321623D01*
X204615933Y-82005609D01*
X205535838Y-81727873D01*
X206466567Y-81488903D01*
X207406486Y-81289117D01*
X207500000Y-81273300D01*
X207500000Y-92501738D01*
G37*
D12*
X218459038Y-103797951D02*
X218649847Y-102816324D01*
X218649847Y-102816324D02*
X218883568Y-102861755D01*
X218883568Y-102861755D02*
X219014714Y-102935757D01*
X219014714Y-102935757D02*
X219090030Y-103047418D01*
X219090030Y-103047418D02*
X219118602Y-103149992D01*
X219118602Y-103149992D02*
X219129002Y-103346055D01*
X219129002Y-103346055D02*
X219101743Y-103486287D01*
X219101743Y-103486287D02*
X219018654Y-103664178D01*
X219018654Y-103664178D02*
X218953738Y-103748580D01*
X218953738Y-103748580D02*
X218842077Y-103823896D01*
X218842077Y-103823896D02*
X218692759Y-103843382D01*
X218692759Y-103843382D02*
X218459038Y-103797951D01*
X219566558Y-103091535D02*
X219622388Y-103053877D01*
X219622388Y-103053877D02*
X219724963Y-103025305D01*
X219724963Y-103025305D02*
X219958683Y-103070736D01*
X219958683Y-103070736D02*
X220043085Y-103135652D01*
X220043085Y-103135652D02*
X220080743Y-103191483D01*
X220080743Y-103191483D02*
X220109315Y-103294057D01*
X220109315Y-103294057D02*
X220091143Y-103387545D01*
X220091143Y-103387545D02*
X220017140Y-103518692D01*
X220017140Y-103518692D02*
X219347177Y-103970588D01*
X219347177Y-103970588D02*
X219954851Y-104088708D01*
X206636007Y-97093105D02*
X207569587Y-96734737D01*
X207569587Y-96734737D02*
X207654913Y-96957018D01*
X207654913Y-96957018D02*
X207661652Y-97107452D01*
X207661652Y-97107452D02*
X207606870Y-97230495D01*
X207606870Y-97230495D02*
X207535023Y-97309081D01*
X207535023Y-97309081D02*
X207374263Y-97421798D01*
X207374263Y-97421798D02*
X207240894Y-97472994D01*
X207240894Y-97472994D02*
X207046004Y-97496798D01*
X207046004Y-97496798D02*
X206940027Y-97486472D01*
X206940027Y-97486472D02*
X206816984Y-97431690D01*
X206816984Y-97431690D02*
X206721333Y-97315386D01*
X206721333Y-97315386D02*
X206636007Y-97093105D01*
X207893825Y-97579405D02*
X208115672Y-98157336D01*
X208115672Y-98157336D02*
X207640566Y-97982664D01*
X207640566Y-97982664D02*
X207691762Y-98116032D01*
X207691762Y-98116032D02*
X207681436Y-98222010D01*
X207681436Y-98222010D02*
X207654045Y-98283531D01*
X207654045Y-98283531D02*
X207582197Y-98362118D01*
X207582197Y-98362118D02*
X207359916Y-98447443D01*
X207359916Y-98447443D02*
X207253939Y-98437118D01*
X207253939Y-98437118D02*
X207192417Y-98409726D01*
X207192417Y-98409726D02*
X207113831Y-98337879D01*
X207113831Y-98337879D02*
X207011440Y-98071142D01*
X207011440Y-98071142D02*
X207021766Y-97965164D01*
X207021766Y-97965164D02*
X207049157Y-97903643D01*
X205387824Y-109021818D02*
X204633114Y-108365759D01*
X204633114Y-108365759D02*
X204789319Y-108186066D01*
X204789319Y-108186066D02*
X204918980Y-108109491D01*
X204918980Y-108109491D02*
X205053339Y-108100096D01*
X205053339Y-108100096D02*
X205156457Y-108126639D01*
X205156457Y-108126639D02*
X205331452Y-108215664D01*
X205331452Y-108215664D02*
X205439268Y-108309387D01*
X205439268Y-108309387D02*
X205551781Y-108470289D01*
X205551781Y-108470289D02*
X205592417Y-108568710D01*
X205592417Y-108568710D02*
X205601813Y-108703069D01*
X205601813Y-108703069D02*
X205544029Y-108842125D01*
X205544029Y-108842125D02*
X205387824Y-109021818D01*
X206387533Y-107871784D02*
X206012642Y-108303047D01*
X206200088Y-108087415D02*
X205445378Y-107431356D01*
X205445378Y-107431356D02*
X205490712Y-107596956D01*
X205490712Y-107596956D02*
X205500107Y-107731315D01*
X205500107Y-107731315D02*
X205473564Y-107834433D01*
D13*
%TO.C,D2*%
X216291713Y-105923640D02*
X220277119Y-106698325D01*
X216724850Y-103695347D02*
X216291713Y-105923640D01*
X220710256Y-104470032D02*
X216724850Y-103695347D01*
%TO.C,D3*%
X207391240Y-95879972D02*
X208846214Y-99670309D01*
X208846214Y-99670309D02*
X210965442Y-98856814D01*
X210965442Y-98856814D02*
X209510468Y-95066475D01*
%TO.C,D1*%
X206690718Y-111319484D02*
X209354317Y-108255364D01*
X207641125Y-106766110D02*
X204977526Y-109830231D01*
X209354317Y-108255364D02*
X207641125Y-106766110D01*
%TD*%
%LPC*%
D14*
X211500000Y-81600000D02*
X211957860Y-82367224D01*
X212440469Y-83270570D01*
X212762209Y-84198665D01*
X213034450Y-85386626D01*
X213269567Y-86859203D01*
X213220069Y-88839138D01*
X212997326Y-90534457D01*
X212649102Y-91795271D01*
X212647426Y-91803377D01*
X213028847Y-91836138D01*
X213714163Y-91934672D01*
X214361031Y-92065744D01*
X214591970Y-91372924D01*
X215210700Y-90717071D01*
X215730433Y-90160214D01*
X216720401Y-89491986D01*
X217462876Y-89071249D01*
X218180603Y-88687637D01*
X218997326Y-88266901D01*
X219653180Y-87908037D01*
X220370906Y-87375930D01*
X221101007Y-86831448D01*
X221793985Y-85965226D01*
X222214721Y-85235125D01*
X222647832Y-84368903D01*
X222796327Y-84010040D01*
X222722079Y-85841480D01*
X222647832Y-86893321D01*
X222437464Y-87809041D01*
X222090975Y-88947504D01*
X221608366Y-89999344D01*
X220952512Y-91051185D01*
X220408030Y-91806035D01*
X219752177Y-92672257D01*
X219083948Y-93550853D01*
X218654036Y-93980765D01*
X218648369Y-93987439D01*
X218772594Y-94072383D01*
X219320879Y-94495173D01*
X219844132Y-94948575D01*
X219860758Y-94964732D01*
X219873998Y-94945860D01*
X220451165Y-94477269D01*
X221354511Y-94093656D01*
X222369228Y-93969910D01*
X227517059Y-94007034D01*
X228482278Y-93858539D01*
X229286626Y-93499676D01*
X230140473Y-93017067D01*
X230623083Y-92658203D01*
X231142816Y-92373588D01*
X230573584Y-93388304D01*
X230090975Y-94118406D01*
X229435122Y-94922754D01*
X228643147Y-95689979D01*
X227789300Y-96407706D01*
X226885955Y-97038810D01*
X226007359Y-97595667D01*
X224460534Y-98263895D01*
X223445817Y-98560885D01*
X222633696Y-98761377D01*
X222674305Y-98843974D01*
X222943822Y-99481726D01*
X223010968Y-99669915D01*
X223020466Y-99669915D01*
X223058603Y-99767869D01*
X223201732Y-100208374D01*
X223216710Y-100205179D01*
X223724069Y-100192805D01*
X224565541Y-100205179D01*
X225345141Y-100427922D01*
X226421731Y-100972404D01*
X227659190Y-101690131D01*
X228884275Y-102407857D01*
X229762871Y-102939965D01*
X230987956Y-103373076D01*
X231891302Y-103558695D01*
X232943142Y-103496822D01*
X233586621Y-103410199D01*
X234279599Y-103410199D01*
X233920735Y-103694815D01*
X233153511Y-104152675D01*
X232250165Y-104635284D01*
X231322070Y-104957024D01*
X230134109Y-105229265D01*
X228661532Y-105464382D01*
X226681597Y-105414884D01*
X224986278Y-105192141D01*
X223725464Y-104843917D01*
X223717358Y-104842241D01*
X223684597Y-105223662D01*
X223586063Y-105908978D01*
X223454991Y-106555846D01*
X224147811Y-106786785D01*
X224803664Y-107405515D01*
X225360521Y-107925248D01*
X226028749Y-108915216D01*
X226449486Y-109657691D01*
X226833098Y-110375418D01*
X227253834Y-111192141D01*
X227612698Y-111847995D01*
X228144805Y-112565721D01*
X228689287Y-113295822D01*
X229555509Y-113988800D01*
X230285610Y-114409536D01*
X231151832Y-114842647D01*
X231510695Y-114991142D01*
X229679255Y-114916894D01*
X228627414Y-114842647D01*
X227711694Y-114632279D01*
X226573231Y-114285790D01*
X225521391Y-113803181D01*
X224469550Y-113147327D01*
X223714700Y-112602845D01*
X222848478Y-111946992D01*
X221969882Y-111278763D01*
X221539970Y-110848851D01*
X221533296Y-110843184D01*
X221448352Y-110967409D01*
X221025562Y-111515694D01*
X220572160Y-112038947D01*
X220556003Y-112055573D01*
X220574875Y-112068813D01*
X221043466Y-112645980D01*
X221427079Y-113549326D01*
X221550825Y-114564043D01*
X221513701Y-119711874D01*
X221662196Y-120677093D01*
X222021059Y-121481441D01*
X222503668Y-122335288D01*
X222862532Y-122817898D01*
X223147147Y-123337631D01*
X222132431Y-122768399D01*
X221402329Y-122285790D01*
X220597981Y-121629937D01*
X219830756Y-120837962D01*
X219113029Y-119984115D01*
X218481925Y-119080770D01*
X217925068Y-118202174D01*
X217256840Y-116655349D01*
X216959850Y-115640632D01*
X216759358Y-114828511D01*
X216006114Y-115090378D01*
X215379069Y-115294542D01*
X215385633Y-115447671D01*
X215394638Y-115816879D01*
X215382264Y-116658351D01*
X215159521Y-117437951D01*
X214615039Y-118514541D01*
X213897312Y-119752000D01*
X213179586Y-120977085D01*
X212647478Y-121855681D01*
X212214367Y-123080766D01*
X212028748Y-123984112D01*
X212090621Y-125035952D01*
X212177244Y-125679431D01*
X212177244Y-126372409D01*
X211892628Y-126013545D01*
X211434768Y-125246321D01*
X210952159Y-124342975D01*
X210630419Y-123414880D01*
X210358178Y-122226919D01*
X210123061Y-120754342D01*
X210172559Y-118774407D01*
X210395302Y-117079088D01*
X210743526Y-115818274D01*
X210745202Y-115810168D01*
X210363781Y-115777407D01*
X209678465Y-115678873D01*
X209031597Y-115547801D01*
X208800658Y-116240621D01*
X208181928Y-116896474D01*
X207662195Y-117453331D01*
X206672227Y-118121559D01*
X205929752Y-118542296D01*
X205212025Y-118925908D01*
X204395302Y-119346644D01*
X203739448Y-119705508D01*
X203021722Y-120237615D01*
X202291621Y-120782097D01*
X201598643Y-121648319D01*
X201177907Y-122378420D01*
X200744796Y-123244642D01*
X200596301Y-123603505D01*
X200670549Y-121772065D01*
X200744796Y-120720224D01*
X200955164Y-119804504D01*
X201301653Y-118666041D01*
X201784262Y-117614201D01*
X202440116Y-116562360D01*
X202984598Y-115807510D01*
X203640451Y-114941288D01*
X204308680Y-114062692D01*
X204738592Y-113632780D01*
X204744259Y-113626106D01*
X204620034Y-113541162D01*
X204071749Y-113118372D01*
X203548496Y-112664970D01*
X203531870Y-112648813D01*
X203518630Y-112667685D01*
X202941463Y-113136276D01*
X202038117Y-113519889D01*
X201023400Y-113643635D01*
X195875569Y-113606511D01*
X194910350Y-113755006D01*
X194106002Y-114113869D01*
X193252155Y-114596478D01*
X192769545Y-114955342D01*
X192249812Y-115239957D01*
X192819044Y-114225241D01*
X193301653Y-113495139D01*
X193957506Y-112690791D01*
X194749481Y-111923566D01*
X195603328Y-111205839D01*
X196506673Y-110574735D01*
X197385269Y-110017878D01*
X198932094Y-109349650D01*
X199946811Y-109052660D01*
X200758932Y-108852168D01*
X200718323Y-108769571D01*
X200448806Y-108131819D01*
X200381660Y-107943630D01*
X200372162Y-107943630D01*
X200334025Y-107845676D01*
X200190896Y-107405171D01*
X200175918Y-107408366D01*
X199668559Y-107420740D01*
X198827087Y-107408366D01*
X198047487Y-107185623D01*
X196970897Y-106641141D01*
X195733438Y-105923414D01*
X194508353Y-105205688D01*
X193629757Y-104673580D01*
X192404672Y-104240469D01*
X191501326Y-104054850D01*
X190449486Y-104116723D01*
X189806007Y-104203346D01*
X189113029Y-104203346D01*
X189471893Y-103918730D01*
X190239117Y-103460870D01*
X191142463Y-102978261D01*
X192070558Y-102656521D01*
X193258519Y-102384280D01*
X194731096Y-102149163D01*
X196711031Y-102198661D01*
X198406350Y-102421404D01*
X199667164Y-102769628D01*
X199675270Y-102771304D01*
X199708031Y-102389883D01*
X199806565Y-101704567D01*
X199937637Y-101057699D01*
X199244817Y-100826760D01*
X198588964Y-100208030D01*
X198032107Y-99688297D01*
X197363879Y-98698329D01*
X196943142Y-97955854D01*
X196559530Y-97238127D01*
X196138794Y-96421404D01*
X195779930Y-95765550D01*
X195247823Y-95047824D01*
X194703341Y-94317723D01*
X193837119Y-93624745D01*
X193107018Y-93204009D01*
X192240796Y-92770898D01*
X191881933Y-92622403D01*
X193713373Y-92696651D01*
X194765214Y-92770898D01*
X195680934Y-92981266D01*
X196819397Y-93327755D01*
X197871237Y-93810364D01*
X198923078Y-94466218D01*
X199677928Y-95010700D01*
X200544150Y-95666553D01*
X201422746Y-96334782D01*
X201852658Y-96764694D01*
X201859332Y-96770361D01*
X201944276Y-96646136D01*
X202367066Y-96097851D01*
X202820468Y-95574598D01*
X202836625Y-95557972D01*
X202817753Y-95544732D01*
X202349162Y-94967565D01*
X201965549Y-94064219D01*
X201841803Y-93049502D01*
X201878927Y-87901671D01*
X201730432Y-86936452D01*
X201371569Y-86132104D01*
X200888960Y-85278257D01*
X200530096Y-84795647D01*
X200245481Y-84275914D01*
X201260197Y-84845146D01*
X201990299Y-85327755D01*
X202794647Y-85983608D01*
X203561872Y-86775583D01*
X204279599Y-87629430D01*
X204910703Y-88532775D01*
X205467560Y-89411371D01*
X206135788Y-90958196D01*
X206432778Y-91972913D01*
X206633270Y-92785034D01*
X207334055Y-92512118D01*
X208013559Y-92319003D01*
X208006886Y-92161444D01*
X207997990Y-91796666D01*
X208010364Y-90955194D01*
X208233107Y-90175594D01*
X208777589Y-89099004D01*
X209495316Y-87861545D01*
X210213042Y-86636460D01*
X210745150Y-85757864D01*
X211178261Y-84532779D01*
X211363880Y-83629433D01*
X211302007Y-82577593D01*
X211215384Y-81934114D01*
X211215384Y-81241136D01*
X211500000Y-81600000D01*
D15*
%TO.C,D2*%
X217462913Y-104995054D03*
X220383255Y-105562714D03*
%TD*%
D16*
%TO.C,D3*%
X209557315Y-98355655D03*
X208491171Y-95578253D03*
%TD*%
D17*
%TO.C,D1*%
X207859703Y-108244691D03*
X205907929Y-110489953D03*
%TD*%
%LPD*%
M02*
