%TF.GenerationSoftware,KiCad,Pcbnew,9.0.7*%
%TF.CreationDate,2026-04-20T21:53:37-03:00*%
%TF.ProjectId,Sao_SUN,53616f5f-5355-44e2-9e6b-696361645f70,rev?*%
%TF.SameCoordinates,Original*%
%TF.FileFunction,Copper,L2,Bot*%
%TF.FilePolarity,Positive*%
%FSLAX46Y46*%
G04 Gerber Fmt 4.6, Leading zero omitted, Abs format (unit mm)*
G04 Created by KiCad (PCBNEW 9.0.7) date 2026-04-20 21:53:37*
%MOMM*%
%LPD*%
G01*
G04 APERTURE LIST*
G04 Aperture macros list*
%AMRoundRect*
0 Rectangle with rounded corners*
0 $1 Rounding radius*
0 $2 $3 $4 $5 $6 $7 $8 $9 X,Y pos of 4 corners*
0 Add a 4 corners polygon primitive as box body*
4,1,4,$2,$3,$4,$5,$6,$7,$8,$9,$2,$3,0*
0 Add four circle primitives for the rounded corners*
1,1,$1+$1,$2,$3*
1,1,$1+$1,$4,$5*
1,1,$1+$1,$6,$7*
1,1,$1+$1,$8,$9*
0 Add four rect primitives between the rounded corners*
20,1,$1+$1,$2,$3,$4,$5,0*
20,1,$1+$1,$4,$5,$6,$7,0*
20,1,$1+$1,$6,$7,$8,$9,0*
20,1,$1+$1,$8,$9,$2,$3,0*%
G04 Aperture macros list end*
%TA.AperFunction,Conductor*%
%ADD10C,0.200000*%
%TD*%
%TA.AperFunction,SMDPad,CuDef*%
%ADD11RoundRect,0.250000X0.209270X-0.711921X0.734117X-0.108153X-0.209270X0.711921X-0.734117X0.108153X0*%
%TD*%
%TA.AperFunction,SMDPad,CuDef*%
%ADD12RoundRect,0.250000X0.511906X0.537193X-0.273395X0.689841X-0.511906X-0.537193X0.273395X-0.689841X0*%
%TD*%
%TA.AperFunction,SMDPad,CuDef*%
%ADD13R,1.041400X3.200400*%
%TD*%
%TA.AperFunction,SMDPad,CuDef*%
%ADD14RoundRect,0.250000X-0.726835X0.149452X-0.440141X-0.597412X0.726835X-0.149452X0.440141X0.597412X0*%
%TD*%
%TA.AperFunction,ViaPad*%
%ADD15C,0.600000*%
%TD*%
G04 APERTURE END LIST*
D10*
%TO.N,+3.3V*%
X226378896Y-103824646D02*
G75*
G02*
X197031840Y-103824646I-14673528J0D01*
G01*
X197031840Y-103824646D02*
G75*
G02*
X226378896Y-103824646I14673528J0D01*
G01*
%TD*%
D11*
%TO.P,R1,1*%
%TO.N,+3.3V*%
X202120216Y-114982415D03*
%TO.P,R1,2*%
%TO.N,Net-(D1-A)*%
X204153998Y-112642815D03*
%TD*%
D12*
%TO.P,R2,1*%
%TO.N,+3.3V*%
X226149842Y-106721571D03*
%TO.P,R2,2*%
%TO.N,Net-(D2-A)*%
X223106798Y-106130063D03*
%TD*%
D13*
%TO.P,J1,1,GPIO1*%
%TO.N,unconnected-(J1-GPIO1-Pad1)*%
X214245368Y-101299647D03*
%TO.P,J1,2,GPIO2*%
%TO.N,unconnected-(J1-GPIO2-Pad2)*%
X214245368Y-106349645D03*
%TO.P,J1,3,SDA*%
%TO.N,unconnected-(J1-SDA-Pad3)*%
X211705368Y-101299647D03*
%TO.P,J1,4,SCL*%
%TO.N,unconnected-(J1-SCL-Pad4)*%
X211705368Y-106349645D03*
%TO.P,J1,5,3V3*%
%TO.N,+3.3V*%
X209165368Y-101299647D03*
%TO.P,J1,6,GND*%
%TO.N,GND*%
X209165368Y-106349645D03*
%TD*%
D14*
%TO.P,R3,1*%
%TO.N,+3.3V*%
X206384199Y-90128794D03*
%TO.P,R3,2*%
%TO.N,Net-(D3-A)*%
X207495139Y-93022894D03*
%TD*%
D15*
%TO.N,GND*%
X211662372Y-103824745D03*
%TO.N,Net-(D1-A)*%
X204980091Y-111565054D03*
%TO.N,Net-(D2-A)*%
X221769323Y-105885115D03*
%TO.N,Net-(D3-A)*%
X207987117Y-94274651D03*
%TD*%
D10*
%TO.N,GND*%
X209165368Y-106321749D02*
X211662372Y-103824745D01*
X209165368Y-106349645D02*
X209165368Y-106321749D01*
%TO.N,Net-(D1-A)*%
X204980091Y-111816722D02*
X204153998Y-112642815D01*
X204980091Y-111565054D02*
X204980091Y-111816722D01*
%TO.N,Net-(D2-A)*%
X221769323Y-105885115D02*
X222861850Y-105885115D01*
X222861850Y-105885115D02*
X223106798Y-106130063D01*
%TO.N,+3.3V*%
X209165368Y-101299647D02*
X199556839Y-101299647D01*
X199556839Y-101299647D02*
X197031840Y-103824646D01*
%TO.N,Net-(D3-A)*%
X207987117Y-93514872D02*
X207495139Y-93022894D01*
X207987117Y-94274651D02*
X207987117Y-93514872D01*
%TD*%
M02*
