%TF.GenerationSoftware,KiCad,Pcbnew,9.0.7*%
%TF.CreationDate,2026-04-20T21:55:25-03:00*%
%TF.ProjectId,Sao_robotplant,53616f5f-726f-4626-9f74-706c616e742e,rev?*%
%TF.SameCoordinates,Original*%
%TF.FileFunction,Profile,NP*%
%FSLAX46Y46*%
G04 Gerber Fmt 4.6, Leading zero omitted, Abs format (unit mm)*
G04 Created by KiCad (PCBNEW 9.0.7) date 2026-04-20 21:55:25*
%MOMM*%
%LPD*%
G01*
G04 APERTURE LIST*
%TA.AperFunction,Profile*%
%ADD10C,0.100000*%
%TD*%
G04 APERTURE END LIST*
D10*
X242666071Y-38289209D02*
X242831250Y-38402806D01*
X242831250Y-39299643D01*
X243012525Y-39328265D01*
X243112704Y-39452296D01*
X243119566Y-39814847D01*
X243923736Y-39934898D01*
X245308484Y-40589229D01*
X245841918Y-41050067D01*
X245841079Y-41623986D01*
X246669726Y-42011073D01*
X247202893Y-42315985D01*
X247628398Y-42665404D01*
X248034756Y-43174900D01*
X248247794Y-43462333D01*
X248513526Y-43899397D01*
X248680350Y-44228535D01*
X248860699Y-44656865D01*
X249036540Y-45215949D01*
X249089230Y-45556635D01*
X249082301Y-54360618D01*
X249097518Y-54604090D01*
X249812044Y-54864267D01*
X250284444Y-55075817D01*
X250765643Y-55418843D01*
X251014860Y-55714931D01*
X251245824Y-56013997D01*
X251303983Y-56369263D01*
X251334417Y-56962726D01*
X251623540Y-57008377D01*
X251943097Y-57586623D01*
X251927880Y-60234382D01*
X251973531Y-61801733D01*
X252566995Y-61040883D01*
X253190956Y-60663726D01*
X253906091Y-60416986D01*
X254692367Y-60460832D01*
X255351706Y-60766977D01*
X255781229Y-61150670D01*
X256127773Y-61619129D01*
X256371246Y-62516932D01*
X257649474Y-65195125D01*
X258356564Y-67246383D01*
X258701482Y-69173870D01*
X258701482Y-70614413D01*
X251784051Y-75456510D01*
X250099947Y-75762833D01*
X249127361Y-75361832D01*
X227762687Y-71435845D01*
X226621412Y-71390194D01*
X226712714Y-69358724D01*
X227190016Y-67342389D01*
X227899641Y-65341435D01*
X229177869Y-62625200D01*
X229868208Y-61451718D01*
X230429547Y-61133851D01*
X231112621Y-61012115D01*
X231761880Y-61100036D01*
X232309692Y-61390849D01*
X232979240Y-62046871D01*
X233377762Y-62602374D01*
X233195158Y-58356830D01*
X233400587Y-57854669D01*
X233883243Y-57207402D01*
X233887752Y-56409355D01*
X234012585Y-56026582D01*
X234648318Y-55458480D01*
X235662785Y-54917431D01*
X236027993Y-54815984D01*
X236000000Y-45500000D01*
X236019349Y-44865208D01*
X236071762Y-44454348D01*
X236154611Y-44222712D01*
X236343978Y-43871031D01*
X236680442Y-43328290D01*
X237155552Y-42795696D01*
X237745633Y-42293534D01*
X238406727Y-41923254D01*
X239096565Y-41605388D01*
X239099946Y-41076174D01*
X239891230Y-40467493D01*
X241093374Y-39934898D01*
X241710204Y-39833929D01*
X241714974Y-39447526D01*
X241839005Y-39337806D01*
X242029821Y-39299643D01*
X242025051Y-38407576D01*
X242193801Y-38284439D01*
X242432321Y-38251046D01*
X242666071Y-38289209D01*
M02*
