%TF.GenerationSoftware,KiCad,Pcbnew,9.0.7*%
%TF.CreationDate,2026-04-20T21:55:25-03:00*%
%TF.ProjectId,Sao_robotplant,53616f5f-726f-4626-9f74-706c616e742e,rev?*%
%TF.SameCoordinates,Original*%
%TF.FileFunction,Legend,Top*%
%TF.FilePolarity,Positive*%
%FSLAX46Y46*%
G04 Gerber Fmt 4.6, Leading zero omitted, Abs format (unit mm)*
G04 Created by KiCad (PCBNEW 9.0.7) date 2026-04-20 21:55:25*
%MOMM*%
%LPD*%
G01*
G04 APERTURE LIST*
%ADD10C,0.100000*%
%ADD11C,0.200000*%
%ADD12C,0.150000*%
%ADD13C,0.120000*%
%ADD14C,1.000000*%
%ADD15R,1.800000X1.800000*%
%ADD16C,1.800000*%
%ADD17C,1.400000*%
%ADD18O,1.400000X1.400000*%
G04 APERTURE END LIST*
D10*
X244000000Y-45000000D02*
X244031607Y-45341096D01*
D11*
X240151154Y-52848826D02*
X241349830Y-54346650D01*
D10*
X232968086Y-62854209D02*
X233306785Y-63417117D01*
D11*
X246584682Y-51285918D02*
X246393656Y-51514116D01*
D10*
X255050102Y-61929337D02*
X254749566Y-61757602D01*
X252152984Y-62259394D02*
X251895382Y-62677997D01*
X243063520Y-44247792D02*
X243349744Y-44290726D01*
X243857793Y-44419527D01*
X243884738Y-44545443D01*
X243326894Y-44680192D01*
X243117703Y-44862057D01*
X242898941Y-44641351D01*
X242176224Y-44498239D01*
X241711109Y-44362282D01*
X241847066Y-44276415D01*
X242254936Y-44197703D01*
X243063520Y-44247792D01*
X238287729Y-46362551D02*
X238540561Y-46066786D01*
D11*
X243923736Y-39934898D02*
X245308484Y-40589229D01*
X245841918Y-41050067D01*
X245841079Y-41623986D01*
X246669726Y-42011073D01*
X247202893Y-42315985D01*
X247628398Y-42665404D01*
X248034756Y-43174900D01*
X248247794Y-43462333D01*
X248513526Y-43899397D01*
X248680350Y-44228535D01*
X248860699Y-44656865D01*
X249036540Y-45215949D01*
X249089230Y-45556635D01*
X249082301Y-54360618D01*
X249097518Y-54604090D01*
X249812044Y-54864267D01*
X250284444Y-55075817D01*
X250765643Y-55418843D01*
X251014860Y-55714931D01*
X251245824Y-56013997D01*
X251303983Y-56369263D01*
X251334417Y-56962726D01*
X251623540Y-57008377D01*
X251943097Y-57586623D01*
X251927880Y-60234382D01*
X251973531Y-61801733D01*
X252566995Y-61040883D01*
X253190956Y-60663726D01*
X253906091Y-60416986D01*
X254692367Y-60460832D01*
X255351706Y-60766977D01*
X255781229Y-61150670D01*
X256127773Y-61619129D01*
X256371246Y-62516932D01*
X257649474Y-65195125D01*
X258356564Y-67246383D01*
X258701482Y-69173870D01*
X258701482Y-70614413D01*
X257314611Y-70767423D01*
X255671175Y-69839185D01*
X253510360Y-68180532D01*
X252609329Y-66899316D01*
X252636381Y-66189189D01*
X253190301Y-65820771D01*
X252710775Y-65627851D01*
X252277281Y-65341435D01*
X251872149Y-64910961D01*
X251703072Y-64572805D01*
X251655730Y-64268465D01*
X251642204Y-63964125D01*
X250976227Y-63949079D01*
X250542542Y-64086032D01*
X251032875Y-64556635D01*
X251323689Y-65117973D01*
X251546871Y-66017467D01*
X251560398Y-67072513D01*
X251425135Y-67884086D01*
X251136006Y-68194623D01*
X251318610Y-69769583D01*
X251706643Y-72805376D01*
X251784051Y-75456510D01*
X250099947Y-75762833D01*
X249127361Y-75361832D01*
X247666529Y-72485819D01*
X246685032Y-69792409D01*
X248336566Y-69012115D01*
X247924017Y-68836274D01*
X247254468Y-69072983D01*
X246720182Y-69086509D01*
X246322862Y-68884379D01*
X245971180Y-68444776D01*
X245727708Y-68066042D01*
X245524815Y-67565572D01*
X245389552Y-66909550D01*
X245423368Y-66172370D01*
X243877495Y-66163153D01*
X243284032Y-66551187D01*
X242846622Y-66726946D01*
X242352915Y-66794577D01*
X241534578Y-66679604D01*
X237326574Y-66003375D01*
X236908609Y-65671900D01*
X236901846Y-65002352D01*
X234108178Y-64496891D01*
X233469064Y-64314287D01*
X233172332Y-64770798D01*
X233182134Y-65198482D01*
X233026582Y-65570453D01*
X232783110Y-65908609D01*
X232343508Y-66212949D01*
X231815985Y-66422605D01*
X232578869Y-66802268D01*
X232647346Y-67441382D01*
X231894104Y-68537006D01*
X229748507Y-70111966D01*
X228812661Y-70796731D01*
X227762687Y-71435845D01*
X226621412Y-71390194D01*
X226712714Y-69358724D01*
X227190016Y-67342389D01*
X227899641Y-65341435D01*
X229177869Y-62625200D01*
X229868208Y-61451718D01*
X230429547Y-61133851D01*
X231112621Y-61012115D01*
X231761880Y-61100036D01*
X232309692Y-61390849D01*
X232979240Y-62046871D01*
X233377762Y-62602374D01*
X233195158Y-58356830D01*
X233400587Y-57854669D01*
X233883243Y-57207402D01*
X233887752Y-56409355D01*
X234012585Y-56026582D01*
X234648318Y-55458480D01*
X235662785Y-54917431D01*
X236027993Y-54815984D01*
X236000000Y-45500000D01*
X236019349Y-44865208D01*
X236071762Y-44454348D01*
X236154611Y-44222712D01*
X236343978Y-43871031D01*
X236680442Y-43328290D01*
X237155552Y-42795696D01*
X237745633Y-42293534D01*
X238406727Y-41923254D01*
X239096565Y-41605388D01*
X239099946Y-41076174D01*
X239891230Y-40467493D01*
X241093374Y-39934898D01*
X241723316Y-39936395D01*
X242000000Y-39987279D01*
X242403895Y-40009541D01*
X242842772Y-39977738D01*
X243128997Y-39904592D01*
X243923736Y-39934898D01*
D10*
X243361481Y-48545231D02*
X243280914Y-48809546D01*
D11*
X246245982Y-47108233D02*
X246396250Y-47505369D01*
X246610918Y-47537569D01*
X247093922Y-47634170D01*
X247254923Y-47891772D01*
X247093922Y-48095707D01*
X247104655Y-48235242D01*
X247276390Y-48621645D01*
X247126122Y-48889980D01*
X246761186Y-48857780D01*
X246374783Y-48728979D01*
X246203048Y-48514310D01*
X245730778Y-48621645D01*
X245548310Y-48525044D01*
X245398042Y-48181574D01*
X245473176Y-47902506D01*
X245000905Y-47612703D01*
X245054572Y-47226300D01*
X245344375Y-47097499D01*
X245752245Y-47355101D01*
X245709311Y-47172633D01*
X245720044Y-46904298D01*
X245945446Y-46754030D01*
X246245982Y-47108233D01*
D10*
X245036964Y-45301429D02*
X245246862Y-45601964D01*
X245315076Y-45959259D01*
X245281683Y-46436300D01*
X245181504Y-46636657D01*
X245089439Y-46245969D01*
X244898623Y-45959745D01*
X244784133Y-45773699D01*
X244736429Y-45415918D01*
X244688725Y-45115383D01*
X245036964Y-45301429D01*
X238825612Y-45961545D02*
X239226859Y-46031803D01*
X239231671Y-46228087D01*
X238723622Y-46392666D01*
X238444553Y-46814847D01*
X238294286Y-47344362D01*
X237943661Y-46850625D01*
X237893571Y-46285332D01*
X238258508Y-45805906D01*
X238616310Y-45575142D01*
X238825612Y-45961545D01*
D11*
X245840289Y-52274201D02*
X244518189Y-53971378D01*
X243267143Y-51910952D02*
X243001792Y-52669037D01*
D10*
X230039056Y-62410561D02*
X230454081Y-62210204D01*
X243947731Y-44697484D02*
X243985894Y-44931234D01*
X244377067Y-45107739D01*
X244548802Y-45122050D01*
X244601277Y-45389193D01*
X244620358Y-45794678D01*
X244377067Y-45952101D01*
X243943648Y-46180689D01*
X243728980Y-45870612D01*
X243457066Y-45822908D01*
X243280561Y-45727500D01*
X243208317Y-44936004D01*
X243375282Y-44797662D01*
X243780766Y-44678402D01*
X243947731Y-44697484D01*
X247573341Y-48655637D02*
X247654438Y-49228086D01*
X247668750Y-49762372D01*
X247463622Y-49738520D01*
X247120153Y-49395051D01*
X246934107Y-49027729D01*
X247182168Y-48898928D01*
X247263265Y-48627015D01*
X247239413Y-48283545D01*
X247573341Y-48655637D01*
D11*
X242584081Y-50258482D02*
X242495760Y-51125091D01*
X241836301Y-51464215D02*
X242061702Y-52977627D01*
D10*
X232638928Y-62448724D02*
X232968086Y-62854209D01*
X240275790Y-51702142D02*
X240752832Y-51864337D01*
X239720499Y-52445346D02*
X239903306Y-52646057D01*
D11*
X247300243Y-50441557D02*
X247433815Y-50785026D01*
X247882233Y-50708699D01*
X248111212Y-51099872D01*
X247820218Y-51362245D01*
X247576927Y-51324082D01*
X247600779Y-51753419D01*
X247047412Y-51777271D01*
X246813662Y-51319312D01*
X246584682Y-51285918D01*
X246117181Y-51219133D01*
X245988380Y-50861352D01*
X246432028Y-50737321D01*
X246117181Y-50622832D01*
X246222131Y-50288903D01*
X246427259Y-50169643D01*
X246727794Y-50265051D01*
X246765958Y-50059924D01*
X247052182Y-49983597D01*
X247300243Y-50441557D01*
D10*
X242736047Y-50691867D02*
X242675268Y-50956183D01*
X244952295Y-45317244D02*
X245076326Y-45713188D01*
X252689655Y-61797857D02*
X252152984Y-62259394D01*
D11*
X240000921Y-44544734D02*
X240242423Y-44850637D01*
X240757627Y-44770136D01*
X241160131Y-44931137D01*
X241160131Y-45237040D01*
X240983029Y-45462441D01*
X240741527Y-45542942D01*
X240934729Y-45945445D01*
X240870328Y-46347948D01*
X240355124Y-46412349D01*
X239984821Y-46106446D01*
X239984821Y-46396249D01*
X239759420Y-46991954D01*
X239163715Y-46863153D01*
X239195915Y-46460649D01*
X239308616Y-45961545D01*
X238825612Y-45961545D01*
X238616310Y-45575142D01*
X238857812Y-45365841D01*
X239469617Y-45398041D01*
X239598418Y-44673535D01*
X239743319Y-44335432D01*
X240000921Y-44544734D01*
D10*
X242446812Y-51108470D02*
X242387295Y-51896237D01*
X232262066Y-62234056D02*
X232638928Y-62448724D01*
D11*
X240353306Y-46421291D02*
X241043817Y-47911315D01*
D10*
X243725994Y-44459158D02*
X243034286Y-44382832D01*
X247410952Y-49105646D02*
X247455280Y-49353010D01*
X245480306Y-51105841D02*
X245947806Y-51530408D01*
X246510365Y-51448752D02*
X246366193Y-51629675D01*
X245972257Y-50944540D02*
X246279949Y-51273699D01*
X246408750Y-51810369D01*
X246365816Y-52282640D01*
X246122525Y-52347040D01*
X245406964Y-51996415D01*
X244913227Y-51524145D01*
X244898915Y-51488367D01*
X245120739Y-51481211D01*
X245392653Y-51166364D01*
X245449898Y-50880140D01*
X245750433Y-50830051D01*
X245972257Y-50944540D01*
X243952601Y-47949617D02*
X244744489Y-47940076D01*
X244830357Y-48102270D01*
X244868520Y-48698571D01*
X244677704Y-49247168D01*
X244324693Y-49609719D01*
X243804719Y-49266249D01*
X243427857Y-48746275D01*
X243270433Y-48264464D01*
X243299056Y-47930535D01*
X243709311Y-47806505D01*
X243952601Y-47949617D01*
X244031607Y-45341096D02*
X243921887Y-45655943D01*
X247221530Y-48794872D02*
X247410952Y-49105646D01*
X241220931Y-51617168D02*
X241571556Y-52218239D01*
X241399821Y-52368507D01*
X240648482Y-52468686D01*
X239847053Y-52461530D01*
X239310382Y-52382818D01*
X239474961Y-52146683D01*
X239460650Y-51731658D01*
X240269234Y-51731658D01*
X240305012Y-51423966D01*
X240770127Y-51330943D01*
X241220931Y-51617168D01*
D11*
X243791594Y-51999107D02*
X244480325Y-50977627D01*
X243791594Y-51999107D02*
X243297857Y-53008048D01*
D10*
X230454081Y-62210204D02*
X231050382Y-62095714D01*
X238740918Y-45885510D02*
X238551484Y-46056903D01*
D11*
X242671735Y-49743458D02*
X242584081Y-50258482D01*
X241776360Y-49503769D02*
X242244171Y-51635950D01*
D10*
X253183392Y-61593922D02*
X253690536Y-61550089D01*
D11*
X249810168Y-54868000D02*
X250282568Y-55079550D01*
X250763767Y-55422576D01*
X251012984Y-55718664D01*
X251243948Y-56017730D01*
X251302107Y-56372996D01*
X251332541Y-56966459D01*
X251621664Y-57012110D01*
X251941221Y-57590356D01*
X251926004Y-60238115D01*
X251971655Y-61805466D01*
X251862426Y-62283843D01*
X251561964Y-62720229D01*
X250767885Y-63421308D01*
X250016729Y-63857693D01*
X249179727Y-64065155D01*
X248886419Y-64244002D01*
X248478649Y-64494387D01*
X248972265Y-64988004D01*
X249337112Y-65553159D01*
X249644728Y-66075391D01*
X250560423Y-66039621D01*
X251134130Y-68198356D01*
X251316734Y-69773316D01*
X251704767Y-72809109D01*
X251782175Y-75460243D01*
X250098071Y-75766566D01*
X249125485Y-75365565D01*
X247664653Y-72489552D01*
X246683156Y-69796142D01*
X248442879Y-68958398D01*
X248285494Y-68672243D01*
X248614572Y-68021242D01*
X248628880Y-67406009D01*
X248585957Y-66290007D01*
X248421418Y-65925160D01*
X247813339Y-64716157D01*
X247212415Y-64487233D01*
X246642138Y-64561447D01*
X246642146Y-64561251D01*
X246167951Y-64623157D01*
X245681488Y-64995157D01*
X243735637Y-65081004D01*
X243778561Y-66204160D01*
X243282156Y-66554920D01*
X242844746Y-66730679D01*
X242351039Y-66798310D01*
X241532702Y-66683337D01*
X237324698Y-66007108D01*
X236906733Y-65675633D01*
X236896544Y-64544464D01*
X235193925Y-63986463D01*
X233405459Y-62977768D01*
X233373269Y-62277285D01*
X237621729Y-62277285D01*
X237641017Y-62510057D01*
X237698355Y-62736480D01*
X237792179Y-62950376D01*
X237919929Y-63145913D01*
X238078122Y-63317756D01*
X238262441Y-63461218D01*
X238467860Y-63572384D01*
X238688774Y-63648224D01*
X238919158Y-63686669D01*
X239152728Y-63686669D01*
X239223965Y-63687046D01*
X246675692Y-63693228D01*
X246644324Y-64508779D01*
X246678452Y-63686669D01*
X246795237Y-63686669D01*
X247025621Y-63648224D01*
X247246535Y-63572384D01*
X247451954Y-63461218D01*
X247636273Y-63317756D01*
X247794466Y-63145913D01*
X247922216Y-62950376D01*
X248016040Y-62736480D01*
X248073378Y-62510057D01*
X248092666Y-62277285D01*
X248073378Y-62044513D01*
X248016040Y-61818090D01*
X247922216Y-61604194D01*
X247794466Y-61408657D01*
X247636273Y-61236814D01*
X247451954Y-61093352D01*
X247246535Y-60982186D01*
X247025621Y-60906346D01*
X246795237Y-60867901D01*
X246561667Y-60867901D01*
X246520436Y-60866834D01*
X239213035Y-60866834D01*
X239152728Y-60867901D01*
X238919158Y-60867901D01*
X238688774Y-60906346D01*
X238467860Y-60982186D01*
X238262441Y-61093352D01*
X238078122Y-61236814D01*
X237919929Y-61408657D01*
X237792179Y-61604194D01*
X237698355Y-61818090D01*
X237641017Y-62044513D01*
X237621729Y-62277285D01*
X233373269Y-62277285D01*
X233193282Y-58360563D01*
X233398711Y-57858402D01*
X233881367Y-57211135D01*
X233885876Y-56413088D01*
X234010709Y-56030315D01*
X234646442Y-55462213D01*
X235660909Y-54921164D01*
X236025943Y-54761859D01*
X236028780Y-56406945D01*
X236071704Y-56836176D01*
X236447281Y-57179562D01*
X237123321Y-57576601D01*
X237895939Y-57780486D01*
X239741635Y-58080949D01*
X242596027Y-58220449D01*
X244677801Y-58113141D01*
X246555690Y-57780486D01*
X248111655Y-57329793D01*
X248744772Y-57029331D01*
X249163273Y-56567907D01*
X249158496Y-54630709D01*
X249810168Y-54868000D01*
G36*
X249810168Y-54868000D02*
G01*
X250282568Y-55079550D01*
X250763767Y-55422576D01*
X251012984Y-55718664D01*
X251243948Y-56017730D01*
X251302107Y-56372996D01*
X251332541Y-56966459D01*
X251621664Y-57012110D01*
X251941221Y-57590356D01*
X251926004Y-60238115D01*
X251971655Y-61805466D01*
X251862426Y-62283843D01*
X251561964Y-62720229D01*
X250767885Y-63421308D01*
X250016729Y-63857693D01*
X249179727Y-64065155D01*
X248886419Y-64244002D01*
X248478649Y-64494387D01*
X248972265Y-64988004D01*
X249337112Y-65553159D01*
X249644728Y-66075391D01*
X250560423Y-66039621D01*
X251134130Y-68198356D01*
X251316734Y-69773316D01*
X251704767Y-72809109D01*
X251782175Y-75460243D01*
X250098071Y-75766566D01*
X249125485Y-75365565D01*
X247664653Y-72489552D01*
X246683156Y-69796142D01*
X248442879Y-68958398D01*
X248285494Y-68672243D01*
X248614572Y-68021242D01*
X248628880Y-67406009D01*
X248585957Y-66290007D01*
X248421418Y-65925160D01*
X247813339Y-64716157D01*
X247212415Y-64487233D01*
X246642138Y-64561447D01*
X246642146Y-64561251D01*
X246167951Y-64623157D01*
X245681488Y-64995157D01*
X243735637Y-65081004D01*
X243778561Y-66204160D01*
X243282156Y-66554920D01*
X242844746Y-66730679D01*
X242351039Y-66798310D01*
X241532702Y-66683337D01*
X237324698Y-66007108D01*
X236906733Y-65675633D01*
X236896544Y-64544464D01*
X235193925Y-63986463D01*
X233405459Y-62977768D01*
X233373269Y-62277285D01*
X237621729Y-62277285D01*
X237641017Y-62510057D01*
X237698355Y-62736480D01*
X237792179Y-62950376D01*
X237919929Y-63145913D01*
X238078122Y-63317756D01*
X238262441Y-63461218D01*
X238467860Y-63572384D01*
X238688774Y-63648224D01*
X238919158Y-63686669D01*
X239152728Y-63686669D01*
X239223965Y-63687046D01*
X246675692Y-63693228D01*
X246644324Y-64508779D01*
X246678452Y-63686669D01*
X246795237Y-63686669D01*
X247025621Y-63648224D01*
X247246535Y-63572384D01*
X247451954Y-63461218D01*
X247636273Y-63317756D01*
X247794466Y-63145913D01*
X247922216Y-62950376D01*
X248016040Y-62736480D01*
X248073378Y-62510057D01*
X248092666Y-62277285D01*
X248073378Y-62044513D01*
X248016040Y-61818090D01*
X247922216Y-61604194D01*
X247794466Y-61408657D01*
X247636273Y-61236814D01*
X247451954Y-61093352D01*
X247246535Y-60982186D01*
X247025621Y-60906346D01*
X246795237Y-60867901D01*
X246561667Y-60867901D01*
X246520436Y-60866834D01*
X239213035Y-60866834D01*
X239152728Y-60867901D01*
X238919158Y-60867901D01*
X238688774Y-60906346D01*
X238467860Y-60982186D01*
X238262441Y-61093352D01*
X238078122Y-61236814D01*
X237919929Y-61408657D01*
X237792179Y-61604194D01*
X237698355Y-61818090D01*
X237641017Y-62044513D01*
X237621729Y-62277285D01*
X233373269Y-62277285D01*
X233193282Y-58360563D01*
X233398711Y-57858402D01*
X233881367Y-57211135D01*
X233885876Y-56413088D01*
X234010709Y-56030315D01*
X234646442Y-55462213D01*
X235660909Y-54921164D01*
X236025943Y-54761859D01*
X236028780Y-56406945D01*
X236071704Y-56836176D01*
X236447281Y-57179562D01*
X237123321Y-57576601D01*
X237895939Y-57780486D01*
X239741635Y-58080949D01*
X242596027Y-58220449D01*
X244677801Y-58113141D01*
X246555690Y-57780486D01*
X248111655Y-57329793D01*
X248744772Y-57029331D01*
X249163273Y-56567907D01*
X249158496Y-54630709D01*
X249810168Y-54868000D01*
G37*
X243156530Y-47982997D02*
X242877029Y-48834626D01*
X245104662Y-49444540D02*
X245201263Y-49777276D01*
X245222730Y-49949011D01*
X245544732Y-49970478D01*
X245856001Y-50120746D01*
X246070670Y-50324681D01*
X245963336Y-50603750D01*
X245705733Y-50850618D01*
X245480332Y-50893552D01*
X245458865Y-51183354D01*
X245287130Y-51462423D01*
X244847060Y-51462423D01*
X244525057Y-51118954D01*
X244482124Y-50979419D01*
X244074254Y-51054553D01*
X243709318Y-51033086D01*
X243526849Y-50925752D01*
X243634184Y-50571549D01*
X243913253Y-50324681D01*
X243709318Y-50206613D01*
X243526849Y-50024145D01*
X243398048Y-49788010D01*
X243483916Y-49466007D01*
X243795185Y-49423073D01*
X244192321Y-49691409D01*
X244331856Y-49777276D01*
X244514324Y-49444540D01*
X244804126Y-49229872D01*
X244997328Y-49186938D01*
X245104662Y-49444540D01*
X243054065Y-49757602D02*
X242779501Y-50723326D01*
D10*
X244000000Y-48000000D02*
X244389387Y-48890280D01*
X243868507Y-50364936D02*
X243582283Y-50593915D01*
X243525038Y-50966007D01*
X243732551Y-51073341D01*
X244312155Y-51023252D01*
X244455267Y-51016096D01*
X244183354Y-51395344D01*
X243732551Y-51803214D01*
X242981211Y-51896237D01*
X242387295Y-51896237D01*
X242451696Y-51273699D01*
X242852410Y-50708405D01*
X243367614Y-50343469D01*
X243725395Y-50207512D01*
X243868507Y-50364936D01*
X242356887Y-49133571D02*
X242891173Y-49367321D01*
X254749566Y-61757602D02*
X254148495Y-61578712D01*
D11*
X243991046Y-54991046D02*
X244518189Y-53971378D01*
D10*
X254148495Y-61578712D02*
X253690536Y-61550089D01*
D11*
X242061702Y-52977627D02*
X242053711Y-54156422D01*
D10*
X242318724Y-44339898D02*
X243034286Y-44382832D01*
X239723622Y-46963622D02*
X239714082Y-47607628D01*
X253183392Y-61593922D02*
X252689655Y-61797857D01*
X238482117Y-52279362D02*
X238281760Y-52813648D01*
D11*
X239687863Y-50575127D02*
X239698596Y-50897130D01*
X240106466Y-50940064D01*
X240299668Y-51305000D01*
X240299668Y-51712870D01*
X239859598Y-51723603D01*
X239430261Y-51702136D01*
X239494661Y-52120740D01*
X239237059Y-52496409D01*
X238882857Y-52378342D01*
X238689655Y-52131473D01*
X238421320Y-52292474D01*
X237884649Y-52517876D01*
X237723647Y-52346141D01*
X237820248Y-52077806D01*
X238238851Y-51755803D01*
X238045650Y-51519668D01*
X237895382Y-51197666D01*
X238067117Y-51090331D01*
X238410586Y-51004464D01*
X238775522Y-51111798D01*
X238904323Y-50682462D01*
X239440994Y-50328259D01*
X239687863Y-50575127D01*
D10*
X243342635Y-51851116D02*
X243244164Y-52130744D01*
X240705727Y-49562614D02*
X240591237Y-50006263D01*
X240863750Y-45627908D02*
X241960944Y-45637449D01*
X231050382Y-62095714D02*
X231603750Y-62067091D01*
X247345535Y-51802321D02*
X247598368Y-52327066D01*
D11*
X243816154Y-45974000D02*
X243995044Y-46303158D01*
X244049305Y-46502916D01*
X244612213Y-46469524D01*
X244968208Y-46510671D01*
X245032009Y-46736666D01*
X244896651Y-46947163D01*
X244639049Y-47176143D01*
X244731473Y-47399753D01*
X244764866Y-47757534D01*
X244721933Y-47986513D01*
X244273514Y-47972202D01*
X243959266Y-47934638D01*
X243744598Y-47770059D01*
X243238336Y-47986513D01*
X242943169Y-48013350D01*
X242864457Y-47820148D01*
X242835835Y-47462367D01*
X242936014Y-47247699D01*
X242649789Y-47111742D01*
X242320631Y-46875607D01*
X242263386Y-46610850D01*
X242427965Y-46496360D01*
X242842991Y-46496360D01*
X243193616Y-46546449D01*
X243193616Y-46310314D01*
X243315261Y-45916755D01*
X243622952Y-45795110D01*
X243816154Y-45974000D01*
D10*
X245076326Y-45713188D02*
X245143112Y-46032806D01*
X238873890Y-52375663D02*
X239145803Y-52461530D01*
X238959757Y-52919489D01*
X238673533Y-53313048D01*
X238179795Y-53749540D01*
X237972283Y-53899808D01*
X237764770Y-53577806D01*
X237879260Y-52497308D01*
X238308596Y-52332729D01*
X238680688Y-52125216D01*
X238873890Y-52375663D01*
X231603750Y-62067091D02*
X232262066Y-62234056D01*
D11*
X242446995Y-51947721D02*
X242420267Y-54163961D01*
D10*
X229771913Y-62606147D02*
X230039056Y-62410561D01*
X240580567Y-50527562D02*
X240591237Y-50006263D01*
D11*
X242840790Y-53806779D02*
X242776390Y-54236116D01*
X243869407Y-43728099D02*
X244234343Y-44114502D01*
X244491945Y-44157436D01*
X244695880Y-44275503D01*
X244749547Y-44554572D01*
X245017883Y-44565305D01*
X245178884Y-44672640D01*
X245500886Y-45059043D01*
X245457953Y-45348845D01*
X244824681Y-45241511D01*
X244642213Y-44994642D01*
X244320210Y-45091243D01*
X244041141Y-44919508D01*
X243890874Y-44436504D01*
X243268335Y-44135969D01*
X243182468Y-43953501D01*
X243407870Y-43867633D01*
X243772806Y-43964234D01*
X243558138Y-43695899D01*
X243869407Y-43728099D01*
D10*
X238187551Y-46701250D02*
X238287729Y-46362551D01*
X243576913Y-50967500D02*
X243085561Y-51392066D01*
D11*
X242244171Y-51635950D02*
X242246883Y-54151711D01*
D10*
X240398035Y-46442755D02*
X240426658Y-47000892D01*
X240197678Y-47551875D01*
X239775497Y-48024145D01*
X239410561Y-48145790D01*
X239074247Y-47694987D01*
X238952601Y-47136849D01*
X239131492Y-46628801D01*
X239224515Y-46900714D01*
X239761186Y-46929336D01*
X239925765Y-46550089D01*
X239983010Y-46185153D01*
X240398035Y-46442755D01*
X242788010Y-48826479D02*
X243138635Y-49112704D01*
X243381926Y-49441862D01*
X243303214Y-49706619D01*
X242830943Y-49706619D01*
X242101071Y-49642219D01*
X241686045Y-49313061D01*
X241771913Y-49284438D01*
X242244183Y-49177104D01*
X242544719Y-48969591D01*
X242516096Y-48726300D01*
X242788010Y-48826479D01*
D11*
X241425165Y-49920382D02*
X241836301Y-51464215D01*
D10*
X242500306Y-47077525D02*
X241827678Y-47387601D01*
D11*
X242598373Y-52440956D02*
X242595702Y-54189617D01*
D10*
X243923276Y-39934458D02*
X245308024Y-40588789D01*
X245841458Y-41049627D01*
X245840619Y-41623546D01*
X245538750Y-41858673D01*
X245195281Y-42016097D01*
X244706326Y-42136054D01*
X244217347Y-42221225D01*
X243310187Y-42291888D01*
X242385510Y-42311862D01*
X241338418Y-42295068D01*
X240324694Y-42216454D01*
X239910476Y-42139235D01*
X239494643Y-42016097D01*
X239350748Y-41945238D01*
X239232270Y-41853903D01*
X239096105Y-41604948D01*
X239099486Y-41075734D01*
X239890770Y-40467053D01*
X241092914Y-39934458D01*
X241723316Y-39936395D01*
X242000000Y-39987279D01*
X242403895Y-40009541D01*
X242842772Y-39977738D01*
X243128997Y-39904592D01*
X243923276Y-39934458D01*
G36*
X243923276Y-39934458D02*
G01*
X245308024Y-40588789D01*
X245841458Y-41049627D01*
X245840619Y-41623546D01*
X245538750Y-41858673D01*
X245195281Y-42016097D01*
X244706326Y-42136054D01*
X244217347Y-42221225D01*
X243310187Y-42291888D01*
X242385510Y-42311862D01*
X241338418Y-42295068D01*
X240324694Y-42216454D01*
X239910476Y-42139235D01*
X239494643Y-42016097D01*
X239350748Y-41945238D01*
X239232270Y-41853903D01*
X239096105Y-41604948D01*
X239099486Y-41075734D01*
X239890770Y-40467053D01*
X241092914Y-39934458D01*
X241723316Y-39936395D01*
X242000000Y-39987279D01*
X242403895Y-40009541D01*
X242842772Y-39977738D01*
X243128997Y-39904592D01*
X243923276Y-39934458D01*
G37*
D11*
X229510565Y-62805139D02*
X229135262Y-63626072D01*
X229058221Y-64281532D01*
X229136914Y-64953995D01*
X229380145Y-65569227D01*
X229780762Y-66041382D01*
X230331609Y-66399075D01*
X230860995Y-66570768D01*
X231340304Y-66556460D01*
X231791956Y-66423425D01*
X232554840Y-66803088D01*
X232623317Y-67442202D01*
X231870075Y-68537826D01*
X229724478Y-70112786D01*
X228788632Y-70797551D01*
X227738658Y-71436665D01*
X226597383Y-71391014D01*
X226688685Y-69359544D01*
X227165987Y-67343209D01*
X227875612Y-65342255D01*
X229153840Y-62626020D01*
X229510565Y-62805139D01*
G36*
X229510565Y-62805139D02*
G01*
X229135262Y-63626072D01*
X229058221Y-64281532D01*
X229136914Y-64953995D01*
X229380145Y-65569227D01*
X229780762Y-66041382D01*
X230331609Y-66399075D01*
X230860995Y-66570768D01*
X231340304Y-66556460D01*
X231791956Y-66423425D01*
X232554840Y-66803088D01*
X232623317Y-67442202D01*
X231870075Y-68537826D01*
X229724478Y-70112786D01*
X228788632Y-70797551D01*
X227738658Y-71436665D01*
X226597383Y-71391014D01*
X226688685Y-69359544D01*
X227165987Y-67343209D01*
X227875612Y-65342255D01*
X229153840Y-62626020D01*
X229510565Y-62805139D01*
G37*
D10*
X233306785Y-63417117D02*
X233435586Y-63860765D01*
X247027729Y-51746874D02*
X247185153Y-51782653D01*
X247635956Y-51732563D01*
X247922181Y-52190522D01*
X247893558Y-52863150D01*
X247728979Y-53177997D01*
X247192309Y-52634171D01*
X246791594Y-51961543D01*
X246770127Y-51489272D01*
X247027729Y-51746874D01*
X246140128Y-48588852D02*
X246121046Y-49590638D01*
D11*
X242918745Y-54277037D02*
X243297857Y-53008048D01*
D10*
X241528622Y-45190522D02*
X242179783Y-45326479D01*
X242501785Y-45491058D01*
X242623431Y-45884617D01*
X242029515Y-46127908D01*
X241299642Y-46278176D01*
X240913239Y-46170841D01*
X240898928Y-46213775D01*
X240891772Y-45877461D01*
X240777283Y-45533992D01*
X241027729Y-45469591D01*
X241149374Y-45126122D01*
X241528622Y-45190522D01*
X242455280Y-46986887D02*
X242765357Y-47163392D01*
X242932321Y-47320816D01*
X242817831Y-47678596D01*
X242755816Y-47831249D01*
X241944846Y-47921887D01*
X241677704Y-47788316D01*
X241377168Y-47678596D01*
X241358086Y-47406683D01*
X241644311Y-47067984D01*
X241925765Y-46815152D01*
X242240612Y-46748367D01*
X242455280Y-46986887D01*
D11*
X242644172Y-51944875D02*
X242598373Y-52440956D01*
X256379657Y-62520120D02*
X257657885Y-65198313D01*
X258364975Y-67249571D01*
X258709893Y-69177058D01*
X258709893Y-70617601D01*
X257323022Y-70770611D01*
X255679586Y-69842373D01*
X253518771Y-68183720D01*
X252617740Y-66902504D01*
X252644792Y-66192377D01*
X253198712Y-65823959D01*
X253606482Y-65952729D01*
X254175215Y-65974191D01*
X254615177Y-65866883D01*
X255044409Y-65673729D01*
X255430718Y-65405459D01*
X255731180Y-65029881D01*
X255977988Y-64450418D01*
X256096027Y-63785109D01*
X256031642Y-63151992D01*
X255827757Y-62593991D01*
X255580949Y-62196951D01*
X256010180Y-61917951D01*
X256379657Y-62520120D01*
G36*
X256379657Y-62520120D02*
G01*
X257657885Y-65198313D01*
X258364975Y-67249571D01*
X258709893Y-69177058D01*
X258709893Y-70617601D01*
X257323022Y-70770611D01*
X255679586Y-69842373D01*
X253518771Y-68183720D01*
X252617740Y-66902504D01*
X252644792Y-66192377D01*
X253198712Y-65823959D01*
X253606482Y-65952729D01*
X254175215Y-65974191D01*
X254615177Y-65866883D01*
X255044409Y-65673729D01*
X255430718Y-65405459D01*
X255731180Y-65029881D01*
X255977988Y-64450418D01*
X256096027Y-63785109D01*
X256031642Y-63151992D01*
X255827757Y-62593991D01*
X255580949Y-62196951D01*
X256010180Y-61917951D01*
X256379657Y-62520120D01*
G37*
X243360068Y-48721550D02*
X243225799Y-49146990D01*
X243001792Y-52669037D02*
X242840790Y-53806779D01*
X239848053Y-52511838D02*
X240151154Y-52848826D01*
X241747809Y-47793498D02*
X241876610Y-48122656D01*
X241898077Y-48437503D01*
X242148523Y-48458970D01*
X242470526Y-48659327D01*
X242627949Y-48866840D01*
X242406125Y-49110131D01*
X241998256Y-49296177D01*
X241669097Y-49303332D01*
X241640475Y-49603868D01*
X241418651Y-49918715D01*
X241225449Y-50040360D01*
X240846202Y-49682580D01*
X240731712Y-49467912D01*
X240724557Y-49475067D01*
X240180730Y-49689735D01*
X239880194Y-49539468D01*
X239822949Y-49303332D01*
X240123485Y-49067197D01*
X240323842Y-48852529D01*
X240030462Y-48745195D01*
X239715615Y-48494748D01*
X239858727Y-48222835D01*
X240288064Y-48158434D01*
X240660156Y-48244302D01*
X240889136Y-48451815D01*
X240939225Y-48144123D01*
X241196827Y-47879366D01*
X241568919Y-47679008D01*
X241747809Y-47793498D01*
D10*
X246061122Y-48603163D02*
X246509540Y-48770127D01*
X246838698Y-49046811D01*
X246714668Y-49504770D01*
X246008647Y-50225102D01*
X245612704Y-49652653D01*
X245341684Y-48818724D01*
X245517295Y-48541147D01*
X246061122Y-48603163D01*
D11*
X245416811Y-48407869D02*
X244869406Y-49202142D01*
D10*
X241013418Y-49835420D02*
X241220931Y-50042933D01*
X241464221Y-50035778D01*
X241385510Y-50522359D01*
X240898928Y-51123431D01*
X240369413Y-51395344D01*
X240033099Y-50930229D01*
X240025943Y-49957066D01*
X240283545Y-49635063D01*
X240705727Y-49491951D01*
X241013418Y-49835420D01*
D12*
X241484167Y-53638839D02*
X241484167Y-52638839D01*
X241484167Y-52638839D02*
X241722262Y-52638839D01*
X241722262Y-52638839D02*
X241865119Y-52686458D01*
X241865119Y-52686458D02*
X241960357Y-52781696D01*
X241960357Y-52781696D02*
X242007976Y-52876934D01*
X242007976Y-52876934D02*
X242055595Y-53067410D01*
X242055595Y-53067410D02*
X242055595Y-53210267D01*
X242055595Y-53210267D02*
X242007976Y-53400743D01*
X242007976Y-53400743D02*
X241960357Y-53495981D01*
X241960357Y-53495981D02*
X241865119Y-53591220D01*
X241865119Y-53591220D02*
X241722262Y-53638839D01*
X241722262Y-53638839D02*
X241484167Y-53638839D01*
X243007976Y-53638839D02*
X242436548Y-53638839D01*
X242722262Y-53638839D02*
X242722262Y-52638839D01*
X242722262Y-52638839D02*
X242627024Y-52781696D01*
X242627024Y-52781696D02*
X242531786Y-52876934D01*
X242531786Y-52876934D02*
X242436548Y-52924553D01*
D13*
%TO.C,D1*%
X243782262Y-55104020D02*
X243782262Y-54948020D01*
X243782262Y-57420020D02*
X243782262Y-57264020D01*
X240550865Y-55103959D02*
G75*
G02*
X243782262Y-54948504I1671397J-1080061D01*
G01*
X241181352Y-55103971D02*
G75*
G02*
X243263223Y-55104020I1040910J-1080049D01*
G01*
X243263223Y-57264020D02*
G75*
G02*
X241181352Y-57264069I-1040961J1080000D01*
G01*
X243782262Y-57419536D02*
G75*
G02*
X240550865Y-57264081I-1560000J1235516D01*
G01*
%TD*%
%LPC*%
D11*
X245102863Y-49442748D02*
X245199464Y-49775484D01*
X245220931Y-49947219D01*
X245542933Y-49968686D01*
X245854202Y-50118954D01*
X246068871Y-50322889D01*
X245961537Y-50601958D01*
X245703934Y-50848826D01*
X245478533Y-50891760D01*
X245457066Y-51181562D01*
X245285331Y-51460631D01*
X244845261Y-51460631D01*
X244523258Y-51117162D01*
X244480325Y-50977627D01*
X244072455Y-51052761D01*
X243707519Y-51031294D01*
X243525050Y-50923960D01*
X243632385Y-50569757D01*
X243911454Y-50322889D01*
X243707519Y-50204821D01*
X243525050Y-50022353D01*
X243396249Y-49786218D01*
X243482117Y-49464215D01*
X243793386Y-49421281D01*
X244190522Y-49689617D01*
X244330057Y-49775484D01*
X244512525Y-49442748D01*
X244802327Y-49228080D01*
X244995529Y-49185146D01*
X245102863Y-49442748D01*
G36*
X245102863Y-49442748D02*
G01*
X245199464Y-49775484D01*
X245220931Y-49947219D01*
X245542933Y-49968686D01*
X245854202Y-50118954D01*
X246068871Y-50322889D01*
X245961537Y-50601958D01*
X245703934Y-50848826D01*
X245478533Y-50891760D01*
X245457066Y-51181562D01*
X245285331Y-51460631D01*
X244845261Y-51460631D01*
X244523258Y-51117162D01*
X244480325Y-50977627D01*
X244072455Y-51052761D01*
X243707519Y-51031294D01*
X243525050Y-50923960D01*
X243632385Y-50569757D01*
X243911454Y-50322889D01*
X243707519Y-50204821D01*
X243525050Y-50022353D01*
X243396249Y-49786218D01*
X243482117Y-49464215D01*
X243793386Y-49421281D01*
X244190522Y-49689617D01*
X244330057Y-49775484D01*
X244512525Y-49442748D01*
X244802327Y-49228080D01*
X244995529Y-49185146D01*
X245102863Y-49442748D01*
G37*
X241754323Y-47795165D02*
X241883124Y-48124323D01*
X241904591Y-48439170D01*
X242155037Y-48460637D01*
X242477040Y-48660994D01*
X242634463Y-48868507D01*
X242412639Y-49111798D01*
X242004770Y-49297844D01*
X241675611Y-49304999D01*
X241646989Y-49605535D01*
X241425165Y-49920382D01*
X241231963Y-50042027D01*
X240852716Y-49684247D01*
X240738226Y-49469579D01*
X240731071Y-49476734D01*
X240187244Y-49691402D01*
X239886708Y-49541135D01*
X239829463Y-49304999D01*
X240129999Y-49068864D01*
X240330356Y-48854196D01*
X240036976Y-48746862D01*
X239722129Y-48496415D01*
X239865241Y-48224502D01*
X240294578Y-48160101D01*
X240666670Y-48245969D01*
X240895650Y-48453482D01*
X240945739Y-48145790D01*
X241203341Y-47881033D01*
X241575433Y-47680675D01*
X241754323Y-47795165D01*
G36*
X241754323Y-47795165D02*
G01*
X241883124Y-48124323D01*
X241904591Y-48439170D01*
X242155037Y-48460637D01*
X242477040Y-48660994D01*
X242634463Y-48868507D01*
X242412639Y-49111798D01*
X242004770Y-49297844D01*
X241675611Y-49304999D01*
X241646989Y-49605535D01*
X241425165Y-49920382D01*
X241231963Y-50042027D01*
X240852716Y-49684247D01*
X240738226Y-49469579D01*
X240731071Y-49476734D01*
X240187244Y-49691402D01*
X239886708Y-49541135D01*
X239829463Y-49304999D01*
X240129999Y-49068864D01*
X240330356Y-48854196D01*
X240036976Y-48746862D01*
X239722129Y-48496415D01*
X239865241Y-48224502D01*
X240294578Y-48160101D01*
X240666670Y-48245969D01*
X240895650Y-48453482D01*
X240945739Y-48145790D01*
X241203341Y-47881033D01*
X241575433Y-47680675D01*
X241754323Y-47795165D01*
G37*
X243822895Y-45975854D02*
X244001785Y-46305012D01*
X244056046Y-46504770D01*
X244618954Y-46471378D01*
X244974949Y-46512525D01*
X245038750Y-46738520D01*
X244903392Y-46949017D01*
X244645790Y-47177997D01*
X244738214Y-47401607D01*
X244771607Y-47759388D01*
X244728674Y-47988367D01*
X244280255Y-47974056D01*
X243966007Y-47936492D01*
X243751339Y-47771913D01*
X243245077Y-47988367D01*
X242949910Y-48015204D01*
X242871198Y-47822002D01*
X242842576Y-47464221D01*
X242942755Y-47249553D01*
X242656530Y-47113596D01*
X242327372Y-46877461D01*
X242270127Y-46612704D01*
X242434706Y-46498214D01*
X242849732Y-46498214D01*
X243200357Y-46548303D01*
X243200357Y-46312168D01*
X243322002Y-45918609D01*
X243629693Y-45796964D01*
X243822895Y-45975854D01*
G36*
X243822895Y-45975854D02*
G01*
X244001785Y-46305012D01*
X244056046Y-46504770D01*
X244618954Y-46471378D01*
X244974949Y-46512525D01*
X245038750Y-46738520D01*
X244903392Y-46949017D01*
X244645790Y-47177997D01*
X244738214Y-47401607D01*
X244771607Y-47759388D01*
X244728674Y-47988367D01*
X244280255Y-47974056D01*
X243966007Y-47936492D01*
X243751339Y-47771913D01*
X243245077Y-47988367D01*
X242949910Y-48015204D01*
X242871198Y-47822002D01*
X242842576Y-47464221D01*
X242942755Y-47249553D01*
X242656530Y-47113596D01*
X242327372Y-46877461D01*
X242270127Y-46612704D01*
X242434706Y-46498214D01*
X242849732Y-46498214D01*
X243200357Y-46548303D01*
X243200357Y-46312168D01*
X243322002Y-45918609D01*
X243629693Y-45796964D01*
X243822895Y-45975854D01*
G37*
X239689617Y-50573341D02*
X239700350Y-50895344D01*
X240108220Y-50938278D01*
X240301422Y-51303214D01*
X240301422Y-51711084D01*
X239861352Y-51721817D01*
X239432015Y-51700350D01*
X239496415Y-52118954D01*
X239238813Y-52494623D01*
X238884611Y-52376556D01*
X238691409Y-52129687D01*
X238423074Y-52290688D01*
X237886403Y-52516090D01*
X237725401Y-52344355D01*
X237822002Y-52076020D01*
X238240605Y-51754017D01*
X238047404Y-51517882D01*
X237897136Y-51195880D01*
X238068871Y-51088545D01*
X238412340Y-51002678D01*
X238777276Y-51110012D01*
X238906077Y-50680676D01*
X239442748Y-50326473D01*
X239689617Y-50573341D01*
G36*
X239689617Y-50573341D02*
G01*
X239700350Y-50895344D01*
X240108220Y-50938278D01*
X240301422Y-51303214D01*
X240301422Y-51711084D01*
X239861352Y-51721817D01*
X239432015Y-51700350D01*
X239496415Y-52118954D01*
X239238813Y-52494623D01*
X238884611Y-52376556D01*
X238691409Y-52129687D01*
X238423074Y-52290688D01*
X237886403Y-52516090D01*
X237725401Y-52344355D01*
X237822002Y-52076020D01*
X238240605Y-51754017D01*
X238047404Y-51517882D01*
X237897136Y-51195880D01*
X238068871Y-51088545D01*
X238412340Y-51002678D01*
X238777276Y-51110012D01*
X238906077Y-50680676D01*
X239442748Y-50326473D01*
X239689617Y-50573341D01*
G37*
X247304413Y-50447526D02*
X247437985Y-50790995D01*
X247886403Y-50714668D01*
X248115382Y-51105841D01*
X247824388Y-51368214D01*
X247581097Y-51330051D01*
X247604949Y-51759388D01*
X247051582Y-51783240D01*
X246817832Y-51325281D01*
X246588852Y-51291887D01*
X246121351Y-51225102D01*
X245992550Y-50867321D01*
X246436198Y-50743290D01*
X246121351Y-50628801D01*
X246226301Y-50294872D01*
X246431429Y-50175612D01*
X246731964Y-50271020D01*
X246770128Y-50065893D01*
X247056352Y-49989566D01*
X247304413Y-50447526D01*
G36*
X247304413Y-50447526D02*
G01*
X247437985Y-50790995D01*
X247886403Y-50714668D01*
X248115382Y-51105841D01*
X247824388Y-51368214D01*
X247581097Y-51330051D01*
X247604949Y-51759388D01*
X247051582Y-51783240D01*
X246817832Y-51325281D01*
X246588852Y-51291887D01*
X246121351Y-51225102D01*
X245992550Y-50867321D01*
X246436198Y-50743290D01*
X246121351Y-50628801D01*
X246226301Y-50294872D01*
X246431429Y-50175612D01*
X246731964Y-50271020D01*
X246770128Y-50065893D01*
X247056352Y-49989566D01*
X247304413Y-50447526D01*
G37*
X246251339Y-47092130D02*
X246401607Y-47489266D01*
X246616275Y-47521466D01*
X247099279Y-47618067D01*
X247260280Y-47875669D01*
X247099279Y-48079604D01*
X247110012Y-48219139D01*
X247281747Y-48605542D01*
X247131479Y-48873877D01*
X246766543Y-48841677D01*
X246380140Y-48712876D01*
X246208405Y-48498207D01*
X245736135Y-48605542D01*
X245553667Y-48508941D01*
X245403399Y-48165471D01*
X245478533Y-47886403D01*
X245006262Y-47596600D01*
X245059929Y-47210197D01*
X245349732Y-47081396D01*
X245757602Y-47338998D01*
X245714668Y-47156530D01*
X245725401Y-46888195D01*
X245950803Y-46737927D01*
X246251339Y-47092130D01*
G36*
X246251339Y-47092130D02*
G01*
X246401607Y-47489266D01*
X246616275Y-47521466D01*
X247099279Y-47618067D01*
X247260280Y-47875669D01*
X247099279Y-48079604D01*
X247110012Y-48219139D01*
X247281747Y-48605542D01*
X247131479Y-48873877D01*
X246766543Y-48841677D01*
X246380140Y-48712876D01*
X246208405Y-48498207D01*
X245736135Y-48605542D01*
X245553667Y-48508941D01*
X245403399Y-48165471D01*
X245478533Y-47886403D01*
X245006262Y-47596600D01*
X245059929Y-47210197D01*
X245349732Y-47081396D01*
X245757602Y-47338998D01*
X245714668Y-47156530D01*
X245725401Y-46888195D01*
X245950803Y-46737927D01*
X246251339Y-47092130D01*
G37*
X239999103Y-44553676D02*
X240240605Y-44859579D01*
X240755809Y-44779078D01*
X241158313Y-44940079D01*
X241158313Y-45245982D01*
X240981211Y-45471383D01*
X240739709Y-45551884D01*
X240932911Y-45954387D01*
X240868510Y-46356890D01*
X240353306Y-46421291D01*
X239983003Y-46115388D01*
X239983003Y-46405191D01*
X239757602Y-47000896D01*
X239161897Y-46872095D01*
X239194097Y-46469591D01*
X239306798Y-45970487D01*
X238823794Y-45970487D01*
X238614492Y-45584084D01*
X238855994Y-45374783D01*
X239467799Y-45406983D01*
X239596600Y-44682477D01*
X239741501Y-44344374D01*
X239999103Y-44553676D01*
G36*
X239999103Y-44553676D02*
G01*
X240240605Y-44859579D01*
X240755809Y-44779078D01*
X241158313Y-44940079D01*
X241158313Y-45245982D01*
X240981211Y-45471383D01*
X240739709Y-45551884D01*
X240932911Y-45954387D01*
X240868510Y-46356890D01*
X240353306Y-46421291D01*
X239983003Y-46115388D01*
X239983003Y-46405191D01*
X239757602Y-47000896D01*
X239161897Y-46872095D01*
X239194097Y-46469591D01*
X239306798Y-45970487D01*
X238823794Y-45970487D01*
X238614492Y-45584084D01*
X238855994Y-45374783D01*
X239467799Y-45406983D01*
X239596600Y-44682477D01*
X239741501Y-44344374D01*
X239999103Y-44553676D01*
G37*
X243869407Y-43728099D02*
X244234343Y-44114502D01*
X244491945Y-44157436D01*
X244695880Y-44275503D01*
X244749547Y-44554572D01*
X245017883Y-44565305D01*
X245178884Y-44672640D01*
X245500886Y-45059043D01*
X245457953Y-45348845D01*
X244824681Y-45241511D01*
X244642213Y-44994642D01*
X244320210Y-45091243D01*
X244041141Y-44919508D01*
X243890874Y-44436504D01*
X243268335Y-44135969D01*
X243182468Y-43953501D01*
X243407870Y-43867633D01*
X243772806Y-43964234D01*
X243558138Y-43695899D01*
X243869407Y-43728099D01*
G36*
X243869407Y-43728099D02*
G01*
X244234343Y-44114502D01*
X244491945Y-44157436D01*
X244695880Y-44275503D01*
X244749547Y-44554572D01*
X245017883Y-44565305D01*
X245178884Y-44672640D01*
X245500886Y-45059043D01*
X245457953Y-45348845D01*
X244824681Y-45241511D01*
X244642213Y-44994642D01*
X244320210Y-45091243D01*
X244041141Y-44919508D01*
X243890874Y-44436504D01*
X243268335Y-44135969D01*
X243182468Y-43953501D01*
X243407870Y-43867633D01*
X243772806Y-43964234D01*
X243558138Y-43695899D01*
X243869407Y-43728099D01*
G37*
D14*
X243743322Y-62212886D02*
G75*
G02*
X241743322Y-62212886I-1000000J999999D01*
G01*
D15*
%TO.C,D1*%
X243492262Y-56184020D03*
D16*
X240952262Y-56184020D03*
%TD*%
D17*
%TO.C,R1*%
X238969524Y-62324208D03*
D18*
X246589525Y-62324207D03*
%TD*%
%LPD*%
M02*
