%TF.GenerationSoftware,KiCad,Pcbnew,9.0.7*%
%TF.CreationDate,2026-04-20T21:55:25-03:00*%
%TF.ProjectId,Sao_robotplant,53616f5f-726f-4626-9f74-706c616e742e,rev?*%
%TF.SameCoordinates,Original*%
%TF.FileFunction,Legend,Bot*%
%TF.FilePolarity,Positive*%
%FSLAX46Y46*%
G04 Gerber Fmt 4.6, Leading zero omitted, Abs format (unit mm)*
G04 Created by KiCad (PCBNEW 9.0.7) date 2026-04-20 21:55:25*
%MOMM*%
%LPD*%
G01*
G04 APERTURE LIST*
%ADD10C,0.100000*%
%ADD11C,0.300000*%
%ADD12C,0.150000*%
%ADD13C,0.000000*%
%ADD14C,0.120000*%
%ADD15C,0.152400*%
%ADD16R,1.800000X1.800000*%
%ADD17C,1.800000*%
%ADD18C,1.400000*%
%ADD19O,1.400000X1.400000*%
%ADD20R,1.041400X3.200400*%
G04 APERTURE END LIST*
D10*
X229900000Y-65300000D02*
X234900000Y-65300000D01*
X234900000Y-70300000D01*
X229900000Y-70300000D01*
X229900000Y-65300000D01*
G36*
X229900000Y-65300000D02*
G01*
X234900000Y-65300000D01*
X234900000Y-70300000D01*
X229900000Y-70300000D01*
X229900000Y-65300000D01*
G37*
D11*
X239356314Y-53716917D02*
X239427742Y-53645489D01*
X239427742Y-53645489D02*
X239499171Y-53502632D01*
X239499171Y-53502632D02*
X239499171Y-53145489D01*
X239499171Y-53145489D02*
X239427742Y-53002632D01*
X239427742Y-53002632D02*
X239356314Y-52931203D01*
X239356314Y-52931203D02*
X239213457Y-52859774D01*
X239213457Y-52859774D02*
X239070600Y-52859774D01*
X239070600Y-52859774D02*
X238856314Y-52931203D01*
X238856314Y-52931203D02*
X237999171Y-53788346D01*
X237999171Y-53788346D02*
X237999171Y-52859774D01*
X239499171Y-51931203D02*
X239499171Y-51788346D01*
X239499171Y-51788346D02*
X239427742Y-51645489D01*
X239427742Y-51645489D02*
X239356314Y-51574061D01*
X239356314Y-51574061D02*
X239213457Y-51502632D01*
X239213457Y-51502632D02*
X238927742Y-51431203D01*
X238927742Y-51431203D02*
X238570600Y-51431203D01*
X238570600Y-51431203D02*
X238284885Y-51502632D01*
X238284885Y-51502632D02*
X238142028Y-51574061D01*
X238142028Y-51574061D02*
X238070600Y-51645489D01*
X238070600Y-51645489D02*
X237999171Y-51788346D01*
X237999171Y-51788346D02*
X237999171Y-51931203D01*
X237999171Y-51931203D02*
X238070600Y-52074061D01*
X238070600Y-52074061D02*
X238142028Y-52145489D01*
X238142028Y-52145489D02*
X238284885Y-52216918D01*
X238284885Y-52216918D02*
X238570600Y-52288346D01*
X238570600Y-52288346D02*
X238927742Y-52288346D01*
X238927742Y-52288346D02*
X239213457Y-52216918D01*
X239213457Y-52216918D02*
X239356314Y-52145489D01*
X239356314Y-52145489D02*
X239427742Y-52074061D01*
X239427742Y-52074061D02*
X239499171Y-51931203D01*
X239356314Y-50859775D02*
X239427742Y-50788347D01*
X239427742Y-50788347D02*
X239499171Y-50645490D01*
X239499171Y-50645490D02*
X239499171Y-50288347D01*
X239499171Y-50288347D02*
X239427742Y-50145490D01*
X239427742Y-50145490D02*
X239356314Y-50074061D01*
X239356314Y-50074061D02*
X239213457Y-50002632D01*
X239213457Y-50002632D02*
X239070600Y-50002632D01*
X239070600Y-50002632D02*
X238856314Y-50074061D01*
X238856314Y-50074061D02*
X237999171Y-50931204D01*
X237999171Y-50931204D02*
X237999171Y-50002632D01*
X239499171Y-48716919D02*
X239499171Y-49002633D01*
X239499171Y-49002633D02*
X239427742Y-49145490D01*
X239427742Y-49145490D02*
X239356314Y-49216919D01*
X239356314Y-49216919D02*
X239142028Y-49359776D01*
X239142028Y-49359776D02*
X238856314Y-49431204D01*
X238856314Y-49431204D02*
X238284885Y-49431204D01*
X238284885Y-49431204D02*
X238142028Y-49359776D01*
X238142028Y-49359776D02*
X238070600Y-49288347D01*
X238070600Y-49288347D02*
X237999171Y-49145490D01*
X237999171Y-49145490D02*
X237999171Y-48859776D01*
X237999171Y-48859776D02*
X238070600Y-48716919D01*
X238070600Y-48716919D02*
X238142028Y-48645490D01*
X238142028Y-48645490D02*
X238284885Y-48574061D01*
X238284885Y-48574061D02*
X238642028Y-48574061D01*
X238642028Y-48574061D02*
X238784885Y-48645490D01*
X238784885Y-48645490D02*
X238856314Y-48716919D01*
X238856314Y-48716919D02*
X238927742Y-48859776D01*
X238927742Y-48859776D02*
X238927742Y-49145490D01*
X238927742Y-49145490D02*
X238856314Y-49288347D01*
X238856314Y-49288347D02*
X238784885Y-49359776D01*
X238784885Y-49359776D02*
X238642028Y-49431204D01*
D12*
X245666666Y-60454819D02*
X245999999Y-59978628D01*
X246238094Y-60454819D02*
X246238094Y-59454819D01*
X246238094Y-59454819D02*
X245857142Y-59454819D01*
X245857142Y-59454819D02*
X245761904Y-59502438D01*
X245761904Y-59502438D02*
X245714285Y-59550057D01*
X245714285Y-59550057D02*
X245666666Y-59645295D01*
X245666666Y-59645295D02*
X245666666Y-59788152D01*
X245666666Y-59788152D02*
X245714285Y-59883390D01*
X245714285Y-59883390D02*
X245761904Y-59931009D01*
X245761904Y-59931009D02*
X245857142Y-59978628D01*
X245857142Y-59978628D02*
X246238094Y-59978628D01*
X244714285Y-60454819D02*
X245285713Y-60454819D01*
X244999999Y-60454819D02*
X244999999Y-59454819D01*
X244999999Y-59454819D02*
X245095237Y-59597676D01*
X245095237Y-59597676D02*
X245190475Y-59692914D01*
X245190475Y-59692914D02*
X245285713Y-59740533D01*
X247026149Y-65664004D02*
X247597577Y-65664004D01*
X247311863Y-65664004D02*
X247311863Y-64664004D01*
X247311863Y-64664004D02*
X247407101Y-64806861D01*
X247407101Y-64806861D02*
X247502339Y-64902099D01*
X247502339Y-64902099D02*
X247597577Y-64949718D01*
X247597577Y-71509242D02*
X247549958Y-71461623D01*
X247549958Y-71461623D02*
X247454720Y-71414004D01*
X247454720Y-71414004D02*
X247216625Y-71414004D01*
X247216625Y-71414004D02*
X247121387Y-71461623D01*
X247121387Y-71461623D02*
X247073768Y-71509242D01*
X247073768Y-71509242D02*
X247026149Y-71604480D01*
X247026149Y-71604480D02*
X247026149Y-71699718D01*
X247026149Y-71699718D02*
X247073768Y-71842575D01*
X247073768Y-71842575D02*
X247645196Y-72414004D01*
X247645196Y-72414004D02*
X247026149Y-72414004D01*
X238049958Y-72033051D02*
X237288054Y-72033051D01*
X238049958Y-65283051D02*
X237288054Y-65283051D01*
X237669006Y-65664004D02*
X237669006Y-64902099D01*
D13*
%TO.C,REF\u002A\u002A*%
G36*
X242982037Y-50675489D02*
G01*
X243041717Y-50676581D01*
X243101695Y-50679728D01*
X243161970Y-50684930D01*
X243222543Y-50692187D01*
X243283414Y-50701500D01*
X243344582Y-50712867D01*
X243406048Y-50726289D01*
X243467812Y-50741767D01*
X243501375Y-50751128D01*
X243534197Y-50761094D01*
X243566279Y-50771665D01*
X243597622Y-50782840D01*
X243628224Y-50794619D01*
X243658087Y-50807002D01*
X243687210Y-50819988D01*
X243715594Y-50833578D01*
X243783894Y-50869838D01*
X243848498Y-50909066D01*
X243909406Y-50951263D01*
X243966618Y-50996428D01*
X244020134Y-51044561D01*
X244069954Y-51095662D01*
X244116078Y-51149732D01*
X244158507Y-51206770D01*
X244197239Y-51266777D01*
X244232276Y-51329752D01*
X244263617Y-51395695D01*
X244291262Y-51464606D01*
X244315210Y-51536487D01*
X244335464Y-51611335D01*
X244352021Y-51689152D01*
X244364882Y-51769937D01*
X244372691Y-51839108D01*
X244377531Y-51907821D01*
X244379357Y-51976010D01*
X244378121Y-52043612D01*
X244373776Y-52110560D01*
X244366275Y-52176792D01*
X244355570Y-52242241D01*
X244341615Y-52306843D01*
X244324363Y-52370534D01*
X244303765Y-52433248D01*
X244279777Y-52494922D01*
X244252349Y-52555490D01*
X244221436Y-52614887D01*
X244186990Y-52673049D01*
X244148963Y-52729911D01*
X244107310Y-52785409D01*
X244071864Y-52828580D01*
X244034781Y-52870808D01*
X243996061Y-52912091D01*
X243955704Y-52952424D01*
X243913709Y-52991805D01*
X243870078Y-53030228D01*
X243824809Y-53067691D01*
X243777904Y-53104191D01*
X243776152Y-53105583D01*
X243774665Y-53106883D01*
X243774021Y-53107498D01*
X243773444Y-53108090D01*
X243772933Y-53108660D01*
X243772489Y-53109206D01*
X243772111Y-53109729D01*
X243771799Y-53110230D01*
X243771554Y-53110708D01*
X243771375Y-53111163D01*
X243771263Y-53111595D01*
X243771217Y-53112005D01*
X243771237Y-53112392D01*
X243771324Y-53112757D01*
X243771477Y-53113099D01*
X243771697Y-53113419D01*
X243771983Y-53113716D01*
X243772335Y-53113991D01*
X243772754Y-53114244D01*
X243773239Y-53114475D01*
X243773790Y-53114683D01*
X243774408Y-53114869D01*
X243775092Y-53115033D01*
X243775843Y-53115175D01*
X243776660Y-53115296D01*
X243777543Y-53115394D01*
X243779509Y-53115524D01*
X243781740Y-53115568D01*
X244552736Y-53115568D01*
X244553237Y-53115575D01*
X244553714Y-53115597D01*
X244554168Y-53115634D01*
X244554599Y-53115685D01*
X244555007Y-53115751D01*
X244555392Y-53115832D01*
X244555753Y-53115927D01*
X244556092Y-53116037D01*
X244556407Y-53116162D01*
X244556699Y-53116300D01*
X244556967Y-53116454D01*
X244557212Y-53116622D01*
X244557435Y-53116804D01*
X244557633Y-53117000D01*
X244557809Y-53117211D01*
X244557962Y-53117437D01*
X244558091Y-53117677D01*
X244558197Y-53117931D01*
X244558279Y-53118199D01*
X244558338Y-53118482D01*
X244558375Y-53118778D01*
X244558387Y-53119089D01*
X244558377Y-53119415D01*
X244558343Y-53119754D01*
X244558286Y-53120108D01*
X244558206Y-53120475D01*
X244558102Y-53120857D01*
X244557975Y-53121253D01*
X244557825Y-53121663D01*
X244557651Y-53122086D01*
X244557454Y-53122524D01*
X244557234Y-53122976D01*
X244013780Y-54209884D01*
X244013550Y-54210296D01*
X244013294Y-54210689D01*
X244013012Y-54211062D01*
X244012706Y-54211412D01*
X244012378Y-54211741D01*
X244012029Y-54212045D01*
X244011660Y-54212325D01*
X244011273Y-54212580D01*
X244010869Y-54212809D01*
X244010450Y-54213010D01*
X244010017Y-54213183D01*
X244009572Y-54213326D01*
X244009115Y-54213440D01*
X244008649Y-54213522D01*
X244008175Y-54213572D01*
X244007694Y-54213589D01*
X240445212Y-54213589D01*
X240445042Y-54213585D01*
X240444874Y-54213572D01*
X240444709Y-54213551D01*
X240444546Y-54213523D01*
X240444386Y-54213486D01*
X240444229Y-54213442D01*
X240444075Y-54213391D01*
X240443925Y-54213333D01*
X240443779Y-54213267D01*
X240443636Y-54213195D01*
X240443498Y-54213116D01*
X240443364Y-54213031D01*
X240443234Y-54212940D01*
X240443109Y-54212842D01*
X240442989Y-54212739D01*
X240442874Y-54212630D01*
X240442764Y-54212516D01*
X240442660Y-54212396D01*
X240442562Y-54212272D01*
X240442470Y-54212142D01*
X240442384Y-54212008D01*
X240442304Y-54211870D01*
X240442231Y-54211727D01*
X240442165Y-54211580D01*
X240442106Y-54211430D01*
X240442054Y-54211275D01*
X240442009Y-54211117D01*
X240441972Y-54210956D01*
X240441943Y-54210792D01*
X240441922Y-54210625D01*
X240441909Y-54210455D01*
X240441905Y-54210282D01*
X240441905Y-53122845D01*
X240441912Y-53122417D01*
X240441932Y-53122003D01*
X240441965Y-53121602D01*
X240442012Y-53121214D01*
X240442073Y-53120839D01*
X240442146Y-53120478D01*
X240442234Y-53120130D01*
X240442334Y-53119795D01*
X240442448Y-53119474D01*
X240442576Y-53119166D01*
X240442717Y-53118872D01*
X240442871Y-53118591D01*
X240443039Y-53118324D01*
X240443220Y-53118070D01*
X240443415Y-53117829D01*
X240443623Y-53117602D01*
X240443845Y-53117389D01*
X240444080Y-53117189D01*
X240444328Y-53117003D01*
X240444590Y-53116831D01*
X240444866Y-53116672D01*
X240445155Y-53116527D01*
X240445457Y-53116395D01*
X240445773Y-53116278D01*
X240446102Y-53116174D01*
X240446445Y-53116084D01*
X240446801Y-53116007D01*
X240447171Y-53115945D01*
X240447554Y-53115896D01*
X240447951Y-53115861D01*
X240448361Y-53115840D01*
X240448784Y-53115833D01*
X242602096Y-53116494D01*
X242669477Y-53114881D01*
X242736121Y-53109689D01*
X242801634Y-53100764D01*
X242865618Y-53087951D01*
X242896914Y-53080038D01*
X242927680Y-53071094D01*
X242957866Y-53061100D01*
X242987423Y-53050038D01*
X243016302Y-53037887D01*
X243044452Y-53024628D01*
X243071825Y-53010241D01*
X243098371Y-52994708D01*
X243124041Y-52978009D01*
X243148785Y-52960125D01*
X243172554Y-52941035D01*
X243195298Y-52920722D01*
X243216968Y-52899164D01*
X243237515Y-52876344D01*
X243256889Y-52852241D01*
X243275040Y-52826836D01*
X243291920Y-52800110D01*
X243307478Y-52772043D01*
X243321666Y-52742616D01*
X243334433Y-52711810D01*
X243345731Y-52679605D01*
X243355510Y-52645982D01*
X243363720Y-52610921D01*
X243370313Y-52574403D01*
X243374726Y-52542466D01*
X243378044Y-52510890D01*
X243380267Y-52479675D01*
X243381394Y-52448820D01*
X243381425Y-52418326D01*
X243380361Y-52388191D01*
X243378200Y-52358417D01*
X243374943Y-52329002D01*
X243367292Y-52281102D01*
X243357075Y-52235365D01*
X243344290Y-52191792D01*
X243328938Y-52150381D01*
X243320299Y-52130487D01*
X243311019Y-52111134D01*
X243301096Y-52092322D01*
X243290532Y-52074050D01*
X243279326Y-52056320D01*
X243267479Y-52039130D01*
X243254989Y-52022481D01*
X243241858Y-52006372D01*
X243228085Y-51990805D01*
X243213670Y-51975778D01*
X243198613Y-51961293D01*
X243182915Y-51947348D01*
X243166574Y-51933944D01*
X243149592Y-51921080D01*
X243131968Y-51908758D01*
X243113702Y-51896976D01*
X243075244Y-51875035D01*
X243034219Y-51855258D01*
X242990627Y-51837643D01*
X242944467Y-51822192D01*
X242904977Y-51810870D01*
X242866012Y-51801054D01*
X242827571Y-51792743D01*
X242789655Y-51785938D01*
X242752264Y-51780638D01*
X242715397Y-51776844D01*
X242679055Y-51774556D01*
X242643238Y-51773773D01*
X240449181Y-51772849D01*
X240448733Y-51772841D01*
X240448299Y-51772820D01*
X240447880Y-51772784D01*
X240447474Y-51772734D01*
X240447083Y-51772670D01*
X240446707Y-51772592D01*
X240446344Y-51772499D01*
X240445996Y-51772393D01*
X240445662Y-51772271D01*
X240445342Y-51772136D01*
X240445036Y-51771987D01*
X240444745Y-51771823D01*
X240444468Y-51771645D01*
X240444205Y-51771453D01*
X240443957Y-51771247D01*
X240443722Y-51771026D01*
X240443502Y-51770791D01*
X240443296Y-51770542D01*
X240443104Y-51770279D01*
X240442927Y-51770002D01*
X240442764Y-51769711D01*
X240442615Y-51769405D01*
X240442480Y-51769085D01*
X240442359Y-51768752D01*
X240442253Y-51768404D01*
X240442160Y-51768041D01*
X240442082Y-51767665D01*
X240442018Y-51767275D01*
X240441969Y-51766870D01*
X240441933Y-51766451D01*
X240441912Y-51766019D01*
X240441905Y-51765572D01*
X240441905Y-50678664D01*
X240441908Y-50678451D01*
X240441919Y-50678245D01*
X240441936Y-50678046D01*
X240441961Y-50677853D01*
X240441992Y-50677666D01*
X240442031Y-50677486D01*
X240442076Y-50677313D01*
X240442128Y-50677146D01*
X240442188Y-50676985D01*
X240442254Y-50676831D01*
X240442327Y-50676684D01*
X240442407Y-50676543D01*
X240442495Y-50676409D01*
X240442589Y-50676281D01*
X240442690Y-50676159D01*
X240442798Y-50676045D01*
X240442913Y-50675936D01*
X240443035Y-50675834D01*
X240443164Y-50675739D01*
X240443300Y-50675650D01*
X240443443Y-50675568D01*
X240443593Y-50675492D01*
X240443750Y-50675423D01*
X240443914Y-50675360D01*
X240444085Y-50675304D01*
X240444263Y-50675254D01*
X240444448Y-50675210D01*
X240444640Y-50675174D01*
X240444839Y-50675143D01*
X240445045Y-50675120D01*
X240445477Y-50675092D01*
X242982037Y-50675489D01*
G37*
G36*
X241064300Y-40986445D02*
G01*
X241065022Y-40986522D01*
X241065744Y-40986642D01*
X241066465Y-40986806D01*
X241067185Y-40987013D01*
X241067904Y-40987263D01*
X241068623Y-40987556D01*
X241069341Y-40987892D01*
X241070058Y-40988271D01*
X241070774Y-40988694D01*
X241071489Y-40989160D01*
X241072203Y-40989668D01*
X241072917Y-40990221D01*
X241073630Y-40990816D01*
X241074342Y-40991454D01*
X241075053Y-40992136D01*
X241708598Y-41619463D01*
X241708954Y-41619833D01*
X241709287Y-41620217D01*
X241709597Y-41620614D01*
X241709886Y-41621022D01*
X241710151Y-41621441D01*
X241710394Y-41621870D01*
X241710614Y-41622308D01*
X241710812Y-41622754D01*
X241710987Y-41623207D01*
X241711139Y-41623667D01*
X241711268Y-41624132D01*
X241711375Y-41624602D01*
X241711460Y-41625076D01*
X241711521Y-41625552D01*
X241711560Y-41626031D01*
X241711576Y-41626511D01*
X241711569Y-41626991D01*
X241711540Y-41627470D01*
X241711487Y-41627948D01*
X241711412Y-41628423D01*
X241711314Y-41628895D01*
X241711194Y-41629363D01*
X241711050Y-41629826D01*
X241710884Y-41630283D01*
X241710695Y-41630733D01*
X241710483Y-41631175D01*
X241710248Y-41631609D01*
X241709990Y-41632033D01*
X241709710Y-41632447D01*
X241709406Y-41632850D01*
X241709079Y-41633241D01*
X241708730Y-41633618D01*
X241685961Y-41657230D01*
X241663295Y-41681631D01*
X241640733Y-41706821D01*
X241618274Y-41732801D01*
X241595918Y-41759570D01*
X241573667Y-41787131D01*
X241551519Y-41815482D01*
X241529475Y-41844623D01*
X241499143Y-41887063D01*
X241470988Y-41930017D01*
X241445010Y-41973485D01*
X241421209Y-42017467D01*
X241399585Y-42061963D01*
X241380137Y-42106973D01*
X241362866Y-42152496D01*
X241347772Y-42198533D01*
X241334854Y-42245084D01*
X241324113Y-42292149D01*
X241315549Y-42339728D01*
X241309161Y-42387820D01*
X241304949Y-42436426D01*
X241302914Y-42485545D01*
X241303055Y-42535178D01*
X241305372Y-42585325D01*
X241310076Y-42635754D01*
X241317275Y-42685532D01*
X241326943Y-42734574D01*
X241339053Y-42782793D01*
X241353580Y-42830102D01*
X241370499Y-42876416D01*
X241389782Y-42921648D01*
X241411404Y-42965713D01*
X241435339Y-43008523D01*
X241461562Y-43049992D01*
X241490045Y-43090036D01*
X241520764Y-43128566D01*
X241553692Y-43165497D01*
X241588803Y-43200743D01*
X241626071Y-43234217D01*
X241665470Y-43265833D01*
X241709078Y-43297161D01*
X241753882Y-43325982D01*
X241799815Y-43352331D01*
X241846807Y-43376245D01*
X241894791Y-43397757D01*
X241943698Y-43416905D01*
X241993459Y-43433723D01*
X242044007Y-43448246D01*
X242095272Y-43460511D01*
X242147187Y-43470553D01*
X242199682Y-43478406D01*
X242252691Y-43484108D01*
X242306143Y-43487692D01*
X242359971Y-43489195D01*
X242414106Y-43488652D01*
X242468481Y-43486099D01*
X242516876Y-43481931D01*
X242564803Y-43475799D01*
X242612192Y-43467734D01*
X242658971Y-43457769D01*
X242679787Y-43452425D01*
X242705068Y-43445935D01*
X242750413Y-43432264D01*
X242794935Y-43416787D01*
X242838561Y-43399536D01*
X242881220Y-43380544D01*
X242922842Y-43359841D01*
X242963355Y-43337460D01*
X243002688Y-43313432D01*
X243040769Y-43287790D01*
X243045421Y-43284344D01*
X244250427Y-43284344D01*
X244250430Y-43284683D01*
X244250454Y-43285009D01*
X244250498Y-43285322D01*
X244250561Y-43285623D01*
X244250644Y-43285911D01*
X244250748Y-43286186D01*
X244250871Y-43286449D01*
X244251013Y-43286699D01*
X244251176Y-43286936D01*
X244251359Y-43287161D01*
X244251561Y-43287373D01*
X244251784Y-43287572D01*
X244252026Y-43287759D01*
X244252289Y-43287934D01*
X244252571Y-43288095D01*
X244252873Y-43288244D01*
X244253195Y-43288381D01*
X244253537Y-43288505D01*
X244253898Y-43288616D01*
X244254280Y-43288715D01*
X244254682Y-43288801D01*
X244255103Y-43288875D01*
X244255544Y-43288936D01*
X244256006Y-43288984D01*
X244289909Y-43291218D01*
X244323386Y-43292122D01*
X244356409Y-43291709D01*
X244388949Y-43289991D01*
X244420976Y-43286979D01*
X244452461Y-43282686D01*
X244483377Y-43277123D01*
X244513693Y-43270302D01*
X244543382Y-43262235D01*
X244572414Y-43252934D01*
X244600761Y-43242410D01*
X244628392Y-43230676D01*
X244655281Y-43217743D01*
X244681397Y-43203624D01*
X244706712Y-43188330D01*
X244731198Y-43171873D01*
X244754824Y-43154265D01*
X244777562Y-43135517D01*
X244799384Y-43115642D01*
X244820261Y-43094652D01*
X244840163Y-43072558D01*
X244859062Y-43049373D01*
X244876929Y-43025107D01*
X244893734Y-42999774D01*
X244909450Y-42973384D01*
X244924047Y-42945950D01*
X244937497Y-42917484D01*
X244949770Y-42887997D01*
X244960838Y-42857501D01*
X244970671Y-42826009D01*
X244979242Y-42793532D01*
X244986520Y-42760082D01*
X244993119Y-42721124D01*
X244997782Y-42681773D01*
X245000506Y-42642149D01*
X245001285Y-42602374D01*
X245000117Y-42562567D01*
X244996996Y-42522850D01*
X244991920Y-42483344D01*
X244984883Y-42444169D01*
X244975882Y-42405448D01*
X244964913Y-42367300D01*
X244951972Y-42329846D01*
X244937054Y-42293208D01*
X244920155Y-42257506D01*
X244901272Y-42222862D01*
X244880400Y-42189396D01*
X244857536Y-42157229D01*
X244832876Y-42126518D01*
X244807017Y-42097856D01*
X244779959Y-42071243D01*
X244751702Y-42046679D01*
X244722246Y-42024163D01*
X244691592Y-42003696D01*
X244659738Y-41985278D01*
X244626685Y-41968908D01*
X244592434Y-41954587D01*
X244556984Y-41942314D01*
X244520335Y-41932090D01*
X244482487Y-41923914D01*
X244443441Y-41917787D01*
X244403196Y-41913708D01*
X244361752Y-41911677D01*
X244319109Y-41911695D01*
X244318047Y-41911736D01*
X244317028Y-41911809D01*
X244316051Y-41911914D01*
X244315117Y-41912051D01*
X244314224Y-41912219D01*
X244313374Y-41912420D01*
X244312567Y-41912653D01*
X244311802Y-41912918D01*
X244311079Y-41913215D01*
X244310398Y-41913544D01*
X244309760Y-41913905D01*
X244309164Y-41914299D01*
X244308611Y-41914724D01*
X244308100Y-41915181D01*
X244307631Y-41915670D01*
X244307204Y-41916192D01*
X244306820Y-41916745D01*
X244306479Y-41917330D01*
X244306179Y-41917948D01*
X244305922Y-41918597D01*
X244305708Y-41919279D01*
X244305536Y-41919993D01*
X244305406Y-41920738D01*
X244305318Y-41921516D01*
X244305273Y-41922326D01*
X244305270Y-41923168D01*
X244305310Y-41924042D01*
X244305392Y-41924948D01*
X244305517Y-41925886D01*
X244305684Y-41926856D01*
X244305893Y-41927859D01*
X244306144Y-41928893D01*
X244325336Y-42010497D01*
X244341568Y-42093651D01*
X244354839Y-42178356D01*
X244365150Y-42264611D01*
X244372500Y-42352418D01*
X244376890Y-42441775D01*
X244378319Y-42532684D01*
X244376788Y-42625144D01*
X244372424Y-42711012D01*
X244364818Y-42795776D01*
X244353970Y-42879436D01*
X244339880Y-42961992D01*
X244322550Y-43043444D01*
X244312669Y-43083757D01*
X244301978Y-43123793D01*
X244290477Y-43163553D01*
X244278165Y-43203038D01*
X244265043Y-43242246D01*
X244251111Y-43281179D01*
X244250956Y-43281619D01*
X244250821Y-43282046D01*
X244250706Y-43282461D01*
X244250610Y-43282863D01*
X244250534Y-43283252D01*
X244250479Y-43283629D01*
X244250443Y-43283993D01*
X244250427Y-43284344D01*
X243045421Y-43284344D01*
X243077527Y-43260564D01*
X243112891Y-43231786D01*
X243146790Y-43201489D01*
X243179152Y-43169705D01*
X243209906Y-43136464D01*
X243238980Y-43101798D01*
X243266304Y-43065740D01*
X243291806Y-43028322D01*
X243315415Y-42989574D01*
X243337060Y-42949528D01*
X243356668Y-42908217D01*
X243374170Y-42865673D01*
X243389493Y-42821926D01*
X243402567Y-42777009D01*
X243413320Y-42730953D01*
X243421681Y-42683790D01*
X243427578Y-42635553D01*
X243430940Y-42586272D01*
X243431696Y-42535980D01*
X243430216Y-42488910D01*
X243426866Y-42442525D01*
X243421646Y-42396825D01*
X243414556Y-42351809D01*
X243405597Y-42307478D01*
X243394769Y-42263831D01*
X243382070Y-42220869D01*
X243367502Y-42178590D01*
X243351064Y-42136996D01*
X243332757Y-42096087D01*
X243312580Y-42055861D01*
X243290533Y-42016320D01*
X243266617Y-41977463D01*
X243240831Y-41939290D01*
X243213175Y-41901801D01*
X243183650Y-41864996D01*
X243162941Y-41840600D01*
X243141960Y-41816565D01*
X243120707Y-41792890D01*
X243099181Y-41769576D01*
X243077383Y-41746622D01*
X243055311Y-41724028D01*
X243032966Y-41701794D01*
X243010347Y-41679920D01*
X243010118Y-41679689D01*
X243009903Y-41679448D01*
X243009700Y-41679197D01*
X243009512Y-41678937D01*
X243009337Y-41678668D01*
X243009177Y-41678392D01*
X243009031Y-41678108D01*
X243008901Y-41677817D01*
X243008785Y-41677520D01*
X243008684Y-41677217D01*
X243008599Y-41676910D01*
X243008530Y-41676598D01*
X243008477Y-41676282D01*
X243008440Y-41675962D01*
X243008420Y-41675641D01*
X243008416Y-41675316D01*
X243008430Y-41674993D01*
X243008460Y-41674672D01*
X243008507Y-41674354D01*
X243008569Y-41674040D01*
X243008648Y-41673731D01*
X243008742Y-41673427D01*
X243008852Y-41673128D01*
X243008977Y-41672836D01*
X243009116Y-41672551D01*
X243009270Y-41672273D01*
X243009438Y-41672002D01*
X243009620Y-41671741D01*
X243009815Y-41671489D01*
X243010024Y-41671246D01*
X243010245Y-41671014D01*
X243010480Y-41670792D01*
X243723135Y-41008276D01*
X243723474Y-41007963D01*
X243723813Y-41007670D01*
X243724152Y-41007397D01*
X243724492Y-41007145D01*
X243724832Y-41006911D01*
X243725172Y-41006698D01*
X243725513Y-41006505D01*
X243725854Y-41006331D01*
X243726195Y-41006178D01*
X243726536Y-41006044D01*
X243726878Y-41005930D01*
X243727220Y-41005836D01*
X243727562Y-41005762D01*
X243727905Y-41005708D01*
X243728247Y-41005674D01*
X243728590Y-41005659D01*
X243728934Y-41005665D01*
X243729277Y-41005691D01*
X243729621Y-41005736D01*
X243729966Y-41005801D01*
X243730310Y-41005887D01*
X243730655Y-41005992D01*
X243731000Y-41006117D01*
X243731345Y-41006263D01*
X243731690Y-41006428D01*
X243732036Y-41006613D01*
X243732382Y-41006818D01*
X243732728Y-41007043D01*
X243733075Y-41007288D01*
X243733421Y-41007553D01*
X243733768Y-41007838D01*
X243734115Y-41008143D01*
X243775985Y-41046621D01*
X243816395Y-41085658D01*
X243855345Y-41125252D01*
X243892836Y-41165405D01*
X243928866Y-41206116D01*
X243963437Y-41247384D01*
X243996548Y-41289211D01*
X244028200Y-41331596D01*
X244028706Y-41332255D01*
X244029233Y-41332876D01*
X244029781Y-41333460D01*
X244030350Y-41334008D01*
X244030939Y-41334517D01*
X244031549Y-41334990D01*
X244032180Y-41335426D01*
X244032832Y-41335825D01*
X244033503Y-41336186D01*
X244034196Y-41336511D01*
X244034909Y-41336798D01*
X244035643Y-41337049D01*
X244036397Y-41337263D01*
X244037172Y-41337439D01*
X244037967Y-41337579D01*
X244038783Y-41337682D01*
X244044554Y-41338203D01*
X244050359Y-41338575D01*
X244056197Y-41338798D01*
X244062068Y-41338872D01*
X244067972Y-41338798D01*
X244073908Y-41338575D01*
X244079877Y-41338203D01*
X244085879Y-41337682D01*
X244169006Y-41329973D01*
X244249457Y-41323257D01*
X244327230Y-41317536D01*
X244361752Y-41315364D01*
X244402320Y-41312811D01*
X244424622Y-41311841D01*
X244447013Y-41311447D01*
X244469493Y-41311629D01*
X244492061Y-41312387D01*
X244514719Y-41313720D01*
X244537466Y-41315629D01*
X244560301Y-41318114D01*
X244583226Y-41321175D01*
X244606240Y-41324812D01*
X244629342Y-41329024D01*
X244652534Y-41333812D01*
X244675814Y-41339176D01*
X244699184Y-41345115D01*
X244722643Y-41351631D01*
X244746190Y-41358722D01*
X244769827Y-41366389D01*
X244822361Y-41385263D01*
X244873405Y-41406136D01*
X244922957Y-41429008D01*
X244971017Y-41453880D01*
X245017587Y-41480750D01*
X245062665Y-41509620D01*
X245106251Y-41540488D01*
X245148346Y-41573356D01*
X245188950Y-41608223D01*
X245228062Y-41645088D01*
X245265683Y-41683952D01*
X245301813Y-41724815D01*
X245336451Y-41767677D01*
X245369598Y-41812538D01*
X245401253Y-41859398D01*
X245431417Y-41908256D01*
X245458183Y-41955727D01*
X245482853Y-42003881D01*
X245505427Y-42052721D01*
X245525905Y-42102244D01*
X245544288Y-42152451D01*
X245560574Y-42203342D01*
X245574765Y-42254918D01*
X245586860Y-42307178D01*
X245596859Y-42360122D01*
X245604761Y-42413751D01*
X245610568Y-42468064D01*
X245614279Y-42523061D01*
X245615893Y-42578743D01*
X245615411Y-42635109D01*
X245612833Y-42692160D01*
X245608159Y-42749895D01*
X245597008Y-42839207D01*
X245581333Y-42926026D01*
X245561081Y-43010212D01*
X245536203Y-43091623D01*
X245506646Y-43170121D01*
X245490097Y-43208233D01*
X245472360Y-43245565D01*
X245453428Y-43282098D01*
X245433295Y-43317815D01*
X245411953Y-43352698D01*
X245389398Y-43386731D01*
X245365622Y-43419895D01*
X245340620Y-43452172D01*
X245314384Y-43483547D01*
X245286909Y-43514000D01*
X245258187Y-43543514D01*
X245228213Y-43572073D01*
X245196981Y-43599657D01*
X245164484Y-43626251D01*
X245130715Y-43651836D01*
X245095668Y-43676395D01*
X245059337Y-43699910D01*
X245021716Y-43722364D01*
X244982798Y-43743739D01*
X244942576Y-43764018D01*
X244901045Y-43783183D01*
X244858198Y-43801217D01*
X244833343Y-43810656D01*
X244807993Y-43819198D01*
X244782146Y-43826843D01*
X244755804Y-43833592D01*
X244728965Y-43839444D01*
X244701630Y-43844400D01*
X244673799Y-43848458D01*
X244645472Y-43851620D01*
X244621029Y-43853751D01*
X244597111Y-43855519D01*
X244573718Y-43856925D01*
X244550849Y-43857967D01*
X244528506Y-43858646D01*
X244506688Y-43858961D01*
X244485396Y-43858912D01*
X244464630Y-43858499D01*
X244226323Y-43850099D01*
X244165611Y-43848603D01*
X244104968Y-43847858D01*
X244044657Y-43848118D01*
X243984940Y-43849636D01*
X243978102Y-43849939D01*
X243971281Y-43850320D01*
X243964475Y-43850781D01*
X243957687Y-43851321D01*
X243950915Y-43851939D01*
X243944159Y-43852636D01*
X243937421Y-43853412D01*
X243930701Y-43854266D01*
X243929867Y-43854397D01*
X243929051Y-43854561D01*
X243928254Y-43854759D01*
X243927476Y-43854990D01*
X243926716Y-43855254D01*
X243925975Y-43855552D01*
X243925253Y-43855883D01*
X243924549Y-43856247D01*
X243923864Y-43856645D01*
X243923197Y-43857075D01*
X243922549Y-43857539D01*
X243921920Y-43858035D01*
X243921309Y-43858565D01*
X243920717Y-43859128D01*
X243920143Y-43859723D01*
X243919588Y-43860352D01*
X243880585Y-43905401D01*
X243840571Y-43949040D01*
X243799545Y-43991269D01*
X243757507Y-44032087D01*
X243714457Y-44071494D01*
X243670395Y-44109491D01*
X243625322Y-44146077D01*
X243579236Y-44181253D01*
X243532139Y-44215018D01*
X243484030Y-44247373D01*
X243434909Y-44278316D01*
X243384776Y-44307850D01*
X243333631Y-44335972D01*
X243281474Y-44362684D01*
X243228306Y-44387985D01*
X243174125Y-44411876D01*
X243173436Y-44412180D01*
X243172793Y-44412483D01*
X243172195Y-44412784D01*
X243171641Y-44413084D01*
X243171133Y-44413382D01*
X243170669Y-44413679D01*
X243170250Y-44413975D01*
X243169876Y-44414269D01*
X243169547Y-44414561D01*
X243169263Y-44414852D01*
X243169024Y-44415142D01*
X243168830Y-44415430D01*
X243168680Y-44415716D01*
X243168576Y-44416001D01*
X243168517Y-44416285D01*
X243168502Y-44416567D01*
X243168533Y-44416847D01*
X243168608Y-44417126D01*
X243168729Y-44417404D01*
X243168894Y-44417680D01*
X243169105Y-44417954D01*
X243169360Y-44418227D01*
X243169660Y-44418498D01*
X243170006Y-44418768D01*
X243170396Y-44419036D01*
X243170832Y-44419303D01*
X243171312Y-44419568D01*
X243171837Y-44419832D01*
X243172408Y-44420094D01*
X243173023Y-44420355D01*
X243173684Y-44420614D01*
X243174389Y-44420871D01*
X243210716Y-44434081D01*
X243246805Y-44447957D01*
X243282632Y-44462496D01*
X243318172Y-44477691D01*
X243353401Y-44493537D01*
X243388295Y-44510029D01*
X243422829Y-44527161D01*
X243456981Y-44544928D01*
X243490724Y-44563324D01*
X243524036Y-44582344D01*
X243556891Y-44601983D01*
X243589266Y-44622236D01*
X243621136Y-44643095D01*
X243652478Y-44664558D01*
X243683266Y-44686617D01*
X243713477Y-44709267D01*
X243801598Y-44781595D01*
X243883060Y-44858092D01*
X243957959Y-44938547D01*
X244026385Y-45022749D01*
X244088431Y-45110485D01*
X244144191Y-45201544D01*
X244193756Y-45295714D01*
X244237220Y-45392785D01*
X244274675Y-45492544D01*
X244306214Y-45594779D01*
X244331929Y-45699279D01*
X244351913Y-45805833D01*
X244366259Y-45914228D01*
X244375059Y-46024253D01*
X244378405Y-46135697D01*
X244376391Y-46248348D01*
X244369519Y-46349759D01*
X244357339Y-46450069D01*
X244339927Y-46549084D01*
X244317360Y-46646612D01*
X244289717Y-46742459D01*
X244257073Y-46836433D01*
X244219506Y-46928340D01*
X244177094Y-47017988D01*
X244129913Y-47105183D01*
X244078040Y-47189732D01*
X244021553Y-47271443D01*
X243960528Y-47350122D01*
X243895044Y-47425577D01*
X243825176Y-47497614D01*
X243751002Y-47566041D01*
X243672600Y-47630663D01*
X243615173Y-47673799D01*
X243556599Y-47714702D01*
X243496876Y-47753372D01*
X243436005Y-47789810D01*
X243373986Y-47824016D01*
X243310818Y-47855989D01*
X243246502Y-47885730D01*
X243181038Y-47913239D01*
X243114426Y-47938515D01*
X243046666Y-47961558D01*
X242977757Y-47982369D01*
X242907699Y-48000948D01*
X242836494Y-48017294D01*
X242764139Y-48031408D01*
X242690637Y-48043290D01*
X242615986Y-48052939D01*
X242585799Y-48056101D01*
X242555165Y-48058721D01*
X242524085Y-48060798D01*
X242492558Y-48062331D01*
X242491929Y-48062364D01*
X242491332Y-48062413D01*
X242490766Y-48062477D01*
X242490233Y-48062557D01*
X242489731Y-48062652D01*
X242489260Y-48062764D01*
X242488822Y-48062891D01*
X242488416Y-48063034D01*
X242488041Y-48063192D01*
X242487698Y-48063367D01*
X242487387Y-48063557D01*
X242487107Y-48063763D01*
X242486859Y-48063985D01*
X242486644Y-48064222D01*
X242486459Y-48064475D01*
X242486307Y-48064744D01*
X242486187Y-48065029D01*
X242486098Y-48065330D01*
X242486041Y-48065646D01*
X242486016Y-48065978D01*
X242486022Y-48066326D01*
X242486061Y-48066690D01*
X242486131Y-48067069D01*
X242486233Y-48067464D01*
X242486366Y-48067875D01*
X242486532Y-48068302D01*
X242486729Y-48068745D01*
X242486958Y-48069203D01*
X242487219Y-48069678D01*
X242487512Y-48070168D01*
X242487836Y-48070674D01*
X242488192Y-48071195D01*
X242513621Y-48108024D01*
X242538183Y-48145560D01*
X242561903Y-48183766D01*
X242584806Y-48222605D01*
X242606919Y-48262040D01*
X242628267Y-48302034D01*
X242668770Y-48383552D01*
X242706520Y-48466862D01*
X242741721Y-48551668D01*
X242774578Y-48637674D01*
X242805295Y-48724583D01*
X242889499Y-48970644D01*
X242970925Y-49206654D01*
X242985223Y-49246839D01*
X243000010Y-49286101D01*
X243015286Y-49324442D01*
X243031050Y-49361862D01*
X243047301Y-49398360D01*
X243064041Y-49433937D01*
X243081268Y-49468592D01*
X243098983Y-49502326D01*
X243110860Y-49523481D01*
X243123445Y-49544128D01*
X243136774Y-49564107D01*
X243150883Y-49583260D01*
X243165807Y-49601428D01*
X243181583Y-49618454D01*
X243198245Y-49634178D01*
X243215830Y-49648442D01*
X243224979Y-49654977D01*
X243234372Y-49661088D01*
X243244014Y-49666754D01*
X243253909Y-49671956D01*
X243264061Y-49676675D01*
X243274475Y-49680890D01*
X243285155Y-49684581D01*
X243296106Y-49687729D01*
X243307332Y-49690313D01*
X243318837Y-49692315D01*
X243330627Y-49693714D01*
X243342705Y-49694490D01*
X243355077Y-49694624D01*
X243367745Y-49694096D01*
X243380716Y-49692886D01*
X243393993Y-49690974D01*
X243406926Y-49688442D01*
X243419458Y-49685298D01*
X243431594Y-49681564D01*
X243443336Y-49677258D01*
X243454688Y-49672400D01*
X243465653Y-49667010D01*
X243476235Y-49661109D01*
X243486438Y-49654716D01*
X243496265Y-49647850D01*
X243505719Y-49640532D01*
X243514804Y-49632781D01*
X243523523Y-49624617D01*
X243539877Y-49607132D01*
X243554810Y-49588233D01*
X243568350Y-49568080D01*
X243580523Y-49546832D01*
X243591359Y-49524646D01*
X243600883Y-49501683D01*
X243609125Y-49478101D01*
X243616111Y-49454057D01*
X243621870Y-49429712D01*
X243626430Y-49405224D01*
X243631716Y-49366483D01*
X243635181Y-49327305D01*
X243636916Y-49287762D01*
X243637009Y-49247929D01*
X243635550Y-49207879D01*
X243632630Y-49167685D01*
X243628336Y-49127421D01*
X243622759Y-49087161D01*
X243615988Y-49046979D01*
X243608113Y-49006948D01*
X243599224Y-48967142D01*
X243589409Y-48927634D01*
X243567362Y-48849809D01*
X243542689Y-48774060D01*
X243514621Y-48696333D01*
X243484391Y-48618996D01*
X243451998Y-48542048D01*
X243417444Y-48465488D01*
X243380727Y-48389318D01*
X243341847Y-48313536D01*
X243300805Y-48238142D01*
X243257601Y-48163137D01*
X243257300Y-48162603D01*
X243257027Y-48162075D01*
X243256780Y-48161555D01*
X243256560Y-48161043D01*
X243256367Y-48160537D01*
X243256201Y-48160039D01*
X243256061Y-48159548D01*
X243255949Y-48159065D01*
X243255863Y-48158588D01*
X243255804Y-48158119D01*
X243255772Y-48157658D01*
X243255767Y-48157203D01*
X243255789Y-48156756D01*
X243255837Y-48156316D01*
X243255913Y-48155884D01*
X243256015Y-48155458D01*
X243256144Y-48155040D01*
X243256300Y-48154630D01*
X243256483Y-48154226D01*
X243256692Y-48153830D01*
X243256929Y-48153441D01*
X243257192Y-48153060D01*
X243257482Y-48152685D01*
X243257800Y-48152318D01*
X243258144Y-48151959D01*
X243258514Y-48151606D01*
X243258912Y-48151261D01*
X243259337Y-48150923D01*
X243259789Y-48150592D01*
X243260267Y-48150269D01*
X243260772Y-48149953D01*
X243261305Y-48149645D01*
X244056510Y-47710568D01*
X244056819Y-47710409D01*
X244057132Y-47710266D01*
X244057448Y-47710140D01*
X244057768Y-47710030D01*
X244058091Y-47709936D01*
X244058416Y-47709857D01*
X244058742Y-47709795D01*
X244059070Y-47709748D01*
X244059398Y-47709716D01*
X244059726Y-47709700D01*
X244060054Y-47709699D01*
X244060381Y-47709713D01*
X244060706Y-47709743D01*
X244061029Y-47709786D01*
X244061350Y-47709845D01*
X244061668Y-47709918D01*
X244061982Y-47710006D01*
X244062292Y-47710107D01*
X244062597Y-47710223D01*
X244062897Y-47710353D01*
X244063192Y-47710496D01*
X244063480Y-47710654D01*
X244063761Y-47710825D01*
X244064035Y-47711009D01*
X244064301Y-47711206D01*
X244064559Y-47711417D01*
X244064809Y-47711641D01*
X244065048Y-47711877D01*
X244065278Y-47712127D01*
X244065497Y-47712388D01*
X244065706Y-47712663D01*
X244065903Y-47712949D01*
X244123566Y-47804298D01*
X244177921Y-47897955D01*
X244228867Y-47993758D01*
X244276300Y-48091545D01*
X244320120Y-48191153D01*
X244360224Y-48292418D01*
X244396511Y-48395180D01*
X244428878Y-48499274D01*
X244457224Y-48604539D01*
X244481446Y-48710812D01*
X244501443Y-48817930D01*
X244517112Y-48925731D01*
X244528353Y-49034052D01*
X244535062Y-49142730D01*
X244537139Y-49251604D01*
X244534480Y-49360510D01*
X244527547Y-49457030D01*
X244515682Y-49553271D01*
X244498812Y-49648801D01*
X244476867Y-49743184D01*
X244449774Y-49835987D01*
X244417464Y-49926777D01*
X244379863Y-50015120D01*
X244359057Y-50058238D01*
X244336902Y-50100582D01*
X244313389Y-50142097D01*
X244288509Y-50182730D01*
X244262253Y-50222425D01*
X244234612Y-50261129D01*
X244205577Y-50298788D01*
X244175140Y-50335347D01*
X244143291Y-50370751D01*
X244110022Y-50404948D01*
X244075323Y-50437883D01*
X244039187Y-50469501D01*
X244001603Y-50499748D01*
X243962562Y-50528570D01*
X243922057Y-50555913D01*
X243880078Y-50581723D01*
X243836616Y-50605945D01*
X243791662Y-50628526D01*
X243790935Y-50628849D01*
X243790208Y-50629127D01*
X243789481Y-50629358D01*
X243788753Y-50629542D01*
X243788025Y-50629680D01*
X243787297Y-50629771D01*
X243786570Y-50629816D01*
X243785841Y-50629815D01*
X243785113Y-50629767D01*
X243784385Y-50629672D01*
X243783658Y-50629531D01*
X243782930Y-50629343D01*
X243782202Y-50629109D01*
X243781475Y-50628829D01*
X243780748Y-50628502D01*
X243780021Y-50628128D01*
X243737767Y-50606045D01*
X243694736Y-50585335D01*
X243650991Y-50565993D01*
X243606590Y-50548017D01*
X243561596Y-50531402D01*
X243516069Y-50516144D01*
X243470070Y-50502240D01*
X243423660Y-50489685D01*
X243376899Y-50478476D01*
X243329849Y-50468608D01*
X243282570Y-50460079D01*
X243235124Y-50452883D01*
X243187570Y-50447018D01*
X243139970Y-50442478D01*
X243092385Y-50439262D01*
X243044876Y-50437363D01*
X242893520Y-50434169D01*
X242743717Y-50432662D01*
X242595467Y-50432845D01*
X242448769Y-50434718D01*
X242447573Y-50434722D01*
X242446399Y-50434671D01*
X242445249Y-50434563D01*
X242444121Y-50434401D01*
X242443016Y-50434182D01*
X242441934Y-50433907D01*
X242440875Y-50433577D01*
X242439838Y-50433192D01*
X242438824Y-50432750D01*
X242437833Y-50432253D01*
X242436865Y-50431700D01*
X242435920Y-50431092D01*
X242434997Y-50430428D01*
X242434097Y-50429709D01*
X242433220Y-50428933D01*
X242432365Y-50428103D01*
X242421597Y-50417172D01*
X242410991Y-50406010D01*
X242400546Y-50394616D01*
X242390264Y-50382990D01*
X242380142Y-50371133D01*
X242370181Y-50359045D01*
X242360381Y-50346727D01*
X242350741Y-50334177D01*
X242322317Y-50295291D01*
X242295110Y-50255564D01*
X242269078Y-50215047D01*
X242244178Y-50173789D01*
X242220369Y-50131844D01*
X242197609Y-50089261D01*
X242175855Y-50046092D01*
X242155065Y-50002389D01*
X242135198Y-49958202D01*
X242116212Y-49913582D01*
X242080711Y-49823249D01*
X242048228Y-49731801D01*
X242018425Y-49639645D01*
X241953934Y-49428269D01*
X241891954Y-49219354D01*
X241880640Y-49181663D01*
X241868854Y-49144332D01*
X241856596Y-49107362D01*
X241843866Y-49070753D01*
X241830665Y-49034503D01*
X241816993Y-48998614D01*
X241802850Y-48963085D01*
X241788237Y-48927915D01*
X241780792Y-48910870D01*
X241773032Y-48894086D01*
X241764945Y-48877593D01*
X241756516Y-48861423D01*
X241747732Y-48845605D01*
X241738580Y-48830173D01*
X241729045Y-48815156D01*
X241719115Y-48800585D01*
X241708775Y-48786492D01*
X241698013Y-48772907D01*
X241686814Y-48759862D01*
X241675165Y-48747387D01*
X241663053Y-48735514D01*
X241650463Y-48724273D01*
X241637383Y-48713696D01*
X241623798Y-48703813D01*
X241620056Y-48701292D01*
X241616335Y-48698890D01*
X241612636Y-48696604D01*
X241608958Y-48694437D01*
X241605302Y-48692388D01*
X241601667Y-48690456D01*
X241598054Y-48688642D01*
X241594463Y-48686946D01*
X241590893Y-48685368D01*
X241587345Y-48683908D01*
X241583819Y-48682565D01*
X241580315Y-48681341D01*
X241576832Y-48680234D01*
X241573372Y-48679245D01*
X241569933Y-48678373D01*
X241566517Y-48677620D01*
X241545697Y-48673989D01*
X241525527Y-48671558D01*
X241506002Y-48670294D01*
X241487117Y-48670165D01*
X241468868Y-48671138D01*
X241451251Y-48673180D01*
X241434260Y-48676259D01*
X241417891Y-48680342D01*
X241402139Y-48685397D01*
X241387001Y-48691390D01*
X241372470Y-48698289D01*
X241358543Y-48706062D01*
X241345215Y-48714676D01*
X241332482Y-48724099D01*
X241320338Y-48734297D01*
X241308779Y-48745238D01*
X241297801Y-48756889D01*
X241287399Y-48769218D01*
X241277569Y-48782193D01*
X241268305Y-48795780D01*
X241259603Y-48809946D01*
X241251459Y-48824660D01*
X241236825Y-48855600D01*
X241224366Y-48888337D01*
X241214046Y-48922611D01*
X241205826Y-48958160D01*
X241199672Y-48994724D01*
X241193476Y-49048822D01*
X241189703Y-49103765D01*
X241188351Y-49159550D01*
X241189422Y-49216179D01*
X241192915Y-49273652D01*
X241198831Y-49331968D01*
X241207168Y-49391127D01*
X241217928Y-49451130D01*
X241232151Y-49517120D01*
X241248525Y-49582433D01*
X241266970Y-49647070D01*
X241287408Y-49711031D01*
X241309760Y-49774315D01*
X241333946Y-49836922D01*
X241359889Y-49898852D01*
X241387509Y-49960105D01*
X241416728Y-50020681D01*
X241447465Y-50080578D01*
X241479644Y-50139798D01*
X241513184Y-50198340D01*
X241548007Y-50256203D01*
X241584034Y-50313388D01*
X241621187Y-50369894D01*
X241659385Y-50425722D01*
X241659702Y-50426193D01*
X241659990Y-50426649D01*
X241660250Y-50427091D01*
X241660482Y-50427518D01*
X241660685Y-50427929D01*
X241660860Y-50428326D01*
X241661006Y-50428708D01*
X241661124Y-50429075D01*
X241661213Y-50429427D01*
X241661274Y-50429764D01*
X241661307Y-50430086D01*
X241661311Y-50430394D01*
X241661286Y-50430686D01*
X241661233Y-50430964D01*
X241661152Y-50431226D01*
X241661042Y-50431473D01*
X241660904Y-50431706D01*
X241660737Y-50431924D01*
X241660542Y-50432126D01*
X241660318Y-50432314D01*
X241660066Y-50432486D01*
X241659786Y-50432644D01*
X241659477Y-50432787D01*
X241659140Y-50432915D01*
X241658774Y-50433027D01*
X241658379Y-50433125D01*
X241657957Y-50433208D01*
X241657506Y-50433275D01*
X241657026Y-50433328D01*
X241656518Y-50433365D01*
X241655982Y-50433388D01*
X241655417Y-50433395D01*
X240589675Y-50433395D01*
X240588537Y-50433362D01*
X240587983Y-50433321D01*
X240587439Y-50433263D01*
X240586906Y-50433188D01*
X240586382Y-50433097D01*
X240585869Y-50432989D01*
X240585366Y-50432865D01*
X240584873Y-50432724D01*
X240584390Y-50432567D01*
X240583917Y-50432393D01*
X240583454Y-50432202D01*
X240583002Y-50431995D01*
X240582559Y-50431772D01*
X240582127Y-50431532D01*
X240581704Y-50431275D01*
X240581292Y-50431002D01*
X240580890Y-50430712D01*
X240580497Y-50430406D01*
X240580115Y-50430084D01*
X240579743Y-50429745D01*
X240579381Y-50429389D01*
X240579029Y-50429017D01*
X240578688Y-50428629D01*
X240578356Y-50428224D01*
X240578034Y-50427802D01*
X240577722Y-50427364D01*
X240577420Y-50426910D01*
X240577129Y-50426439D01*
X240576847Y-50425952D01*
X240576314Y-50424928D01*
X240536762Y-50338773D01*
X240500125Y-50252322D01*
X240466404Y-50165577D01*
X240435599Y-50078535D01*
X240407709Y-49991199D01*
X240382735Y-49903567D01*
X240360676Y-49815640D01*
X240341532Y-49727417D01*
X240325304Y-49638899D01*
X240311992Y-49550085D01*
X240301595Y-49460976D01*
X240294113Y-49371571D01*
X240289547Y-49281871D01*
X240287896Y-49191874D01*
X240289161Y-49101582D01*
X240293342Y-49010995D01*
X240302410Y-48904299D01*
X240316389Y-48798685D01*
X240335460Y-48694618D01*
X240359802Y-48592562D01*
X240389594Y-48492984D01*
X240406591Y-48444268D01*
X240425017Y-48396346D01*
X240444897Y-48349276D01*
X240466251Y-48303115D01*
X240489103Y-48257922D01*
X240513475Y-48213756D01*
X240539389Y-48170673D01*
X240566869Y-48128732D01*
X240595936Y-48087992D01*
X240626613Y-48048510D01*
X240658923Y-48010344D01*
X240692887Y-47973553D01*
X240728529Y-47938195D01*
X240765871Y-47904327D01*
X240804935Y-47872009D01*
X240845744Y-47841298D01*
X240888320Y-47812251D01*
X240932686Y-47784928D01*
X240978865Y-47759387D01*
X241026878Y-47735685D01*
X241076748Y-47713880D01*
X241128499Y-47694032D01*
X241128972Y-47693856D01*
X241129418Y-47693675D01*
X241129837Y-47693490D01*
X241130227Y-47693300D01*
X241130591Y-47693105D01*
X241130926Y-47692906D01*
X241131234Y-47692702D01*
X241131515Y-47692493D01*
X241131767Y-47692280D01*
X241131993Y-47692062D01*
X241132190Y-47691840D01*
X241132360Y-47691613D01*
X241132502Y-47691381D01*
X241132617Y-47691145D01*
X241132704Y-47690904D01*
X241132763Y-47690658D01*
X241132795Y-47690407D01*
X241132799Y-47690152D01*
X241132776Y-47689893D01*
X241132725Y-47689628D01*
X241132646Y-47689359D01*
X241132539Y-47689086D01*
X241132405Y-47688808D01*
X241132243Y-47688525D01*
X241132054Y-47688237D01*
X241131837Y-47687945D01*
X241131592Y-47687648D01*
X241131320Y-47687347D01*
X241131020Y-47687040D01*
X241130692Y-47686730D01*
X241130337Y-47686414D01*
X241129954Y-47686094D01*
X241083561Y-47648242D01*
X241045190Y-47616442D01*
X241029011Y-47602812D01*
X241014837Y-47590695D01*
X241002668Y-47580091D01*
X240992503Y-47571000D01*
X240922045Y-47503367D01*
X240855728Y-47432768D01*
X240793551Y-47359342D01*
X240735512Y-47283227D01*
X240681610Y-47204560D01*
X240631843Y-47123481D01*
X240586211Y-47040127D01*
X240544712Y-46954637D01*
X240507344Y-46867148D01*
X240474107Y-46777799D01*
X240444998Y-46686728D01*
X240420017Y-46594074D01*
X240399162Y-46499973D01*
X240382431Y-46404566D01*
X240369824Y-46307989D01*
X240361339Y-46210381D01*
X240356929Y-46117986D01*
X240355872Y-46026409D01*
X240358169Y-45935652D01*
X240363818Y-45845714D01*
X240372821Y-45756594D01*
X240385176Y-45668295D01*
X240400884Y-45580814D01*
X240419944Y-45494154D01*
X240439707Y-45418874D01*
X240462455Y-45344918D01*
X240488147Y-45272328D01*
X240516743Y-45201148D01*
X240548201Y-45131421D01*
X240582481Y-45063189D01*
X240619542Y-44996496D01*
X240659343Y-44931385D01*
X240701843Y-44867898D01*
X240747001Y-44806079D01*
X240794776Y-44745971D01*
X240845128Y-44687617D01*
X240898015Y-44631059D01*
X240953397Y-44576341D01*
X241011233Y-44523506D01*
X241071481Y-44472597D01*
X241071893Y-44472269D01*
X241072303Y-44471964D01*
X241072711Y-44471682D01*
X241073117Y-44471423D01*
X241073521Y-44471187D01*
X241073923Y-44470974D01*
X241074323Y-44470784D01*
X241074720Y-44470617D01*
X241075116Y-44470474D01*
X241075510Y-44470353D01*
X241075902Y-44470256D01*
X241076291Y-44470181D01*
X241076679Y-44470130D01*
X241077064Y-44470101D01*
X241077448Y-44470096D01*
X241077829Y-44470114D01*
X241078209Y-44470154D01*
X241078586Y-44470218D01*
X241078961Y-44470305D01*
X241079335Y-44470414D01*
X241079706Y-44470547D01*
X241080075Y-44470703D01*
X241080442Y-44470881D01*
X241080807Y-44471083D01*
X241081170Y-44471308D01*
X241081531Y-44471555D01*
X241081889Y-44471826D01*
X241082246Y-44472119D01*
X241082601Y-44472436D01*
X241082953Y-44472775D01*
X241083304Y-44473138D01*
X241083652Y-44473523D01*
X241630016Y-45090664D01*
X241630353Y-45091052D01*
X241630667Y-45091440D01*
X241630959Y-45091828D01*
X241631230Y-45092217D01*
X241631478Y-45092605D01*
X241631705Y-45092993D01*
X241631910Y-45093381D01*
X241632092Y-45093770D01*
X241632253Y-45094158D01*
X241632392Y-45094546D01*
X241632509Y-45094934D01*
X241632603Y-45095323D01*
X241632676Y-45095711D01*
X241632727Y-45096100D01*
X241632756Y-45096488D01*
X241632763Y-45096877D01*
X241632748Y-45097265D01*
X241632711Y-45097654D01*
X241632652Y-45098042D01*
X241632571Y-45098431D01*
X241632468Y-45098820D01*
X241632343Y-45099208D01*
X241632196Y-45099597D01*
X241632027Y-45099986D01*
X241631836Y-45100375D01*
X241631624Y-45100764D01*
X241631389Y-45101153D01*
X241631132Y-45101542D01*
X241630853Y-45101931D01*
X241630552Y-45102321D01*
X241630229Y-45102710D01*
X241629884Y-45103099D01*
X241595589Y-45141204D01*
X241562316Y-45179842D01*
X241530161Y-45219059D01*
X241499215Y-45258898D01*
X241469572Y-45299403D01*
X241441326Y-45340620D01*
X241414569Y-45382591D01*
X241389394Y-45425362D01*
X241365896Y-45468976D01*
X241344167Y-45513477D01*
X241324299Y-45558911D01*
X241306388Y-45605320D01*
X241290525Y-45652749D01*
X241276804Y-45701243D01*
X241265318Y-45750845D01*
X241256160Y-45801599D01*
X241251606Y-45832966D01*
X241247700Y-45864064D01*
X241244445Y-45894891D01*
X241241838Y-45925449D01*
X241239880Y-45955737D01*
X241238572Y-45985756D01*
X241237912Y-46015504D01*
X241237902Y-46044983D01*
X241238541Y-46074192D01*
X241239829Y-46103131D01*
X241241766Y-46131801D01*
X241244352Y-46160201D01*
X241247588Y-46188331D01*
X241251472Y-46216191D01*
X241256005Y-46243781D01*
X241261187Y-46271102D01*
X241269068Y-46306692D01*
X241278066Y-46341404D01*
X241288162Y-46375238D01*
X241299341Y-46408193D01*
X241311585Y-46440269D01*
X241324877Y-46471465D01*
X241339200Y-46501781D01*
X241354538Y-46531217D01*
X241370872Y-46559771D01*
X241388186Y-46587445D01*
X241425686Y-46640145D01*
X241466902Y-46689315D01*
X241511698Y-46734950D01*
X241559937Y-46777048D01*
X241611482Y-46815604D01*
X241666199Y-46850616D01*
X241723950Y-46882079D01*
X241784599Y-46909991D01*
X241848010Y-46934347D01*
X241914047Y-46955145D01*
X241982573Y-46972380D01*
X241983013Y-46972471D01*
X241983439Y-46972544D01*
X241983850Y-46972600D01*
X241984248Y-46972638D01*
X241984632Y-46972659D01*
X241985001Y-46972663D01*
X241985357Y-46972650D01*
X241985699Y-46972619D01*
X241986027Y-46972570D01*
X241986341Y-46972505D01*
X241986641Y-46972422D01*
X241986927Y-46972322D01*
X241987199Y-46972205D01*
X241987457Y-46972070D01*
X241987701Y-46971918D01*
X241987932Y-46971749D01*
X241988148Y-46971562D01*
X241988350Y-46971358D01*
X241988538Y-46971137D01*
X241988713Y-46970899D01*
X241988873Y-46970643D01*
X241989020Y-46970370D01*
X241989152Y-46970080D01*
X241989271Y-46969772D01*
X241989376Y-46969447D01*
X241989466Y-46969105D01*
X241989543Y-46968746D01*
X241989606Y-46968370D01*
X241989655Y-46967976D01*
X241989690Y-46967565D01*
X241989711Y-46967137D01*
X241989718Y-46966692D01*
X241989718Y-45346780D01*
X242677634Y-45346780D01*
X242677634Y-46983360D01*
X242677639Y-46983660D01*
X242677653Y-46983949D01*
X242677677Y-46984226D01*
X242677710Y-46984493D01*
X242677753Y-46984748D01*
X242677806Y-46984993D01*
X242677868Y-46985226D01*
X242677939Y-46985449D01*
X242678021Y-46985660D01*
X242678111Y-46985860D01*
X242678211Y-46986050D01*
X242678321Y-46986228D01*
X242678441Y-46986395D01*
X242678570Y-46986551D01*
X242678708Y-46986696D01*
X242678856Y-46986830D01*
X242679014Y-46986953D01*
X242679181Y-46987065D01*
X242679358Y-46987165D01*
X242679544Y-46987255D01*
X242679740Y-46987333D01*
X242679946Y-46987401D01*
X242680161Y-46987457D01*
X242680385Y-46987502D01*
X242680620Y-46987536D01*
X242680864Y-46987558D01*
X242681117Y-46987570D01*
X242681380Y-46987571D01*
X242681653Y-46987560D01*
X242681935Y-46987538D01*
X242682227Y-46987505D01*
X242682529Y-46987461D01*
X242724005Y-46980250D01*
X242765377Y-46971653D01*
X242806556Y-46961655D01*
X242847455Y-46950242D01*
X242887985Y-46937398D01*
X242928058Y-46923107D01*
X242967585Y-46907356D01*
X243006478Y-46890128D01*
X243044649Y-46871409D01*
X243082008Y-46851183D01*
X243118469Y-46829436D01*
X243153942Y-46806152D01*
X243188339Y-46781316D01*
X243221572Y-46754913D01*
X243253552Y-46726928D01*
X243284191Y-46697346D01*
X243319483Y-46658753D01*
X243351588Y-46617964D01*
X243380504Y-46575173D01*
X243406228Y-46530576D01*
X243428758Y-46484366D01*
X243448091Y-46436739D01*
X243464224Y-46387888D01*
X243477155Y-46338009D01*
X243486882Y-46287296D01*
X243493402Y-46235943D01*
X243496713Y-46184145D01*
X243496811Y-46132097D01*
X243493695Y-46079993D01*
X243487362Y-46028028D01*
X243477809Y-45976396D01*
X243465034Y-45925292D01*
X243454902Y-45892439D01*
X243443412Y-45860599D01*
X243430606Y-45829766D01*
X243416528Y-45799934D01*
X243401219Y-45771097D01*
X243384725Y-45743247D01*
X243367086Y-45716378D01*
X243348347Y-45690485D01*
X243328549Y-45665559D01*
X243307737Y-45641596D01*
X243263239Y-45596528D01*
X243215197Y-45555231D01*
X243163955Y-45517652D01*
X243109855Y-45483739D01*
X243053241Y-45453441D01*
X242994458Y-45426706D01*
X242933848Y-45403482D01*
X242871755Y-45383717D01*
X242808523Y-45367361D01*
X242744495Y-45354360D01*
X242680015Y-45344664D01*
X242679901Y-45344652D01*
X242679787Y-45344646D01*
X242679674Y-45344647D01*
X242679561Y-45344653D01*
X242679450Y-45344666D01*
X242679339Y-45344684D01*
X242679230Y-45344708D01*
X242679122Y-45344738D01*
X242679017Y-45344774D01*
X242678913Y-45344815D01*
X242678812Y-45344862D01*
X242678713Y-45344915D01*
X242678617Y-45344973D01*
X242678524Y-45345037D01*
X242678434Y-45345105D01*
X242678348Y-45345180D01*
X242678264Y-45345256D01*
X242678185Y-45345337D01*
X242678111Y-45345422D01*
X242678041Y-45345510D01*
X242677978Y-45345602D01*
X242677919Y-45345697D01*
X242677866Y-45345795D01*
X242677818Y-45345896D01*
X242677775Y-45345999D01*
X242677738Y-45346105D01*
X242677707Y-45346214D01*
X242677681Y-45346324D01*
X242677660Y-45346436D01*
X242677646Y-45346549D01*
X242677637Y-45346664D01*
X242677634Y-45346780D01*
X241989718Y-45346780D01*
X241989718Y-44547474D01*
X241989712Y-44547090D01*
X241989694Y-44546716D01*
X241989664Y-44546352D01*
X241989623Y-44545998D01*
X241989569Y-44545654D01*
X241989504Y-44545320D01*
X241989427Y-44544997D01*
X241989338Y-44544683D01*
X241989237Y-44544380D01*
X241989124Y-44544087D01*
X241988999Y-44543804D01*
X241988863Y-44543531D01*
X241988714Y-44543269D01*
X241988554Y-44543016D01*
X241988382Y-44542774D01*
X241988198Y-44542541D01*
X241988002Y-44542319D01*
X241987794Y-44542107D01*
X241987574Y-44541905D01*
X241987342Y-44541713D01*
X241987099Y-44541531D01*
X241986843Y-44541360D01*
X241986576Y-44541198D01*
X241986296Y-44541047D01*
X241986005Y-44540905D01*
X241985702Y-44540774D01*
X241985387Y-44540653D01*
X241985059Y-44540542D01*
X241984721Y-44540441D01*
X241984370Y-44540350D01*
X241984007Y-44540269D01*
X241983632Y-44540198D01*
X241919208Y-44527583D01*
X241855779Y-44513155D01*
X241793346Y-44496912D01*
X241731907Y-44478856D01*
X241671464Y-44458986D01*
X241612015Y-44437302D01*
X241553562Y-44413804D01*
X241496104Y-44388493D01*
X241439642Y-44361367D01*
X241384174Y-44332428D01*
X241329702Y-44301675D01*
X241276226Y-44269108D01*
X241223745Y-44234727D01*
X241172259Y-44198532D01*
X241121769Y-44160524D01*
X241072275Y-44120701D01*
X241000560Y-44058365D01*
X240932594Y-43993727D01*
X240868375Y-43926787D01*
X240807904Y-43857546D01*
X240751180Y-43786003D01*
X240698204Y-43712159D01*
X240648976Y-43636013D01*
X240603496Y-43557565D01*
X240561763Y-43476816D01*
X240523778Y-43393766D01*
X240489541Y-43308414D01*
X240459051Y-43220760D01*
X240432309Y-43130805D01*
X240409314Y-43038548D01*
X240390068Y-42943989D01*
X240374569Y-42847129D01*
X240366065Y-42776272D01*
X240360001Y-42703997D01*
X240356375Y-42630303D01*
X240355189Y-42555192D01*
X240356442Y-42478662D01*
X240360134Y-42400716D01*
X240366264Y-42321352D01*
X240374833Y-42240572D01*
X240383866Y-42174219D01*
X240394894Y-42108905D01*
X240407915Y-42044630D01*
X240422929Y-41981396D01*
X240439938Y-41919201D01*
X240458940Y-41858046D01*
X240479935Y-41797930D01*
X240502925Y-41738855D01*
X240527907Y-41680819D01*
X240554884Y-41623822D01*
X240583854Y-41567866D01*
X240614818Y-41512950D01*
X240647776Y-41459073D01*
X240682728Y-41406236D01*
X240719673Y-41354440D01*
X240758611Y-41303683D01*
X240791323Y-41263444D01*
X240825162Y-41223561D01*
X240860131Y-41184034D01*
X240896228Y-41144863D01*
X240933453Y-41106048D01*
X240971808Y-41067589D01*
X241011290Y-41029486D01*
X241051902Y-40991739D01*
X241052637Y-40991082D01*
X241053371Y-40990469D01*
X241054105Y-40989898D01*
X241054838Y-40989371D01*
X241055570Y-40988887D01*
X241056302Y-40988446D01*
X241057033Y-40988048D01*
X241057763Y-40987693D01*
X241058492Y-40987382D01*
X241059221Y-40987114D01*
X241059949Y-40986889D01*
X241060676Y-40986707D01*
X241061402Y-40986568D01*
X241062128Y-40986473D01*
X241062852Y-40986420D01*
X241063577Y-40986411D01*
X241064300Y-40986445D01*
G37*
D14*
%TO.C,R1*%
X240859523Y-62324209D02*
X239909525Y-62324210D01*
X240859523Y-63244210D02*
X244699524Y-63244208D01*
X240859524Y-61404210D02*
X240859523Y-63244210D01*
X244699524Y-61404206D02*
X240859524Y-61404210D01*
X244699524Y-62324209D02*
X245649524Y-62324209D01*
X244699524Y-63244208D02*
X244699524Y-61404206D01*
D15*
%TO.C,J1*%
X238699738Y-65915285D02*
X238699738Y-71173085D01*
X238699738Y-71173085D02*
X239243298Y-71173085D01*
X239243298Y-65915285D02*
X238699738Y-65915285D01*
X240950178Y-71173085D02*
X241783298Y-71173085D01*
X241783298Y-65915285D02*
X240950178Y-65915285D01*
X243490178Y-71173085D02*
X244323298Y-71173085D01*
X244323298Y-65915285D02*
X243490178Y-65915285D01*
X246030178Y-71173085D02*
X246573738Y-71173085D01*
X246573738Y-65915285D02*
X246030178Y-65915285D01*
X246573738Y-71173085D02*
X246573738Y-65915285D01*
%TD*%
%LPC*%
D16*
%TO.C,D1*%
X243492262Y-56184020D03*
D17*
X240952262Y-56184020D03*
%TD*%
D18*
%TO.C,R1*%
X238969524Y-62324208D03*
D19*
X246589525Y-62324207D03*
%TD*%
D20*
%TO.C,J1*%
X245176738Y-66019186D03*
X245176738Y-71069184D03*
X242636738Y-66019186D03*
X242636738Y-71069184D03*
X240096738Y-66019186D03*
X240096738Y-71069184D03*
%TD*%
%LPD*%
M02*
