M48
; DRILL file {KiCad 9.0.7} date 2026-04-20T22:00:55-0300
; FORMAT={-:-/ absolute / inch / decimal}
; #@! TF.CreationDate,2026-04-20T22:00:55-03:00
; #@! TF.GenerationSoftware,Kicad,Pcbnew,9.0.7
; #@! TF.FileFunction,NonPlated,1,2,NPTH
FMAT,2
INCH
; #@! TA.AperFunction,NonPlated,NPTH,ComponentDrill
T1C0.0197
%
G90
G05
T1
X0.8802Y-1.1713
X0.8802Y-3.9776
X0.9139Y-1.1713
X0.9139Y-3.9776
X0.9477Y-1.1713
X0.9477Y-3.9776
X0.9814Y-1.1713
X0.9814Y-3.9776
X1.0152Y-1.1713
X1.0152Y-3.9776
X1.0489Y-1.1713
X1.0489Y-3.9776
X1.172Y-1.7431
X1.1741Y-1.7075
X1.1817Y-1.7773
X1.1876Y-1.6746
X1.1909Y-0.8802
X1.1909Y-0.9139
X1.1909Y-0.9477
X1.1909Y-0.9814
X1.1909Y-1.0152
X1.1909Y-1.0489
X1.1909Y-4.1196
X1.1909Y-4.1534
X1.1909Y-4.1871
X1.1909Y-4.2209
X1.1909Y-4.2546
X1.1909Y-4.2884
X2.0113Y-3.564
X2.0113Y-3.7414
X2.0113Y-3.9973
X2.0428Y-3.7414
X2.0428Y-3.9973
X2.0428Y-3.5642
X2.043Y-1.1811
X2.0743Y-3.7414
X2.0743Y-3.9973
X2.0744Y-3.5635
X2.0776Y-1.1718
X2.1058Y-3.7414
X2.1058Y-3.9973
X2.1059Y-3.5628
X2.1133Y-1.1741
X2.1464Y-1.1879
X2.9131Y-1.8847
X2.9347Y-1.9147
X2.9427Y-1.9872
X2.9451Y-1.9502
X2.9458Y-0.8802
X2.9458Y-0.9139
X2.9458Y-0.9477
X2.9458Y-0.9814
X2.9458Y-1.0152
X2.9458Y-1.0489
X2.9458Y-4.1196
X2.9458Y-4.1534
X2.9458Y-4.1871
X2.9458Y-4.2209
X2.9458Y-4.2546
X2.9458Y-4.2884
X3.0681Y-1.1713
X3.0681Y-3.9776
X3.1019Y-1.1713
X3.1019Y-3.9776
X3.1356Y-1.1713
X3.1356Y-3.9776
X3.1693Y-1.1713
X3.1693Y-3.9776
X3.2031Y-1.1713
X3.2031Y-3.9776
X3.2368Y-1.1713
X3.2368Y-3.9776
M30
