%TF.GenerationSoftware,KiCad,Pcbnew,9.0.7*%
%TF.CreationDate,2026-04-20T22:00:55-03:00*%
%TF.ProjectId,Sao_Tree_panel,53616f5f-5472-4656-955f-70616e656c2e,rev?*%
%TF.SameCoordinates,Original*%
%TF.FileFunction,Legend,Top*%
%TF.FilePolarity,Positive*%
%FSLAX46Y46*%
G04 Gerber Fmt 4.6, Leading zero omitted, Abs format (unit mm)*
G04 Created by KiCad (PCBNEW 9.0.7) date 2026-04-20 22:00:55*
%MOMM*%
%LPD*%
G01*
G04 APERTURE LIST*
G04 Aperture macros list*
%AMHorizOval*
0 Thick line with rounded ends*
0 $1 width*
0 $2 $3 position (X,Y) of the first rounded end (center of the circle)*
0 $4 $5 position (X,Y) of the second rounded end (center of the circle)*
0 Add line between two ends*
20,1,$1,$2,$3,$4,$5,0*
0 Add two circle primitives to create the rounded ends*
1,1,$1,$2,$3*
1,1,$1,$4,$5*%
G04 Aperture macros list end*
%ADD10C,0.100000*%
%ADD11C,0.150000*%
%ADD12C,0.120000*%
%ADD13C,0.000000*%
%ADD14C,0.200000*%
%ADD15C,0.500000*%
%ADD16C,0.500000*%
%ADD17C,1.400000*%
%ADD18HorizOval,1.400000X0.000000X0.000000X0.000000X0.000000X0*%
%ADD19R,1.350000X1.350000*%
%ADD20O,1.350000X1.350000*%
%ADD21HorizOval,1.400000X0.000000X0.000000X0.000000X0.000000X0*%
%ADD22O,1.400000X1.400000*%
G04 APERTURE END LIST*
D10*
X55192446Y-76228292D02*
X52758987Y-76275821D01*
X40901579Y-64211188D02*
X40008044Y-64477347D01*
X53514709Y-30039349D02*
X53818798Y-30117426D01*
X54110704Y-30232999D01*
X54385823Y-30384247D01*
X54639816Y-30568784D01*
X54868678Y-30783699D01*
X55068798Y-31025604D01*
X55237023Y-31290683D01*
X55370697Y-31574756D01*
X55467714Y-31873342D01*
X55526543Y-32181734D01*
X55546256Y-32495067D01*
X55526543Y-32808400D01*
X55467714Y-33116792D01*
X55024608Y-37996646D01*
X55025241Y-38052996D01*
X55037699Y-38165002D01*
X55049473Y-38220112D01*
X55287657Y-39268123D01*
X55311172Y-39361944D01*
X55389445Y-39538796D01*
X55500220Y-39697327D01*
X55568315Y-39766018D01*
X56447606Y-40614708D01*
X56534705Y-40694458D01*
X56738188Y-40814214D01*
X56850194Y-40851645D01*
X60097865Y-41842760D01*
X60197740Y-41875779D01*
X60381682Y-41977771D01*
X60462595Y-42044990D01*
X62081842Y-43454688D01*
X62124294Y-43492658D01*
X62201147Y-43576722D01*
X62235166Y-43622401D01*
X63087739Y-44799764D01*
X63092828Y-44806728D01*
X64166344Y-46262599D01*
X64208914Y-46318447D01*
X64307249Y-46418698D01*
X64362261Y-46462344D01*
X65620803Y-47428497D01*
X65660288Y-47458100D01*
X65744114Y-47510192D01*
X65788139Y-47532490D01*
X67048784Y-48152968D01*
X67141119Y-48195882D01*
X67338176Y-48247039D01*
X67439725Y-48254472D01*
X68656040Y-48316169D01*
X68749395Y-48316541D01*
X70733314Y-47722540D01*
X71008433Y-47571292D01*
X71300339Y-47455719D01*
X71604428Y-47377642D01*
X71915905Y-47338293D01*
X72229857Y-47338293D01*
X72541334Y-47377642D01*
X72845423Y-47455719D01*
X73137329Y-47571292D01*
X73412448Y-47722540D01*
X73666441Y-47907077D01*
X73895303Y-48121992D01*
X74095423Y-48363897D01*
X74263648Y-48628976D01*
X74397322Y-48913049D01*
X74494339Y-49211635D01*
X74553168Y-49520027D01*
X74572881Y-49833360D01*
X74553168Y-50146693D01*
X74494339Y-50455085D01*
X74397322Y-50753671D01*
X74263648Y-51037744D01*
X74095423Y-51302823D01*
X73895303Y-51544728D01*
X73666441Y-51759643D01*
X73412448Y-51944180D01*
X73137329Y-52095428D01*
X72845423Y-52211001D01*
X72541334Y-52289078D01*
X72229857Y-52328427D01*
X71915905Y-52328427D01*
X69130241Y-52328322D01*
X69005576Y-52328785D01*
X68020921Y-52270959D01*
X67927916Y-52267450D01*
X67743318Y-52291075D01*
X67566267Y-52348407D01*
X67483636Y-52391238D01*
X66776513Y-52776740D01*
X66706476Y-52816675D01*
X66579141Y-52915552D01*
X66523100Y-52973513D01*
X64330937Y-55329292D01*
X64304715Y-55357990D01*
X64256333Y-55418845D01*
X64234285Y-55450861D01*
X63203899Y-56976626D01*
X63170885Y-57027053D01*
X63115920Y-57134324D01*
X63094280Y-57190578D01*
X62553918Y-58657273D01*
X62538153Y-58701523D01*
X62514088Y-58792331D01*
X62505867Y-58838580D01*
X62198349Y-60683688D01*
X62188613Y-60760193D01*
X62081650Y-61972441D01*
X62074413Y-62091774D01*
X62110288Y-62328081D01*
X62152612Y-62439891D01*
X62379773Y-62993595D01*
X62396015Y-63032111D01*
X62434092Y-63106532D01*
X62455822Y-63142240D01*
X62682250Y-63506237D01*
X64186118Y-63725763D01*
X65618310Y-64036282D01*
X67063177Y-64454533D01*
X68489031Y-65037549D01*
X68905367Y-65452633D01*
X69038446Y-65709286D01*
X69101201Y-65937426D01*
X68625916Y-72686472D01*
X68239968Y-73237800D01*
X67751391Y-73722593D01*
X66281810Y-84781530D01*
X65793212Y-85485904D01*
X64239031Y-86783432D01*
X61772302Y-88252062D01*
X60456705Y-88811949D01*
X59081244Y-89281530D01*
X57277048Y-89753013D01*
X55484282Y-90020122D01*
X53826480Y-90237804D01*
X51880677Y-90281530D01*
X49862604Y-90266321D01*
X48440560Y-90134190D01*
X46711464Y-89895598D01*
X44975732Y-89421263D01*
X43603101Y-88954534D01*
X42380677Y-88323355D01*
X40156343Y-86754915D01*
X38559386Y-85443128D01*
X38082189Y-84781530D01*
X36897779Y-73570503D01*
X36374965Y-73085712D01*
X36089795Y-72724496D01*
X35894822Y-72226396D01*
X35768501Y-68903201D01*
X35778007Y-65471644D01*
X36082189Y-65157956D01*
X36414889Y-64901302D01*
X37149680Y-64554344D01*
X37874645Y-64281530D01*
X40728575Y-63656056D01*
X41470020Y-63570504D01*
X42308287Y-63463235D01*
X42421685Y-63377556D01*
X42459567Y-63350298D01*
X42684920Y-63196001D01*
X42755792Y-63145319D01*
X42880328Y-63023483D01*
X42981868Y-62881910D01*
X43021219Y-62804173D01*
X43383860Y-62049880D01*
X43417506Y-61976535D01*
X43463167Y-61821767D01*
X43474725Y-61741905D01*
X43698325Y-59971741D01*
X43706655Y-59894971D01*
X43702228Y-59740617D01*
X43689512Y-59664451D01*
X43385454Y-58021425D01*
X43360835Y-57905614D01*
X43264449Y-57689411D01*
X43194774Y-57593684D01*
X42422082Y-56589185D01*
X42387382Y-56545279D01*
X42309667Y-56464746D01*
X42267027Y-56428502D01*
X41495992Y-55790403D01*
X41448046Y-55749551D01*
X41361855Y-55657687D01*
X41324138Y-55607237D01*
X40248558Y-54124682D01*
X40214998Y-54077089D01*
X40158016Y-53975521D01*
X40134903Y-53922069D01*
X39234598Y-51761336D01*
X39213950Y-51709948D01*
X39182910Y-51603634D01*
X39172663Y-51549209D01*
X38946255Y-50256278D01*
X38929087Y-50168973D01*
X38867896Y-50001910D01*
X38778125Y-49848303D01*
X38662605Y-49712991D01*
X38524976Y-49600242D01*
X38448170Y-49555323D01*
X36029496Y-48206961D01*
X36013128Y-48198036D01*
X34435239Y-47356562D01*
X34419703Y-47348100D01*
X32031547Y-46433640D01*
X31727458Y-46355563D01*
X31435552Y-46239990D01*
X31160433Y-46088742D01*
X30906440Y-45904205D01*
X30677578Y-45689290D01*
X30477458Y-45447385D01*
X30309233Y-45182306D01*
X30175559Y-44898233D01*
X30078542Y-44599647D01*
X30019713Y-44291255D01*
X30000000Y-43977922D01*
X30019713Y-43664589D01*
X30078542Y-43356197D01*
X30175559Y-43057611D01*
X30309233Y-42773538D01*
X30477458Y-42508459D01*
X30677578Y-42266554D01*
X30906440Y-42051639D01*
X31160433Y-41867102D01*
X31435552Y-41715854D01*
X31727458Y-41600281D01*
X32031547Y-41522204D01*
X32343024Y-41482855D01*
X32656976Y-41482855D01*
X32968453Y-41522204D01*
X33272542Y-41600281D01*
X33564448Y-41715854D01*
X33839567Y-41867102D01*
X34093560Y-42051639D01*
X34322422Y-42266554D01*
X34725027Y-42564395D01*
X35772386Y-43080411D01*
X37950507Y-43949891D01*
X38022225Y-43970072D01*
X38169690Y-43991296D01*
X38244188Y-43992151D01*
X40560999Y-43978284D01*
X40571211Y-43989788D01*
X41782793Y-44095654D01*
X41879010Y-44101928D01*
X42070737Y-44081640D01*
X42255035Y-44025030D01*
X42341055Y-43981468D01*
X43088876Y-43581948D01*
X43201365Y-43511896D01*
X47012163Y-40772406D01*
X47021353Y-40781530D01*
X49594451Y-39520929D01*
X49664808Y-39484876D01*
X49794067Y-39393863D01*
X49851716Y-39339767D01*
X50655913Y-38557603D01*
X50728305Y-38483798D01*
X50843784Y-38312357D01*
X50884990Y-38217542D01*
X51089010Y-37715994D01*
X51121087Y-37632089D01*
X51157974Y-37456303D01*
X51162340Y-37366582D01*
X51185750Y-36512101D01*
X51185402Y-36446687D01*
X50721815Y-33415378D01*
X50624798Y-33116792D01*
X50565969Y-32808400D01*
X50546256Y-32495067D01*
X50565969Y-32181734D01*
X50624798Y-31873342D01*
X50721815Y-31574756D01*
X50855489Y-31290683D01*
X51023714Y-31025604D01*
X51223834Y-30783699D01*
X51452696Y-30568784D01*
X51706689Y-30384247D01*
X51981808Y-30232999D01*
X52273714Y-30117426D01*
X52577803Y-30039349D01*
X52889280Y-30000000D01*
X53203232Y-30000000D01*
X53514709Y-30039349D01*
X49298913Y-68927916D02*
X54175337Y-69022973D01*
X66504228Y-74422210D02*
X64717156Y-74973540D01*
X65812215Y-66770123D02*
X66224760Y-66568601D01*
X58918680Y-68842364D02*
X62065066Y-68414608D01*
X40572682Y-68243505D02*
X44660132Y-68737802D01*
X38677246Y-66321453D02*
X39072685Y-66522974D01*
X47635416Y-76114224D02*
X44042262Y-75733996D01*
X42046065Y-75296734D02*
X39983328Y-74773920D01*
X62065066Y-68414608D02*
X64954799Y-67939323D01*
X38392075Y-65361377D02*
X38297018Y-65836662D01*
X40008044Y-64477347D02*
X39076485Y-64905104D01*
X64717156Y-74973540D02*
X60068870Y-75781524D01*
X38025155Y-74070499D02*
X36989033Y-73614225D01*
X42038596Y-63879191D02*
X40901579Y-64211188D01*
X36989033Y-73614225D02*
X36599300Y-73310043D01*
X65692441Y-64648450D02*
X64380655Y-64220693D01*
X35775429Y-65796857D02*
X35886372Y-66275826D01*
X66738068Y-65931719D02*
X66471909Y-65190275D01*
X54175337Y-69022973D02*
X58918680Y-68842364D01*
X60068870Y-75781524D02*
X55192446Y-76228292D01*
X66471909Y-65190275D02*
X65692441Y-64648450D01*
X35876867Y-65382290D02*
X35775429Y-65796857D01*
X52758987Y-76275821D02*
X50278000Y-76247304D01*
X64954799Y-67939323D02*
X67350235Y-67349970D01*
X35886372Y-66275826D02*
X36570783Y-66808145D01*
X38901581Y-67894965D02*
X37665840Y-67413343D01*
X39983328Y-74773920D02*
X38025155Y-74070499D01*
X38297018Y-65836662D02*
X38677246Y-66321453D01*
X68148713Y-73281526D02*
X67492820Y-73842362D01*
X68521353Y-72781530D02*
X68148713Y-73281526D01*
X36570783Y-66808145D02*
X37665840Y-67413343D01*
X67350235Y-67349970D02*
X68547953Y-66684571D01*
X66224760Y-66568601D02*
X66738068Y-65931719D01*
X39076485Y-64905104D02*
X38392075Y-65361377D01*
X64380655Y-64220693D02*
X63030882Y-63898450D01*
X38901581Y-67894965D02*
X40572682Y-68243505D01*
X50278000Y-76247304D02*
X47635416Y-76114224D01*
X68918675Y-66247309D02*
X69051755Y-65734001D01*
X44660132Y-68737802D02*
X49298913Y-68927916D01*
X44042262Y-75733996D02*
X42046065Y-75296734D01*
X67492820Y-73842362D02*
X66504228Y-74422210D01*
X41411087Y-64821454D02*
X40175346Y-65467842D01*
X39357856Y-66009667D01*
X39072685Y-66199781D01*
X38982346Y-66326823D01*
X39072685Y-66522974D01*
X41059376Y-67188373D01*
X44044165Y-67768221D01*
X46601198Y-68043886D01*
X49614505Y-68272023D01*
X52713362Y-68319552D01*
X55764692Y-68272023D01*
X58730470Y-68119932D01*
X60479518Y-67948829D01*
X62219061Y-67654153D01*
X63939592Y-67368982D01*
X65508033Y-66893697D01*
X65812215Y-66770123D01*
X66049857Y-66532480D01*
X65888261Y-66180769D01*
X65650618Y-65943127D01*
X64956702Y-65448831D01*
X63797007Y-64773926D01*
X62682250Y-63506237D01*
X64289903Y-63750614D01*
X65607474Y-64036282D01*
X67052341Y-64454533D01*
X68478195Y-65037549D01*
X68894531Y-65452633D01*
X69027610Y-65709286D01*
X69090365Y-65937426D01*
X68615080Y-72686472D01*
X68229132Y-73237800D01*
X67740555Y-73722593D01*
X66270974Y-84781530D01*
X65782376Y-85485904D01*
X64228195Y-86783432D01*
X61761466Y-88252062D01*
X60445869Y-88811949D01*
X59070408Y-89281530D01*
X57266212Y-89753013D01*
X55473446Y-90020122D01*
X53815644Y-90237804D01*
X51869841Y-90281530D01*
X49851768Y-90266321D01*
X48429724Y-90134190D01*
X46700628Y-89895598D01*
X44964896Y-89421263D01*
X43592265Y-88954534D01*
X42369841Y-88323355D01*
X40145507Y-86754915D01*
X38548550Y-85443128D01*
X38071353Y-84781530D01*
X36886943Y-73570503D01*
X36364129Y-73085712D01*
X36078959Y-72724496D01*
X35883986Y-72226396D01*
X35757665Y-68903201D01*
X35767171Y-65471644D01*
X36071353Y-65157956D01*
X36404053Y-64901302D01*
X37138844Y-64554344D01*
X37863809Y-64281530D01*
X40717739Y-63656056D01*
X41258796Y-63593625D01*
X42308287Y-63463235D01*
X41411087Y-64821454D01*
X68547953Y-66684571D02*
X68918675Y-66247309D01*
D11*
X60544135Y-66864602D02*
X60789861Y-66337831D01*
X60258420Y-66369730D02*
X61124446Y-65869730D01*
X61124446Y-65869730D02*
X61314922Y-66199645D01*
X61314922Y-66199645D02*
X61321302Y-66305933D01*
X61321302Y-66305933D02*
X61303872Y-66370982D01*
X61303872Y-66370982D02*
X61245203Y-66459840D01*
X61245203Y-66459840D02*
X61121485Y-66531269D01*
X61121485Y-66531269D02*
X61015197Y-66537648D01*
X61015197Y-66537648D02*
X60950148Y-66520218D01*
X60950148Y-66520218D02*
X60861290Y-66461549D01*
X60861290Y-66461549D02*
X60670813Y-66131635D01*
X61550056Y-67273576D02*
X60972706Y-67606909D01*
X61760923Y-66876903D02*
X61023286Y-67027850D01*
X61023286Y-67027850D02*
X61332810Y-67563961D01*
X69188019Y-49736349D02*
X69188019Y-50450634D01*
X69188019Y-50450634D02*
X69140400Y-50593491D01*
X69140400Y-50593491D02*
X69045162Y-50688730D01*
X69045162Y-50688730D02*
X68902305Y-50736349D01*
X68902305Y-50736349D02*
X68807067Y-50736349D01*
X70092781Y-50069682D02*
X70092781Y-50736349D01*
X69854686Y-49688730D02*
X69616591Y-50403015D01*
X69616591Y-50403015D02*
X70235638Y-50403015D01*
X44831904Y-66653276D02*
X44252845Y-66703856D01*
X44546190Y-67148148D02*
X43680165Y-66648148D01*
X43680165Y-66648148D02*
X43870641Y-66318233D01*
X43870641Y-66318233D02*
X43959499Y-66259564D01*
X43959499Y-66259564D02*
X44024548Y-66242135D01*
X44024548Y-66242135D02*
X44130836Y-66248514D01*
X44130836Y-66248514D02*
X44254554Y-66319943D01*
X44254554Y-66319943D02*
X44313223Y-66408801D01*
X44313223Y-66408801D02*
X44330653Y-66473850D01*
X44330653Y-66473850D02*
X44324273Y-66580138D01*
X44324273Y-66580138D02*
X44133797Y-66910053D01*
X45308095Y-65828490D02*
X45022380Y-66323362D01*
X45165238Y-66075926D02*
X44299212Y-65575926D01*
X44299212Y-65575926D02*
X44375311Y-65729833D01*
X44375311Y-65729833D02*
X44410171Y-65859931D01*
X44410171Y-65859931D02*
X44403791Y-65966219D01*
X52688019Y-35736349D02*
X52688019Y-36450634D01*
X52688019Y-36450634D02*
X52640400Y-36593491D01*
X52640400Y-36593491D02*
X52545162Y-36688730D01*
X52545162Y-36688730D02*
X52402305Y-36736349D01*
X52402305Y-36736349D02*
X52307067Y-36736349D01*
X53068972Y-35736349D02*
X53688019Y-35736349D01*
X53688019Y-35736349D02*
X53354686Y-36117301D01*
X53354686Y-36117301D02*
X53497543Y-36117301D01*
X53497543Y-36117301D02*
X53592781Y-36164920D01*
X53592781Y-36164920D02*
X53640400Y-36212539D01*
X53640400Y-36212539D02*
X53688019Y-36307777D01*
X53688019Y-36307777D02*
X53688019Y-36545872D01*
X53688019Y-36545872D02*
X53640400Y-36641110D01*
X53640400Y-36641110D02*
X53592781Y-36688730D01*
X53592781Y-36688730D02*
X53497543Y-36736349D01*
X53497543Y-36736349D02*
X53211829Y-36736349D01*
X53211829Y-36736349D02*
X53116591Y-36688730D01*
X53116591Y-36688730D02*
X53068972Y-36641110D01*
X34688019Y-44736349D02*
X34688019Y-45450634D01*
X34688019Y-45450634D02*
X34640400Y-45593491D01*
X34640400Y-45593491D02*
X34545162Y-45688730D01*
X34545162Y-45688730D02*
X34402305Y-45736349D01*
X34402305Y-45736349D02*
X34307067Y-45736349D01*
X35116591Y-44831587D02*
X35164210Y-44783968D01*
X35164210Y-44783968D02*
X35259448Y-44736349D01*
X35259448Y-44736349D02*
X35497543Y-44736349D01*
X35497543Y-44736349D02*
X35592781Y-44783968D01*
X35592781Y-44783968D02*
X35640400Y-44831587D01*
X35640400Y-44831587D02*
X35688019Y-44926825D01*
X35688019Y-44926825D02*
X35688019Y-45022063D01*
X35688019Y-45022063D02*
X35640400Y-45164920D01*
X35640400Y-45164920D02*
X35068972Y-45736349D01*
X35068972Y-45736349D02*
X35688019Y-45736349D01*
X53556172Y-66948196D02*
X53079981Y-67281529D01*
X53556172Y-67519624D02*
X52556172Y-67519624D01*
X52556172Y-67519624D02*
X52556172Y-67138672D01*
X52556172Y-67138672D02*
X52603791Y-67043434D01*
X52603791Y-67043434D02*
X52651410Y-66995815D01*
X52651410Y-66995815D02*
X52746648Y-66948196D01*
X52746648Y-66948196D02*
X52889505Y-66948196D01*
X52889505Y-66948196D02*
X52984743Y-66995815D01*
X52984743Y-66995815D02*
X53032362Y-67043434D01*
X53032362Y-67043434D02*
X53079981Y-67138672D01*
X53079981Y-67138672D02*
X53079981Y-67519624D01*
X52556172Y-66614862D02*
X52556172Y-65995815D01*
X52556172Y-65995815D02*
X52937124Y-66329148D01*
X52937124Y-66329148D02*
X52937124Y-66186291D01*
X52937124Y-66186291D02*
X52984743Y-66091053D01*
X52984743Y-66091053D02*
X53032362Y-66043434D01*
X53032362Y-66043434D02*
X53127600Y-65995815D01*
X53127600Y-65995815D02*
X53365695Y-65995815D01*
X53365695Y-65995815D02*
X53460933Y-66043434D01*
X53460933Y-66043434D02*
X53508553Y-66091053D01*
X53508553Y-66091053D02*
X53556172Y-66186291D01*
X53556172Y-66186291D02*
X53556172Y-66472005D01*
X53556172Y-66472005D02*
X53508553Y-66567243D01*
X53508553Y-66567243D02*
X53460933Y-66614862D01*
X48976172Y-66948196D02*
X48499981Y-67281529D01*
X48976172Y-67519624D02*
X47976172Y-67519624D01*
X47976172Y-67519624D02*
X47976172Y-67138672D01*
X47976172Y-67138672D02*
X48023791Y-67043434D01*
X48023791Y-67043434D02*
X48071410Y-66995815D01*
X48071410Y-66995815D02*
X48166648Y-66948196D01*
X48166648Y-66948196D02*
X48309505Y-66948196D01*
X48309505Y-66948196D02*
X48404743Y-66995815D01*
X48404743Y-66995815D02*
X48452362Y-67043434D01*
X48452362Y-67043434D02*
X48499981Y-67138672D01*
X48499981Y-67138672D02*
X48499981Y-67519624D01*
X48071410Y-66567243D02*
X48023791Y-66519624D01*
X48023791Y-66519624D02*
X47976172Y-66424386D01*
X47976172Y-66424386D02*
X47976172Y-66186291D01*
X47976172Y-66186291D02*
X48023791Y-66091053D01*
X48023791Y-66091053D02*
X48071410Y-66043434D01*
X48071410Y-66043434D02*
X48166648Y-65995815D01*
X48166648Y-65995815D02*
X48261886Y-65995815D01*
X48261886Y-65995815D02*
X48404743Y-66043434D01*
X48404743Y-66043434D02*
X48976172Y-66614862D01*
X48976172Y-66614862D02*
X48976172Y-65995815D01*
D12*
%TO.C,R4*%
X59169610Y-61378319D02*
X61089610Y-64703856D01*
X59491353Y-60095594D02*
X59966354Y-60918319D01*
X60763097Y-60458319D02*
X59169610Y-61378319D01*
X61089610Y-64703856D02*
X62683096Y-63783856D01*
X62361353Y-65066580D02*
X61886353Y-64243856D01*
X62683096Y-63783856D02*
X60763097Y-60458319D01*
%TO.C,J4*%
X70961353Y-49781530D02*
X70961353Y-51841530D01*
X70961353Y-49781530D02*
X73081353Y-49781530D01*
X70961353Y-51841530D02*
X73081353Y-51841530D01*
X72021353Y-47721530D02*
X73081353Y-47721530D01*
X73081353Y-47721530D02*
X73081353Y-48781530D01*
X73081353Y-49781530D02*
X73081353Y-51841530D01*
%TO.C,R1*%
X42859606Y-63783857D02*
X44453092Y-64703855D01*
X43181349Y-65066579D02*
X43656350Y-64243857D01*
X44453092Y-64703855D02*
X46373096Y-61378320D01*
X44779607Y-60458320D02*
X42859606Y-63783857D01*
X46051351Y-60095595D02*
X45576350Y-60918319D01*
X46373096Y-61378320D02*
X44779607Y-60458320D01*
%TO.C,J3*%
X52086539Y-32847619D02*
X52086539Y-34907619D01*
X52086539Y-32847619D02*
X54206539Y-32847619D01*
X52086539Y-34907619D02*
X54206539Y-34907619D01*
X53146539Y-30787619D02*
X54206539Y-30787619D01*
X54206539Y-30787619D02*
X54206539Y-31847619D01*
X54206539Y-32847619D02*
X54206539Y-34907619D01*
%TO.C,J2*%
X31486353Y-44031530D02*
X31486353Y-46091530D01*
X31486353Y-44031530D02*
X33606353Y-44031530D01*
X31486353Y-46091530D02*
X33606353Y-46091530D01*
X32546353Y-41971530D02*
X33606353Y-41971530D01*
X33606353Y-41971530D02*
X33606353Y-43031530D01*
X33606353Y-44031530D02*
X33606353Y-46091530D01*
%TO.C,R3*%
X54101353Y-61551530D02*
X54101353Y-65391530D01*
X54101353Y-65391530D02*
X55941353Y-65391530D01*
X55021353Y-60601530D02*
X55021353Y-61551530D01*
X55021353Y-66341530D02*
X55021353Y-65391530D01*
X55941353Y-61551530D02*
X54101353Y-61551530D01*
X55941353Y-65391530D02*
X55941353Y-61551530D01*
%TO.C,R2*%
X49601353Y-61361530D02*
X49601355Y-65201530D01*
X49601355Y-65201530D02*
X51441354Y-65201529D01*
X50521354Y-60411531D02*
X50521354Y-61361529D01*
X50521354Y-66151530D02*
X50521354Y-65201530D01*
X51441354Y-61361531D02*
X49601353Y-61361530D01*
X51441354Y-65201529D02*
X51441354Y-61361531D01*
%TD*%
%LPC*%
D13*
G36*
X45937185Y-99633062D02*
G01*
X44385074Y-98967308D01*
X44390098Y-97600630D01*
X45937775Y-96934483D01*
X45937185Y-99633062D01*
G37*
D14*
X46036440Y-96781530D02*
X50536440Y-96781530D01*
X46036440Y-99781530D02*
X45036440Y-101281530D01*
X58536440Y-96781530D02*
X51536440Y-96781530D01*
D15*
X56536440Y-95281530D02*
X59536440Y-95281530D01*
X64021353Y-50786344D02*
X61521353Y-53286344D01*
X61021353Y-53286344D01*
X61021353Y-48286344D01*
X61521353Y-48286344D01*
X64021353Y-50786344D01*
G36*
X64021353Y-50786344D02*
G01*
X61521353Y-53286344D01*
X61021353Y-53286344D01*
X61021353Y-48286344D01*
X61521353Y-48286344D01*
X64021353Y-50786344D01*
G37*
D14*
X54036440Y-99781530D02*
X58536440Y-99781530D01*
D13*
G36*
X45889137Y-96739392D02*
G01*
X44302626Y-97416418D01*
X43857175Y-97089259D01*
X45116177Y-95583517D01*
X45889137Y-96739392D01*
G37*
G36*
X45889163Y-99825720D02*
G01*
X45116203Y-100981595D01*
X43857201Y-99475853D01*
X44302652Y-99148694D01*
X45889163Y-99825720D01*
G37*
D14*
X62036440Y-98281530D02*
X58536440Y-96781530D01*
D15*
X45036440Y-101281530D02*
X48036440Y-101281530D01*
D14*
X62033100Y-98281787D02*
X60958075Y-99528448D01*
X60283100Y-99031787D01*
X60283100Y-97531787D01*
X60966554Y-97010204D01*
X62033100Y-98281787D01*
G36*
X62033100Y-98281787D02*
G01*
X60958075Y-99528448D01*
X60283100Y-99031787D01*
X60283100Y-97531787D01*
X60966554Y-97010204D01*
X62033100Y-98281787D01*
G37*
D15*
X62036440Y-98281530D02*
X59536440Y-95281530D01*
D14*
X44287785Y-97533585D02*
X44287785Y-99033585D01*
X43612810Y-99530246D01*
X42537785Y-98283585D01*
X43604331Y-97012002D01*
X44287785Y-97533585D01*
G36*
X44287785Y-97533585D02*
G01*
X44287785Y-99033585D01*
X43612810Y-99530246D01*
X42537785Y-98283585D01*
X43604331Y-97012002D01*
X44287785Y-97533585D01*
G37*
D15*
X62036440Y-98281530D02*
X59536440Y-101281530D01*
D13*
G36*
X60719774Y-99473798D02*
G01*
X59460772Y-100979540D01*
X58687812Y-99823665D01*
X60274323Y-99146639D01*
X60719774Y-99473798D01*
G37*
D14*
X45036440Y-95281530D02*
X46036440Y-96781530D01*
X46036440Y-96781530D02*
X46036440Y-99781530D01*
D15*
X42536440Y-98281530D02*
X45036440Y-95281530D01*
D14*
X59536440Y-95281530D02*
X58536440Y-96781530D01*
D15*
X42536440Y-98281530D02*
X45036440Y-101281530D01*
X45036440Y-95281530D02*
X56536440Y-95281530D01*
X48036440Y-101281530D02*
X59536440Y-101281530D01*
D13*
G36*
X58485982Y-96681619D02*
G01*
X51509804Y-96684207D01*
X51509554Y-96877323D01*
X58438068Y-96881661D01*
X58438068Y-99681268D01*
X54032356Y-99682664D01*
X54031364Y-99881661D01*
X58484494Y-99882653D01*
X59250485Y-101031529D01*
X45325915Y-101031033D01*
X46092129Y-99882209D01*
X53051818Y-99881445D01*
X53051818Y-99681719D01*
X46138389Y-99681009D01*
X46138058Y-96881661D01*
X50547463Y-96881226D01*
X50547500Y-96680513D01*
X46092072Y-96681009D01*
X45326412Y-95533292D01*
X59251203Y-95531307D01*
X58485982Y-96681619D01*
G37*
D14*
X58536440Y-96781530D02*
X58536440Y-99781530D01*
X42536440Y-98281530D02*
X46036440Y-96781530D01*
D13*
G36*
X60186877Y-97598575D02*
G01*
X60191901Y-98965253D01*
X58639790Y-99631007D01*
X58639200Y-96932428D01*
X60186877Y-97598575D01*
G37*
D10*
X41411087Y-64821454D02*
X40175346Y-65467842D01*
X39357856Y-66009667D01*
X39072685Y-66199781D01*
X38939605Y-66361378D01*
X39072685Y-66522974D01*
X41059376Y-67188373D01*
X44044165Y-67768221D01*
X46601198Y-68043886D01*
X49614505Y-68272023D01*
X52713362Y-68319552D01*
X55764692Y-68272023D01*
X58730470Y-68119932D01*
X60479518Y-67948829D01*
X62219061Y-67654153D01*
X63939592Y-67368982D01*
X65508033Y-66893697D01*
X65812215Y-66770123D01*
X66049857Y-66532480D01*
X65888261Y-66180769D01*
X65650618Y-65943127D01*
X64956702Y-65448831D01*
X63797007Y-64773926D01*
X62678356Y-63503775D01*
X64289903Y-63750614D01*
X65607474Y-64036282D01*
X67052341Y-64454533D01*
X68478195Y-65037549D01*
X68894531Y-65452633D01*
X69027610Y-65709286D01*
X69090365Y-65937426D01*
X68615080Y-72686472D01*
X68229132Y-73237800D01*
X67740555Y-73722593D01*
X66270974Y-84781530D01*
X65782376Y-85485904D01*
X64228195Y-86783432D01*
X61761466Y-88252062D01*
X60445869Y-88811949D01*
X59070408Y-89281530D01*
X57266212Y-89753013D01*
X55473446Y-90020122D01*
X53815644Y-90237804D01*
X51869841Y-90281530D01*
X49851768Y-90266321D01*
X48429724Y-90134190D01*
X46700628Y-89895598D01*
X44964896Y-89421263D01*
X43592265Y-88954534D01*
X42369841Y-88323355D01*
X40145507Y-86754915D01*
X38548550Y-85443128D01*
X38071353Y-84781530D01*
X36886943Y-73570503D01*
X36364129Y-73085712D01*
X36078959Y-72724496D01*
X35883986Y-72226396D01*
X35757665Y-68903201D01*
X35767171Y-65471644D01*
X36071353Y-65157956D01*
X36404053Y-64901302D01*
X37138844Y-64554344D01*
X37863809Y-64281530D01*
X40717739Y-63656056D01*
X41258796Y-63593625D01*
X42274252Y-63499842D01*
X41411087Y-64821454D01*
G36*
X41411087Y-64821454D02*
G01*
X40175346Y-65467842D01*
X39357856Y-66009667D01*
X39072685Y-66199781D01*
X38939605Y-66361378D01*
X39072685Y-66522974D01*
X41059376Y-67188373D01*
X44044165Y-67768221D01*
X46601198Y-68043886D01*
X49614505Y-68272023D01*
X52713362Y-68319552D01*
X55764692Y-68272023D01*
X58730470Y-68119932D01*
X60479518Y-67948829D01*
X62219061Y-67654153D01*
X63939592Y-67368982D01*
X65508033Y-66893697D01*
X65812215Y-66770123D01*
X66049857Y-66532480D01*
X65888261Y-66180769D01*
X65650618Y-65943127D01*
X64956702Y-65448831D01*
X63797007Y-64773926D01*
X62678356Y-63503775D01*
X64289903Y-63750614D01*
X65607474Y-64036282D01*
X67052341Y-64454533D01*
X68478195Y-65037549D01*
X68894531Y-65452633D01*
X69027610Y-65709286D01*
X69090365Y-65937426D01*
X68615080Y-72686472D01*
X68229132Y-73237800D01*
X67740555Y-73722593D01*
X66270974Y-84781530D01*
X65782376Y-85485904D01*
X64228195Y-86783432D01*
X61761466Y-88252062D01*
X60445869Y-88811949D01*
X59070408Y-89281530D01*
X57266212Y-89753013D01*
X55473446Y-90020122D01*
X53815644Y-90237804D01*
X51869841Y-90281530D01*
X49851768Y-90266321D01*
X48429724Y-90134190D01*
X46700628Y-89895598D01*
X44964896Y-89421263D01*
X43592265Y-88954534D01*
X42369841Y-88323355D01*
X40145507Y-86754915D01*
X38548550Y-85443128D01*
X38071353Y-84781530D01*
X36886943Y-73570503D01*
X36364129Y-73085712D01*
X36078959Y-72724496D01*
X35883986Y-72226396D01*
X35757665Y-68903201D01*
X35767171Y-65471644D01*
X36071353Y-65157956D01*
X36404053Y-64901302D01*
X37138844Y-64554344D01*
X37863809Y-64281530D01*
X40717739Y-63656056D01*
X41258796Y-63593625D01*
X42274252Y-63499842D01*
X41411087Y-64821454D01*
G37*
D14*
X53036440Y-99781530D02*
X46036440Y-99781530D01*
X58536440Y-99781530D02*
X59536440Y-101281530D01*
D13*
G36*
X60719800Y-97087204D02*
G01*
X60274349Y-97414363D01*
X58687838Y-96737337D01*
X59460798Y-95581462D01*
X60719800Y-97087204D01*
G37*
D14*
X62036440Y-98281530D02*
X58536440Y-99781530D01*
X42536440Y-98281530D02*
X46036440Y-99781530D01*
D15*
X44718794Y-53281077D02*
X43718794Y-53281077D01*
X41218794Y-50781077D01*
X43718794Y-48281077D01*
X44718794Y-48281077D01*
X44718794Y-53281077D01*
G36*
X44718794Y-53281077D02*
G01*
X43718794Y-53281077D01*
X41218794Y-50781077D01*
X43718794Y-48281077D01*
X44718794Y-48281077D01*
X44718794Y-53281077D01*
G37*
D16*
%TO.C,KiKit_MB_9_3*%
X52770740Y-29762988D03*
%TD*%
D17*
%TO.C,R4*%
X62831353Y-65880644D03*
D18*
X59021353Y-59281530D03*
%TD*%
D16*
%TO.C,KiKit_MB_1_7*%
X30250000Y-26642857D03*
%TD*%
%TO.C,KiKit_MB_10_4*%
X51887730Y-90531434D03*
%TD*%
%TO.C,KiKit_MB_3_5*%
X30250000Y-107210101D03*
%TD*%
%TO.C,KiKit_MB_5_2*%
X22357142Y-29750000D03*
%TD*%
%TO.C,KiKit_MB_13_4*%
X52686440Y-95031530D03*
%TD*%
%TO.C,KiKit_MB_9_2*%
X51891830Y-29999741D03*
%TD*%
%TO.C,KiKit_MB_12_5*%
X74745127Y-50474584D03*
%TD*%
%TO.C,KiKit_MB_1_5*%
X30250000Y-24928571D03*
%TD*%
%TO.C,KiKit_MB_7_2*%
X77930023Y-29750000D03*
%TD*%
%TO.C,KiKit_MB_5_5*%
X24928571Y-29750000D03*
%TD*%
%TO.C,KiKit_MB_2_7*%
X74822881Y-26642857D03*
%TD*%
%TO.C,KiKit_MB_1_6*%
X30250000Y-25785714D03*
%TD*%
%TO.C,KiKit_MB_7_6*%
X81358595Y-29750000D03*
%TD*%
%TO.C,KiKit_MB_7_5*%
X80501452Y-29750000D03*
%TD*%
%TO.C,KiKit_MB_2_4*%
X74822881Y-24071428D03*
%TD*%
%TO.C,KiKit_MB_3_2*%
X30250000Y-104638672D03*
%TD*%
%TO.C,KiKit_MB_9_5*%
X54518455Y-30172909D03*
%TD*%
%TO.C,KiKit_MB_10_2*%
X53490530Y-90495416D03*
%TD*%
%TO.C,KiKit_MB_6_5*%
X24928571Y-101031530D03*
%TD*%
%TO.C,KiKit_MB_5_3*%
X23214285Y-29750000D03*
%TD*%
D19*
%TO.C,J4*%
X72021353Y-48781530D03*
D20*
X72021353Y-50781530D03*
%TD*%
D16*
%TO.C,KiKit_MB_11_4*%
X29821183Y-43371138D03*
%TD*%
%TO.C,KiKit_MB_4_5*%
X74822881Y-107210101D03*
%TD*%
%TO.C,KiKit_MB_7_7*%
X82215738Y-29750000D03*
%TD*%
%TO.C,KiKit_MB_14_5*%
X51086440Y-101531530D03*
%TD*%
%TO.C,KiKit_MB_8_6*%
X81358595Y-101031530D03*
%TD*%
%TO.C,KiKit_MB_13_5*%
X53486440Y-95031530D03*
%TD*%
%TO.C,KiKit_MB_6_2*%
X22357142Y-101031530D03*
%TD*%
%TO.C,KiKit_MB_11_2*%
X30014500Y-45143124D03*
%TD*%
%TO.C,KiKit_MB_5_6*%
X25785714Y-29750000D03*
%TD*%
%TO.C,KiKit_MB_9_4*%
X53678147Y-29823204D03*
%TD*%
%TO.C,KiKit_MB_6_6*%
X25785714Y-101031530D03*
%TD*%
%TO.C,KiKit_MB_13_3*%
X51886440Y-95031530D03*
%TD*%
%TO.C,KiKit_MB_1_4*%
X30250000Y-24071428D03*
%TD*%
%TO.C,KiKit_MB_7_4*%
X79644309Y-29750000D03*
%TD*%
%TO.C,KiKit_MB_6_3*%
X23214285Y-101031530D03*
%TD*%
%TO.C,KiKit_MB_3_6*%
X30250000Y-108067244D03*
%TD*%
%TO.C,KiKit_MB_14_3*%
X52686440Y-101531530D03*
%TD*%
%TO.C,KiKit_MB_8_2*%
X77930023Y-101031530D03*
%TD*%
%TO.C,KiKit_MB_5_4*%
X24071428Y-29750000D03*
%TD*%
%TO.C,KiKit_MB_8_4*%
X79644309Y-101031530D03*
%TD*%
%TO.C,KiKit_MB_2_6*%
X74822881Y-25785714D03*
%TD*%
D17*
%TO.C,R1*%
X42711351Y-65880645D03*
D21*
X46521353Y-59281530D03*
%TD*%
D16*
%TO.C,KiKit_MB_11_3*%
X29768113Y-44273694D03*
%TD*%
%TO.C,KiKit_MB_12_3*%
X74542306Y-48633998D03*
%TD*%
%TO.C,KiKit_MB_3_4*%
X30250000Y-106352958D03*
%TD*%
%TO.C,KiKit_MB_6_7*%
X26642857Y-101031530D03*
%TD*%
%TO.C,KiKit_MB_1_3*%
X30250000Y-23214285D03*
%TD*%
%TO.C,KiKit_MB_5_7*%
X26642857Y-29750000D03*
%TD*%
%TO.C,KiKit_MB_11_5*%
X30164289Y-42535364D03*
%TD*%
D19*
%TO.C,J3*%
X53146539Y-31847619D03*
D20*
X53146539Y-33847619D03*
%TD*%
D19*
%TO.C,J2*%
X32546353Y-43031530D03*
D20*
X32546353Y-45031530D03*
%TD*%
D16*
%TO.C,KiKit_MB_2_2*%
X74822881Y-22357142D03*
%TD*%
%TO.C,KiKit_MB_14_4*%
X51886440Y-101531530D03*
%TD*%
%TO.C,KiKit_MB_8_7*%
X82215738Y-101031530D03*
%TD*%
%TO.C,KiKit_MB_2_3*%
X74822881Y-23214285D03*
%TD*%
%TO.C,KiKit_MB_4_4*%
X74822881Y-106352958D03*
%TD*%
%TO.C,KiKit_MB_8_3*%
X78787166Y-101031530D03*
%TD*%
%TO.C,KiKit_MB_4_3*%
X74822881Y-105495815D03*
%TD*%
D17*
%TO.C,R3*%
X55021353Y-67281530D03*
D22*
X55021353Y-59661530D03*
%TD*%
D16*
%TO.C,KiKit_MB_6_4*%
X24071428Y-101031530D03*
%TD*%
%TO.C,KiKit_MB_13_2*%
X51086440Y-95031530D03*
%TD*%
%TO.C,KiKit_MB_4_6*%
X74822881Y-108067244D03*
%TD*%
%TO.C,KiKit_MB_10_3*%
X52689130Y-90513425D03*
%TD*%
%TO.C,KiKit_MB_3_3*%
X30250000Y-105495815D03*
%TD*%
%TO.C,KiKit_MB_14_2*%
X53486440Y-101531530D03*
%TD*%
%TO.C,KiKit_MB_12_4*%
X74804682Y-49536245D03*
%TD*%
%TO.C,KiKit_MB_10_5*%
X51086150Y-90525492D03*
%TD*%
%TO.C,KiKit_MB_3_7*%
X30250000Y-108924387D03*
%TD*%
%TO.C,KiKit_MB_1_2*%
X30250000Y-22357142D03*
%TD*%
D17*
%TO.C,R2*%
X50521354Y-67091530D03*
D22*
X50521354Y-59471529D03*
%TD*%
D16*
%TO.C,KiKit_MB_7_3*%
X78787166Y-29750000D03*
%TD*%
%TO.C,KiKit_MB_12_2*%
X73993872Y-47871604D03*
%TD*%
%TO.C,KiKit_MB_2_5*%
X74822881Y-24928571D03*
%TD*%
%TO.C,KiKit_MB_4_7*%
X74822881Y-108924387D03*
%TD*%
%TO.C,KiKit_MB_8_5*%
X80501452Y-101031530D03*
%TD*%
%TO.C,KiKit_MB_4_2*%
X74822881Y-104638672D03*
%TD*%
%LPD*%
M02*
