%TF.GenerationSoftware,KiCad,Pcbnew,9.0.7*%
%TF.CreationDate,2026-04-20T22:00:55-03:00*%
%TF.ProjectId,Sao_Tree_panel,53616f5f-5472-4656-955f-70616e656c2e,rev?*%
%TF.SameCoordinates,Original*%
%TF.FileFunction,Soldermask,Bot*%
%TF.FilePolarity,Negative*%
%FSLAX46Y46*%
G04 Gerber Fmt 4.6, Leading zero omitted, Abs format (unit mm)*
G04 Created by KiCad (PCBNEW 9.0.7) date 2026-04-20 22:00:55*
%MOMM*%
%LPD*%
G01*
G04 APERTURE LIST*
G04 Aperture macros list*
%AMRoundRect*
0 Rectangle with rounded corners*
0 $1 Rounding radius*
0 $2 $3 $4 $5 $6 $7 $8 $9 X,Y pos of 4 corners*
0 Add a 4 corners polygon primitive as box body*
4,1,4,$2,$3,$4,$5,$6,$7,$8,$9,$2,$3,0*
0 Add four circle primitives for the rounded corners*
1,1,$1+$1,$2,$3*
1,1,$1+$1,$4,$5*
1,1,$1+$1,$6,$7*
1,1,$1+$1,$8,$9*
0 Add four rect primitives between the rounded corners*
20,1,$1+$1,$2,$3,$4,$5,0*
20,1,$1+$1,$4,$5,$6,$7,0*
20,1,$1+$1,$6,$7,$8,$9,0*
20,1,$1+$1,$8,$9,$2,$3,0*%
%AMHorizOval*
0 Thick line with rounded ends*
0 $1 width*
0 $2 $3 position (X,Y) of the first rounded end (center of the circle)*
0 $4 $5 position (X,Y) of the second rounded end (center of the circle)*
0 Add line between two ends*
20,1,$1,$2,$3,$4,$5,0*
0 Add two circle primitives to create the rounded ends*
1,1,$1,$2,$3*
1,1,$1,$4,$5*%
G04 Aperture macros list end*
%ADD10C,0.500000*%
%ADD11C,0.000000*%
%ADD12C,0.500000*%
%ADD13C,1.400000*%
%ADD14HorizOval,1.400000X0.000000X0.000000X0.000000X0.000000X0*%
%ADD15R,1.350000X1.350000*%
%ADD16O,1.350000X1.350000*%
%ADD17HorizOval,1.400000X0.000000X0.000000X0.000000X0.000000X0*%
%ADD18O,1.400000X1.400000*%
%ADD19RoundRect,0.250000X0.625000X-0.375000X0.625000X0.375000X-0.625000X0.375000X-0.625000X-0.375000X0*%
%ADD20R,1.041400X3.200400*%
G04 APERTURE END LIST*
D10*
X45036440Y-100776716D02*
X44626031Y-100779591D01*
X42536440Y-98276716D01*
X44603159Y-95778357D01*
X45036440Y-95776716D01*
X45036440Y-100776716D01*
G36*
X45036440Y-100776716D02*
G01*
X44626031Y-100779591D01*
X42536440Y-98276716D01*
X44603159Y-95778357D01*
X45036440Y-95776716D01*
X45036440Y-100776716D01*
G37*
D11*
G36*
X58490414Y-96672868D02*
G01*
X51514236Y-96675456D01*
X51513986Y-96868572D01*
X58442500Y-96872910D01*
X58442500Y-99672517D01*
X54036788Y-99673913D01*
X54035796Y-99872910D01*
X58488926Y-99873902D01*
X59254917Y-101022778D01*
X45330347Y-101022282D01*
X46096561Y-99873458D01*
X53056250Y-99872694D01*
X53056250Y-99672968D01*
X46142821Y-99672258D01*
X46142490Y-96872910D01*
X50551895Y-96872475D01*
X50551932Y-96671762D01*
X46096504Y-96672258D01*
X45330844Y-95524541D01*
X59255635Y-95522556D01*
X58490414Y-96672868D01*
G37*
D10*
X59969721Y-95783171D02*
X62036440Y-98281530D01*
X59946849Y-100784405D01*
X59536440Y-100781530D01*
X59536440Y-95781530D01*
X59969721Y-95783171D01*
G36*
X59969721Y-95783171D02*
G01*
X62036440Y-98281530D01*
X59946849Y-100784405D01*
X59536440Y-100781530D01*
X59536440Y-95781530D01*
X59969721Y-95783171D01*
G37*
X44718794Y-53309197D02*
X43718794Y-53309197D01*
X41218794Y-50809197D01*
X43718794Y-48309197D01*
X44718794Y-48309197D01*
X44718794Y-53309197D01*
G36*
X44718794Y-53309197D02*
G01*
X43718794Y-53309197D01*
X41218794Y-50809197D01*
X43718794Y-48309197D01*
X44718794Y-48309197D01*
X44718794Y-53309197D01*
G37*
X64021353Y-50801585D02*
X61521353Y-53301585D01*
X61021353Y-53301585D01*
X61021353Y-48301585D01*
X61521353Y-48301585D01*
X64021353Y-50801585D01*
G36*
X64021353Y-50801585D02*
G01*
X61521353Y-53301585D01*
X61021353Y-53301585D01*
X61021353Y-48301585D01*
X61521353Y-48301585D01*
X64021353Y-50801585D01*
G37*
D12*
%TO.C,KiKit_MB_9_3*%
X52770740Y-29762988D03*
%TD*%
D13*
%TO.C,R4*%
X62831353Y-65880644D03*
D14*
X59021353Y-59281530D03*
%TD*%
D12*
%TO.C,KiKit_MB_1_7*%
X30250000Y-26642857D03*
%TD*%
%TO.C,KiKit_MB_10_4*%
X51887730Y-90531434D03*
%TD*%
%TO.C,KiKit_MB_3_5*%
X30250000Y-107210101D03*
%TD*%
%TO.C,KiKit_MB_5_2*%
X22357142Y-29750000D03*
%TD*%
%TO.C,KiKit_MB_13_4*%
X52686440Y-95031530D03*
%TD*%
%TO.C,KiKit_MB_9_2*%
X51891830Y-29999741D03*
%TD*%
%TO.C,KiKit_MB_12_5*%
X74745127Y-50474584D03*
%TD*%
%TO.C,KiKit_MB_1_5*%
X30250000Y-24928571D03*
%TD*%
%TO.C,KiKit_MB_7_2*%
X77930023Y-29750000D03*
%TD*%
%TO.C,KiKit_MB_5_5*%
X24928571Y-29750000D03*
%TD*%
%TO.C,KiKit_MB_2_7*%
X74822881Y-26642857D03*
%TD*%
%TO.C,KiKit_MB_1_6*%
X30250000Y-25785714D03*
%TD*%
%TO.C,KiKit_MB_7_6*%
X81358595Y-29750000D03*
%TD*%
%TO.C,KiKit_MB_7_5*%
X80501452Y-29750000D03*
%TD*%
%TO.C,KiKit_MB_2_4*%
X74822881Y-24071428D03*
%TD*%
%TO.C,KiKit_MB_3_2*%
X30250000Y-104638672D03*
%TD*%
%TO.C,KiKit_MB_9_5*%
X54518455Y-30172909D03*
%TD*%
%TO.C,KiKit_MB_10_2*%
X53490530Y-90495416D03*
%TD*%
%TO.C,KiKit_MB_6_5*%
X24928571Y-101031530D03*
%TD*%
%TO.C,KiKit_MB_5_3*%
X23214285Y-29750000D03*
%TD*%
D15*
%TO.C,J4*%
X72021353Y-48781530D03*
D16*
X72021353Y-50781530D03*
%TD*%
D12*
%TO.C,KiKit_MB_11_4*%
X29821183Y-43371138D03*
%TD*%
%TO.C,KiKit_MB_4_5*%
X74822881Y-107210101D03*
%TD*%
%TO.C,KiKit_MB_7_7*%
X82215738Y-29750000D03*
%TD*%
%TO.C,KiKit_MB_14_5*%
X51086440Y-101531530D03*
%TD*%
%TO.C,KiKit_MB_8_6*%
X81358595Y-101031530D03*
%TD*%
%TO.C,KiKit_MB_13_5*%
X53486440Y-95031530D03*
%TD*%
%TO.C,KiKit_MB_6_2*%
X22357142Y-101031530D03*
%TD*%
%TO.C,KiKit_MB_11_2*%
X30014500Y-45143124D03*
%TD*%
%TO.C,KiKit_MB_5_6*%
X25785714Y-29750000D03*
%TD*%
%TO.C,KiKit_MB_9_4*%
X53678147Y-29823204D03*
%TD*%
%TO.C,KiKit_MB_6_6*%
X25785714Y-101031530D03*
%TD*%
%TO.C,KiKit_MB_13_3*%
X51886440Y-95031530D03*
%TD*%
%TO.C,KiKit_MB_1_4*%
X30250000Y-24071428D03*
%TD*%
%TO.C,KiKit_MB_7_4*%
X79644309Y-29750000D03*
%TD*%
%TO.C,KiKit_MB_6_3*%
X23214285Y-101031530D03*
%TD*%
%TO.C,KiKit_MB_3_6*%
X30250000Y-108067244D03*
%TD*%
%TO.C,KiKit_MB_14_3*%
X52686440Y-101531530D03*
%TD*%
%TO.C,KiKit_MB_8_2*%
X77930023Y-101031530D03*
%TD*%
%TO.C,KiKit_MB_5_4*%
X24071428Y-29750000D03*
%TD*%
%TO.C,KiKit_MB_8_4*%
X79644309Y-101031530D03*
%TD*%
%TO.C,KiKit_MB_2_6*%
X74822881Y-25785714D03*
%TD*%
D13*
%TO.C,R1*%
X42711351Y-65880645D03*
D17*
X46521353Y-59281530D03*
%TD*%
D12*
%TO.C,KiKit_MB_11_3*%
X29768113Y-44273694D03*
%TD*%
%TO.C,KiKit_MB_12_3*%
X74542306Y-48633998D03*
%TD*%
%TO.C,KiKit_MB_3_4*%
X30250000Y-106352958D03*
%TD*%
%TO.C,KiKit_MB_6_7*%
X26642857Y-101031530D03*
%TD*%
%TO.C,KiKit_MB_1_3*%
X30250000Y-23214285D03*
%TD*%
%TO.C,KiKit_MB_5_7*%
X26642857Y-29750000D03*
%TD*%
%TO.C,KiKit_MB_11_5*%
X30164289Y-42535364D03*
%TD*%
D15*
%TO.C,J3*%
X53146539Y-31847619D03*
D16*
X53146539Y-33847619D03*
%TD*%
D15*
%TO.C,J2*%
X32546353Y-43031530D03*
D16*
X32546353Y-45031530D03*
%TD*%
D12*
%TO.C,KiKit_MB_2_2*%
X74822881Y-22357142D03*
%TD*%
%TO.C,KiKit_MB_14_4*%
X51886440Y-101531530D03*
%TD*%
%TO.C,KiKit_MB_8_7*%
X82215738Y-101031530D03*
%TD*%
%TO.C,KiKit_MB_2_3*%
X74822881Y-23214285D03*
%TD*%
%TO.C,KiKit_MB_4_4*%
X74822881Y-106352958D03*
%TD*%
%TO.C,KiKit_MB_8_3*%
X78787166Y-101031530D03*
%TD*%
%TO.C,KiKit_MB_4_3*%
X74822881Y-105495815D03*
%TD*%
D13*
%TO.C,R3*%
X55021353Y-67281530D03*
D18*
X55021353Y-59661530D03*
%TD*%
D12*
%TO.C,KiKit_MB_6_4*%
X24071428Y-101031530D03*
%TD*%
%TO.C,KiKit_MB_13_2*%
X51086440Y-95031530D03*
%TD*%
%TO.C,KiKit_MB_4_6*%
X74822881Y-108067244D03*
%TD*%
%TO.C,KiKit_MB_10_3*%
X52689130Y-90513425D03*
%TD*%
%TO.C,KiKit_MB_3_3*%
X30250000Y-105495815D03*
%TD*%
%TO.C,KiKit_MB_14_2*%
X53486440Y-101531530D03*
%TD*%
%TO.C,KiKit_MB_12_4*%
X74804682Y-49536245D03*
%TD*%
%TO.C,KiKit_MB_10_5*%
X51086150Y-90525492D03*
%TD*%
%TO.C,KiKit_MB_3_7*%
X30250000Y-108924387D03*
%TD*%
%TO.C,KiKit_MB_1_2*%
X30250000Y-22357142D03*
%TD*%
D13*
%TO.C,R2*%
X50521354Y-67091530D03*
D18*
X50521354Y-59471529D03*
%TD*%
D12*
%TO.C,KiKit_MB_7_3*%
X78787166Y-29750000D03*
%TD*%
%TO.C,KiKit_MB_12_2*%
X73993872Y-47871604D03*
%TD*%
%TO.C,KiKit_MB_2_5*%
X74822881Y-24928571D03*
%TD*%
%TO.C,KiKit_MB_4_7*%
X74822881Y-108924387D03*
%TD*%
%TO.C,KiKit_MB_8_5*%
X80501452Y-101031530D03*
%TD*%
%TO.C,KiKit_MB_4_2*%
X74822881Y-104638672D03*
%TD*%
D19*
%TO.C,D1*%
X49036440Y-99681530D03*
X49036440Y-96881530D03*
%TD*%
D20*
%TO.C,J1*%
X54521353Y-71781530D03*
X54521353Y-76831528D03*
X51981353Y-71781530D03*
X51981353Y-76831528D03*
X49441353Y-71781530D03*
X49441353Y-76831528D03*
%TD*%
M02*
