%TF.GenerationSoftware,KiCad,Pcbnew,9.0.7*%
%TF.CreationDate,2026-04-20T22:00:55-03:00*%
%TF.ProjectId,Sao_Tree_panel,53616f5f-5472-4656-955f-70616e656c2e,rev?*%
%TF.SameCoordinates,Original*%
%TF.FileFunction,Copper,L2,Bot*%
%TF.FilePolarity,Positive*%
%FSLAX46Y46*%
G04 Gerber Fmt 4.6, Leading zero omitted, Abs format (unit mm)*
G04 Created by KiCad (PCBNEW 9.0.7) date 2026-04-20 22:00:55*
%MOMM*%
%LPD*%
G01*
G04 APERTURE LIST*
G04 Aperture macros list*
%AMRoundRect*
0 Rectangle with rounded corners*
0 $1 Rounding radius*
0 $2 $3 $4 $5 $6 $7 $8 $9 X,Y pos of 4 corners*
0 Add a 4 corners polygon primitive as box body*
4,1,4,$2,$3,$4,$5,$6,$7,$8,$9,$2,$3,0*
0 Add four circle primitives for the rounded corners*
1,1,$1+$1,$2,$3*
1,1,$1+$1,$4,$5*
1,1,$1+$1,$6,$7*
1,1,$1+$1,$8,$9*
0 Add four rect primitives between the rounded corners*
20,1,$1+$1,$2,$3,$4,$5,0*
20,1,$1+$1,$4,$5,$6,$7,0*
20,1,$1+$1,$6,$7,$8,$9,0*
20,1,$1+$1,$8,$9,$2,$3,0*%
%AMHorizOval*
0 Thick line with rounded ends*
0 $1 width*
0 $2 $3 position (X,Y) of the first rounded end (center of the circle)*
0 $4 $5 position (X,Y) of the second rounded end (center of the circle)*
0 Add line between two ends*
20,1,$1,$2,$3,$4,$5,0*
0 Add two circle primitives to create the rounded ends*
1,1,$1,$2,$3*
1,1,$1,$4,$5*%
G04 Aperture macros list end*
%TA.AperFunction,Conductor*%
%ADD10C,0.500000*%
%TD*%
%TA.AperFunction,ComponentPad*%
%ADD11C,1.400000*%
%TD*%
%TA.AperFunction,ComponentPad*%
%ADD12HorizOval,1.400000X0.000000X0.000000X0.000000X0.000000X0*%
%TD*%
%TA.AperFunction,ComponentPad*%
%ADD13R,1.350000X1.350000*%
%TD*%
%TA.AperFunction,ComponentPad*%
%ADD14O,1.350000X1.350000*%
%TD*%
%TA.AperFunction,ComponentPad*%
%ADD15HorizOval,1.400000X0.000000X0.000000X0.000000X0.000000X0*%
%TD*%
%TA.AperFunction,ComponentPad*%
%ADD16O,1.400000X1.400000*%
%TD*%
%TA.AperFunction,SMDPad,CuDef*%
%ADD17RoundRect,0.250000X0.625000X-0.375000X0.625000X0.375000X-0.625000X0.375000X-0.625000X-0.375000X0*%
%TD*%
%TA.AperFunction,SMDPad,CuDef*%
%ADD18R,1.041400X3.200400*%
%TD*%
%TA.AperFunction,ViaPad*%
%ADD19C,0.600000*%
%TD*%
%TA.AperFunction,Conductor*%
%ADD20C,0.200000*%
%TD*%
G04 APERTURE END LIST*
D10*
%TO.N,Board_1-GND*%
X45036440Y-100776716D02*
X44626031Y-100779591D01*
X42536440Y-98276716D01*
X44603159Y-95778357D01*
X45036440Y-95776716D01*
X45036440Y-100776716D01*
%TA.AperFunction,Conductor*%
G36*
X45036440Y-100776716D02*
G01*
X44626031Y-100779591D01*
X42536440Y-98276716D01*
X44603159Y-95778357D01*
X45036440Y-95776716D01*
X45036440Y-100776716D01*
G37*
%TD.AperFunction*%
%TO.N,Board_1-Crystal*%
X59969721Y-95783171D02*
X62036440Y-98281530D01*
X59946849Y-100784405D01*
X59536440Y-100781530D01*
X59536440Y-95781530D01*
X59969721Y-95783171D01*
%TA.AperFunction,Conductor*%
G36*
X59969721Y-95783171D02*
G01*
X62036440Y-98281530D01*
X59946849Y-100784405D01*
X59536440Y-100781530D01*
X59536440Y-95781530D01*
X59969721Y-95783171D01*
G37*
%TD.AperFunction*%
%TO.N,Board_0-GND*%
X44714394Y-53291957D02*
X43714394Y-53291957D01*
X41214394Y-50791957D01*
X43714394Y-48291957D01*
X44714394Y-48291957D01*
X44714394Y-53291957D01*
%TA.AperFunction,Conductor*%
G36*
X44714394Y-53291957D02*
G01*
X43714394Y-53291957D01*
X41214394Y-50791957D01*
X43714394Y-48291957D01*
X44714394Y-48291957D01*
X44714394Y-53291957D01*
G37*
%TD.AperFunction*%
%TO.N,Board_0-Crystal*%
X64017099Y-50801585D02*
X61517099Y-53301585D01*
X61017099Y-53301585D01*
X61017099Y-48301585D01*
X61517099Y-48301585D01*
X64017099Y-50801585D01*
%TA.AperFunction,Conductor*%
G36*
X64017099Y-50801585D02*
G01*
X61517099Y-53301585D01*
X61017099Y-53301585D01*
X61017099Y-48301585D01*
X61517099Y-48301585D01*
X64017099Y-50801585D01*
G37*
%TD.AperFunction*%
%TD*%
D11*
%TO.P,R4,1*%
%TO.N,Board_0-+3.3V*%
X62831353Y-65880644D03*
D12*
%TO.P,R4,2*%
%TO.N,Board_0-Crystal*%
X59021353Y-59281530D03*
%TD*%
D13*
%TO.P,J4,1,Pin_1*%
%TO.N,Board_0-Net-(J4-Pin_1)*%
X72021353Y-48781530D03*
D14*
%TO.P,J4,2,Pin_2*%
%TO.N,Board_0-GND*%
X72021353Y-50781530D03*
%TD*%
D11*
%TO.P,R1,1*%
%TO.N,Board_0-+3.3V*%
X42711351Y-65880645D03*
D15*
%TO.P,R1,2*%
%TO.N,Board_0-Net-(J2-Pin_1)*%
X46521353Y-59281530D03*
%TD*%
D13*
%TO.P,J3,1,Pin_1*%
%TO.N,Board_0-Net-(J3-Pin_1)*%
X53146539Y-31847619D03*
D14*
%TO.P,J3,2,Pin_2*%
%TO.N,Board_0-GND*%
X53146539Y-33847619D03*
%TD*%
D13*
%TO.P,J2,1,Pin_1*%
%TO.N,Board_0-Net-(J2-Pin_1)*%
X32546353Y-43031530D03*
D14*
%TO.P,J2,2,Pin_2*%
%TO.N,Board_0-GND*%
X32546353Y-45031530D03*
%TD*%
D11*
%TO.P,R3,1*%
%TO.N,Board_0-+3.3V*%
X55021353Y-67281530D03*
D16*
%TO.P,R3,2*%
%TO.N,Board_0-Net-(J4-Pin_1)*%
X55021353Y-59661530D03*
%TD*%
D11*
%TO.P,R2,1*%
%TO.N,Board_0-+3.3V*%
X50521354Y-67091530D03*
D16*
%TO.P,R2,2*%
%TO.N,Board_0-Net-(J3-Pin_1)*%
X50521354Y-59471529D03*
%TD*%
D17*
%TO.P,D1,1,K*%
%TO.N,Board_1-GND*%
X49036440Y-99681530D03*
%TO.P,D1,2,A*%
%TO.N,Board_1-Crystal*%
X49036440Y-96881530D03*
%TD*%
D18*
%TO.P,J1,1,GPIO1*%
%TO.N,Board_0-unconnected-(J1-GPIO1-Pad1)*%
X54521353Y-71781530D03*
%TO.P,J1,2,GPIO2*%
%TO.N,Board_0-unconnected-(J1-GPIO2-Pad2)*%
X54521353Y-76831528D03*
%TO.P,J1,3,SDA*%
%TO.N,Board_0-unconnected-(J1-SDA-Pad3)*%
X51981353Y-71781530D03*
%TO.P,J1,4,SCL*%
%TO.N,Board_0-unconnected-(J1-SCL-Pad4)*%
X51981353Y-76831528D03*
%TO.P,J1,5,3V3*%
%TO.N,Board_0-+3.3V*%
X49441353Y-71781530D03*
%TO.P,J1,6,GND*%
%TO.N,Board_0-GND*%
X49441353Y-76831528D03*
%TD*%
D19*
%TO.N,Board_0-Crystal*%
X63921353Y-50781530D03*
%TO.N,Board_0-GND*%
X41321353Y-50776716D03*
X61771353Y-68531530D03*
X43654674Y-68648208D03*
%TO.N,Board_1-Crystal*%
X58536440Y-99781530D03*
X58536440Y-96781530D03*
%TO.N,Board_1-GND*%
X46036440Y-96781530D03*
X46036440Y-99781530D03*
%TD*%
D20*
%TO.N,Board_0-Net-(J3-Pin_1)*%
X50521354Y-59471529D02*
X52111353Y-57881530D01*
X57521353Y-42281530D02*
X57021353Y-41781530D01*
X65800000Y-51502883D02*
X65800000Y-49900000D01*
X53212628Y-31781530D02*
X53146539Y-31847619D01*
X57021353Y-41781530D02*
X56021353Y-41781530D01*
X52111353Y-57881530D02*
X59421353Y-57881530D01*
X56021353Y-41781530D02*
X54416236Y-40176413D01*
X59421353Y-57881530D02*
X65800000Y-51502883D01*
X65800000Y-49900000D02*
X58181530Y-42281530D01*
X58181530Y-42281530D02*
X57521353Y-42281530D01*
X54416236Y-40176413D02*
X54416236Y-31781530D01*
X54416236Y-31781530D02*
X53212628Y-31781530D01*
%TO.N,Board_0-Crystal*%
X59021353Y-59281530D02*
X59021353Y-60281530D01*
X59021353Y-60281530D02*
X57102883Y-62200000D01*
X48800000Y-57600000D02*
X49984889Y-56415111D01*
X50100000Y-62200000D02*
X48800000Y-60900000D01*
X48800000Y-60900000D02*
X48800000Y-57600000D01*
X57102883Y-62200000D02*
X50100000Y-62200000D01*
X49984889Y-56415111D02*
X59887772Y-56415111D01*
X59887772Y-56415111D02*
X63521353Y-52781530D01*
X63521353Y-52781530D02*
X62804325Y-52064502D01*
X62804325Y-52064502D02*
X62667170Y-52201657D01*
%TO.N,Board_0-+3.3V*%
X55021353Y-67281530D02*
X61430467Y-67281530D01*
X54831353Y-67091530D02*
X55021353Y-67281530D01*
X50521354Y-67091530D02*
X43922236Y-67091530D01*
X49441353Y-71781530D02*
X49441353Y-68171531D01*
X61430467Y-67281530D02*
X62831353Y-65880644D01*
X50521354Y-67091530D02*
X54831353Y-67091530D01*
X43922236Y-67091530D02*
X42711351Y-65880645D01*
X49441353Y-68171531D02*
X50521354Y-67091530D01*
%TO.N,Board_0-GND*%
X43021353Y-75281530D02*
X44571351Y-76831528D01*
X49521353Y-76751528D02*
X49441353Y-76831528D01*
X49521353Y-74281530D02*
X49521353Y-76751528D01*
X43021353Y-69281529D02*
X43021353Y-75281530D01*
X43654674Y-68648208D02*
X43021353Y-69281529D01*
X61771353Y-68531530D02*
X56021353Y-74281530D01*
X44571351Y-76831528D02*
X49441353Y-76831528D01*
X56021353Y-74281530D02*
X49521353Y-74281530D01*
%TO.N,Board_0-Net-(J2-Pin_1)*%
X46521353Y-59281530D02*
X44521353Y-57281530D01*
X34246430Y-43506607D02*
X32458673Y-43506607D01*
X44521353Y-57281530D02*
X44521353Y-56281530D01*
X40393980Y-52154157D02*
X40393980Y-49654157D01*
X44521353Y-56281530D02*
X40393980Y-52154157D01*
X40393980Y-49654157D02*
X34246430Y-43506607D01*
%TO.N,Board_0-Net-(J4-Pin_1)*%
X69133759Y-49169124D02*
X71971427Y-49169124D01*
X56401353Y-58281530D02*
X60021353Y-58281530D01*
X55021353Y-59661530D02*
X56401353Y-58281530D01*
X60021353Y-58281530D02*
X69133759Y-49169124D01*
%TO.N,Board_1-Crystal*%
X59287877Y-99781530D02*
X60786440Y-98282967D01*
X58536440Y-96781530D02*
X49136440Y-96781530D01*
X58436440Y-99681530D02*
X58536440Y-99781530D01*
X49136440Y-96781530D02*
X49036440Y-96881530D01*
X58536440Y-96781530D02*
X60037877Y-98282967D01*
X60037877Y-98282967D02*
X60786440Y-98282967D01*
X58536440Y-99781530D02*
X59287877Y-99781530D01*
%TO.N,Board_1-GND*%
X46036440Y-96781530D02*
X44539817Y-98278153D01*
X48936440Y-99781530D02*
X49036440Y-99681530D01*
X45289817Y-99781530D02*
X43786440Y-98278153D01*
X44539817Y-98278153D02*
X43786440Y-98278153D01*
X46036440Y-99781530D02*
X48936440Y-99781530D01*
X46036440Y-99781530D02*
X45289817Y-99781530D01*
X46036440Y-96781530D02*
X46173131Y-96918221D01*
%TD*%
M02*
