%TF.GenerationSoftware,KiCad,Pcbnew,9.0.7*%
%TF.CreationDate,2026-04-20T22:00:55-03:00*%
%TF.ProjectId,Sao_Tree_panel,53616f5f-5472-4656-955f-70616e656c2e,rev?*%
%TF.SameCoordinates,Original*%
%TF.FileFunction,Legend,Bot*%
%TF.FilePolarity,Positive*%
%FSLAX46Y46*%
G04 Gerber Fmt 4.6, Leading zero omitted, Abs format (unit mm)*
G04 Created by KiCad (PCBNEW 9.0.7) date 2026-04-20 22:00:55*
%MOMM*%
%LPD*%
G01*
G04 APERTURE LIST*
G04 Aperture macros list*
%AMRoundRect*
0 Rectangle with rounded corners*
0 $1 Rounding radius*
0 $2 $3 $4 $5 $6 $7 $8 $9 X,Y pos of 4 corners*
0 Add a 4 corners polygon primitive as box body*
4,1,4,$2,$3,$4,$5,$6,$7,$8,$9,$2,$3,0*
0 Add four circle primitives for the rounded corners*
1,1,$1+$1,$2,$3*
1,1,$1+$1,$4,$5*
1,1,$1+$1,$6,$7*
1,1,$1+$1,$8,$9*
0 Add four rect primitives between the rounded corners*
20,1,$1+$1,$2,$3,$4,$5,0*
20,1,$1+$1,$4,$5,$6,$7,0*
20,1,$1+$1,$6,$7,$8,$9,0*
20,1,$1+$1,$8,$9,$2,$3,0*%
%AMHorizOval*
0 Thick line with rounded ends*
0 $1 width*
0 $2 $3 position (X,Y) of the first rounded end (center of the circle)*
0 $4 $5 position (X,Y) of the second rounded end (center of the circle)*
0 Add line between two ends*
20,1,$1,$2,$3,$4,$5,0*
0 Add two circle primitives to create the rounded ends*
1,1,$1,$2,$3*
1,1,$1,$4,$5*%
G04 Aperture macros list end*
%ADD10C,0.100000*%
%ADD11C,0.300000*%
%ADD12C,0.150000*%
%ADD13C,0.000000*%
%ADD14C,0.120000*%
%ADD15C,0.152400*%
%ADD16C,0.500000*%
%ADD17C,0.500000*%
%ADD18C,1.400000*%
%ADD19HorizOval,1.400000X0.000000X0.000000X0.000000X0.000000X0*%
%ADD20R,1.350000X1.350000*%
%ADD21O,1.350000X1.350000*%
%ADD22HorizOval,1.400000X0.000000X0.000000X0.000000X0.000000X0*%
%ADD23O,1.400000X1.400000*%
%ADD24RoundRect,0.250000X0.625000X-0.375000X0.625000X0.375000X-0.625000X0.375000X-0.625000X-0.375000X0*%
%ADD25R,1.041400X3.200400*%
G04 APERTURE END LIST*
D10*
X39900000Y-78500000D02*
X44900000Y-78500000D01*
X44900000Y-83500000D01*
X39900000Y-83500000D01*
X39900000Y-78500000D01*
G36*
X39900000Y-78500000D02*
G01*
X44900000Y-78500000D01*
X44900000Y-83500000D01*
X39900000Y-83500000D01*
X39900000Y-78500000D01*
G37*
D11*
X54502026Y-86228274D02*
X54430598Y-86156846D01*
X54430598Y-86156846D02*
X54287741Y-86085417D01*
X54287741Y-86085417D02*
X53930598Y-86085417D01*
X53930598Y-86085417D02*
X53787741Y-86156846D01*
X53787741Y-86156846D02*
X53716312Y-86228274D01*
X53716312Y-86228274D02*
X53644883Y-86371131D01*
X53644883Y-86371131D02*
X53644883Y-86513989D01*
X53644883Y-86513989D02*
X53716312Y-86728274D01*
X53716312Y-86728274D02*
X54573455Y-87585417D01*
X54573455Y-87585417D02*
X53644883Y-87585417D01*
X52716312Y-86085417D02*
X52573455Y-86085417D01*
X52573455Y-86085417D02*
X52430598Y-86156846D01*
X52430598Y-86156846D02*
X52359170Y-86228274D01*
X52359170Y-86228274D02*
X52287741Y-86371131D01*
X52287741Y-86371131D02*
X52216312Y-86656846D01*
X52216312Y-86656846D02*
X52216312Y-87013989D01*
X52216312Y-87013989D02*
X52287741Y-87299703D01*
X52287741Y-87299703D02*
X52359170Y-87442560D01*
X52359170Y-87442560D02*
X52430598Y-87513989D01*
X52430598Y-87513989D02*
X52573455Y-87585417D01*
X52573455Y-87585417D02*
X52716312Y-87585417D01*
X52716312Y-87585417D02*
X52859170Y-87513989D01*
X52859170Y-87513989D02*
X52930598Y-87442560D01*
X52930598Y-87442560D02*
X53002027Y-87299703D01*
X53002027Y-87299703D02*
X53073455Y-87013989D01*
X53073455Y-87013989D02*
X53073455Y-86656846D01*
X53073455Y-86656846D02*
X53002027Y-86371131D01*
X53002027Y-86371131D02*
X52930598Y-86228274D01*
X52930598Y-86228274D02*
X52859170Y-86156846D01*
X52859170Y-86156846D02*
X52716312Y-86085417D01*
X51644884Y-86228274D02*
X51573456Y-86156846D01*
X51573456Y-86156846D02*
X51430599Y-86085417D01*
X51430599Y-86085417D02*
X51073456Y-86085417D01*
X51073456Y-86085417D02*
X50930599Y-86156846D01*
X50930599Y-86156846D02*
X50859170Y-86228274D01*
X50859170Y-86228274D02*
X50787741Y-86371131D01*
X50787741Y-86371131D02*
X50787741Y-86513989D01*
X50787741Y-86513989D02*
X50859170Y-86728274D01*
X50859170Y-86728274D02*
X51716313Y-87585417D01*
X51716313Y-87585417D02*
X50787741Y-87585417D01*
X49502028Y-86085417D02*
X49787742Y-86085417D01*
X49787742Y-86085417D02*
X49930599Y-86156846D01*
X49930599Y-86156846D02*
X50002028Y-86228274D01*
X50002028Y-86228274D02*
X50144885Y-86442560D01*
X50144885Y-86442560D02*
X50216313Y-86728274D01*
X50216313Y-86728274D02*
X50216313Y-87299703D01*
X50216313Y-87299703D02*
X50144885Y-87442560D01*
X50144885Y-87442560D02*
X50073456Y-87513989D01*
X50073456Y-87513989D02*
X49930599Y-87585417D01*
X49930599Y-87585417D02*
X49644885Y-87585417D01*
X49644885Y-87585417D02*
X49502028Y-87513989D01*
X49502028Y-87513989D02*
X49430599Y-87442560D01*
X49430599Y-87442560D02*
X49359170Y-87299703D01*
X49359170Y-87299703D02*
X49359170Y-86942560D01*
X49359170Y-86942560D02*
X49430599Y-86799703D01*
X49430599Y-86799703D02*
X49502028Y-86728274D01*
X49502028Y-86728274D02*
X49644885Y-86656846D01*
X49644885Y-86656846D02*
X49930599Y-86656846D01*
X49930599Y-86656846D02*
X50073456Y-86728274D01*
X50073456Y-86728274D02*
X50144885Y-86799703D01*
X50144885Y-86799703D02*
X50216313Y-86942560D01*
D12*
X51311259Y-97543435D02*
X50311259Y-97543435D01*
X50311259Y-97543435D02*
X50311259Y-97781530D01*
X50311259Y-97781530D02*
X50358878Y-97924387D01*
X50358878Y-97924387D02*
X50454116Y-98019625D01*
X50454116Y-98019625D02*
X50549354Y-98067244D01*
X50549354Y-98067244D02*
X50739830Y-98114863D01*
X50739830Y-98114863D02*
X50882687Y-98114863D01*
X50882687Y-98114863D02*
X51073163Y-98067244D01*
X51073163Y-98067244D02*
X51168401Y-98019625D01*
X51168401Y-98019625D02*
X51263640Y-97924387D01*
X51263640Y-97924387D02*
X51311259Y-97781530D01*
X51311259Y-97781530D02*
X51311259Y-97543435D01*
X51311259Y-99067244D02*
X51311259Y-98495816D01*
X51311259Y-98781530D02*
X50311259Y-98781530D01*
X50311259Y-98781530D02*
X50454116Y-98686292D01*
X50454116Y-98686292D02*
X50549354Y-98591054D01*
X50549354Y-98591054D02*
X50596973Y-98495816D01*
X47394573Y-71045395D02*
X46632669Y-71045395D01*
X47013621Y-71426348D02*
X47013621Y-70664443D01*
X56942192Y-77271586D02*
X56894573Y-77223967D01*
X56894573Y-77223967D02*
X56799335Y-77176348D01*
X56799335Y-77176348D02*
X56561240Y-77176348D01*
X56561240Y-77176348D02*
X56466002Y-77223967D01*
X56466002Y-77223967D02*
X56418383Y-77271586D01*
X56418383Y-77271586D02*
X56370764Y-77366824D01*
X56370764Y-77366824D02*
X56370764Y-77462062D01*
X56370764Y-77462062D02*
X56418383Y-77604919D01*
X56418383Y-77604919D02*
X56989811Y-78176348D01*
X56989811Y-78176348D02*
X56370764Y-78176348D01*
X56370764Y-71426348D02*
X56942192Y-71426348D01*
X56656478Y-71426348D02*
X56656478Y-70426348D01*
X56656478Y-70426348D02*
X56751716Y-70569205D01*
X56751716Y-70569205D02*
X56846954Y-70664443D01*
X56846954Y-70664443D02*
X56942192Y-70712062D01*
X47394573Y-77795395D02*
X46632669Y-77795395D01*
D13*
%TO.C,REF\u002A\u002A*%
G36*
X60569415Y-81141623D02*
G01*
X60569754Y-81141657D01*
X60570108Y-81141714D01*
X60570475Y-81141794D01*
X60570857Y-81141898D01*
X60571253Y-81142025D01*
X60571663Y-81142175D01*
X60572086Y-81142349D01*
X60572524Y-81142546D01*
X60572976Y-81142766D01*
X61659884Y-81686220D01*
X61660296Y-81686450D01*
X61660689Y-81686706D01*
X61661062Y-81686988D01*
X61661412Y-81687294D01*
X61661741Y-81687622D01*
X61662045Y-81687971D01*
X61662325Y-81688340D01*
X61662580Y-81688727D01*
X61662809Y-81689131D01*
X61663010Y-81689550D01*
X61663183Y-81689983D01*
X61663326Y-81690428D01*
X61663440Y-81690885D01*
X61663522Y-81691351D01*
X61663572Y-81691825D01*
X61663589Y-81692306D01*
X61663589Y-85254788D01*
X61663585Y-85254958D01*
X61663572Y-85255126D01*
X61663551Y-85255291D01*
X61663523Y-85255454D01*
X61663486Y-85255614D01*
X61663442Y-85255771D01*
X61663391Y-85255925D01*
X61663333Y-85256075D01*
X61663267Y-85256221D01*
X61663195Y-85256364D01*
X61663116Y-85256502D01*
X61663031Y-85256636D01*
X61662940Y-85256766D01*
X61662842Y-85256891D01*
X61662739Y-85257011D01*
X61662630Y-85257126D01*
X61662516Y-85257236D01*
X61662396Y-85257340D01*
X61662272Y-85257438D01*
X61662142Y-85257530D01*
X61662008Y-85257616D01*
X61661870Y-85257696D01*
X61661727Y-85257769D01*
X61661580Y-85257835D01*
X61661430Y-85257894D01*
X61661275Y-85257946D01*
X61661117Y-85257991D01*
X61660956Y-85258028D01*
X61660792Y-85258057D01*
X61660625Y-85258078D01*
X61660455Y-85258091D01*
X61660282Y-85258095D01*
X60572845Y-85258095D01*
X60572417Y-85258088D01*
X60572003Y-85258068D01*
X60571602Y-85258035D01*
X60571214Y-85257988D01*
X60570839Y-85257927D01*
X60570478Y-85257854D01*
X60570130Y-85257766D01*
X60569795Y-85257666D01*
X60569474Y-85257552D01*
X60569166Y-85257424D01*
X60568872Y-85257283D01*
X60568591Y-85257129D01*
X60568324Y-85256961D01*
X60568070Y-85256780D01*
X60567829Y-85256585D01*
X60567602Y-85256377D01*
X60567389Y-85256155D01*
X60567189Y-85255920D01*
X60567003Y-85255672D01*
X60566831Y-85255410D01*
X60566672Y-85255134D01*
X60566527Y-85254845D01*
X60566395Y-85254543D01*
X60566278Y-85254227D01*
X60566174Y-85253898D01*
X60566084Y-85253555D01*
X60566007Y-85253199D01*
X60565945Y-85252829D01*
X60565896Y-85252446D01*
X60565861Y-85252049D01*
X60565840Y-85251639D01*
X60565833Y-85251216D01*
X60566494Y-83097904D01*
X60564881Y-83030523D01*
X60559689Y-82963879D01*
X60550764Y-82898366D01*
X60537951Y-82834382D01*
X60530038Y-82803086D01*
X60521094Y-82772320D01*
X60511100Y-82742134D01*
X60500038Y-82712577D01*
X60487887Y-82683698D01*
X60474628Y-82655548D01*
X60460241Y-82628175D01*
X60444708Y-82601629D01*
X60428009Y-82575959D01*
X60410125Y-82551215D01*
X60391035Y-82527446D01*
X60370722Y-82504702D01*
X60349164Y-82483032D01*
X60326344Y-82462485D01*
X60302241Y-82443111D01*
X60276836Y-82424960D01*
X60250110Y-82408080D01*
X60222043Y-82392522D01*
X60192616Y-82378334D01*
X60161810Y-82365567D01*
X60129605Y-82354269D01*
X60095982Y-82344490D01*
X60060921Y-82336280D01*
X60024403Y-82329687D01*
X59992466Y-82325274D01*
X59960890Y-82321956D01*
X59929675Y-82319733D01*
X59898820Y-82318606D01*
X59868326Y-82318575D01*
X59838191Y-82319639D01*
X59808417Y-82321800D01*
X59779002Y-82325057D01*
X59731102Y-82332708D01*
X59685365Y-82342925D01*
X59641792Y-82355710D01*
X59600381Y-82371062D01*
X59580487Y-82379701D01*
X59561134Y-82388981D01*
X59542322Y-82398904D01*
X59524050Y-82409468D01*
X59506320Y-82420674D01*
X59489130Y-82432521D01*
X59472481Y-82445011D01*
X59456372Y-82458142D01*
X59440805Y-82471915D01*
X59425778Y-82486330D01*
X59411293Y-82501387D01*
X59397348Y-82517085D01*
X59383944Y-82533426D01*
X59371080Y-82550408D01*
X59358758Y-82568032D01*
X59346976Y-82586298D01*
X59325035Y-82624756D01*
X59305258Y-82665781D01*
X59287643Y-82709373D01*
X59272192Y-82755533D01*
X59260870Y-82795023D01*
X59251054Y-82833988D01*
X59242743Y-82872429D01*
X59235938Y-82910345D01*
X59230638Y-82947736D01*
X59226844Y-82984603D01*
X59224556Y-83020945D01*
X59223773Y-83056762D01*
X59222849Y-85250819D01*
X59222841Y-85251267D01*
X59222820Y-85251701D01*
X59222784Y-85252120D01*
X59222734Y-85252526D01*
X59222670Y-85252917D01*
X59222592Y-85253293D01*
X59222499Y-85253656D01*
X59222393Y-85254004D01*
X59222271Y-85254338D01*
X59222136Y-85254658D01*
X59221987Y-85254964D01*
X59221823Y-85255255D01*
X59221645Y-85255532D01*
X59221453Y-85255795D01*
X59221247Y-85256043D01*
X59221026Y-85256278D01*
X59220791Y-85256498D01*
X59220542Y-85256704D01*
X59220279Y-85256896D01*
X59220002Y-85257073D01*
X59219711Y-85257236D01*
X59219405Y-85257385D01*
X59219085Y-85257520D01*
X59218752Y-85257641D01*
X59218404Y-85257747D01*
X59218041Y-85257840D01*
X59217665Y-85257918D01*
X59217275Y-85257982D01*
X59216870Y-85258031D01*
X59216451Y-85258067D01*
X59216019Y-85258088D01*
X59215572Y-85258095D01*
X58128664Y-85258095D01*
X58128451Y-85258092D01*
X58128245Y-85258081D01*
X58128046Y-85258064D01*
X58127853Y-85258039D01*
X58127666Y-85258008D01*
X58127486Y-85257969D01*
X58127313Y-85257924D01*
X58127146Y-85257872D01*
X58126985Y-85257812D01*
X58126831Y-85257746D01*
X58126684Y-85257673D01*
X58126543Y-85257593D01*
X58126409Y-85257505D01*
X58126281Y-85257411D01*
X58126159Y-85257310D01*
X58126045Y-85257202D01*
X58125936Y-85257087D01*
X58125834Y-85256965D01*
X58125739Y-85256836D01*
X58125650Y-85256700D01*
X58125568Y-85256557D01*
X58125492Y-85256407D01*
X58125423Y-85256250D01*
X58125360Y-85256086D01*
X58125304Y-85255915D01*
X58125254Y-85255737D01*
X58125210Y-85255552D01*
X58125174Y-85255360D01*
X58125143Y-85255161D01*
X58125120Y-85254955D01*
X58125092Y-85254523D01*
X58125489Y-82717963D01*
X58126581Y-82658283D01*
X58129728Y-82598305D01*
X58134930Y-82538030D01*
X58142187Y-82477457D01*
X58151500Y-82416586D01*
X58162867Y-82355418D01*
X58176289Y-82293952D01*
X58191767Y-82232188D01*
X58201128Y-82198625D01*
X58211094Y-82165803D01*
X58221665Y-82133721D01*
X58232840Y-82102378D01*
X58244619Y-82071776D01*
X58257002Y-82041913D01*
X58269988Y-82012790D01*
X58283578Y-81984406D01*
X58319838Y-81916106D01*
X58359066Y-81851502D01*
X58401263Y-81790594D01*
X58446428Y-81733382D01*
X58494561Y-81679866D01*
X58545662Y-81630046D01*
X58599732Y-81583922D01*
X58656770Y-81541493D01*
X58716777Y-81502761D01*
X58779752Y-81467724D01*
X58845695Y-81436383D01*
X58914606Y-81408738D01*
X58986487Y-81384790D01*
X59061335Y-81364536D01*
X59139152Y-81347979D01*
X59219937Y-81335118D01*
X59289108Y-81327309D01*
X59357821Y-81322469D01*
X59426010Y-81320643D01*
X59493612Y-81321879D01*
X59560560Y-81326224D01*
X59626792Y-81333725D01*
X59692241Y-81344430D01*
X59756843Y-81358385D01*
X59820534Y-81375637D01*
X59883248Y-81396235D01*
X59944922Y-81420223D01*
X60005490Y-81447651D01*
X60064887Y-81478564D01*
X60123049Y-81513010D01*
X60179911Y-81551037D01*
X60235409Y-81592690D01*
X60278580Y-81628136D01*
X60320808Y-81665219D01*
X60362091Y-81703939D01*
X60402424Y-81744296D01*
X60441805Y-81786291D01*
X60480228Y-81829922D01*
X60517691Y-81875191D01*
X60554191Y-81922096D01*
X60555583Y-81923848D01*
X60556883Y-81925335D01*
X60557498Y-81925979D01*
X60558090Y-81926556D01*
X60558660Y-81927067D01*
X60559206Y-81927511D01*
X60559729Y-81927889D01*
X60560230Y-81928201D01*
X60560708Y-81928446D01*
X60561163Y-81928625D01*
X60561595Y-81928737D01*
X60562005Y-81928783D01*
X60562392Y-81928763D01*
X60562757Y-81928676D01*
X60563099Y-81928523D01*
X60563419Y-81928303D01*
X60563716Y-81928017D01*
X60563991Y-81927665D01*
X60564244Y-81927246D01*
X60564475Y-81926761D01*
X60564683Y-81926210D01*
X60564869Y-81925592D01*
X60565033Y-81924908D01*
X60565175Y-81924157D01*
X60565296Y-81923340D01*
X60565394Y-81922457D01*
X60565524Y-81920491D01*
X60565568Y-81918260D01*
X60565568Y-81147264D01*
X60565575Y-81146763D01*
X60565597Y-81146286D01*
X60565634Y-81145832D01*
X60565685Y-81145401D01*
X60565751Y-81144993D01*
X60565832Y-81144608D01*
X60565927Y-81144247D01*
X60566037Y-81143908D01*
X60566162Y-81143593D01*
X60566300Y-81143301D01*
X60566454Y-81143033D01*
X60566622Y-81142788D01*
X60566804Y-81142565D01*
X60567000Y-81142367D01*
X60567211Y-81142191D01*
X60567437Y-81142038D01*
X60567677Y-81141909D01*
X60567931Y-81141803D01*
X60568199Y-81141721D01*
X60568482Y-81141662D01*
X60568778Y-81141625D01*
X60569089Y-81141613D01*
X60569415Y-81141623D01*
G37*
G36*
X50085109Y-80084589D02*
G01*
X50142160Y-80087167D01*
X50199895Y-80091841D01*
X50289207Y-80102992D01*
X50376026Y-80118667D01*
X50460212Y-80138919D01*
X50541623Y-80163797D01*
X50620121Y-80193354D01*
X50658233Y-80209903D01*
X50695565Y-80227640D01*
X50732098Y-80246572D01*
X50767815Y-80266705D01*
X50802698Y-80288047D01*
X50836731Y-80310602D01*
X50869895Y-80334378D01*
X50902172Y-80359380D01*
X50933547Y-80385616D01*
X50964000Y-80413091D01*
X50993514Y-80441813D01*
X51022073Y-80471787D01*
X51049657Y-80503019D01*
X51076251Y-80535516D01*
X51101836Y-80569285D01*
X51126395Y-80604332D01*
X51149910Y-80640663D01*
X51172364Y-80678284D01*
X51193739Y-80717202D01*
X51214018Y-80757424D01*
X51233183Y-80798955D01*
X51251217Y-80841802D01*
X51260656Y-80866657D01*
X51269198Y-80892007D01*
X51276843Y-80917854D01*
X51283592Y-80944196D01*
X51289444Y-80971035D01*
X51294400Y-80998370D01*
X51298458Y-81026201D01*
X51301620Y-81054528D01*
X51303751Y-81078971D01*
X51305519Y-81102889D01*
X51306925Y-81126282D01*
X51307967Y-81149151D01*
X51308646Y-81171494D01*
X51308961Y-81193312D01*
X51308912Y-81214604D01*
X51308499Y-81235370D01*
X51300099Y-81473677D01*
X51298603Y-81534389D01*
X51297858Y-81595032D01*
X51298118Y-81655343D01*
X51299636Y-81715060D01*
X51299939Y-81721898D01*
X51300320Y-81728719D01*
X51300781Y-81735525D01*
X51301321Y-81742313D01*
X51301939Y-81749085D01*
X51302636Y-81755841D01*
X51303412Y-81762579D01*
X51304266Y-81769299D01*
X51304397Y-81770133D01*
X51304561Y-81770949D01*
X51304759Y-81771746D01*
X51304990Y-81772524D01*
X51305254Y-81773284D01*
X51305552Y-81774025D01*
X51305883Y-81774747D01*
X51306247Y-81775451D01*
X51306645Y-81776136D01*
X51307075Y-81776803D01*
X51307539Y-81777451D01*
X51308035Y-81778080D01*
X51308565Y-81778691D01*
X51309128Y-81779283D01*
X51309723Y-81779857D01*
X51310352Y-81780412D01*
X51355401Y-81819415D01*
X51399040Y-81859429D01*
X51441269Y-81900455D01*
X51482087Y-81942493D01*
X51521494Y-81985543D01*
X51559491Y-82029605D01*
X51596077Y-82074678D01*
X51631253Y-82120764D01*
X51665018Y-82167861D01*
X51697373Y-82215970D01*
X51728316Y-82265091D01*
X51757850Y-82315224D01*
X51785972Y-82366369D01*
X51812684Y-82418526D01*
X51837985Y-82471694D01*
X51861876Y-82525875D01*
X51862180Y-82526564D01*
X51862483Y-82527207D01*
X51862784Y-82527805D01*
X51863084Y-82528359D01*
X51863382Y-82528867D01*
X51863679Y-82529331D01*
X51863975Y-82529750D01*
X51864269Y-82530124D01*
X51864561Y-82530453D01*
X51864852Y-82530737D01*
X51865142Y-82530976D01*
X51865430Y-82531170D01*
X51865716Y-82531320D01*
X51866001Y-82531424D01*
X51866285Y-82531483D01*
X51866567Y-82531498D01*
X51866847Y-82531467D01*
X51867126Y-82531392D01*
X51867404Y-82531271D01*
X51867680Y-82531106D01*
X51867954Y-82530895D01*
X51868227Y-82530640D01*
X51868498Y-82530340D01*
X51868768Y-82529994D01*
X51869036Y-82529604D01*
X51869303Y-82529168D01*
X51869568Y-82528688D01*
X51869832Y-82528163D01*
X51870094Y-82527592D01*
X51870355Y-82526977D01*
X51870614Y-82526316D01*
X51870871Y-82525611D01*
X51884081Y-82489284D01*
X51897957Y-82453195D01*
X51912496Y-82417368D01*
X51927691Y-82381828D01*
X51943537Y-82346599D01*
X51960029Y-82311705D01*
X51977161Y-82277171D01*
X51994928Y-82243019D01*
X52013324Y-82209276D01*
X52032344Y-82175964D01*
X52051983Y-82143109D01*
X52072236Y-82110734D01*
X52093095Y-82078864D01*
X52114558Y-82047522D01*
X52136617Y-82016734D01*
X52159267Y-81986523D01*
X52231595Y-81898402D01*
X52308092Y-81816940D01*
X52388547Y-81742041D01*
X52472749Y-81673615D01*
X52560485Y-81611569D01*
X52651544Y-81555809D01*
X52745714Y-81506244D01*
X52842785Y-81462780D01*
X52942544Y-81425325D01*
X53044779Y-81393786D01*
X53149279Y-81368071D01*
X53255833Y-81348087D01*
X53364228Y-81333741D01*
X53474253Y-81324941D01*
X53585697Y-81321595D01*
X53698348Y-81323609D01*
X53799759Y-81330481D01*
X53900069Y-81342661D01*
X53999084Y-81360073D01*
X54096612Y-81382640D01*
X54192459Y-81410283D01*
X54286433Y-81442927D01*
X54378340Y-81480494D01*
X54467988Y-81522906D01*
X54555183Y-81570087D01*
X54639732Y-81621960D01*
X54721443Y-81678447D01*
X54800122Y-81739472D01*
X54875577Y-81804956D01*
X54947614Y-81874824D01*
X55016041Y-81948998D01*
X55080663Y-82027400D01*
X55123799Y-82084827D01*
X55164702Y-82143401D01*
X55203372Y-82203124D01*
X55239810Y-82263995D01*
X55274016Y-82326014D01*
X55305989Y-82389182D01*
X55335730Y-82453498D01*
X55363239Y-82518962D01*
X55388515Y-82585574D01*
X55411558Y-82653334D01*
X55432369Y-82722243D01*
X55450948Y-82792301D01*
X55467294Y-82863506D01*
X55481408Y-82935861D01*
X55493290Y-83009363D01*
X55502939Y-83084014D01*
X55506101Y-83114201D01*
X55508721Y-83144835D01*
X55510798Y-83175915D01*
X55512331Y-83207442D01*
X55512364Y-83208071D01*
X55512413Y-83208668D01*
X55512477Y-83209234D01*
X55512557Y-83209767D01*
X55512652Y-83210269D01*
X55512764Y-83210740D01*
X55512891Y-83211178D01*
X55513034Y-83211584D01*
X55513192Y-83211959D01*
X55513367Y-83212302D01*
X55513557Y-83212613D01*
X55513763Y-83212893D01*
X55513985Y-83213141D01*
X55514222Y-83213356D01*
X55514475Y-83213541D01*
X55514744Y-83213693D01*
X55515029Y-83213813D01*
X55515330Y-83213902D01*
X55515646Y-83213959D01*
X55515978Y-83213984D01*
X55516326Y-83213978D01*
X55516690Y-83213939D01*
X55517069Y-83213869D01*
X55517464Y-83213767D01*
X55517875Y-83213634D01*
X55518302Y-83213468D01*
X55518745Y-83213271D01*
X55519203Y-83213042D01*
X55519678Y-83212781D01*
X55520168Y-83212488D01*
X55520674Y-83212164D01*
X55521195Y-83211808D01*
X55558024Y-83186379D01*
X55595560Y-83161817D01*
X55633766Y-83138097D01*
X55672605Y-83115194D01*
X55712040Y-83093081D01*
X55752034Y-83071733D01*
X55833552Y-83031230D01*
X55916862Y-82993480D01*
X56001668Y-82958279D01*
X56087674Y-82925422D01*
X56174583Y-82894705D01*
X56420644Y-82810501D01*
X56656654Y-82729075D01*
X56696839Y-82714777D01*
X56736101Y-82699990D01*
X56774442Y-82684714D01*
X56811862Y-82668950D01*
X56848360Y-82652699D01*
X56883937Y-82635959D01*
X56918592Y-82618732D01*
X56952326Y-82601017D01*
X56973481Y-82589140D01*
X56994128Y-82576555D01*
X57014107Y-82563226D01*
X57033260Y-82549117D01*
X57051428Y-82534193D01*
X57068454Y-82518417D01*
X57084178Y-82501755D01*
X57098442Y-82484170D01*
X57104977Y-82475021D01*
X57111088Y-82465628D01*
X57116754Y-82455986D01*
X57121956Y-82446091D01*
X57126675Y-82435939D01*
X57130890Y-82425525D01*
X57134581Y-82414845D01*
X57137729Y-82403894D01*
X57140313Y-82392668D01*
X57142315Y-82381163D01*
X57143714Y-82369373D01*
X57144490Y-82357295D01*
X57144624Y-82344923D01*
X57144096Y-82332255D01*
X57142886Y-82319284D01*
X57140974Y-82306007D01*
X57138442Y-82293074D01*
X57135298Y-82280542D01*
X57131564Y-82268406D01*
X57127258Y-82256664D01*
X57122400Y-82245312D01*
X57117010Y-82234347D01*
X57111109Y-82223765D01*
X57104716Y-82213562D01*
X57097850Y-82203735D01*
X57090532Y-82194281D01*
X57082781Y-82185196D01*
X57074617Y-82176477D01*
X57057132Y-82160123D01*
X57038233Y-82145190D01*
X57018080Y-82131650D01*
X56996832Y-82119477D01*
X56974646Y-82108641D01*
X56951683Y-82099117D01*
X56928101Y-82090875D01*
X56904057Y-82083889D01*
X56879712Y-82078130D01*
X56855224Y-82073570D01*
X56816483Y-82068284D01*
X56777305Y-82064819D01*
X56737762Y-82063084D01*
X56697929Y-82062991D01*
X56657879Y-82064450D01*
X56617685Y-82067370D01*
X56577421Y-82071664D01*
X56537161Y-82077241D01*
X56496979Y-82084012D01*
X56456948Y-82091887D01*
X56417142Y-82100776D01*
X56377634Y-82110591D01*
X56299809Y-82132638D01*
X56224060Y-82157311D01*
X56146333Y-82185379D01*
X56068996Y-82215609D01*
X55992048Y-82248002D01*
X55915488Y-82282556D01*
X55839318Y-82319273D01*
X55763536Y-82358153D01*
X55688142Y-82399195D01*
X55613137Y-82442399D01*
X55612603Y-82442700D01*
X55612075Y-82442973D01*
X55611555Y-82443220D01*
X55611043Y-82443440D01*
X55610537Y-82443633D01*
X55610039Y-82443799D01*
X55609548Y-82443939D01*
X55609065Y-82444051D01*
X55608588Y-82444137D01*
X55608119Y-82444196D01*
X55607658Y-82444228D01*
X55607203Y-82444233D01*
X55606756Y-82444211D01*
X55606316Y-82444163D01*
X55605884Y-82444087D01*
X55605458Y-82443985D01*
X55605040Y-82443856D01*
X55604630Y-82443700D01*
X55604226Y-82443517D01*
X55603830Y-82443308D01*
X55603441Y-82443071D01*
X55603060Y-82442808D01*
X55602685Y-82442518D01*
X55602318Y-82442200D01*
X55601959Y-82441856D01*
X55601606Y-82441486D01*
X55601261Y-82441088D01*
X55600923Y-82440663D01*
X55600592Y-82440211D01*
X55600269Y-82439733D01*
X55599953Y-82439228D01*
X55599645Y-82438695D01*
X55160568Y-81643490D01*
X55160409Y-81643181D01*
X55160266Y-81642868D01*
X55160140Y-81642552D01*
X55160030Y-81642232D01*
X55159936Y-81641909D01*
X55159857Y-81641584D01*
X55159795Y-81641258D01*
X55159748Y-81640930D01*
X55159716Y-81640602D01*
X55159700Y-81640274D01*
X55159699Y-81639946D01*
X55159713Y-81639619D01*
X55159743Y-81639294D01*
X55159786Y-81638971D01*
X55159845Y-81638650D01*
X55159918Y-81638332D01*
X55160006Y-81638018D01*
X55160107Y-81637708D01*
X55160223Y-81637403D01*
X55160353Y-81637103D01*
X55160496Y-81636808D01*
X55160654Y-81636520D01*
X55160825Y-81636239D01*
X55161009Y-81635965D01*
X55161206Y-81635699D01*
X55161417Y-81635441D01*
X55161641Y-81635191D01*
X55161877Y-81634952D01*
X55162127Y-81634722D01*
X55162388Y-81634503D01*
X55162663Y-81634294D01*
X55162949Y-81634097D01*
X55254298Y-81576434D01*
X55347955Y-81522079D01*
X55443758Y-81471133D01*
X55541545Y-81423700D01*
X55641153Y-81379880D01*
X55742418Y-81339776D01*
X55845180Y-81303489D01*
X55949274Y-81271122D01*
X56054539Y-81242776D01*
X56160812Y-81218554D01*
X56267930Y-81198557D01*
X56375731Y-81182888D01*
X56484052Y-81171647D01*
X56592730Y-81164938D01*
X56701604Y-81162861D01*
X56810510Y-81165520D01*
X56907030Y-81172453D01*
X57003271Y-81184318D01*
X57098801Y-81201188D01*
X57193184Y-81223133D01*
X57285987Y-81250226D01*
X57376777Y-81282536D01*
X57465120Y-81320137D01*
X57508238Y-81340943D01*
X57550582Y-81363098D01*
X57592097Y-81386611D01*
X57632730Y-81411491D01*
X57672425Y-81437747D01*
X57711129Y-81465388D01*
X57748788Y-81494423D01*
X57785347Y-81524860D01*
X57820751Y-81556709D01*
X57854948Y-81589978D01*
X57887883Y-81624677D01*
X57919501Y-81660813D01*
X57949748Y-81698397D01*
X57978570Y-81737438D01*
X58005913Y-81777943D01*
X58031723Y-81819922D01*
X58055945Y-81863384D01*
X58078526Y-81908338D01*
X58078849Y-81909065D01*
X58079127Y-81909792D01*
X58079358Y-81910519D01*
X58079542Y-81911247D01*
X58079680Y-81911975D01*
X58079771Y-81912703D01*
X58079816Y-81913430D01*
X58079815Y-81914159D01*
X58079767Y-81914887D01*
X58079672Y-81915615D01*
X58079531Y-81916342D01*
X58079343Y-81917070D01*
X58079109Y-81917798D01*
X58078829Y-81918525D01*
X58078502Y-81919252D01*
X58078128Y-81919979D01*
X58056045Y-81962233D01*
X58035335Y-82005264D01*
X58015993Y-82049009D01*
X57998017Y-82093410D01*
X57981402Y-82138404D01*
X57966144Y-82183931D01*
X57952240Y-82229930D01*
X57939685Y-82276340D01*
X57928476Y-82323101D01*
X57918608Y-82370151D01*
X57910079Y-82417430D01*
X57902883Y-82464876D01*
X57897018Y-82512430D01*
X57892478Y-82560030D01*
X57889262Y-82607615D01*
X57887363Y-82655124D01*
X57884169Y-82806480D01*
X57882662Y-82956283D01*
X57882845Y-83104533D01*
X57884718Y-83251231D01*
X57884722Y-83252427D01*
X57884671Y-83253601D01*
X57884563Y-83254751D01*
X57884401Y-83255879D01*
X57884182Y-83256984D01*
X57883907Y-83258066D01*
X57883577Y-83259125D01*
X57883192Y-83260162D01*
X57882750Y-83261176D01*
X57882253Y-83262167D01*
X57881700Y-83263135D01*
X57881092Y-83264080D01*
X57880428Y-83265003D01*
X57879709Y-83265903D01*
X57878933Y-83266780D01*
X57878103Y-83267635D01*
X57867172Y-83278403D01*
X57856010Y-83289009D01*
X57844616Y-83299454D01*
X57832990Y-83309736D01*
X57821133Y-83319858D01*
X57809045Y-83329819D01*
X57796727Y-83339619D01*
X57784177Y-83349259D01*
X57745291Y-83377683D01*
X57705564Y-83404890D01*
X57665047Y-83430922D01*
X57623789Y-83455822D01*
X57581844Y-83479631D01*
X57539261Y-83502391D01*
X57496092Y-83524145D01*
X57452389Y-83544935D01*
X57408202Y-83564802D01*
X57363582Y-83583788D01*
X57273249Y-83619289D01*
X57181801Y-83651772D01*
X57089645Y-83681575D01*
X56878269Y-83746066D01*
X56669354Y-83808046D01*
X56631663Y-83819360D01*
X56594332Y-83831146D01*
X56557362Y-83843404D01*
X56520753Y-83856134D01*
X56484503Y-83869335D01*
X56448614Y-83883007D01*
X56413085Y-83897150D01*
X56377915Y-83911763D01*
X56360870Y-83919208D01*
X56344086Y-83926968D01*
X56327593Y-83935055D01*
X56311423Y-83943484D01*
X56295605Y-83952268D01*
X56280173Y-83961420D01*
X56265156Y-83970955D01*
X56250585Y-83980885D01*
X56236492Y-83991225D01*
X56222907Y-84001987D01*
X56209862Y-84013186D01*
X56197387Y-84024835D01*
X56185514Y-84036947D01*
X56174273Y-84049537D01*
X56163696Y-84062617D01*
X56153813Y-84076202D01*
X56151292Y-84079944D01*
X56148890Y-84083665D01*
X56146604Y-84087364D01*
X56144437Y-84091042D01*
X56142388Y-84094698D01*
X56140456Y-84098333D01*
X56138642Y-84101946D01*
X56136946Y-84105537D01*
X56135368Y-84109107D01*
X56133908Y-84112655D01*
X56132565Y-84116181D01*
X56131341Y-84119685D01*
X56130234Y-84123168D01*
X56129245Y-84126628D01*
X56128373Y-84130067D01*
X56127620Y-84133483D01*
X56123989Y-84154303D01*
X56121558Y-84174473D01*
X56120294Y-84193998D01*
X56120165Y-84212883D01*
X56121138Y-84231132D01*
X56123180Y-84248749D01*
X56126259Y-84265740D01*
X56130342Y-84282109D01*
X56135397Y-84297861D01*
X56141390Y-84312999D01*
X56148289Y-84327530D01*
X56156062Y-84341457D01*
X56164676Y-84354785D01*
X56174099Y-84367518D01*
X56184297Y-84379662D01*
X56195238Y-84391221D01*
X56206889Y-84402199D01*
X56219218Y-84412601D01*
X56232193Y-84422431D01*
X56245780Y-84431695D01*
X56259946Y-84440397D01*
X56274660Y-84448541D01*
X56305600Y-84463175D01*
X56338337Y-84475634D01*
X56372611Y-84485954D01*
X56408160Y-84494174D01*
X56444724Y-84500328D01*
X56498822Y-84506524D01*
X56553765Y-84510297D01*
X56609550Y-84511649D01*
X56666179Y-84510578D01*
X56723652Y-84507085D01*
X56781968Y-84501169D01*
X56841127Y-84492832D01*
X56901130Y-84482072D01*
X56967120Y-84467849D01*
X57032433Y-84451475D01*
X57097070Y-84433030D01*
X57161031Y-84412592D01*
X57224315Y-84390240D01*
X57286922Y-84366054D01*
X57348852Y-84340111D01*
X57410105Y-84312491D01*
X57470681Y-84283272D01*
X57530578Y-84252535D01*
X57589798Y-84220356D01*
X57648340Y-84186816D01*
X57706203Y-84151993D01*
X57763388Y-84115966D01*
X57819894Y-84078813D01*
X57875722Y-84040615D01*
X57876193Y-84040298D01*
X57876649Y-84040010D01*
X57877091Y-84039750D01*
X57877518Y-84039518D01*
X57877929Y-84039315D01*
X57878326Y-84039140D01*
X57878708Y-84038994D01*
X57879075Y-84038876D01*
X57879427Y-84038787D01*
X57879764Y-84038726D01*
X57880086Y-84038693D01*
X57880394Y-84038689D01*
X57880686Y-84038714D01*
X57880964Y-84038767D01*
X57881226Y-84038848D01*
X57881473Y-84038958D01*
X57881706Y-84039096D01*
X57881924Y-84039263D01*
X57882126Y-84039458D01*
X57882314Y-84039682D01*
X57882486Y-84039934D01*
X57882644Y-84040214D01*
X57882787Y-84040523D01*
X57882915Y-84040860D01*
X57883027Y-84041226D01*
X57883125Y-84041621D01*
X57883208Y-84042043D01*
X57883275Y-84042494D01*
X57883328Y-84042974D01*
X57883365Y-84043482D01*
X57883388Y-84044018D01*
X57883395Y-84044583D01*
X57883395Y-85110325D01*
X57883362Y-85111463D01*
X57883321Y-85112017D01*
X57883263Y-85112561D01*
X57883188Y-85113094D01*
X57883097Y-85113618D01*
X57882989Y-85114131D01*
X57882865Y-85114634D01*
X57882724Y-85115127D01*
X57882567Y-85115610D01*
X57882393Y-85116083D01*
X57882202Y-85116546D01*
X57881995Y-85116998D01*
X57881772Y-85117441D01*
X57881532Y-85117873D01*
X57881275Y-85118296D01*
X57881002Y-85118708D01*
X57880712Y-85119110D01*
X57880406Y-85119503D01*
X57880084Y-85119885D01*
X57879745Y-85120257D01*
X57879389Y-85120619D01*
X57879017Y-85120971D01*
X57878629Y-85121312D01*
X57878224Y-85121644D01*
X57877802Y-85121966D01*
X57877364Y-85122278D01*
X57876910Y-85122580D01*
X57876439Y-85122871D01*
X57875952Y-85123153D01*
X57874928Y-85123686D01*
X57788773Y-85163238D01*
X57702322Y-85199875D01*
X57615577Y-85233596D01*
X57528535Y-85264401D01*
X57441199Y-85292291D01*
X57353567Y-85317265D01*
X57265640Y-85339324D01*
X57177417Y-85358468D01*
X57088899Y-85374696D01*
X57000085Y-85388008D01*
X56910976Y-85398405D01*
X56821571Y-85405887D01*
X56731871Y-85410453D01*
X56641874Y-85412104D01*
X56551582Y-85410839D01*
X56460995Y-85406658D01*
X56354299Y-85397590D01*
X56248685Y-85383611D01*
X56144618Y-85364540D01*
X56042562Y-85340198D01*
X55942984Y-85310406D01*
X55894268Y-85293409D01*
X55846346Y-85274983D01*
X55799276Y-85255103D01*
X55753115Y-85233749D01*
X55707922Y-85210897D01*
X55663756Y-85186525D01*
X55620673Y-85160611D01*
X55578732Y-85133131D01*
X55537992Y-85104064D01*
X55498510Y-85073387D01*
X55460344Y-85041077D01*
X55423553Y-85007113D01*
X55388195Y-84971471D01*
X55354327Y-84934129D01*
X55322009Y-84895065D01*
X55291298Y-84854256D01*
X55262251Y-84811680D01*
X55234928Y-84767314D01*
X55209387Y-84721135D01*
X55185685Y-84673122D01*
X55163880Y-84623252D01*
X55144032Y-84571501D01*
X55143856Y-84571028D01*
X55143675Y-84570582D01*
X55143490Y-84570163D01*
X55143300Y-84569773D01*
X55143105Y-84569409D01*
X55142906Y-84569074D01*
X55142702Y-84568766D01*
X55142493Y-84568485D01*
X55142280Y-84568233D01*
X55142062Y-84568007D01*
X55141840Y-84567810D01*
X55141613Y-84567640D01*
X55141381Y-84567498D01*
X55141145Y-84567383D01*
X55140904Y-84567296D01*
X55140658Y-84567237D01*
X55140407Y-84567205D01*
X55140152Y-84567201D01*
X55139893Y-84567224D01*
X55139628Y-84567275D01*
X55139359Y-84567354D01*
X55139086Y-84567461D01*
X55138808Y-84567595D01*
X55138525Y-84567757D01*
X55138237Y-84567946D01*
X55137945Y-84568163D01*
X55137648Y-84568408D01*
X55137347Y-84568680D01*
X55137040Y-84568980D01*
X55136730Y-84569308D01*
X55136414Y-84569663D01*
X55136094Y-84570046D01*
X55098242Y-84616439D01*
X55066442Y-84654810D01*
X55052812Y-84670989D01*
X55040695Y-84685163D01*
X55030091Y-84697332D01*
X55021000Y-84707497D01*
X54953367Y-84777955D01*
X54882768Y-84844272D01*
X54809342Y-84906449D01*
X54733227Y-84964488D01*
X54654560Y-85018390D01*
X54573481Y-85068157D01*
X54490127Y-85113789D01*
X54404637Y-85155288D01*
X54317148Y-85192656D01*
X54227799Y-85225893D01*
X54136728Y-85255002D01*
X54044074Y-85279983D01*
X53949973Y-85300838D01*
X53854566Y-85317569D01*
X53757989Y-85330176D01*
X53660381Y-85338661D01*
X53567986Y-85343071D01*
X53476409Y-85344128D01*
X53385652Y-85341831D01*
X53295714Y-85336182D01*
X53206594Y-85327179D01*
X53118295Y-85314824D01*
X53030814Y-85299116D01*
X52944154Y-85280056D01*
X52868874Y-85260293D01*
X52794918Y-85237545D01*
X52722328Y-85211853D01*
X52651148Y-85183257D01*
X52581421Y-85151799D01*
X52513189Y-85117519D01*
X52446496Y-85080458D01*
X52381385Y-85040657D01*
X52317898Y-84998157D01*
X52256079Y-84952999D01*
X52195971Y-84905224D01*
X52137617Y-84854872D01*
X52081059Y-84801985D01*
X52026341Y-84746603D01*
X51973506Y-84688767D01*
X51922597Y-84628519D01*
X51922269Y-84628107D01*
X51921964Y-84627697D01*
X51921682Y-84627289D01*
X51921423Y-84626883D01*
X51921187Y-84626479D01*
X51920974Y-84626077D01*
X51920784Y-84625677D01*
X51920617Y-84625280D01*
X51920474Y-84624884D01*
X51920353Y-84624490D01*
X51920256Y-84624098D01*
X51920181Y-84623709D01*
X51920130Y-84623321D01*
X51920101Y-84622936D01*
X51920096Y-84622552D01*
X51920114Y-84622171D01*
X51920154Y-84621791D01*
X51920218Y-84621414D01*
X51920305Y-84621039D01*
X51920414Y-84620665D01*
X51920547Y-84620294D01*
X51920703Y-84619925D01*
X51920881Y-84619558D01*
X51921083Y-84619193D01*
X51921308Y-84618830D01*
X51921555Y-84618469D01*
X51921826Y-84618111D01*
X51922119Y-84617754D01*
X51922436Y-84617399D01*
X51922775Y-84617047D01*
X51923138Y-84616696D01*
X51923523Y-84616348D01*
X52540664Y-84069984D01*
X52541052Y-84069647D01*
X52541440Y-84069333D01*
X52541828Y-84069041D01*
X52542217Y-84068770D01*
X52542605Y-84068522D01*
X52542993Y-84068295D01*
X52543381Y-84068090D01*
X52543770Y-84067908D01*
X52544158Y-84067747D01*
X52544546Y-84067608D01*
X52544934Y-84067491D01*
X52545323Y-84067397D01*
X52545711Y-84067324D01*
X52546100Y-84067273D01*
X52546488Y-84067244D01*
X52546877Y-84067237D01*
X52547265Y-84067252D01*
X52547654Y-84067289D01*
X52548042Y-84067348D01*
X52548431Y-84067429D01*
X52548820Y-84067532D01*
X52549208Y-84067657D01*
X52549597Y-84067804D01*
X52549986Y-84067973D01*
X52550375Y-84068164D01*
X52550764Y-84068376D01*
X52551153Y-84068611D01*
X52551542Y-84068868D01*
X52551931Y-84069147D01*
X52552321Y-84069448D01*
X52552710Y-84069771D01*
X52553099Y-84070116D01*
X52591204Y-84104411D01*
X52629842Y-84137684D01*
X52669059Y-84169839D01*
X52708898Y-84200785D01*
X52749403Y-84230428D01*
X52790620Y-84258674D01*
X52832591Y-84285431D01*
X52875362Y-84310606D01*
X52918976Y-84334104D01*
X52963477Y-84355833D01*
X53008911Y-84375701D01*
X53055320Y-84393612D01*
X53102749Y-84409475D01*
X53151243Y-84423196D01*
X53200845Y-84434682D01*
X53251599Y-84443840D01*
X53282966Y-84448394D01*
X53314064Y-84452300D01*
X53344891Y-84455555D01*
X53375449Y-84458162D01*
X53405737Y-84460120D01*
X53435756Y-84461428D01*
X53465504Y-84462088D01*
X53494983Y-84462098D01*
X53524192Y-84461459D01*
X53553131Y-84460171D01*
X53581801Y-84458234D01*
X53610201Y-84455648D01*
X53638331Y-84452412D01*
X53666191Y-84448528D01*
X53693781Y-84443995D01*
X53721102Y-84438813D01*
X53756692Y-84430932D01*
X53791404Y-84421934D01*
X53825238Y-84411838D01*
X53858193Y-84400659D01*
X53890269Y-84388415D01*
X53921465Y-84375123D01*
X53951781Y-84360800D01*
X53981217Y-84345462D01*
X54009771Y-84329128D01*
X54037445Y-84311814D01*
X54090145Y-84274314D01*
X54139315Y-84233098D01*
X54184950Y-84188302D01*
X54227048Y-84140063D01*
X54265604Y-84088518D01*
X54300616Y-84033801D01*
X54332079Y-83976050D01*
X54359991Y-83915401D01*
X54384347Y-83851990D01*
X54405145Y-83785953D01*
X54422380Y-83717427D01*
X54422471Y-83716987D01*
X54422544Y-83716561D01*
X54422600Y-83716150D01*
X54422638Y-83715752D01*
X54422659Y-83715368D01*
X54422663Y-83714999D01*
X54422650Y-83714643D01*
X54422619Y-83714301D01*
X54422570Y-83713973D01*
X54422505Y-83713659D01*
X54422422Y-83713359D01*
X54422322Y-83713073D01*
X54422205Y-83712801D01*
X54422070Y-83712543D01*
X54421918Y-83712299D01*
X54421749Y-83712068D01*
X54421562Y-83711852D01*
X54421358Y-83711650D01*
X54421137Y-83711462D01*
X54420899Y-83711287D01*
X54420643Y-83711127D01*
X54420370Y-83710980D01*
X54420080Y-83710848D01*
X54419772Y-83710729D01*
X54419447Y-83710624D01*
X54419105Y-83710534D01*
X54418746Y-83710457D01*
X54418370Y-83710394D01*
X54417976Y-83710345D01*
X54417565Y-83710310D01*
X54417137Y-83710289D01*
X54416692Y-83710282D01*
X51997474Y-83710282D01*
X51997090Y-83710288D01*
X51996716Y-83710306D01*
X51996352Y-83710336D01*
X51995998Y-83710377D01*
X51995654Y-83710431D01*
X51995320Y-83710496D01*
X51994997Y-83710573D01*
X51994683Y-83710662D01*
X51994380Y-83710763D01*
X51994087Y-83710876D01*
X51993804Y-83711001D01*
X51993531Y-83711137D01*
X51993269Y-83711286D01*
X51993016Y-83711446D01*
X51992774Y-83711618D01*
X51992541Y-83711802D01*
X51992319Y-83711998D01*
X51992107Y-83712206D01*
X51991905Y-83712426D01*
X51991713Y-83712658D01*
X51991531Y-83712901D01*
X51991360Y-83713157D01*
X51991198Y-83713424D01*
X51991047Y-83713704D01*
X51990905Y-83713995D01*
X51990774Y-83714298D01*
X51990653Y-83714613D01*
X51990542Y-83714941D01*
X51990441Y-83715279D01*
X51990350Y-83715630D01*
X51990269Y-83715993D01*
X51990198Y-83716368D01*
X51977583Y-83780792D01*
X51963155Y-83844221D01*
X51946912Y-83906654D01*
X51928856Y-83968093D01*
X51908986Y-84028536D01*
X51887302Y-84087985D01*
X51863804Y-84146438D01*
X51838493Y-84203896D01*
X51811367Y-84260358D01*
X51782428Y-84315826D01*
X51751675Y-84370298D01*
X51719108Y-84423774D01*
X51684727Y-84476255D01*
X51648532Y-84527741D01*
X51610524Y-84578231D01*
X51570701Y-84627725D01*
X51508365Y-84699440D01*
X51443727Y-84767406D01*
X51376787Y-84831625D01*
X51307546Y-84892096D01*
X51236003Y-84948820D01*
X51162159Y-85001796D01*
X51086013Y-85051024D01*
X51007565Y-85096504D01*
X50926816Y-85138237D01*
X50843766Y-85176222D01*
X50758414Y-85210459D01*
X50670760Y-85240949D01*
X50580805Y-85267691D01*
X50488548Y-85290686D01*
X50393989Y-85309932D01*
X50297129Y-85325431D01*
X50226272Y-85333935D01*
X50153997Y-85339999D01*
X50080303Y-85343625D01*
X50005192Y-85344811D01*
X49928662Y-85343558D01*
X49850716Y-85339866D01*
X49771352Y-85333736D01*
X49690572Y-85325167D01*
X49624219Y-85316134D01*
X49558905Y-85305106D01*
X49494630Y-85292085D01*
X49431396Y-85277071D01*
X49369201Y-85260062D01*
X49308046Y-85241060D01*
X49247930Y-85220065D01*
X49188855Y-85197075D01*
X49130819Y-85172093D01*
X49073822Y-85145116D01*
X49017866Y-85116146D01*
X48962950Y-85085182D01*
X48909073Y-85052224D01*
X48856236Y-85017272D01*
X48804440Y-84980327D01*
X48753683Y-84941389D01*
X48713444Y-84908677D01*
X48673561Y-84874838D01*
X48634034Y-84839869D01*
X48594863Y-84803772D01*
X48556048Y-84766547D01*
X48517589Y-84728192D01*
X48479486Y-84688710D01*
X48441739Y-84648098D01*
X48441082Y-84647363D01*
X48440469Y-84646629D01*
X48439898Y-84645895D01*
X48439371Y-84645162D01*
X48438887Y-84644430D01*
X48438446Y-84643698D01*
X48438048Y-84642967D01*
X48437693Y-84642237D01*
X48437382Y-84641508D01*
X48437114Y-84640779D01*
X48436889Y-84640051D01*
X48436707Y-84639324D01*
X48436568Y-84638598D01*
X48436473Y-84637872D01*
X48436420Y-84637148D01*
X48436411Y-84636423D01*
X48436445Y-84635700D01*
X48436522Y-84634978D01*
X48436642Y-84634256D01*
X48436806Y-84633535D01*
X48437013Y-84632815D01*
X48437263Y-84632096D01*
X48437556Y-84631377D01*
X48437892Y-84630659D01*
X48438271Y-84629942D01*
X48438694Y-84629226D01*
X48439160Y-84628511D01*
X48439668Y-84627797D01*
X48440221Y-84627083D01*
X48440816Y-84626370D01*
X48441454Y-84625658D01*
X48442136Y-84624947D01*
X49069463Y-83991402D01*
X49069833Y-83991046D01*
X49070217Y-83990713D01*
X49070614Y-83990403D01*
X49071022Y-83990114D01*
X49071441Y-83989849D01*
X49071870Y-83989606D01*
X49072308Y-83989386D01*
X49072754Y-83989188D01*
X49073207Y-83989013D01*
X49073667Y-83988861D01*
X49074132Y-83988732D01*
X49074602Y-83988625D01*
X49075076Y-83988540D01*
X49075552Y-83988479D01*
X49076031Y-83988440D01*
X49076511Y-83988424D01*
X49076991Y-83988431D01*
X49077470Y-83988460D01*
X49077948Y-83988513D01*
X49078423Y-83988588D01*
X49078895Y-83988686D01*
X49079363Y-83988806D01*
X49079826Y-83988950D01*
X49080283Y-83989116D01*
X49080733Y-83989305D01*
X49081175Y-83989517D01*
X49081609Y-83989752D01*
X49082033Y-83990010D01*
X49082447Y-83990290D01*
X49082850Y-83990594D01*
X49083241Y-83990921D01*
X49083618Y-83991270D01*
X49107230Y-84014039D01*
X49131631Y-84036705D01*
X49156821Y-84059267D01*
X49182801Y-84081726D01*
X49209570Y-84104082D01*
X49237131Y-84126333D01*
X49265482Y-84148481D01*
X49294623Y-84170525D01*
X49337063Y-84200857D01*
X49380017Y-84229012D01*
X49423485Y-84254990D01*
X49467467Y-84278791D01*
X49511963Y-84300415D01*
X49556973Y-84319863D01*
X49602496Y-84337134D01*
X49648533Y-84352228D01*
X49695084Y-84365146D01*
X49742149Y-84375887D01*
X49789728Y-84384451D01*
X49837820Y-84390839D01*
X49886426Y-84395051D01*
X49935545Y-84397086D01*
X49985178Y-84396945D01*
X50035325Y-84394628D01*
X50085754Y-84389924D01*
X50135532Y-84382725D01*
X50184574Y-84373057D01*
X50232793Y-84360947D01*
X50280102Y-84346420D01*
X50326416Y-84329501D01*
X50371648Y-84310218D01*
X50415713Y-84288596D01*
X50458523Y-84264661D01*
X50499992Y-84238438D01*
X50540036Y-84209955D01*
X50578566Y-84179236D01*
X50615497Y-84146308D01*
X50650743Y-84111197D01*
X50684217Y-84073929D01*
X50715833Y-84034530D01*
X50747161Y-83990922D01*
X50775982Y-83946118D01*
X50802331Y-83900185D01*
X50826245Y-83853193D01*
X50847757Y-83805209D01*
X50866905Y-83756302D01*
X50883723Y-83706541D01*
X50898246Y-83655993D01*
X50910511Y-83604728D01*
X50920553Y-83552813D01*
X50928406Y-83500318D01*
X50934108Y-83447309D01*
X50937692Y-83393857D01*
X50939195Y-83340029D01*
X50938652Y-83285894D01*
X50936099Y-83231519D01*
X50931931Y-83183124D01*
X50925799Y-83135197D01*
X50917734Y-83087808D01*
X50907769Y-83041029D01*
X50902425Y-83020213D01*
X52794646Y-83020213D01*
X52794647Y-83020326D01*
X52794653Y-83020439D01*
X52794666Y-83020550D01*
X52794684Y-83020661D01*
X52794708Y-83020770D01*
X52794738Y-83020878D01*
X52794774Y-83020983D01*
X52794815Y-83021087D01*
X52794862Y-83021188D01*
X52794915Y-83021287D01*
X52794973Y-83021383D01*
X52795037Y-83021476D01*
X52795105Y-83021566D01*
X52795180Y-83021652D01*
X52795256Y-83021736D01*
X52795337Y-83021815D01*
X52795422Y-83021889D01*
X52795510Y-83021959D01*
X52795602Y-83022022D01*
X52795697Y-83022081D01*
X52795795Y-83022134D01*
X52795896Y-83022182D01*
X52795999Y-83022225D01*
X52796105Y-83022262D01*
X52796214Y-83022293D01*
X52796324Y-83022319D01*
X52796436Y-83022340D01*
X52796549Y-83022354D01*
X52796664Y-83022363D01*
X52796780Y-83022366D01*
X54433360Y-83022366D01*
X54433660Y-83022361D01*
X54433949Y-83022347D01*
X54434226Y-83022323D01*
X54434493Y-83022290D01*
X54434748Y-83022247D01*
X54434993Y-83022194D01*
X54435226Y-83022132D01*
X54435449Y-83022061D01*
X54435660Y-83021979D01*
X54435860Y-83021889D01*
X54436050Y-83021789D01*
X54436228Y-83021679D01*
X54436395Y-83021559D01*
X54436551Y-83021430D01*
X54436696Y-83021292D01*
X54436830Y-83021144D01*
X54436953Y-83020986D01*
X54437065Y-83020819D01*
X54437165Y-83020642D01*
X54437255Y-83020456D01*
X54437333Y-83020260D01*
X54437401Y-83020054D01*
X54437457Y-83019839D01*
X54437502Y-83019615D01*
X54437536Y-83019380D01*
X54437558Y-83019136D01*
X54437570Y-83018883D01*
X54437571Y-83018620D01*
X54437560Y-83018347D01*
X54437538Y-83018065D01*
X54437505Y-83017773D01*
X54437461Y-83017471D01*
X54430250Y-82975995D01*
X54421653Y-82934623D01*
X54411655Y-82893444D01*
X54400242Y-82852545D01*
X54387398Y-82812015D01*
X54373107Y-82771942D01*
X54357356Y-82732415D01*
X54340128Y-82693522D01*
X54321409Y-82655351D01*
X54301183Y-82617992D01*
X54279436Y-82581531D01*
X54256152Y-82546058D01*
X54231316Y-82511661D01*
X54204913Y-82478428D01*
X54176928Y-82446448D01*
X54147346Y-82415809D01*
X54108753Y-82380517D01*
X54067964Y-82348412D01*
X54025173Y-82319496D01*
X53980576Y-82293772D01*
X53934366Y-82271242D01*
X53886739Y-82251909D01*
X53837888Y-82235776D01*
X53788009Y-82222845D01*
X53737296Y-82213118D01*
X53685943Y-82206598D01*
X53634145Y-82203287D01*
X53582097Y-82203189D01*
X53529993Y-82206305D01*
X53478028Y-82212638D01*
X53426396Y-82222191D01*
X53375292Y-82234966D01*
X53342439Y-82245098D01*
X53310599Y-82256588D01*
X53279766Y-82269394D01*
X53249934Y-82283472D01*
X53221097Y-82298781D01*
X53193247Y-82315275D01*
X53166378Y-82332914D01*
X53140485Y-82351653D01*
X53115559Y-82371451D01*
X53091596Y-82392263D01*
X53046528Y-82436761D01*
X53005231Y-82484803D01*
X52967652Y-82536045D01*
X52933739Y-82590145D01*
X52903441Y-82646759D01*
X52876706Y-82705542D01*
X52853482Y-82766152D01*
X52833717Y-82828245D01*
X52817361Y-82891477D01*
X52804360Y-82955505D01*
X52794664Y-83019985D01*
X52794652Y-83020099D01*
X52794646Y-83020213D01*
X50902425Y-83020213D01*
X50895935Y-82994932D01*
X50882264Y-82949587D01*
X50866787Y-82905065D01*
X50849536Y-82861439D01*
X50830544Y-82818780D01*
X50809841Y-82777158D01*
X50787460Y-82736645D01*
X50763432Y-82697312D01*
X50737790Y-82659231D01*
X50710564Y-82622473D01*
X50681786Y-82587109D01*
X50651489Y-82553210D01*
X50619705Y-82520848D01*
X50586464Y-82490094D01*
X50551798Y-82461020D01*
X50515740Y-82433696D01*
X50478322Y-82408194D01*
X50439574Y-82384585D01*
X50399528Y-82362940D01*
X50358217Y-82343332D01*
X50315673Y-82325830D01*
X50271926Y-82310507D01*
X50227009Y-82297433D01*
X50180953Y-82286680D01*
X50133790Y-82278319D01*
X50085553Y-82272422D01*
X50036272Y-82269060D01*
X49985980Y-82268304D01*
X49938910Y-82269784D01*
X49892525Y-82273134D01*
X49846825Y-82278354D01*
X49801809Y-82285444D01*
X49757478Y-82294403D01*
X49713831Y-82305231D01*
X49670869Y-82317930D01*
X49628590Y-82332498D01*
X49586996Y-82348936D01*
X49546087Y-82367243D01*
X49505861Y-82387420D01*
X49466320Y-82409467D01*
X49427463Y-82433383D01*
X49389290Y-82459169D01*
X49351801Y-82486825D01*
X49314996Y-82516350D01*
X49290600Y-82537059D01*
X49266565Y-82558040D01*
X49242890Y-82579293D01*
X49219576Y-82600819D01*
X49196622Y-82622617D01*
X49174028Y-82644689D01*
X49151794Y-82667034D01*
X49129920Y-82689653D01*
X49129689Y-82689882D01*
X49129448Y-82690097D01*
X49129197Y-82690300D01*
X49128937Y-82690488D01*
X49128668Y-82690663D01*
X49128392Y-82690823D01*
X49128108Y-82690969D01*
X49127817Y-82691099D01*
X49127520Y-82691215D01*
X49127217Y-82691316D01*
X49126910Y-82691401D01*
X49126598Y-82691470D01*
X49126282Y-82691523D01*
X49125962Y-82691560D01*
X49125641Y-82691580D01*
X49125316Y-82691584D01*
X49124993Y-82691570D01*
X49124672Y-82691540D01*
X49124354Y-82691493D01*
X49124040Y-82691431D01*
X49123731Y-82691352D01*
X49123427Y-82691258D01*
X49123128Y-82691148D01*
X49122836Y-82691023D01*
X49122551Y-82690884D01*
X49122273Y-82690730D01*
X49122002Y-82690562D01*
X49121741Y-82690380D01*
X49121489Y-82690185D01*
X49121246Y-82689976D01*
X49121014Y-82689755D01*
X49120792Y-82689520D01*
X48458276Y-81976865D01*
X48457963Y-81976526D01*
X48457670Y-81976187D01*
X48457397Y-81975848D01*
X48457145Y-81975508D01*
X48456911Y-81975168D01*
X48456698Y-81974828D01*
X48456505Y-81974487D01*
X48456331Y-81974146D01*
X48456178Y-81973805D01*
X48456044Y-81973464D01*
X48455930Y-81973122D01*
X48455836Y-81972780D01*
X48455762Y-81972438D01*
X48455708Y-81972095D01*
X48455674Y-81971753D01*
X48455659Y-81971410D01*
X48455665Y-81971066D01*
X48455691Y-81970723D01*
X48455736Y-81970379D01*
X48455801Y-81970034D01*
X48455887Y-81969690D01*
X48455992Y-81969345D01*
X48456117Y-81969000D01*
X48456263Y-81968655D01*
X48456428Y-81968310D01*
X48456613Y-81967964D01*
X48456818Y-81967618D01*
X48457043Y-81967272D01*
X48457288Y-81966925D01*
X48457553Y-81966579D01*
X48457838Y-81966232D01*
X48458143Y-81965885D01*
X48496621Y-81924015D01*
X48535658Y-81883605D01*
X48575252Y-81844655D01*
X48615405Y-81807164D01*
X48656116Y-81771134D01*
X48697384Y-81736563D01*
X48739211Y-81703452D01*
X48781596Y-81671800D01*
X48782255Y-81671294D01*
X48782876Y-81670767D01*
X48783460Y-81670219D01*
X48784008Y-81669650D01*
X48784517Y-81669061D01*
X48784990Y-81668451D01*
X48785426Y-81667820D01*
X48785825Y-81667168D01*
X48786186Y-81666497D01*
X48786511Y-81665804D01*
X48786798Y-81665091D01*
X48787049Y-81664357D01*
X48787263Y-81663603D01*
X48787439Y-81662828D01*
X48787579Y-81662033D01*
X48787682Y-81661217D01*
X48788203Y-81655446D01*
X48788575Y-81649641D01*
X48788798Y-81643803D01*
X48788872Y-81637932D01*
X48788798Y-81632028D01*
X48788575Y-81626092D01*
X48788203Y-81620123D01*
X48787682Y-81614121D01*
X48779973Y-81530994D01*
X48773257Y-81450543D01*
X48767536Y-81372770D01*
X48765364Y-81338248D01*
X49361677Y-81338248D01*
X49361695Y-81380891D01*
X49361736Y-81381953D01*
X49361809Y-81382972D01*
X49361914Y-81383949D01*
X49362051Y-81384883D01*
X49362219Y-81385776D01*
X49362420Y-81386626D01*
X49362653Y-81387433D01*
X49362918Y-81388198D01*
X49363215Y-81388921D01*
X49363544Y-81389602D01*
X49363905Y-81390240D01*
X49364299Y-81390836D01*
X49364724Y-81391389D01*
X49365181Y-81391900D01*
X49365670Y-81392369D01*
X49366192Y-81392796D01*
X49366745Y-81393180D01*
X49367330Y-81393521D01*
X49367948Y-81393821D01*
X49368597Y-81394078D01*
X49369279Y-81394292D01*
X49369993Y-81394464D01*
X49370738Y-81394594D01*
X49371516Y-81394682D01*
X49372326Y-81394727D01*
X49373168Y-81394730D01*
X49374042Y-81394690D01*
X49374948Y-81394608D01*
X49375886Y-81394483D01*
X49376856Y-81394316D01*
X49377859Y-81394107D01*
X49378893Y-81393856D01*
X49460497Y-81374664D01*
X49543651Y-81358432D01*
X49628356Y-81345161D01*
X49714611Y-81334850D01*
X49802418Y-81327500D01*
X49891775Y-81323110D01*
X49982684Y-81321681D01*
X50075144Y-81323212D01*
X50161012Y-81327576D01*
X50245776Y-81335182D01*
X50329436Y-81346030D01*
X50411992Y-81360120D01*
X50493444Y-81377450D01*
X50533757Y-81387331D01*
X50573793Y-81398022D01*
X50613553Y-81409523D01*
X50653038Y-81421835D01*
X50692246Y-81434957D01*
X50731179Y-81448889D01*
X50731619Y-81449044D01*
X50732046Y-81449179D01*
X50732461Y-81449294D01*
X50732863Y-81449390D01*
X50733252Y-81449466D01*
X50733629Y-81449521D01*
X50733993Y-81449557D01*
X50734344Y-81449573D01*
X50734683Y-81449570D01*
X50735009Y-81449546D01*
X50735322Y-81449502D01*
X50735623Y-81449439D01*
X50735911Y-81449356D01*
X50736186Y-81449252D01*
X50736449Y-81449129D01*
X50736699Y-81448987D01*
X50736936Y-81448824D01*
X50737161Y-81448641D01*
X50737373Y-81448439D01*
X50737572Y-81448216D01*
X50737759Y-81447974D01*
X50737934Y-81447711D01*
X50738095Y-81447429D01*
X50738244Y-81447127D01*
X50738381Y-81446805D01*
X50738505Y-81446463D01*
X50738616Y-81446102D01*
X50738715Y-81445720D01*
X50738801Y-81445318D01*
X50738875Y-81444897D01*
X50738936Y-81444456D01*
X50738984Y-81443994D01*
X50741218Y-81410091D01*
X50742122Y-81376614D01*
X50741709Y-81343591D01*
X50739991Y-81311051D01*
X50736979Y-81279024D01*
X50732686Y-81247539D01*
X50727123Y-81216623D01*
X50720302Y-81186307D01*
X50712235Y-81156618D01*
X50702934Y-81127586D01*
X50692410Y-81099239D01*
X50680676Y-81071608D01*
X50667743Y-81044719D01*
X50653624Y-81018603D01*
X50638330Y-80993288D01*
X50621873Y-80968802D01*
X50604265Y-80945176D01*
X50585517Y-80922438D01*
X50565642Y-80900616D01*
X50544652Y-80879739D01*
X50522558Y-80859837D01*
X50499373Y-80840938D01*
X50475107Y-80823071D01*
X50449774Y-80806266D01*
X50423384Y-80790550D01*
X50395950Y-80775953D01*
X50367484Y-80762503D01*
X50337997Y-80750230D01*
X50307501Y-80739162D01*
X50276009Y-80729329D01*
X50243532Y-80720758D01*
X50210082Y-80713480D01*
X50171124Y-80706881D01*
X50131773Y-80702218D01*
X50092149Y-80699494D01*
X50052374Y-80698715D01*
X50012567Y-80699883D01*
X49972850Y-80703004D01*
X49933344Y-80708080D01*
X49894169Y-80715117D01*
X49855448Y-80724118D01*
X49817300Y-80735087D01*
X49779846Y-80748028D01*
X49743208Y-80762946D01*
X49707506Y-80779845D01*
X49672862Y-80798728D01*
X49639396Y-80819600D01*
X49607229Y-80842464D01*
X49576518Y-80867124D01*
X49547856Y-80892983D01*
X49521243Y-80920041D01*
X49496679Y-80948298D01*
X49474163Y-80977754D01*
X49453696Y-81008408D01*
X49435278Y-81040262D01*
X49418908Y-81073315D01*
X49404587Y-81107566D01*
X49392314Y-81143016D01*
X49382090Y-81179665D01*
X49373914Y-81217513D01*
X49367787Y-81256559D01*
X49363708Y-81296804D01*
X49361677Y-81338248D01*
X48765364Y-81338248D01*
X48762811Y-81297680D01*
X48761841Y-81275378D01*
X48761447Y-81252987D01*
X48761629Y-81230507D01*
X48762387Y-81207939D01*
X48763720Y-81185281D01*
X48765629Y-81162534D01*
X48768114Y-81139699D01*
X48771175Y-81116774D01*
X48774812Y-81093760D01*
X48779024Y-81070658D01*
X48783812Y-81047466D01*
X48789176Y-81024186D01*
X48795115Y-81000816D01*
X48801631Y-80977357D01*
X48808722Y-80953810D01*
X48816389Y-80930173D01*
X48835263Y-80877639D01*
X48856136Y-80826595D01*
X48879008Y-80777043D01*
X48903880Y-80728983D01*
X48930750Y-80682413D01*
X48959620Y-80637335D01*
X48990488Y-80593749D01*
X49023356Y-80551654D01*
X49058223Y-80511050D01*
X49095088Y-80471938D01*
X49133952Y-80434317D01*
X49174815Y-80398187D01*
X49217677Y-80363549D01*
X49262538Y-80330402D01*
X49309398Y-80298747D01*
X49358256Y-80268583D01*
X49405727Y-80241817D01*
X49453881Y-80217147D01*
X49502721Y-80194573D01*
X49552244Y-80174095D01*
X49602451Y-80155712D01*
X49653342Y-80139426D01*
X49704918Y-80125235D01*
X49757178Y-80113140D01*
X49810122Y-80103141D01*
X49863751Y-80095239D01*
X49918064Y-80089432D01*
X49973061Y-80085721D01*
X50028743Y-80084107D01*
X50085109Y-80084589D01*
G37*
D14*
%TO.C,D1*%
X47901440Y-96681530D02*
X47901440Y-100566530D01*
X47901440Y-100566530D02*
X50171440Y-100566530D01*
X50171440Y-100566530D02*
X50171440Y-96681530D01*
D15*
%TO.C,J1*%
X48044353Y-71677629D02*
X48044353Y-76935429D01*
X48044353Y-76935429D02*
X48587913Y-76935429D01*
X48587913Y-71677629D02*
X48044353Y-71677629D01*
X50294793Y-76935429D02*
X51127913Y-76935429D01*
X51127913Y-71677629D02*
X50294793Y-71677629D01*
X52834793Y-76935429D02*
X53667913Y-76935429D01*
X53667913Y-71677629D02*
X52834793Y-71677629D01*
X55374793Y-76935429D02*
X55918353Y-76935429D01*
X55918353Y-71677629D02*
X55374793Y-71677629D01*
X55918353Y-76935429D02*
X55918353Y-71677629D01*
%TD*%
%LPC*%
D16*
X45036440Y-100776716D02*
X44626031Y-100779591D01*
X42536440Y-98276716D01*
X44603159Y-95778357D01*
X45036440Y-95776716D01*
X45036440Y-100776716D01*
G36*
X45036440Y-100776716D02*
G01*
X44626031Y-100779591D01*
X42536440Y-98276716D01*
X44603159Y-95778357D01*
X45036440Y-95776716D01*
X45036440Y-100776716D01*
G37*
D13*
G36*
X58490414Y-96672868D02*
G01*
X51514236Y-96675456D01*
X51513986Y-96868572D01*
X58442500Y-96872910D01*
X58442500Y-99672517D01*
X54036788Y-99673913D01*
X54035796Y-99872910D01*
X58488926Y-99873902D01*
X59254917Y-101022778D01*
X45330347Y-101022282D01*
X46096561Y-99873458D01*
X53056250Y-99872694D01*
X53056250Y-99672968D01*
X46142821Y-99672258D01*
X46142490Y-96872910D01*
X50551895Y-96872475D01*
X50551932Y-96671762D01*
X46096504Y-96672258D01*
X45330844Y-95524541D01*
X59255635Y-95522556D01*
X58490414Y-96672868D01*
G37*
D16*
X59969721Y-95783171D02*
X62036440Y-98281530D01*
X59946849Y-100784405D01*
X59536440Y-100781530D01*
X59536440Y-95781530D01*
X59969721Y-95783171D01*
G36*
X59969721Y-95783171D02*
G01*
X62036440Y-98281530D01*
X59946849Y-100784405D01*
X59536440Y-100781530D01*
X59536440Y-95781530D01*
X59969721Y-95783171D01*
G37*
X44718794Y-53309197D02*
X43718794Y-53309197D01*
X41218794Y-50809197D01*
X43718794Y-48309197D01*
X44718794Y-48309197D01*
X44718794Y-53309197D01*
G36*
X44718794Y-53309197D02*
G01*
X43718794Y-53309197D01*
X41218794Y-50809197D01*
X43718794Y-48309197D01*
X44718794Y-48309197D01*
X44718794Y-53309197D01*
G37*
X64021353Y-50801585D02*
X61521353Y-53301585D01*
X61021353Y-53301585D01*
X61021353Y-48301585D01*
X61521353Y-48301585D01*
X64021353Y-50801585D01*
G36*
X64021353Y-50801585D02*
G01*
X61521353Y-53301585D01*
X61021353Y-53301585D01*
X61021353Y-48301585D01*
X61521353Y-48301585D01*
X64021353Y-50801585D01*
G37*
D17*
%TO.C,KiKit_MB_9_3*%
X52770740Y-29762988D03*
%TD*%
D18*
%TO.C,R4*%
X62831353Y-65880644D03*
D19*
X59021353Y-59281530D03*
%TD*%
D17*
%TO.C,KiKit_MB_1_7*%
X30250000Y-26642857D03*
%TD*%
%TO.C,KiKit_MB_10_4*%
X51887730Y-90531434D03*
%TD*%
%TO.C,KiKit_MB_3_5*%
X30250000Y-107210101D03*
%TD*%
%TO.C,KiKit_MB_5_2*%
X22357142Y-29750000D03*
%TD*%
%TO.C,KiKit_MB_13_4*%
X52686440Y-95031530D03*
%TD*%
%TO.C,KiKit_MB_9_2*%
X51891830Y-29999741D03*
%TD*%
%TO.C,KiKit_MB_12_5*%
X74745127Y-50474584D03*
%TD*%
%TO.C,KiKit_MB_1_5*%
X30250000Y-24928571D03*
%TD*%
%TO.C,KiKit_MB_7_2*%
X77930023Y-29750000D03*
%TD*%
%TO.C,KiKit_MB_5_5*%
X24928571Y-29750000D03*
%TD*%
%TO.C,KiKit_MB_2_7*%
X74822881Y-26642857D03*
%TD*%
%TO.C,KiKit_MB_1_6*%
X30250000Y-25785714D03*
%TD*%
%TO.C,KiKit_MB_7_6*%
X81358595Y-29750000D03*
%TD*%
%TO.C,KiKit_MB_7_5*%
X80501452Y-29750000D03*
%TD*%
%TO.C,KiKit_MB_2_4*%
X74822881Y-24071428D03*
%TD*%
%TO.C,KiKit_MB_3_2*%
X30250000Y-104638672D03*
%TD*%
%TO.C,KiKit_MB_9_5*%
X54518455Y-30172909D03*
%TD*%
%TO.C,KiKit_MB_10_2*%
X53490530Y-90495416D03*
%TD*%
%TO.C,KiKit_MB_6_5*%
X24928571Y-101031530D03*
%TD*%
%TO.C,KiKit_MB_5_3*%
X23214285Y-29750000D03*
%TD*%
D20*
%TO.C,J4*%
X72021353Y-48781530D03*
D21*
X72021353Y-50781530D03*
%TD*%
D17*
%TO.C,KiKit_MB_11_4*%
X29821183Y-43371138D03*
%TD*%
%TO.C,KiKit_MB_4_5*%
X74822881Y-107210101D03*
%TD*%
%TO.C,KiKit_MB_7_7*%
X82215738Y-29750000D03*
%TD*%
%TO.C,KiKit_MB_14_5*%
X51086440Y-101531530D03*
%TD*%
%TO.C,KiKit_MB_8_6*%
X81358595Y-101031530D03*
%TD*%
%TO.C,KiKit_MB_13_5*%
X53486440Y-95031530D03*
%TD*%
%TO.C,KiKit_MB_6_2*%
X22357142Y-101031530D03*
%TD*%
%TO.C,KiKit_MB_11_2*%
X30014500Y-45143124D03*
%TD*%
%TO.C,KiKit_MB_5_6*%
X25785714Y-29750000D03*
%TD*%
%TO.C,KiKit_MB_9_4*%
X53678147Y-29823204D03*
%TD*%
%TO.C,KiKit_MB_6_6*%
X25785714Y-101031530D03*
%TD*%
%TO.C,KiKit_MB_13_3*%
X51886440Y-95031530D03*
%TD*%
%TO.C,KiKit_MB_1_4*%
X30250000Y-24071428D03*
%TD*%
%TO.C,KiKit_MB_7_4*%
X79644309Y-29750000D03*
%TD*%
%TO.C,KiKit_MB_6_3*%
X23214285Y-101031530D03*
%TD*%
%TO.C,KiKit_MB_3_6*%
X30250000Y-108067244D03*
%TD*%
%TO.C,KiKit_MB_14_3*%
X52686440Y-101531530D03*
%TD*%
%TO.C,KiKit_MB_8_2*%
X77930023Y-101031530D03*
%TD*%
%TO.C,KiKit_MB_5_4*%
X24071428Y-29750000D03*
%TD*%
%TO.C,KiKit_MB_8_4*%
X79644309Y-101031530D03*
%TD*%
%TO.C,KiKit_MB_2_6*%
X74822881Y-25785714D03*
%TD*%
D18*
%TO.C,R1*%
X42711351Y-65880645D03*
D22*
X46521353Y-59281530D03*
%TD*%
D17*
%TO.C,KiKit_MB_11_3*%
X29768113Y-44273694D03*
%TD*%
%TO.C,KiKit_MB_12_3*%
X74542306Y-48633998D03*
%TD*%
%TO.C,KiKit_MB_3_4*%
X30250000Y-106352958D03*
%TD*%
%TO.C,KiKit_MB_6_7*%
X26642857Y-101031530D03*
%TD*%
%TO.C,KiKit_MB_1_3*%
X30250000Y-23214285D03*
%TD*%
%TO.C,KiKit_MB_5_7*%
X26642857Y-29750000D03*
%TD*%
%TO.C,KiKit_MB_11_5*%
X30164289Y-42535364D03*
%TD*%
D20*
%TO.C,J3*%
X53146539Y-31847619D03*
D21*
X53146539Y-33847619D03*
%TD*%
D20*
%TO.C,J2*%
X32546353Y-43031530D03*
D21*
X32546353Y-45031530D03*
%TD*%
D17*
%TO.C,KiKit_MB_2_2*%
X74822881Y-22357142D03*
%TD*%
%TO.C,KiKit_MB_14_4*%
X51886440Y-101531530D03*
%TD*%
%TO.C,KiKit_MB_8_7*%
X82215738Y-101031530D03*
%TD*%
%TO.C,KiKit_MB_2_3*%
X74822881Y-23214285D03*
%TD*%
%TO.C,KiKit_MB_4_4*%
X74822881Y-106352958D03*
%TD*%
%TO.C,KiKit_MB_8_3*%
X78787166Y-101031530D03*
%TD*%
%TO.C,KiKit_MB_4_3*%
X74822881Y-105495815D03*
%TD*%
D18*
%TO.C,R3*%
X55021353Y-67281530D03*
D23*
X55021353Y-59661530D03*
%TD*%
D17*
%TO.C,KiKit_MB_6_4*%
X24071428Y-101031530D03*
%TD*%
%TO.C,KiKit_MB_13_2*%
X51086440Y-95031530D03*
%TD*%
%TO.C,KiKit_MB_4_6*%
X74822881Y-108067244D03*
%TD*%
%TO.C,KiKit_MB_10_3*%
X52689130Y-90513425D03*
%TD*%
%TO.C,KiKit_MB_3_3*%
X30250000Y-105495815D03*
%TD*%
%TO.C,KiKit_MB_14_2*%
X53486440Y-101531530D03*
%TD*%
%TO.C,KiKit_MB_12_4*%
X74804682Y-49536245D03*
%TD*%
%TO.C,KiKit_MB_10_5*%
X51086150Y-90525492D03*
%TD*%
%TO.C,KiKit_MB_3_7*%
X30250000Y-108924387D03*
%TD*%
%TO.C,KiKit_MB_1_2*%
X30250000Y-22357142D03*
%TD*%
D18*
%TO.C,R2*%
X50521354Y-67091530D03*
D23*
X50521354Y-59471529D03*
%TD*%
D17*
%TO.C,KiKit_MB_7_3*%
X78787166Y-29750000D03*
%TD*%
%TO.C,KiKit_MB_12_2*%
X73993872Y-47871604D03*
%TD*%
%TO.C,KiKit_MB_2_5*%
X74822881Y-24928571D03*
%TD*%
%TO.C,KiKit_MB_4_7*%
X74822881Y-108924387D03*
%TD*%
%TO.C,KiKit_MB_8_5*%
X80501452Y-101031530D03*
%TD*%
%TO.C,KiKit_MB_4_2*%
X74822881Y-104638672D03*
%TD*%
D24*
%TO.C,D1*%
X49036440Y-99681530D03*
X49036440Y-96881530D03*
%TD*%
D25*
%TO.C,J1*%
X54521353Y-71781530D03*
X54521353Y-76831528D03*
X51981353Y-71781530D03*
X51981353Y-76831528D03*
X49441353Y-71781530D03*
X49441353Y-76831528D03*
%TD*%
%LPD*%
M02*
