%TF.GenerationSoftware,KiCad,Pcbnew,9.0.7*%
%TF.CreationDate,2026-04-20T22:00:55-03:00*%
%TF.ProjectId,Sao_Tree_panel,53616f5f-5472-4656-955f-70616e656c2e,rev?*%
%TF.SameCoordinates,Original*%
%TF.FileFunction,Copper,L1,Top*%
%TF.FilePolarity,Positive*%
%FSLAX46Y46*%
G04 Gerber Fmt 4.6, Leading zero omitted, Abs format (unit mm)*
G04 Created by KiCad (PCBNEW 9.0.7) date 2026-04-20 22:00:55*
%MOMM*%
%LPD*%
G01*
G04 APERTURE LIST*
G04 Aperture macros list*
%AMHorizOval*
0 Thick line with rounded ends*
0 $1 width*
0 $2 $3 position (X,Y) of the first rounded end (center of the circle)*
0 $4 $5 position (X,Y) of the second rounded end (center of the circle)*
0 Add line between two ends*
20,1,$1,$2,$3,$4,$5,0*
0 Add two circle primitives to create the rounded ends*
1,1,$1,$2,$3*
1,1,$1,$4,$5*%
G04 Aperture macros list end*
%TA.AperFunction,Conductor*%
%ADD10C,0.200000*%
%TD*%
%TA.AperFunction,Conductor*%
%ADD11C,0.500000*%
%TD*%
%TA.AperFunction,ComponentPad*%
%ADD12C,1.400000*%
%TD*%
%TA.AperFunction,ComponentPad*%
%ADD13HorizOval,1.400000X0.000000X0.000000X0.000000X0.000000X0*%
%TD*%
%TA.AperFunction,ComponentPad*%
%ADD14R,1.350000X1.350000*%
%TD*%
%TA.AperFunction,ComponentPad*%
%ADD15O,1.350000X1.350000*%
%TD*%
%TA.AperFunction,ComponentPad*%
%ADD16HorizOval,1.400000X0.000000X0.000000X0.000000X0.000000X0*%
%TD*%
%TA.AperFunction,ComponentPad*%
%ADD17O,1.400000X1.400000*%
%TD*%
%TA.AperFunction,ViaPad*%
%ADD18C,0.600000*%
%TD*%
G04 APERTURE END LIST*
D10*
%TO.N,Board_0-GND*%
X39872101Y-49169599D02*
X40220981Y-51293661D01*
X70152574Y-51149685D02*
X71521353Y-50781530D01*
X61169198Y-45485872D02*
X63159864Y-48215342D01*
X42801664Y-54448969D02*
X43817520Y-55218557D01*
X43851739Y-45210180D02*
X47798868Y-42378098D01*
X47798868Y-42378098D02*
X50507816Y-41085191D01*
X61749402Y-44455057D02*
X63740068Y-47184527D01*
X42452785Y-52571176D02*
X43478901Y-53966694D01*
X55648690Y-42725618D02*
X59352971Y-43885130D01*
%TO.N,Board_1-Crystal*%
X54036440Y-99781530D02*
X58536440Y-99781530D01*
%TO.N,Board_0-GND*%
X52521353Y-60781530D02*
X52521353Y-68281530D01*
X70166256Y-49076930D02*
X71521353Y-50781530D01*
%TO.N,Board_1-GND*%
X44287785Y-99033585D02*
X46036440Y-99781530D01*
%TO.N,Board_0-GND*%
X64414043Y-49733948D02*
X66317057Y-50487696D01*
X34774233Y-43797415D02*
X33021353Y-44781530D01*
X40220981Y-51293661D02*
X41195792Y-53571640D01*
X33073657Y-45208034D02*
X34521353Y-46281530D01*
%TO.N,Board_1-Crystal*%
X58536440Y-96781530D02*
X51536440Y-96781530D01*
%TO.N,Board_0-GND*%
X66793753Y-49617351D02*
X70173097Y-49644714D01*
X64775723Y-49405287D02*
X66656937Y-50068843D01*
X64976090Y-48954145D02*
X66793753Y-49617351D01*
X63740068Y-47184527D02*
X65258720Y-48436389D01*
X40451857Y-48651410D02*
X40800737Y-50775472D01*
X39201880Y-46280284D02*
X34521353Y-45281530D01*
X54802592Y-40237718D02*
X56228894Y-41694803D01*
X47598775Y-41808603D02*
X50307723Y-40515696D01*
X54021353Y-57281530D02*
X56521353Y-57281530D01*
X55441133Y-56594032D02*
X57521353Y-55954549D01*
X53812854Y-41729343D02*
X55402422Y-43300243D01*
X49331042Y-56200816D02*
X50521353Y-57281530D01*
%TO.N,Board_1-Crystal*%
X58536440Y-99781530D02*
X59536440Y-101281530D01*
%TO.N,Board_0-GND*%
X44521353Y-59781530D02*
X44521353Y-67781530D01*
X54328261Y-40469955D02*
X55946264Y-42212559D01*
X44494757Y-54736282D02*
X45521353Y-55281530D01*
%TO.N,Board_1-GND*%
X45036440Y-95281530D02*
X46036440Y-96781530D01*
%TO.N,Board_0-GND*%
X48404277Y-43373431D02*
X51113225Y-42080524D01*
X54215388Y-34559524D02*
X54317999Y-37945709D01*
X63546541Y-54653728D02*
X62356246Y-56254470D01*
%TO.N,Board_1-Crystal*%
X60286440Y-99031530D02*
X58536440Y-99781530D01*
%TO.N,Board_0-GND*%
X48021353Y-58781530D02*
X48521353Y-60281530D01*
X53218185Y-38969955D02*
X53076398Y-37699441D01*
X53016239Y-39589411D02*
X53218185Y-38969955D01*
X42221908Y-54967158D02*
X43237764Y-55736746D01*
X39872101Y-49169599D02*
X34521353Y-46281530D01*
X44021353Y-56781530D02*
X44521353Y-58781530D01*
X53076398Y-37699441D02*
X52592254Y-39062306D01*
X59106703Y-44459755D02*
X60922930Y-46060497D01*
X50307723Y-40515696D02*
X51463814Y-39352764D01*
X53076398Y-37699441D02*
X53021353Y-34781530D01*
X55861841Y-55598699D02*
X59392392Y-55591451D01*
X43651646Y-44640685D02*
X47598775Y-41808603D01*
X41195792Y-53571640D02*
X42221908Y-54967158D01*
D11*
%TO.N,Board_0-Crystal*%
X64021353Y-50786344D02*
X61521353Y-53286344D01*
X61021353Y-53286344D01*
X61021353Y-48286344D01*
X61521353Y-48286344D01*
X64021353Y-50786344D01*
%TA.AperFunction,Conductor*%
G36*
X64021353Y-50786344D02*
G01*
X61521353Y-53286344D01*
X61021353Y-53286344D01*
X61021353Y-48286344D01*
X61521353Y-48286344D01*
X64021353Y-50786344D01*
G37*
%TD.AperFunction*%
D10*
%TO.N,Board_0-GND*%
X59650545Y-43372071D02*
X61466772Y-44972813D01*
X51951219Y-40373750D02*
X52592254Y-39062306D01*
%TO.N,Board_1-GND*%
X46036440Y-96781530D02*
X50536440Y-96781530D01*
X53036440Y-99781530D02*
X46036440Y-99781530D01*
%TO.N,Board_0-GND*%
X52521353Y-57781530D02*
X52521353Y-60281530D01*
X40451857Y-48651410D02*
X34763971Y-45654686D01*
X68503947Y-50527175D02*
X70207301Y-50308270D01*
X65258720Y-48436389D02*
X66880432Y-49047362D01*
X51968192Y-37771269D02*
X51916887Y-34569785D01*
X51663907Y-39922259D02*
X52581993Y-37748877D01*
X48086180Y-42829589D02*
X50795128Y-41536682D01*
X71521353Y-50781530D02*
X70173097Y-49644714D01*
X68996482Y-50855532D02*
X70207301Y-50308270D01*
%TO.N,Board_1-Crystal*%
X58536440Y-96781530D02*
X58536440Y-99781530D01*
D11*
X62036440Y-98281530D02*
X59536440Y-101281530D01*
D10*
%TO.N,Board_0-GND*%
X58271353Y-57281530D02*
X57521353Y-58281530D01*
X33090599Y-44940353D02*
X34521353Y-45281530D01*
X52021353Y-58281530D02*
X52521353Y-60781530D01*
X34999978Y-44382302D02*
X33021353Y-44781530D01*
X39498222Y-46777023D02*
X34763971Y-45654686D01*
X53794680Y-38048320D02*
X53712591Y-34539002D01*
X43631603Y-47311081D02*
X42047963Y-47129800D01*
X43817520Y-55218557D02*
X45018076Y-56316501D01*
X41146212Y-45637728D02*
X38596471Y-45284951D01*
X55946264Y-42212559D02*
X59650545Y-43372071D01*
X51409567Y-42577263D02*
X52565658Y-41414331D01*
X63457438Y-47702283D02*
X64976090Y-48954145D01*
X34763971Y-45654686D02*
X33040096Y-45049277D01*
X62913596Y-48789967D02*
X64414043Y-49733948D01*
X57521353Y-58281530D02*
X56521353Y-57281530D01*
X67730939Y-51484884D02*
X69051209Y-51478043D01*
X66091310Y-51985825D02*
X63546541Y-54653728D01*
X61263431Y-55228353D02*
X57521353Y-55954549D01*
X39458859Y-47463434D02*
X43718648Y-48276716D01*
X53074529Y-40303907D02*
X53016239Y-39589411D01*
X38396378Y-44715456D02*
X34774233Y-43797415D01*
%TO.N,Board_1-Crystal*%
X59536440Y-95281530D02*
X58536440Y-96781530D01*
%TO.N,Board_0-GND*%
X61521353Y-58281530D02*
X60926353Y-62581086D01*
X53794680Y-38048320D02*
X54328261Y-40469955D01*
X40800737Y-50775472D02*
X41775548Y-53053451D01*
X67573601Y-50848691D02*
X65634687Y-51421460D01*
X60021353Y-57281530D02*
X58271353Y-57281530D01*
X50521353Y-57281530D02*
X52021353Y-58281530D01*
X47110458Y-57185425D02*
X48021353Y-58781530D01*
X42529759Y-45249514D02*
X43651646Y-44640685D01*
X66880432Y-49047362D02*
X70166256Y-49076930D01*
X41775548Y-53053451D02*
X42801664Y-54448969D01*
%TO.N,Board_1-GND*%
X44287785Y-97533585D02*
X44287785Y-99033585D01*
X43612810Y-99530246D01*
X42537785Y-98283585D01*
X43604331Y-97012002D01*
X44287785Y-97533585D01*
%TA.AperFunction,Conductor*%
G36*
X44287785Y-97533585D02*
G01*
X44287785Y-99033585D01*
X43612810Y-99530246D01*
X42537785Y-98283585D01*
X43604331Y-97012002D01*
X44287785Y-97533585D01*
G37*
%TD.AperFunction*%
D11*
%TO.N,Board_1-Crystal*%
X56536440Y-95281530D02*
X59536440Y-95281530D01*
D10*
%TO.N,Board_0-GND*%
X43718648Y-48276716D02*
X44753490Y-46702252D01*
X54222388Y-41268533D02*
X55648690Y-42725618D01*
X60922930Y-46060497D02*
X62069861Y-47761630D01*
X48700619Y-43870170D02*
X51409567Y-42577263D01*
X53146356Y-33490492D02*
X54215388Y-34559524D01*
X67730939Y-51484884D02*
X66091310Y-51985825D01*
X54317999Y-37945709D02*
X54802592Y-40237718D01*
X41751621Y-46633061D02*
X39201880Y-46280284D01*
X50521353Y-57281530D02*
X49521353Y-57281530D01*
X52269316Y-40917592D02*
X53016239Y-39589411D01*
X43017164Y-46270500D02*
X41433524Y-46089219D01*
X52565658Y-41414331D02*
X53074529Y-40303907D01*
X43478901Y-53966694D02*
X44494757Y-54736282D01*
X55402422Y-43300243D02*
X59106703Y-44459755D01*
X70152574Y-51149685D02*
X69051209Y-51478043D01*
D11*
%TO.N,Board_1-Crystal*%
X49536440Y-101281530D02*
X59536440Y-101281530D01*
D10*
%TO.N,Board_0-GND*%
X55441133Y-56594032D02*
X54021353Y-57281530D01*
X43335261Y-46814342D02*
X41751621Y-46633061D01*
X52521353Y-57781530D02*
X53521353Y-56781530D01*
D11*
%TO.N,Board_1-Crystal*%
X62036440Y-98281530D02*
X59536440Y-95281530D01*
D10*
%TO.N,Board_0-GND*%
X51490585Y-56635077D02*
X49331042Y-56200816D01*
X40946119Y-45068233D02*
X38396378Y-44715456D01*
X41218648Y-50776716D02*
X42452785Y-52571176D01*
X53521353Y-56781530D02*
X55861841Y-55598699D01*
X57021353Y-60281530D02*
X57021353Y-64281530D01*
X43631603Y-47311081D02*
X44753490Y-46702252D01*
X49521353Y-57281530D02*
X47110458Y-57185425D01*
X51463814Y-39352764D02*
X51968192Y-37771269D01*
X66656937Y-50068843D02*
X70207301Y-50308270D01*
X50795128Y-41536682D02*
X51951219Y-40373750D01*
X60926353Y-62581086D02*
X61021353Y-67781530D01*
D11*
%TO.N,Board_1-GND*%
X42536440Y-98281530D02*
X45036440Y-95281530D01*
D10*
%TO.N,Board_0-GND*%
X43017164Y-46270500D02*
X44139051Y-45661671D01*
X42047963Y-47129800D02*
X39498222Y-46777023D01*
X44457148Y-46205513D02*
X48404277Y-43373431D01*
%TO.N,Board_1-GND*%
X44287785Y-97533585D02*
X46036440Y-96781530D01*
%TO.N,Board_0-GND*%
X35030762Y-44915882D02*
X33021353Y-44781530D01*
%TO.N,Board_1-Crystal*%
X62036440Y-98281530D02*
X60961415Y-99528191D01*
X60286440Y-99031530D01*
X60286440Y-97531530D01*
X60969894Y-97009947D01*
X62036440Y-98281530D01*
%TA.AperFunction,Conductor*%
G36*
X62036440Y-98281530D02*
G01*
X60961415Y-99528191D01*
X60286440Y-99031530D01*
X60286440Y-97531530D01*
X60969894Y-97009947D01*
X62036440Y-98281530D01*
G37*
%TD.AperFunction*%
%TO.N,Board_0-GND*%
X53016239Y-39589411D02*
X53812854Y-41729343D01*
D11*
X44718648Y-53276716D02*
X43718648Y-53276716D01*
X41218648Y-50776716D01*
X43718648Y-48276716D01*
X44718648Y-48276716D01*
X44718648Y-53276716D01*
%TA.AperFunction,Conductor*%
G36*
X44718648Y-53276716D02*
G01*
X43718648Y-53276716D01*
X41218648Y-50776716D01*
X43718648Y-48276716D01*
X44718648Y-48276716D01*
X44718648Y-53276716D01*
G37*
%TD.AperFunction*%
D10*
X42729852Y-45819009D02*
X41146212Y-45637728D01*
X45521353Y-55281530D02*
X49331042Y-56200816D01*
X52581993Y-37748877D02*
X52512034Y-34867359D01*
X62356246Y-56254470D02*
X61521353Y-58281530D01*
%TO.N,Board_1-GND*%
X46036440Y-99781530D02*
X45036440Y-101281530D01*
%TO.N,Board_1-Crystal*%
X60286440Y-97531530D02*
X58536440Y-96781530D01*
%TO.N,Board_0-GND*%
X45521353Y-55281530D02*
X47022280Y-56216208D01*
X60021353Y-57281530D02*
X61521353Y-58281530D01*
X62453726Y-53627611D02*
X61263431Y-55228353D01*
X41433524Y-46089219D02*
X38883783Y-45736442D01*
X44521353Y-58781530D02*
X44521353Y-59781530D01*
X51490585Y-56635077D02*
X52521353Y-57781530D01*
D11*
%TO.N,Board_1-GND*%
X45036440Y-95281530D02*
X55036440Y-95281530D01*
D10*
%TO.N,Board_0-GND*%
X59933175Y-42854315D02*
X61749402Y-44455057D01*
X44139051Y-45661671D02*
X48086180Y-42829589D01*
X53218185Y-38969955D02*
X54222388Y-41268533D01*
X61899623Y-55690105D02*
X60021353Y-57281530D01*
X63089918Y-54089363D02*
X61899623Y-55690105D01*
X71521353Y-50781530D02*
X70207301Y-50308270D01*
X53021353Y-34781530D02*
X53146356Y-33490492D01*
X57021353Y-64281530D02*
X57019448Y-68179502D01*
X47022280Y-56216208D02*
X48315906Y-57233478D01*
X43237764Y-55736746D02*
X44021353Y-56781530D01*
X67573601Y-50848691D02*
X68996482Y-50855532D01*
X42529759Y-45249514D02*
X40946119Y-45068233D01*
X43335261Y-46814342D02*
X44457148Y-46205513D01*
X41218648Y-50776716D02*
X40626297Y-49713441D01*
X51916887Y-34569785D02*
X53146356Y-33490492D01*
X35522736Y-45830176D02*
X39458859Y-47463434D01*
X38596471Y-45284951D02*
X34999978Y-44382302D01*
X42729852Y-45819009D02*
X43851739Y-45210180D01*
X52512034Y-34867359D02*
X53146356Y-33490492D01*
X38883783Y-45736442D02*
X35030762Y-44915882D01*
X42988700Y-48971825D02*
X40451857Y-48651410D01*
X45018076Y-56316501D02*
X47110458Y-57185425D01*
X66317057Y-50487696D02*
X64998495Y-50959708D01*
%TO.N,Board_1-GND*%
X46036440Y-96781530D02*
X46036440Y-99781530D01*
%TO.N,Board_0-GND*%
X51113225Y-42080524D02*
X52269316Y-40917592D01*
X61263431Y-55228353D02*
X58271353Y-57281530D01*
X66317057Y-50487696D02*
X68503947Y-50527175D01*
X62069861Y-47761630D02*
X62913596Y-48789967D01*
X53021353Y-58281530D02*
X52521353Y-60781530D01*
X54021353Y-57281530D02*
X53021353Y-58281530D01*
X50507816Y-41085191D02*
X51663907Y-39922259D01*
X56228894Y-41694803D02*
X59933175Y-42854315D01*
X57521353Y-58281530D02*
X57021353Y-60281530D01*
D11*
%TO.N,Board_1-GND*%
X42536440Y-98281530D02*
X45036440Y-101281530D01*
D10*
%TO.N,Board_0-GND*%
X63159864Y-48215342D02*
X64775723Y-49405287D01*
X44753490Y-46702252D02*
X48700619Y-43870170D01*
X53712591Y-34539002D02*
X53146356Y-33490492D01*
X59352971Y-43885130D02*
X61169198Y-45485872D01*
X48521353Y-60281530D02*
X48521353Y-68141480D01*
X61466772Y-44972813D02*
X63457438Y-47702283D01*
X64998495Y-50959708D02*
X62453726Y-53627611D01*
X65634687Y-51421460D02*
X63089918Y-54089363D01*
D11*
%TO.N,Board_1-GND*%
X45036440Y-101281530D02*
X48036440Y-101281530D01*
%TD*%
D12*
%TO.P,R4,1*%
%TO.N,Board_0-+3.3V*%
X62831353Y-65880644D03*
D13*
%TO.P,R4,2*%
%TO.N,Board_0-Crystal*%
X59021353Y-59281530D03*
%TD*%
D14*
%TO.P,J4,1,Pin_1*%
%TO.N,Board_0-Net-(J4-Pin_1)*%
X72021353Y-48781530D03*
D15*
%TO.P,J4,2,Pin_2*%
%TO.N,Board_0-GND*%
X72021353Y-50781530D03*
%TD*%
D12*
%TO.P,R1,1*%
%TO.N,Board_0-+3.3V*%
X42711351Y-65880645D03*
D16*
%TO.P,R1,2*%
%TO.N,Board_0-Net-(J2-Pin_1)*%
X46521353Y-59281530D03*
%TD*%
D14*
%TO.P,J3,1,Pin_1*%
%TO.N,Board_0-Net-(J3-Pin_1)*%
X53146539Y-31847619D03*
D15*
%TO.P,J3,2,Pin_2*%
%TO.N,Board_0-GND*%
X53146539Y-33847619D03*
%TD*%
D14*
%TO.P,J2,1,Pin_1*%
%TO.N,Board_0-Net-(J2-Pin_1)*%
X32546353Y-43031530D03*
D15*
%TO.P,J2,2,Pin_2*%
%TO.N,Board_0-GND*%
X32546353Y-45031530D03*
%TD*%
D12*
%TO.P,R3,1*%
%TO.N,Board_0-+3.3V*%
X55021353Y-67281530D03*
D17*
%TO.P,R3,2*%
%TO.N,Board_0-Net-(J4-Pin_1)*%
X55021353Y-59661530D03*
%TD*%
D12*
%TO.P,R2,1*%
%TO.N,Board_0-+3.3V*%
X50521354Y-67091530D03*
D17*
%TO.P,R2,2*%
%TO.N,Board_0-Net-(J3-Pin_1)*%
X50521354Y-59471529D03*
%TD*%
D18*
%TO.N,Board_0-Crystal*%
X63921353Y-50781530D03*
%TO.N,Board_0-GND*%
X41321353Y-50776716D03*
X61771353Y-68531530D03*
X43654674Y-68648208D03*
%TO.N,Board_1-Crystal*%
X58536440Y-99781530D03*
X58536440Y-96781530D03*
%TO.N,Board_1-GND*%
X46036440Y-96781530D03*
X46036440Y-99781530D03*
%TD*%
D10*
%TO.N,Board_0-GND*%
X61771353Y-68531530D02*
X61021353Y-67781530D01*
X43654674Y-68648208D02*
X43654675Y-68648208D01*
X43654675Y-68648208D02*
X44521353Y-67781530D01*
%TD*%
M02*
