%TF.GenerationSoftware,KiCad,Pcbnew,9.0.7*%
%TF.CreationDate,2026-04-20T22:00:55-03:00*%
%TF.ProjectId,Sao_Tree_panel,53616f5f-5472-4656-955f-70616e656c2e,rev?*%
%TF.SameCoordinates,Original*%
%TF.FileFunction,Soldermask,Top*%
%TF.FilePolarity,Negative*%
%FSLAX46Y46*%
G04 Gerber Fmt 4.6, Leading zero omitted, Abs format (unit mm)*
G04 Created by KiCad (PCBNEW 9.0.7) date 2026-04-20 22:00:55*
%MOMM*%
%LPD*%
G01*
G04 APERTURE LIST*
G04 Aperture macros list*
%AMHorizOval*
0 Thick line with rounded ends*
0 $1 width*
0 $2 $3 position (X,Y) of the first rounded end (center of the circle)*
0 $4 $5 position (X,Y) of the second rounded end (center of the circle)*
0 Add line between two ends*
20,1,$1,$2,$3,$4,$5,0*
0 Add two circle primitives to create the rounded ends*
1,1,$1,$2,$3*
1,1,$1,$4,$5*%
G04 Aperture macros list end*
%ADD10C,0.000000*%
%ADD11C,0.200000*%
%ADD12C,0.500000*%
%ADD13C,0.100000*%
%ADD14C,1.400000*%
%ADD15HorizOval,1.400000X0.000000X0.000000X0.000000X0.000000X0*%
%ADD16R,1.350000X1.350000*%
%ADD17O,1.350000X1.350000*%
%ADD18HorizOval,1.400000X0.000000X0.000000X0.000000X0.000000X0*%
%ADD19O,1.400000X1.400000*%
G04 APERTURE END LIST*
D10*
G36*
X45937185Y-99633062D02*
G01*
X44385074Y-98967308D01*
X44390098Y-97600630D01*
X45937775Y-96934483D01*
X45937185Y-99633062D01*
G37*
D11*
X46036440Y-96781530D02*
X50536440Y-96781530D01*
X46036440Y-99781530D02*
X45036440Y-101281530D01*
X58536440Y-96781530D02*
X51536440Y-96781530D01*
D12*
X56536440Y-95281530D02*
X59536440Y-95281530D01*
X64021353Y-50786344D02*
X61521353Y-53286344D01*
X61021353Y-53286344D01*
X61021353Y-48286344D01*
X61521353Y-48286344D01*
X64021353Y-50786344D01*
G36*
X64021353Y-50786344D02*
G01*
X61521353Y-53286344D01*
X61021353Y-53286344D01*
X61021353Y-48286344D01*
X61521353Y-48286344D01*
X64021353Y-50786344D01*
G37*
D11*
X54036440Y-99781530D02*
X58536440Y-99781530D01*
D10*
G36*
X45889137Y-96739392D02*
G01*
X44302626Y-97416418D01*
X43857175Y-97089259D01*
X45116177Y-95583517D01*
X45889137Y-96739392D01*
G37*
G36*
X45889163Y-99825720D02*
G01*
X45116203Y-100981595D01*
X43857201Y-99475853D01*
X44302652Y-99148694D01*
X45889163Y-99825720D01*
G37*
D11*
X62036440Y-98281530D02*
X58536440Y-96781530D01*
D12*
X45036440Y-101281530D02*
X48036440Y-101281530D01*
D11*
X62033100Y-98281787D02*
X60958075Y-99528448D01*
X60283100Y-99031787D01*
X60283100Y-97531787D01*
X60966554Y-97010204D01*
X62033100Y-98281787D01*
G36*
X62033100Y-98281787D02*
G01*
X60958075Y-99528448D01*
X60283100Y-99031787D01*
X60283100Y-97531787D01*
X60966554Y-97010204D01*
X62033100Y-98281787D01*
G37*
D12*
X62036440Y-98281530D02*
X59536440Y-95281530D01*
D11*
X44287785Y-97533585D02*
X44287785Y-99033585D01*
X43612810Y-99530246D01*
X42537785Y-98283585D01*
X43604331Y-97012002D01*
X44287785Y-97533585D01*
G36*
X44287785Y-97533585D02*
G01*
X44287785Y-99033585D01*
X43612810Y-99530246D01*
X42537785Y-98283585D01*
X43604331Y-97012002D01*
X44287785Y-97533585D01*
G37*
D12*
X62036440Y-98281530D02*
X59536440Y-101281530D01*
D10*
G36*
X60719774Y-99473798D02*
G01*
X59460772Y-100979540D01*
X58687812Y-99823665D01*
X60274323Y-99146639D01*
X60719774Y-99473798D01*
G37*
D11*
X45036440Y-95281530D02*
X46036440Y-96781530D01*
X46036440Y-96781530D02*
X46036440Y-99781530D01*
D12*
X42536440Y-98281530D02*
X45036440Y-95281530D01*
D11*
X59536440Y-95281530D02*
X58536440Y-96781530D01*
D12*
X42536440Y-98281530D02*
X45036440Y-101281530D01*
X45036440Y-95281530D02*
X56536440Y-95281530D01*
X48036440Y-101281530D02*
X59536440Y-101281530D01*
D10*
G36*
X58485982Y-96681619D02*
G01*
X51509804Y-96684207D01*
X51509554Y-96877323D01*
X58438068Y-96881661D01*
X58438068Y-99681268D01*
X54032356Y-99682664D01*
X54031364Y-99881661D01*
X58484494Y-99882653D01*
X59250485Y-101031529D01*
X45325915Y-101031033D01*
X46092129Y-99882209D01*
X53051818Y-99881445D01*
X53051818Y-99681719D01*
X46138389Y-99681009D01*
X46138058Y-96881661D01*
X50547463Y-96881226D01*
X50547500Y-96680513D01*
X46092072Y-96681009D01*
X45326412Y-95533292D01*
X59251203Y-95531307D01*
X58485982Y-96681619D01*
G37*
D11*
X58536440Y-96781530D02*
X58536440Y-99781530D01*
X42536440Y-98281530D02*
X46036440Y-96781530D01*
D10*
G36*
X60186877Y-97598575D02*
G01*
X60191901Y-98965253D01*
X58639790Y-99631007D01*
X58639200Y-96932428D01*
X60186877Y-97598575D01*
G37*
D13*
X41411087Y-64821454D02*
X40175346Y-65467842D01*
X39357856Y-66009667D01*
X39072685Y-66199781D01*
X38939605Y-66361378D01*
X39072685Y-66522974D01*
X41059376Y-67188373D01*
X44044165Y-67768221D01*
X46601198Y-68043886D01*
X49614505Y-68272023D01*
X52713362Y-68319552D01*
X55764692Y-68272023D01*
X58730470Y-68119932D01*
X60479518Y-67948829D01*
X62219061Y-67654153D01*
X63939592Y-67368982D01*
X65508033Y-66893697D01*
X65812215Y-66770123D01*
X66049857Y-66532480D01*
X65888261Y-66180769D01*
X65650618Y-65943127D01*
X64956702Y-65448831D01*
X63797007Y-64773926D01*
X62678356Y-63503775D01*
X64289903Y-63750614D01*
X65607474Y-64036282D01*
X67052341Y-64454533D01*
X68478195Y-65037549D01*
X68894531Y-65452633D01*
X69027610Y-65709286D01*
X69090365Y-65937426D01*
X68615080Y-72686472D01*
X68229132Y-73237800D01*
X67740555Y-73722593D01*
X66270974Y-84781530D01*
X65782376Y-85485904D01*
X64228195Y-86783432D01*
X61761466Y-88252062D01*
X60445869Y-88811949D01*
X59070408Y-89281530D01*
X57266212Y-89753013D01*
X55473446Y-90020122D01*
X53815644Y-90237804D01*
X51869841Y-90281530D01*
X49851768Y-90266321D01*
X48429724Y-90134190D01*
X46700628Y-89895598D01*
X44964896Y-89421263D01*
X43592265Y-88954534D01*
X42369841Y-88323355D01*
X40145507Y-86754915D01*
X38548550Y-85443128D01*
X38071353Y-84781530D01*
X36886943Y-73570503D01*
X36364129Y-73085712D01*
X36078959Y-72724496D01*
X35883986Y-72226396D01*
X35757665Y-68903201D01*
X35767171Y-65471644D01*
X36071353Y-65157956D01*
X36404053Y-64901302D01*
X37138844Y-64554344D01*
X37863809Y-64281530D01*
X40717739Y-63656056D01*
X41258796Y-63593625D01*
X42274252Y-63499842D01*
X41411087Y-64821454D01*
G36*
X41411087Y-64821454D02*
G01*
X40175346Y-65467842D01*
X39357856Y-66009667D01*
X39072685Y-66199781D01*
X38939605Y-66361378D01*
X39072685Y-66522974D01*
X41059376Y-67188373D01*
X44044165Y-67768221D01*
X46601198Y-68043886D01*
X49614505Y-68272023D01*
X52713362Y-68319552D01*
X55764692Y-68272023D01*
X58730470Y-68119932D01*
X60479518Y-67948829D01*
X62219061Y-67654153D01*
X63939592Y-67368982D01*
X65508033Y-66893697D01*
X65812215Y-66770123D01*
X66049857Y-66532480D01*
X65888261Y-66180769D01*
X65650618Y-65943127D01*
X64956702Y-65448831D01*
X63797007Y-64773926D01*
X62678356Y-63503775D01*
X64289903Y-63750614D01*
X65607474Y-64036282D01*
X67052341Y-64454533D01*
X68478195Y-65037549D01*
X68894531Y-65452633D01*
X69027610Y-65709286D01*
X69090365Y-65937426D01*
X68615080Y-72686472D01*
X68229132Y-73237800D01*
X67740555Y-73722593D01*
X66270974Y-84781530D01*
X65782376Y-85485904D01*
X64228195Y-86783432D01*
X61761466Y-88252062D01*
X60445869Y-88811949D01*
X59070408Y-89281530D01*
X57266212Y-89753013D01*
X55473446Y-90020122D01*
X53815644Y-90237804D01*
X51869841Y-90281530D01*
X49851768Y-90266321D01*
X48429724Y-90134190D01*
X46700628Y-89895598D01*
X44964896Y-89421263D01*
X43592265Y-88954534D01*
X42369841Y-88323355D01*
X40145507Y-86754915D01*
X38548550Y-85443128D01*
X38071353Y-84781530D01*
X36886943Y-73570503D01*
X36364129Y-73085712D01*
X36078959Y-72724496D01*
X35883986Y-72226396D01*
X35757665Y-68903201D01*
X35767171Y-65471644D01*
X36071353Y-65157956D01*
X36404053Y-64901302D01*
X37138844Y-64554344D01*
X37863809Y-64281530D01*
X40717739Y-63656056D01*
X41258796Y-63593625D01*
X42274252Y-63499842D01*
X41411087Y-64821454D01*
G37*
D11*
X53036440Y-99781530D02*
X46036440Y-99781530D01*
X58536440Y-99781530D02*
X59536440Y-101281530D01*
D10*
G36*
X60719800Y-97087204D02*
G01*
X60274349Y-97414363D01*
X58687838Y-96737337D01*
X59460798Y-95581462D01*
X60719800Y-97087204D01*
G37*
D11*
X62036440Y-98281530D02*
X58536440Y-99781530D01*
X42536440Y-98281530D02*
X46036440Y-99781530D01*
D12*
X44718794Y-53281077D02*
X43718794Y-53281077D01*
X41218794Y-50781077D01*
X43718794Y-48281077D01*
X44718794Y-48281077D01*
X44718794Y-53281077D01*
G36*
X44718794Y-53281077D02*
G01*
X43718794Y-53281077D01*
X41218794Y-50781077D01*
X43718794Y-48281077D01*
X44718794Y-48281077D01*
X44718794Y-53281077D01*
G37*
D14*
%TO.C,R4*%
X62831353Y-65880644D03*
D15*
X59021353Y-59281530D03*
%TD*%
D16*
%TO.C,J4*%
X72021353Y-48781530D03*
D17*
X72021353Y-50781530D03*
%TD*%
D14*
%TO.C,R1*%
X42711351Y-65880645D03*
D18*
X46521353Y-59281530D03*
%TD*%
D16*
%TO.C,J3*%
X53146539Y-31847619D03*
D17*
X53146539Y-33847619D03*
%TD*%
D16*
%TO.C,J2*%
X32546353Y-43031530D03*
D17*
X32546353Y-45031530D03*
%TD*%
D14*
%TO.C,R3*%
X55021353Y-67281530D03*
D19*
X55021353Y-59661530D03*
%TD*%
D14*
%TO.C,R2*%
X50521354Y-67091530D03*
D19*
X50521354Y-59471529D03*
%TD*%
M02*
