M48
; DRILL file {KiCad 9.0.7} date 2026-04-20T22:00:55-0300
; FORMAT={-:-/ absolute / inch / decimal}
; #@! TF.CreationDate,2026-04-20T22:00:55-03:00
; #@! TF.GenerationSoftware,Kicad,Pcbnew,9.0.7
; #@! TF.FileFunction,Plated,1,2,PTH
FMAT,2
INCH
; #@! TA.AperFunction,Plated,PTH,ViaDrill
T1C0.0118
; #@! TA.AperFunction,Plated,PTH,ComponentDrill
T2C0.0276
; #@! TA.AperFunction,Plated,PTH,ComponentDrill
T3C0.0315
%
G90
G05
T1
X1.6268Y-1.9991
X1.7187Y-2.7027
X1.8125Y-3.8103
X1.8125Y-3.9284
X2.3046Y-3.8103
X2.3046Y-3.9284
X2.4319Y-2.6981
X2.5166Y-1.9993
T2
X1.6815Y-2.5937
X1.8315Y-2.3339
X1.989Y-2.3414
X1.989Y-2.6414
X2.1662Y-2.3489
X2.1662Y-2.6489
X2.3237Y-2.3339
X2.4737Y-2.5937
T3
X1.2814Y-1.6942
X1.2814Y-1.7729
X2.0924Y-1.2538
X2.0924Y-1.3326
X2.8355Y-1.9205
X2.8355Y-1.9993
M30
