M48
; DRILL file {KiCad 9.0.7} date 2026-02-05T05:17:28-0400
; FORMAT={-:-/ absolute / inch / decimal}
; #@! TF.CreationDate,2026-02-05T05:17:28-04:00
; #@! TF.GenerationSoftware,Kicad,Pcbnew,9.0.7
; #@! TF.FileFunction,Plated,1,4,PTH
FMAT,2
INCH
; #@! TA.AperFunction,Plated,PTH,ViaDrill
T1C0.0118
; #@! TA.AperFunction,Plated,PTH,ViaDrill
T2C0.0157
; #@! TA.AperFunction,Plated,PTH,ComponentDrill
T3C0.0315
%
G90
G05
T1
X-15.4206Y10.652
X1.7441Y-4.9882
X1.8583Y-4.7874
X1.8583Y-4.9331
X1.9882Y-5.2441
X2.0721Y-3.4016
X2.1024Y-5.1791
X2.1063Y-3.3504
X2.1063Y-4.5413
X2.1063Y-5.0335
X2.1721Y-3.3228
X2.1721Y-3.4134
X2.2283Y-4.9961
X2.2746Y-3.4094
X2.2913Y-4.687
X2.311Y-3.3228
X2.3543Y-4.7874
X2.3543Y-4.9331
X2.4252Y-4.6102
X2.4961Y-3.3898
X2.5118Y-3.4646
X2.5157Y-3.2913
X2.5236Y-3.7992
X2.5246Y-3.2411
X2.5354Y-3.5354
X2.6575Y-3.2047
X2.6654Y-2.9843
X2.689Y-3.2874
X2.7244Y-2.878
X2.7362Y-3.3425
X2.7677Y-2.8268
X2.7795Y-3.374
X2.811Y-6.2874
X2.8307Y-3.0276
X2.8386Y-3.9843
X2.8538Y-2.7682
X2.8622Y-6.2874
X2.9094Y-6.2874
X2.9567Y-5.9055
X2.9961Y-2.3583
X2.9961Y-3.1516
X3.0118Y-6.3307
X3.0603Y-6.2913
X3.0807Y-2.9823
X3.1063Y-5.9288
X3.1102Y-6.2874
X3.1433Y-3.0967
X3.1575Y-5.937
X3.1809Y-2.2163
X3.25Y-3.0217
X3.3318Y-3.0137
X3.3346Y-3.1732
X3.3583Y-2.6102
X3.3622Y-2.811
X3.3701Y-3.1457
X3.3878Y-3.2303
X3.4488Y-3.0394
X3.5591Y-2.6063
X3.5591Y-6.2874
X3.6063Y-2.8071
X3.6102Y-5.9488
X3.6102Y-6.2874
X3.6378Y-1.8583
X3.6654Y-6.2835
X3.7087Y-6.2874
X3.748Y-6.2874
X3.7795Y-6.3307
X3.811Y-6.2874
X3.8533Y-2.1378
X3.874Y-6.2874
X3.9439Y-6.2864
X3.9512Y-3.05
X3.9997Y-6.2871
X4.0Y-6.3228
X4.0394Y-5.9488
X4.063Y-6.3307
X4.085Y-3.2043
X4.138Y-2.2126
X4.1417Y-2.3268
X4.1614Y-6.2874
X4.1772Y-4.2165
X4.2087Y-6.2874
X4.2164Y-2.2126
X4.2205Y-2.3268
X4.2559Y-6.2844
X4.2638Y-6.3307
X4.3071Y-6.2874
X4.3465Y-2.1378
X4.3504Y-4.1969
X4.3543Y-6.2874
X4.3701Y-3.8346
X4.3976Y-6.3307
X4.4094Y-6.2874
X4.4134Y-4.6132
X4.4173Y-4.2008
X4.4606Y-6.2874
X4.4843Y-4.4606
X4.5079Y-6.3307
X4.5118Y-3.6969
X4.5472Y-5.9764
X4.5591Y-6.2874
X4.5861Y-4.4897
X4.6102Y-6.2874
X4.622Y-3.626
X4.6614Y-6.3307
X4.7283Y-3.6417
X4.7323Y-3.8543
X4.7323Y-4.3228
X4.748Y-4.0787
X4.7638Y-3.6299
X4.7756Y-4.7559
X4.7756Y-4.9843
X4.7795Y-4.1811
X4.7835Y-4.0079
X4.811Y-6.2874
X4.8661Y-2.063
X4.9252Y-3.6772
X4.9606Y-6.3307
X4.9724Y-2.9488
X4.9764Y-3.9724
X5.0118Y-6.2874
X5.0879Y-3.1588
X5.0984Y-5.9764
X5.1024Y-3.0984
X5.1102Y-6.2874
X5.1286Y-2.8964
X5.1575Y-2.1378
X5.1732Y-3.3583
X5.185Y-3.2205
X5.1969Y-3.2913
X5.2008Y-3.4094
X5.2205Y-4.7126
X5.2362Y-6.2874
X5.2628Y-3.5876
X5.2746Y-3.5325
X5.2913Y-3.2953
X5.2953Y-2.5394
X5.3012Y-3.2146
X5.4094Y-2.5827
X5.4094Y-6.3307
X5.4252Y-3.4528
X5.4567Y-3.4291
X5.4567Y-4.3858
X5.4803Y-2.3427
X5.5079Y-6.2874
X5.5591Y-6.2874
X5.5709Y-2.374
X5.5787Y-2.6575
X5.6063Y-2.7008
X5.6063Y-3.0039
X5.6102Y-3.1457
X5.6102Y-4.0591
X5.6299Y-3.2008
X5.6526Y-2.3789
X5.6555Y-2.8701
X5.6575Y-2.5984
X5.6575Y-3.2283
X5.6616Y-2.4487
X5.687Y-3.9784
X5.689Y-3.8622
X5.6929Y-2.5787
X5.7047Y-2.3976
X5.7047Y-3.5315
X5.7047Y-4.0709
X5.7087Y-6.3307
X5.7126Y-2.6969
X5.7137Y-3.3958
X5.7402Y-5.9606
X5.745Y-3.3927
X5.748Y-3.0551
X5.7598Y-6.3307
X5.7638Y-3.1496
X5.7972Y-2.9114
X5.8071Y-2.8425
X5.8071Y-3.374
X5.8071Y-4.2087
X5.811Y-6.3307
X5.815Y-3.4055
X5.815Y-3.7382
X5.815Y-5.3071
X5.8386Y-5.378
X5.8425Y-5.8661
X5.8465Y-5.5866
X5.8767Y-5.5189
X5.9016Y-4.5709
X5.9016Y-4.6457
X5.9016Y-5.3583
X5.937Y-5.437
X5.9449Y-5.0984
X5.9646Y-3.2244
X5.9843Y-3.3465
X5.9843Y-3.4016
X5.9843Y-4.2874
X6.063Y-2.9803
X6.0709Y-4.0433
X6.0709Y-5.2992
X6.0827Y-3.5472
X6.0846Y-3.1732
X6.1004Y-4.6083
X6.1201Y-4.7028
X6.1237Y-3.1575
X6.1378Y-3.7205
X6.1447Y-3.4518
X6.2165Y-5.0866
X6.2323Y-5.2283
X6.2756Y-4.5591
X6.2992Y-3.4094
X6.3031Y-3.315
X6.3465Y-4.7185
X6.4173Y-4.9803
X6.4213Y-5.0945
X6.4449Y-3.3268
X6.4449Y-3.3898
X6.4567Y-5.1752
X6.5197Y-4.9567
X6.5197Y-5.0512
X6.5217Y-5.1988
X6.5276Y-4.685
X6.5394Y-3.3976
X6.5394Y-4.7756
X6.5413Y-3.3327
X6.6142Y-4.8898
X6.6201Y-4.9793
X6.6417Y-5.1181
X6.7244Y-4.5906
X6.7638Y-4.9311
X6.7677Y-4.7854
X6.7848Y-5.223
X6.8202Y-4.8296
X6.8386Y-4.5472
X6.9481Y-4.5052
X6.9851Y-5.0169
X7.0189Y-4.7118
X7.0446Y-4.6686
T2
X2.7677Y-3.1457
X2.8346Y-3.4882
X2.9173Y-3.2362
X2.9175Y-2.8502
X2.9606Y-3.7953
X2.997Y-3.0049
X3.0246Y-3.4055
X3.0315Y-3.6181
X3.0433Y-2.7992
X3.1909Y-3.0728
X3.2441Y-3.4409
X3.2756Y-3.248
X3.2795Y-2.8583
X3.315Y-3.7953
X3.3465Y-3.2283
X3.378Y-3.1063
X3.4173Y-3.5866
X3.5512Y-3.063
X3.563Y-3.1732
X3.7992Y-2.9213
T3
G00X7.0042Y-4.3816
M15
G01X6.9766Y-4.3968
M16
G05
G00X7.1447Y-4.3037
M15
G01X7.124Y-4.3151
M16
G05
G00X7.1693Y-4.6794
M15
G01X7.1417Y-4.6947
M16
G05
G00X7.3098Y-4.6015
M15
G01X7.2891Y-4.613
M16
G05
M30
