M48
; DRILL file {KiCad 9.0.7} date 2026-03-09T17:58:37-0300
; FORMAT={-:-/ absolute / inch / decimal}
; #@! TF.CreationDate,2026-03-09T17:58:37-03:00
; #@! TF.GenerationSoftware,Kicad,Pcbnew,9.0.7
; #@! TF.FileFunction,Plated,1,4,PTH
FMAT,2
INCH
; #@! TA.AperFunction,Plated,PTH,ViaDrill
T1C0.0118
; #@! TA.AperFunction,Plated,PTH,ViaDrill
T2C0.0157
; #@! TA.AperFunction,Plated,PTH,ComponentDrill
T3C0.0315
%
G90
G05
T1
X-15.4206Y10.652
X1.8583Y-4.7874
X1.8602Y-4.9311
X1.9882Y-4.7283
X2.0721Y-3.4016
X2.1024Y-5.1791
X2.1063Y-3.3504
X2.1063Y-4.5413
X2.1063Y-5.0335
X2.1721Y-3.3228
X2.1721Y-3.4134
X2.2746Y-3.4094
X2.2913Y-4.687
X2.311Y-3.3228
X2.3543Y-4.7874
X2.3543Y-4.9331
X2.4764Y-4.9803
X2.4774Y-4.5827
X2.4961Y-3.3898
X2.5118Y-3.4646
X2.5157Y-3.2913
X2.5236Y-3.7992
X2.5246Y-3.2411
X2.5276Y-4.7756
X2.5354Y-3.5354
X2.6102Y-4.4094
X2.6575Y-3.2047
X2.689Y-3.2874
X2.7244Y-2.878
X2.7362Y-3.1575
X2.7362Y-3.3425
X2.7677Y-2.8268
X2.7795Y-3.1575
X2.7795Y-3.374
X2.7884Y-3.2864
X2.7913Y-4.6299
X2.811Y-6.2874
X2.8125Y-2.967
X2.815Y-3.5984
X2.815Y-4.6929
X2.8307Y-3.8189
X2.8386Y-4.1811
X2.8538Y-2.7682
X2.8622Y-4.5433
X2.8622Y-6.2874
X2.9094Y-6.2874
X2.937Y-3.3346
X2.9409Y-4.5433
X2.9567Y-5.9055
X2.9646Y-3.2638
X2.9921Y-3.8937
X2.9961Y-2.3583
X2.9961Y-3.2126
X2.9961Y-3.8307
X3.0118Y-6.3307
X3.0197Y-2.9764
X3.0276Y-3.5472
X3.0433Y-2.7992
X3.0603Y-6.2913
X3.0866Y-3.6929
X3.1024Y-3.185
X3.1063Y-5.9288
X3.1102Y-2.7205
X3.1102Y-6.2874
X3.122Y-4.0669
X3.126Y-3.5906
X3.1378Y-2.8661
X3.1433Y-3.0967
X3.1496Y-3.8425
X3.1575Y-2.627
X3.1575Y-5.937
X3.1732Y-3.7598
X3.1809Y-2.2163
X3.2028Y-3.0984
X3.2077Y-3.0197
X3.2087Y-2.8465
X3.2146Y-3.1865
X3.2173Y-3.2178
X3.234Y-3.1026
X3.2441Y-2.8661
X3.2638Y-2.3228
X3.2643Y-3.2525
X3.2677Y-3.3642
X3.2717Y-2.7441
X3.2756Y-2.5512
X3.2838Y-2.2641
X3.2879Y-3.34
X3.3189Y-2.9646
X3.3228Y-2.3268
X3.3258Y-3.0
X3.3268Y-2.7913
X3.5591Y-6.2874
X3.6102Y-5.9488
X3.6102Y-6.2874
X3.6378Y-1.8583
X3.6654Y-6.2835
X3.7087Y-6.2874
X3.7362Y-3.9528
X3.748Y-6.2874
X3.7598Y-4.1024
X3.7795Y-6.3307
X3.811Y-6.2874
X3.874Y-6.2874
X3.8927Y-2.0158
X3.9439Y-6.2864
X3.9997Y-6.2871
X4.0Y-6.3228
X4.0394Y-5.9488
X4.0418Y-4.1718
X4.063Y-6.3307
X4.1447Y-4.2362
X4.1614Y-6.2874
X4.2087Y-6.2874
X4.2283Y-3.9921
X4.2559Y-6.2844
X4.2638Y-6.3307
X4.3071Y-6.2874
X4.3543Y-6.2874
X4.3937Y-3.9921
X4.3976Y-2.0236
X4.3976Y-3.8622
X4.3976Y-4.0748
X4.3976Y-6.3307
X4.4094Y-4.2756
X4.4094Y-6.2874
X4.4606Y-6.2874
X4.5079Y-6.3307
X4.5472Y-5.9764
X4.5591Y-6.2874
X4.6102Y-6.2874
X4.6417Y-4.0276
X4.6614Y-6.3307
X4.6791Y-4.0413
X4.7756Y-4.7559
X4.7756Y-4.9843
X4.7953Y-4.2835
X4.811Y-6.2874
X4.815Y-4.0315
X4.8189Y-3.9528
X4.8245Y-4.0912
X4.8365Y-2.0157
X4.9606Y-6.3307
X5.0118Y-6.2874
X5.0551Y-1.878
X5.0984Y-5.9764
X5.1102Y-6.2874
X5.2126Y-2.9882
X5.2205Y-4.7126
X5.2362Y-6.2874
X5.2559Y-3.1181
X5.2756Y-3.3819
X5.3012Y-3.2146
X5.311Y-3.2874
X5.3346Y-2.9567
X5.3465Y-2.878
X5.3583Y-2.1618
X5.4016Y-2.9961
X5.4028Y-3.5093
X5.4055Y-2.5867
X5.4055Y-2.5039
X5.4094Y-6.3307
X5.439Y-3.6831
X5.4409Y-2.8661
X5.4409Y-4.5906
X5.4488Y-3.5709
X5.4646Y-3.4488
X5.4685Y-2.7008
X5.4803Y-2.3614
X5.5079Y-6.2874
X5.5295Y-3.5039
X5.5394Y-2.6969
X5.5591Y-6.2874
X5.5709Y-2.374
X5.5709Y-4.2126
X5.6063Y-2.7008
X5.6063Y-3.0039
X5.6088Y-4.0623
X5.6299Y-3.2008
X5.6526Y-2.3789
X5.6555Y-2.8701
X5.6575Y-2.5984
X5.6575Y-3.2283
X5.6616Y-2.4487
X5.687Y-3.9784
X5.689Y-3.8622
X5.6929Y-2.5787
X5.7047Y-2.3976
X5.7047Y-3.5315
X5.7047Y-4.0709
X5.7087Y-3.0984
X5.7087Y-6.3307
X5.7126Y-2.6969
X5.7137Y-3.3958
X5.7402Y-5.9606
X5.745Y-3.3927
X5.748Y-3.0551
X5.7598Y-6.3307
X5.7638Y-3.1496
X5.7972Y-2.9114
X5.8071Y-2.8425
X5.8071Y-3.374
X5.8071Y-4.2087
X5.811Y-6.3307
X5.815Y-3.4055
X5.815Y-3.7382
X5.815Y-5.3071
X5.8386Y-5.378
X5.8425Y-5.8661
X5.8465Y-5.5866
X5.8767Y-5.5189
X5.9016Y-4.5709
X5.9016Y-4.6457
X5.9016Y-5.3583
X5.937Y-3.5709
X5.937Y-5.437
X5.9449Y-5.0984
X5.9646Y-3.2244
X5.9843Y-3.3465
X5.9843Y-4.2874
X6.0394Y-5.2598
X6.063Y-2.9803
X6.0709Y-4.0433
X6.0709Y-5.2992
X6.0827Y-3.5472
X6.0846Y-3.1732
X6.1004Y-4.6083
X6.1201Y-4.7028
X6.1237Y-3.1575
X6.1378Y-3.7205
X6.1447Y-3.4518
X6.1732Y-5.0591
X6.2165Y-5.0866
X6.2323Y-5.2283
X6.2756Y-4.5591
X6.2992Y-3.4094
X6.3031Y-3.315
X6.3465Y-4.7185
X6.4173Y-4.9803
X6.4213Y-5.0945
X6.4449Y-3.3268
X6.4449Y-3.3898
X6.4567Y-5.1752
X6.5197Y-4.9567
X6.5197Y-5.0512
X6.5217Y-5.1988
X6.5276Y-4.685
X6.5394Y-3.3976
X6.5394Y-4.7756
X6.5413Y-3.3327
X6.6142Y-4.8898
X6.6201Y-4.9793
X6.6417Y-5.1181
X6.7244Y-4.5906
X6.7638Y-4.9311
X6.7677Y-4.7854
X6.7848Y-5.223
X6.8202Y-4.8296
X6.8386Y-4.5472
X6.9481Y-4.5052
X6.9851Y-5.0169
X7.0189Y-4.7118
X7.0446Y-4.6686
T2
X2.9016Y-4.1535
X3.2167Y-4.0943
X3.437Y-2.7888
X3.5906Y-2.8819
T3
G00X7.0042Y-4.3816
M15
G01X6.9766Y-4.3968
M16
G05
G00X7.1447Y-4.3037
M15
G01X7.124Y-4.3151
M16
G05
G00X7.1693Y-4.6794
M15
G01X7.1417Y-4.6947
M16
G05
G00X7.3098Y-4.6015
M15
G01X7.2891Y-4.613
M16
G05
M30
