%TF.GenerationSoftware,KiCad,Pcbnew,9.0.7*%
%TF.CreationDate,2026-02-05T05:17:28-04:00*%
%TF.ProjectId,nsec-badge-2026,6e736563-2d62-4616-9467-652d32303236,rev?*%
%TF.SameCoordinates,Original*%
%TF.FileFunction,Profile,NP*%
%FSLAX46Y46*%
G04 Gerber Fmt 4.6, Leading zero omitted, Abs format (unit mm)*
G04 Created by KiCad (PCBNEW 9.0.7) date 2026-02-05 05:17:28*
%MOMM*%
%LPD*%
G01*
G04 APERTURE LIST*
%TA.AperFunction,Profile*%
%ADD10C,0.200000*%
%TD*%
%TA.AperFunction,Profile*%
%ADD11C,0.100000*%
%TD*%
G04 APERTURE END LIST*
D10*
X92400000Y-37500000D02*
G75*
G02*
X86400000Y-37500000I-3000000J0D01*
G01*
X86400000Y-37500000D02*
G75*
G02*
X92400000Y-37500000I3000000J0D01*
G01*
D11*
X127700000Y-97025000D02*
X128950000Y-97025000D01*
X128950000Y-110775000D01*
X127700000Y-110775000D01*
X127700000Y-97025000D01*
D10*
X131500000Y-37500000D02*
G75*
G02*
X125500000Y-37500000I-3000000J0D01*
G01*
X125500000Y-37500000D02*
G75*
G02*
X131500000Y-37500000I3000000J0D01*
G01*
D11*
X133932000Y-30248000D02*
X137003000Y-37962000D01*
X145050000Y-37962000D01*
X145105000Y-37933000D01*
X145473000Y-37751000D01*
X145854000Y-37583000D01*
X146247000Y-37429000D01*
X146653000Y-37288000D01*
X147069000Y-37161000D01*
X147496000Y-37046000D01*
X147933000Y-36943000D01*
X148379000Y-36853000D01*
X148835000Y-36774000D01*
X149298000Y-36706000D01*
X149769000Y-36649000D01*
X150247000Y-36602000D01*
X150732000Y-36565000D01*
X151223000Y-36538000D01*
X151719000Y-36520000D01*
X152220000Y-36510000D01*
X152725000Y-36510000D01*
X153234000Y-36517000D01*
X153746000Y-36532000D01*
X154260000Y-36554000D01*
X154777000Y-36583000D01*
X155294000Y-36618000D01*
X155812000Y-36660000D01*
X156331000Y-36707000D01*
X156849000Y-36759000D01*
X157366000Y-36817000D01*
X157881000Y-36879000D01*
X158395000Y-36945000D01*
X158905000Y-37015000D01*
X158950000Y-37024000D01*
X159030000Y-37054000D01*
X159100000Y-37100000D01*
X159159000Y-37160000D01*
X159205000Y-37230000D01*
X159235000Y-37309000D01*
X159247000Y-37395000D01*
X159249000Y-37576000D01*
X159241000Y-37781000D01*
X159224000Y-37999000D01*
X159198000Y-38227000D01*
X159164000Y-38466000D01*
X159123000Y-38715000D01*
X159073000Y-38973000D01*
X159017000Y-39239000D01*
X158953000Y-39513000D01*
X158884000Y-39793000D01*
X158809000Y-40078000D01*
X158729000Y-40368000D01*
X158643000Y-40663000D01*
X158553000Y-40961000D01*
X158459000Y-41261000D01*
X158362000Y-41562000D01*
X158261000Y-41865000D01*
X158158000Y-42167000D01*
X158052000Y-42469000D01*
X157944000Y-42769000D01*
X157835000Y-43067000D01*
X157724000Y-43361000D01*
X157613000Y-43651000D01*
X157502000Y-43937000D01*
X157391000Y-44216000D01*
X157281000Y-44489000D01*
X157171000Y-44755000D01*
X157064000Y-45013000D01*
X156958000Y-45262000D01*
X156854000Y-45501000D01*
X156754000Y-45729000D01*
X156656000Y-45946000D01*
X156562000Y-46151000D01*
X156473000Y-46343000D01*
X156388000Y-46521000D01*
X156307000Y-46684000D01*
X156232000Y-46832000D01*
X156163000Y-46964000D01*
X156101000Y-47078000D01*
X156044000Y-47175000D01*
X155923000Y-47373000D01*
X155674000Y-47759000D01*
X155417000Y-48132000D01*
X155152000Y-48490000D01*
X154878000Y-48835000D01*
X154596000Y-49166000D01*
X154306000Y-49481000D01*
X154008000Y-49781000D01*
X153701000Y-50065000D01*
X153386000Y-50332000D01*
X153063000Y-50583000D01*
X152732000Y-50816000D01*
X152393000Y-51032000D01*
X155727000Y-57110000D01*
X155830000Y-56999000D01*
X156090000Y-56740000D01*
X156365000Y-56491000D01*
X156653000Y-56251000D01*
X156954000Y-56021000D01*
X157267000Y-55799000D01*
X157589000Y-55586000D01*
X157920000Y-55380000D01*
X158258000Y-55180000D01*
X158603000Y-54987000D01*
X158953000Y-54801000D01*
X159307000Y-54619000D01*
X159663000Y-54442000D01*
X160020000Y-54270000D01*
X160377000Y-54101000D01*
X160734000Y-53935000D01*
X161087000Y-53772000D01*
X161437000Y-53611000D01*
X161783000Y-53451000D01*
X162121000Y-53293000D01*
X162453000Y-53135000D01*
X162776000Y-52977000D01*
X163089000Y-52818000D01*
X163391000Y-52658000D01*
X163680000Y-52497000D01*
X163711000Y-52481000D01*
X163792000Y-52453000D01*
X163875000Y-52444000D01*
X163957000Y-52452000D01*
X164036000Y-52478000D01*
X164109000Y-52521000D01*
X164173000Y-52579000D01*
X164206000Y-52622000D01*
X164245000Y-52700000D01*
X164267000Y-52783000D01*
X164271000Y-52869000D01*
X164256000Y-52955000D01*
X164151000Y-53302000D01*
X164010000Y-53726000D01*
X163861000Y-54140000D01*
X163703000Y-54543000D01*
X163535000Y-54936000D01*
X163359000Y-55318000D01*
X163174000Y-55689000D01*
X162981000Y-56048000D01*
X162779000Y-56395000D01*
X162568000Y-56730000D01*
X162350000Y-57052000D01*
X162123000Y-57360000D01*
X161887000Y-57656000D01*
X161644000Y-57938000D01*
X161393000Y-58206000D01*
X161134000Y-58459000D01*
X160867000Y-58698000D01*
X160593000Y-58921000D01*
X160311000Y-59129000D01*
X160022000Y-59321000D01*
X159725000Y-59497000D01*
X159421000Y-59657000D01*
X159110000Y-59800000D01*
X158792000Y-59926000D01*
X158467000Y-60034000D01*
X158135000Y-60124000D01*
X157796000Y-60196000D01*
X157450000Y-60250000D01*
X161976000Y-68501000D01*
X162034000Y-68405000D01*
X162196000Y-68154000D01*
X162365000Y-67913000D01*
X162541000Y-67683000D01*
X162722000Y-67466000D01*
X162908000Y-67262000D01*
X163097000Y-67073000D01*
X163290000Y-66900000D01*
X163485000Y-66743000D01*
X163682000Y-66604000D01*
X163880000Y-66484000D01*
X163908000Y-66470000D01*
X164008000Y-66423000D01*
X164126000Y-66376000D01*
X164263000Y-66329000D01*
X164417000Y-66282000D01*
X164587000Y-66236000D01*
X164773000Y-66190000D01*
X164973000Y-66144000D01*
X165187000Y-66099000D01*
X165413000Y-66054000D01*
X165652000Y-66010000D01*
X165901000Y-65967000D01*
X166161000Y-65925000D01*
X166430000Y-65883000D01*
X166708000Y-65843000D01*
X166993000Y-65804000D01*
X167284000Y-65766000D01*
X167582000Y-65729000D01*
X167885000Y-65694000D01*
X168191000Y-65660000D01*
X168501000Y-65628000D01*
X168814000Y-65598000D01*
X169127000Y-65569000D01*
X169442000Y-65542000D01*
X169756000Y-65517000D01*
X170069000Y-65495000D01*
X170380000Y-65474000D01*
X170689000Y-65456000D01*
X170993000Y-65440000D01*
X171293000Y-65426000D01*
X171588000Y-65415000D01*
X171876000Y-65407000D01*
X172157000Y-65401000D01*
X172430000Y-65398000D01*
X172694000Y-65398000D01*
X172949000Y-65401000D01*
X173193000Y-65407000D01*
X173425000Y-65416000D01*
X173645000Y-65428000D01*
X173851000Y-65444000D01*
X174044000Y-65463000D01*
X174221000Y-65486000D01*
X174383000Y-65512000D01*
X174528000Y-65542000D01*
X174655000Y-65576000D01*
X174710000Y-65597000D01*
X174782000Y-65642000D01*
X174843000Y-65700000D01*
X174890000Y-65769000D01*
X174921000Y-65846000D01*
X174937000Y-65929000D01*
X174934000Y-66016000D01*
X174915000Y-66139000D01*
X174870000Y-66431000D01*
X174822000Y-66728000D01*
X174770000Y-67031000D01*
X174715000Y-67338000D01*
X174656000Y-67649000D01*
X174593000Y-67964000D01*
X174526000Y-68282000D01*
X174455000Y-68602000D01*
X174379000Y-68924000D01*
X174299000Y-69247000D01*
X174215000Y-69572000D01*
X174125000Y-69897000D01*
X174031000Y-70221000D01*
X173931000Y-70545000D01*
X173826000Y-70868000D01*
X173716000Y-71189000D01*
X173600000Y-71507000D01*
X173479000Y-71823000D01*
X173351000Y-72136000D01*
X173218000Y-72445000D01*
X173078000Y-72750000D01*
X172932000Y-73050000D01*
X172780000Y-73344000D01*
X172621000Y-73633000D01*
X172455000Y-73915000D01*
X172282000Y-74190000D01*
X172102000Y-74458000D01*
X171915000Y-74718000D01*
X171720000Y-74969000D01*
X171518000Y-75212000D01*
X171308000Y-75445000D01*
X171090000Y-75667000D01*
X170865000Y-75880000D01*
X170631000Y-76081000D01*
X170388000Y-76271000D01*
X170138000Y-76448000D01*
X169878000Y-76613000D01*
X169610000Y-76765000D01*
X169333000Y-76903000D01*
X169047000Y-77027000D01*
X168751000Y-77136000D01*
X168446000Y-77230000D01*
X168132000Y-77308000D01*
X167808000Y-77370000D01*
X167474000Y-77415000D01*
X167390000Y-77424000D01*
X167133000Y-77448000D01*
X166893000Y-77464000D01*
X172141000Y-87033000D01*
X172185000Y-86974000D01*
X172341000Y-86774000D01*
X172499000Y-86588000D01*
X172661000Y-86416000D01*
X172824000Y-86260000D01*
X172989000Y-86120000D01*
X173156000Y-85999000D01*
X173323000Y-85896000D01*
X173351000Y-85880000D01*
X173452000Y-85834000D01*
X173570000Y-85787000D01*
X173707000Y-85740000D01*
X173861000Y-85694000D01*
X174032000Y-85647000D01*
X174217000Y-85601000D01*
X174418000Y-85556000D01*
X174631000Y-85511000D01*
X174858000Y-85466000D01*
X175097000Y-85422000D01*
X175346000Y-85379000D01*
X175606000Y-85337000D01*
X175875000Y-85296000D01*
X176152000Y-85256000D01*
X176437000Y-85217000D01*
X176729000Y-85179000D01*
X177027000Y-85142000D01*
X177329000Y-85107000D01*
X177636000Y-85074000D01*
X177946000Y-85042000D01*
X178258000Y-85012000D01*
X178572000Y-84983000D01*
X178886000Y-84957000D01*
X179200000Y-84932000D01*
X179513000Y-84909000D01*
X179824000Y-84889000D01*
X180133000Y-84871000D01*
X180437000Y-84855000D01*
X180737000Y-84841000D01*
X181032000Y-84831000D01*
X181320000Y-84822000D01*
X181601000Y-84817000D01*
X181874000Y-84814000D01*
X182138000Y-84814000D01*
X182392000Y-84817000D01*
X182636000Y-84823000D01*
X182868000Y-84832000D01*
X183088000Y-84845000D01*
X183294000Y-84861000D01*
X183487000Y-84880000D01*
X183664000Y-84903000D01*
X183826000Y-84929000D01*
X183970000Y-84959000D01*
X184098000Y-84993000D01*
X184148000Y-85012000D01*
X184221000Y-85056000D01*
X184281000Y-85113000D01*
X184328000Y-85181000D01*
X184359000Y-85258000D01*
X184374000Y-85340000D01*
X184371000Y-85427000D01*
X184336000Y-85660000D01*
X184289000Y-85960000D01*
X184238000Y-86267000D01*
X184184000Y-86578000D01*
X184126000Y-86894000D01*
X184064000Y-87214000D01*
X183997000Y-87538000D01*
X183927000Y-87864000D01*
X183852000Y-88192000D01*
X183772000Y-88523000D01*
X183688000Y-88854000D01*
X183598000Y-89186000D01*
X183503000Y-89518000D01*
X183404000Y-89850000D01*
X183298000Y-90180000D01*
X183187000Y-90509000D01*
X183070000Y-90836000D01*
X182948000Y-91160000D01*
X182819000Y-91480000D01*
X182684000Y-91797000D01*
X182542000Y-92110000D01*
X182394000Y-92417000D01*
X182239000Y-92719000D01*
X182077000Y-93015000D01*
X181908000Y-93304000D01*
X181732000Y-93586000D01*
X181549000Y-93861000D01*
X181357000Y-94127000D01*
X181158000Y-94384000D01*
X180951000Y-94632000D01*
X180737000Y-94870000D01*
X180513000Y-95097000D01*
X180282000Y-95313000D01*
X180042000Y-95518000D01*
X179793000Y-95710000D01*
X179535000Y-95890000D01*
X179268000Y-96056000D01*
X178992000Y-96209000D01*
X178706000Y-96347000D01*
X178411000Y-96470000D01*
X178107000Y-96578000D01*
X177792000Y-96669000D01*
X177467000Y-96744000D01*
X189180000Y-118095000D01*
X149004000Y-159071000D01*
X148461000Y-159075000D01*
X148461000Y-168650000D01*
X147961000Y-169150000D01*
X134421000Y-169150000D01*
X133921000Y-168650000D01*
X133921000Y-160775000D01*
X132011000Y-160775000D01*
X132021000Y-168650000D01*
X131521000Y-169150000D01*
X69721000Y-169150000D01*
X69221000Y-168650000D01*
X69211000Y-159071000D01*
X68662000Y-159071000D01*
X29345000Y-118095000D01*
X40916000Y-96583000D01*
X40661000Y-96507000D01*
X40352000Y-96398000D01*
X40052000Y-96272000D01*
X39762000Y-96131000D01*
X39482000Y-95975000D01*
X39211000Y-95805000D01*
X38950000Y-95621000D01*
X38698000Y-95424000D01*
X38454000Y-95214000D01*
X38220000Y-94992000D01*
X37994000Y-94759000D01*
X37777000Y-94515000D01*
X37569000Y-94261000D01*
X37368000Y-93998000D01*
X37175000Y-93725000D01*
X36990000Y-93444000D01*
X36813000Y-93155000D01*
X36643000Y-92859000D01*
X36481000Y-92556000D01*
X36325000Y-92247000D01*
X36177000Y-91932000D01*
X36035000Y-91613000D01*
X35900000Y-91289000D01*
X35771000Y-90961000D01*
X35649000Y-90631000D01*
X35533000Y-90297000D01*
X35422000Y-89962000D01*
X35318000Y-89625000D01*
X35219000Y-89288000D01*
X35125000Y-88950000D01*
X35036000Y-88613000D01*
X34953000Y-88276000D01*
X34875000Y-87941000D01*
X34801000Y-87608000D01*
X34731000Y-87278000D01*
X34667000Y-86951000D01*
X34606000Y-86628000D01*
X34549000Y-86309000D01*
X34496000Y-85995000D01*
X34447000Y-85687000D01*
X34401000Y-85386000D01*
X34359000Y-85091000D01*
X34403000Y-85045000D01*
X34467000Y-85002000D01*
X34550000Y-84962000D01*
X34650000Y-84925000D01*
X34766000Y-84892000D01*
X34899000Y-84863000D01*
X35047000Y-84837000D01*
X35209000Y-84814000D01*
X35385000Y-84794000D01*
X35575000Y-84778000D01*
X35776000Y-84765000D01*
X35989000Y-84754000D01*
X36213000Y-84747000D01*
X36447000Y-84742000D01*
X36690000Y-84740000D01*
X36942000Y-84740000D01*
X37202000Y-84744000D01*
X37469000Y-84749000D01*
X37742000Y-84758000D01*
X38021000Y-84768000D01*
X38305000Y-84781000D01*
X38593000Y-84796000D01*
X38884000Y-84813000D01*
X39178000Y-84832000D01*
X39474000Y-84853000D01*
X39772000Y-84876000D01*
X40070000Y-84900000D01*
X40367000Y-84927000D01*
X40664000Y-84955000D01*
X40959000Y-84985000D01*
X41251000Y-85016000D01*
X41540000Y-85048000D01*
X41825000Y-85082000D01*
X42106000Y-85117000D01*
X42381000Y-85153000D01*
X42650000Y-85191000D01*
X42912000Y-85229000D01*
X43167000Y-85268000D01*
X43413000Y-85308000D01*
X43650000Y-85349000D01*
X43877000Y-85391000D01*
X44094000Y-85433000D01*
X44300000Y-85476000D01*
X44493000Y-85519000D01*
X44673000Y-85562000D01*
X44840000Y-85606000D01*
X44993000Y-85650000D01*
X45131000Y-85695000D01*
X45253000Y-85739000D01*
X45358000Y-85783000D01*
X45447000Y-85828000D01*
X45470000Y-85841000D01*
X45640000Y-85948000D01*
X45809000Y-86074000D01*
X45977000Y-86217000D01*
X46143000Y-86378000D01*
X46306000Y-86555000D01*
X51261000Y-77342000D01*
X51191000Y-77334000D01*
X50860000Y-77283000D01*
X50538000Y-77216000D01*
X50227000Y-77133000D01*
X49924000Y-77034000D01*
X49632000Y-76920000D01*
X49348000Y-76791000D01*
X49073000Y-76649000D01*
X48807000Y-76493000D01*
X48551000Y-76323000D01*
X48302000Y-76142000D01*
X48062000Y-75948000D01*
X47831000Y-75743000D01*
X47607000Y-75526000D01*
X47392000Y-75300000D01*
X47184000Y-75064000D01*
X46984000Y-74818000D01*
X46792000Y-74563000D01*
X46607000Y-74300000D01*
X46429000Y-74029000D01*
X46258000Y-73751000D01*
X46094000Y-73466000D01*
X45937000Y-73175000D01*
X45787000Y-72879000D01*
X45643000Y-72577000D01*
X45505000Y-72270000D01*
X45373000Y-71959000D01*
X45248000Y-71645000D01*
X45128000Y-71328000D01*
X45014000Y-71008000D01*
X44905000Y-70685000D01*
X44802000Y-70362000D01*
X44704000Y-70037000D01*
X44612000Y-69712000D01*
X44524000Y-69387000D01*
X44440000Y-69062000D01*
X44362000Y-68739000D01*
X44288000Y-68417000D01*
X44218000Y-68097000D01*
X44152000Y-67780000D01*
X44091000Y-67466000D01*
X44033000Y-67156000D01*
X43979000Y-66850000D01*
X43928000Y-66549000D01*
X43881000Y-66253000D01*
X43837000Y-65962000D01*
X43796000Y-65679000D01*
X43840000Y-65633000D01*
X43904000Y-65590000D01*
X43987000Y-65550000D01*
X44087000Y-65513000D01*
X44204000Y-65480000D01*
X44337000Y-65451000D01*
X44485000Y-65425000D01*
X44647000Y-65402000D01*
X44823000Y-65382000D01*
X45013000Y-65366000D01*
X45214000Y-65352000D01*
X45427000Y-65342000D01*
X45651000Y-65334000D01*
X45885000Y-65329000D01*
X46129000Y-65327000D01*
X46381000Y-65327000D01*
X46640000Y-65330000D01*
X46907000Y-65336000D01*
X47181000Y-65344000D01*
X47460000Y-65354000D01*
X47744000Y-65367000D01*
X48032000Y-65382000D01*
X48323000Y-65399000D01*
X48618000Y-65418000D01*
X48914000Y-65438000D01*
X49211000Y-65461000D01*
X49509000Y-65486000D01*
X49807000Y-65512000D01*
X50104000Y-65540000D01*
X50398000Y-65569000D01*
X50691000Y-65600000D01*
X50980000Y-65632000D01*
X51266000Y-65666000D01*
X51546000Y-65701000D01*
X51822000Y-65737000D01*
X52091000Y-65774000D01*
X52353000Y-65812000D01*
X52608000Y-65852000D01*
X52854000Y-65892000D01*
X53091000Y-65932000D01*
X53319000Y-65974000D01*
X53535000Y-66016000D01*
X53741000Y-66059000D01*
X53934000Y-66102000D01*
X54115000Y-66145000D01*
X54282000Y-66189000D01*
X54435000Y-66233000D01*
X54573000Y-66278000D01*
X54695000Y-66322000D01*
X54801000Y-66366000D01*
X54889000Y-66411000D01*
X55076000Y-66523000D01*
X55271000Y-66660000D01*
X55465000Y-66815000D01*
X55656000Y-66987000D01*
X55844000Y-67174000D01*
X56028000Y-67376000D01*
X56208000Y-67590000D01*
X56383000Y-67817000D01*
X60626000Y-59927000D01*
X60399000Y-59898000D01*
X60057000Y-59838000D01*
X59722000Y-59760000D01*
X59393000Y-59663000D01*
X59071000Y-59549000D01*
X58756000Y-59418000D01*
X58449000Y-59270000D01*
X58148000Y-59105000D01*
X57855000Y-58924000D01*
X57569000Y-58726000D01*
X57290000Y-58514000D01*
X57019000Y-58286000D01*
X56756000Y-58043000D01*
X56500000Y-57785000D01*
X56252000Y-57514000D01*
X56012000Y-57228000D01*
X55780000Y-56929000D01*
X55557000Y-56617000D01*
X55341000Y-56292000D01*
X55134000Y-55954000D01*
X54935000Y-55604000D01*
X54745000Y-55242000D01*
X54563000Y-54869000D01*
X54390000Y-54485000D01*
X54226000Y-54090000D01*
X54071000Y-53684000D01*
X53924000Y-53269000D01*
X53787000Y-52843000D01*
X53659000Y-52408000D01*
X54020000Y-51998000D01*
X54230000Y-52125000D01*
X54515000Y-52286000D01*
X54812000Y-52445000D01*
X55120000Y-52603000D01*
X55439000Y-52760000D01*
X55766000Y-52917000D01*
X56101000Y-53074000D01*
X56442000Y-53232000D01*
X56789000Y-53392000D01*
X57139000Y-53553000D01*
X57493000Y-53717000D01*
X57848000Y-53884000D01*
X58203000Y-54054000D01*
X58557000Y-54228000D01*
X58909000Y-54407000D01*
X59258000Y-54591000D01*
X59602000Y-54780000D01*
X59941000Y-54976000D01*
X60273000Y-55178000D01*
X60596000Y-55388000D01*
X60910000Y-55605000D01*
X61213000Y-55831000D01*
X61505000Y-56065000D01*
X61783000Y-56309000D01*
X62047000Y-56563000D01*
X62296000Y-56827000D01*
X65698000Y-50500000D01*
X65642000Y-50458000D01*
X65311000Y-50196000D01*
X64989000Y-49917000D01*
X64675000Y-49621000D01*
X64370000Y-49308000D01*
X64074000Y-48979000D01*
X63787000Y-48635000D01*
X63508000Y-48274000D01*
X63238000Y-47899000D01*
X62977000Y-47510000D01*
X62725000Y-47106000D01*
X62676000Y-47021000D01*
X62613000Y-46909000D01*
X62545000Y-46779000D01*
X62471000Y-46633000D01*
X62391000Y-46471000D01*
X62307000Y-46295000D01*
X62217000Y-46104000D01*
X62124000Y-45901000D01*
X62027000Y-45685000D01*
X61927000Y-45458000D01*
X61824000Y-45220000D01*
X61718000Y-44973000D01*
X61611000Y-44716000D01*
X61502000Y-44451000D01*
X61392000Y-44178000D01*
X61281000Y-43899000D01*
X61170000Y-43615000D01*
X61059000Y-43325000D01*
X60948000Y-43031000D01*
X60839000Y-42734000D01*
X60731000Y-42434000D01*
X60625000Y-42132000D01*
X60521000Y-41830000D01*
X60420000Y-41527000D01*
X60322000Y-41225000D01*
X60228000Y-40925000D01*
X60138000Y-40627000D01*
X60052000Y-40332000D01*
X59971000Y-40041000D01*
X59895000Y-39755000D01*
X59825000Y-39475000D01*
X59761000Y-39201000D01*
X59704000Y-38934000D01*
X59654000Y-38675000D01*
X59611000Y-38425000D01*
X59576000Y-38184000D01*
X59550000Y-37954000D01*
X59532000Y-37736000D01*
X59523000Y-37529000D01*
X59524000Y-37336000D01*
X59535000Y-37156000D01*
X59557000Y-36990000D01*
X59721000Y-36967000D01*
X60227000Y-36896000D01*
X60736000Y-36829000D01*
X61247000Y-36767000D01*
X61761000Y-36708000D01*
X62275000Y-36654000D01*
X62790000Y-36606000D01*
X63305000Y-36562000D01*
X63819000Y-36525000D01*
X64333000Y-36494000D01*
X64844000Y-36469000D01*
X65354000Y-36452000D01*
X65860000Y-36442000D01*
X66364000Y-36440000D01*
X66863000Y-36446000D01*
X67358000Y-36460000D01*
X67847000Y-36483000D01*
X68332000Y-36516000D01*
X68809000Y-36558000D01*
X69280000Y-36611000D01*
X69744000Y-36674000D01*
X70200000Y-36748000D01*
X70647000Y-36832000D01*
X71085000Y-36929000D01*
X71514000Y-37038000D01*
X71932000Y-37158000D01*
X72340000Y-37292000D01*
X72736000Y-37439000D01*
X73121000Y-37599000D01*
X73493000Y-37773000D01*
X73852000Y-37962000D01*
X80804000Y-37962000D01*
X83967000Y-30082000D01*
X83972000Y-30082000D01*
X109263000Y-30082000D01*
X133932000Y-30248000D01*
M02*
