%TF.GenerationSoftware,KiCad,Pcbnew,9.0.7*%
%TF.CreationDate,2026-02-05T05:17:28-04:00*%
%TF.ProjectId,nsec-badge-2026,6e736563-2d62-4616-9467-652d32303236,rev?*%
%TF.SameCoordinates,Original*%
%TF.FileFunction,Soldermask,Top*%
%TF.FilePolarity,Negative*%
%FSLAX46Y46*%
G04 Gerber Fmt 4.6, Leading zero omitted, Abs format (unit mm)*
G04 Created by KiCad (PCBNEW 9.0.7) date 2026-02-05 05:17:28*
%MOMM*%
%LPD*%
G01*
G04 APERTURE LIST*
G04 Aperture macros list*
%AMHorizOval*
0 Thick line with rounded ends*
0 $1 width*
0 $2 $3 position (X,Y) of the first rounded end (center of the circle)*
0 $4 $5 position (X,Y) of the second rounded end (center of the circle)*
0 Add line between two ends*
20,1,$1,$2,$3,$4,$5,0*
0 Add two circle primitives to create the rounded ends*
1,1,$1,$2,$3*
1,1,$1,$4,$5*%
G04 Aperture macros list end*
%ADD10C,0.000000*%
%ADD11R,1.000000X0.750013*%
%ADD12R,1.019990X2.400000*%
%ADD13O,0.900000X0.391999*%
%ADD14O,1.000000X0.391999*%
%ADD15R,1.020000X4.570000*%
%ADD16R,0.510000X0.760000*%
%ADD17HorizOval,1.200000X-0.349848X-0.193924X0.349848X0.193924X0*%
%ADD18HorizOval,1.200000X-0.262386X-0.145443X0.262386X0.145443X0*%
G04 APERTURE END LIST*
D10*
%TO.C,*%
G36*
X67037000Y-121251000D02*
G01*
X67615000Y-121450000D01*
X67619000Y-121452000D01*
X68124000Y-121785000D01*
X68519000Y-122224000D01*
X68788000Y-122751000D01*
X68832000Y-122892000D01*
X68919000Y-123473000D01*
X68860000Y-124038000D01*
X68670000Y-124565000D01*
X68361000Y-125031000D01*
X67950000Y-125413000D01*
X67448000Y-125688000D01*
X67064000Y-125802000D01*
X66702000Y-125840000D01*
X66312000Y-125828000D01*
X66136000Y-125801000D01*
X65579000Y-125608000D01*
X65092000Y-125288000D01*
X64700000Y-124864000D01*
X64427000Y-124359000D01*
X64356000Y-124139000D01*
X64277000Y-123553000D01*
X64341000Y-122988000D01*
X64535000Y-122466000D01*
X64842000Y-122008000D01*
X65249000Y-121634000D01*
X65740000Y-121365000D01*
X66301000Y-121222000D01*
X66445000Y-121208000D01*
X67037000Y-121251000D01*
G37*
G36*
X45924000Y-110487000D02*
G01*
X46461000Y-110622000D01*
X46955000Y-110880000D01*
X47380000Y-111253000D01*
X47709000Y-111734000D01*
X47909000Y-112288000D01*
X47961000Y-112859000D01*
X47871000Y-113422000D01*
X47646000Y-113949000D01*
X47291000Y-114417000D01*
X47015000Y-114660000D01*
X46643000Y-114879000D01*
X46218000Y-115036000D01*
X45907000Y-115092000D01*
X45749000Y-115105000D01*
X45695000Y-115110000D01*
X45574000Y-115109000D01*
X45455000Y-115101000D01*
X44863000Y-114973000D01*
X44328000Y-114699000D01*
X43945000Y-114370000D01*
X43589000Y-113884000D01*
X43377000Y-113331000D01*
X43326000Y-113018000D01*
X43344000Y-112422000D01*
X43511000Y-111859000D01*
X43814000Y-111353000D01*
X44242000Y-110931000D01*
X44315000Y-110877000D01*
X44825000Y-110608000D01*
X45370000Y-110480000D01*
X45924000Y-110487000D01*
G37*
G36*
X173063000Y-110095000D02*
G01*
X173396000Y-110159000D01*
X173485000Y-110186000D01*
X174030000Y-110439000D01*
X174485000Y-110812000D01*
X174831000Y-111284000D01*
X175044000Y-111820000D01*
X175115000Y-112402000D01*
X175040000Y-112970000D01*
X174832000Y-113498000D01*
X174505000Y-113961000D01*
X174072000Y-114335000D01*
X173547000Y-114596000D01*
X173529000Y-114602000D01*
X173078000Y-114701000D01*
X172619000Y-114715000D01*
X172485000Y-114700000D01*
X171881000Y-114529000D01*
X171359000Y-114222000D01*
X171095000Y-113980000D01*
X170751000Y-113509000D01*
X170545000Y-112990000D01*
X170471000Y-112447000D01*
X170527000Y-111905000D01*
X170705000Y-111389000D01*
X171002000Y-110922000D01*
X171414000Y-110530000D01*
X171815000Y-110290000D01*
X172214000Y-110145000D01*
X172653000Y-110088000D01*
X172679000Y-110087000D01*
X173063000Y-110095000D01*
G37*
G36*
X142510000Y-153616000D02*
G01*
X143043000Y-153826000D01*
X143500000Y-154153000D01*
X143864000Y-154580000D01*
X144116000Y-155087000D01*
X144237000Y-155655000D01*
X144245000Y-155850000D01*
X144168000Y-156452000D01*
X143939000Y-157006000D01*
X143784000Y-157241000D01*
X143369000Y-157672000D01*
X142868000Y-157983000D01*
X142425000Y-158132000D01*
X142198000Y-158162000D01*
X141911000Y-158174000D01*
X141648000Y-158167000D01*
X141545000Y-158154000D01*
X140946000Y-157961000D01*
X140437000Y-157641000D01*
X140031000Y-157207000D01*
X139742000Y-156669000D01*
X139735000Y-156650000D01*
X139621000Y-156157000D01*
X139616000Y-155621000D01*
X139718000Y-155123000D01*
X139982000Y-154586000D01*
X140367000Y-154136000D01*
X140851000Y-153797000D01*
X141275000Y-153625000D01*
X141569000Y-153561000D01*
X141905000Y-153542000D01*
X141922000Y-153542000D01*
X142510000Y-153616000D01*
G37*
G36*
X153121000Y-121974000D02*
G01*
X153661000Y-122211000D01*
X154128000Y-122579000D01*
X154493000Y-123052000D01*
X154516000Y-123092000D01*
X154726000Y-123626000D01*
X154796000Y-124199000D01*
X154724000Y-124774000D01*
X154512000Y-125316000D01*
X154481000Y-125372000D01*
X154283000Y-125659000D01*
X154063000Y-125892000D01*
X153579000Y-126249000D01*
X153024000Y-126463000D01*
X152878000Y-126493000D01*
X152599000Y-126517000D01*
X152275000Y-126513000D01*
X152058000Y-126490000D01*
X151500000Y-126311000D01*
X151003000Y-125997000D01*
X150596000Y-125571000D01*
X150381000Y-125218000D01*
X150189000Y-124651000D01*
X150152000Y-124063000D01*
X150270000Y-123473000D01*
X150344000Y-123279000D01*
X150635000Y-122793000D01*
X151046000Y-122380000D01*
X151538000Y-122077000D01*
X151544000Y-122074000D01*
X152090000Y-121912000D01*
X152672000Y-121891000D01*
X153121000Y-121974000D01*
G37*
G36*
X77344000Y-153233000D02*
G01*
X77904000Y-153399000D01*
X78403000Y-153694000D01*
X78815000Y-154096000D01*
X79111000Y-154582000D01*
X79146000Y-154667000D01*
X79238000Y-154941000D01*
X79282000Y-155193000D01*
X79293000Y-155511000D01*
X79293000Y-155532000D01*
X79290000Y-155771000D01*
X79277000Y-155923000D01*
X79247000Y-156060000D01*
X79241000Y-156082000D01*
X79009000Y-156656000D01*
X78646000Y-157143000D01*
X78616000Y-157173000D01*
X78139000Y-157542000D01*
X77596000Y-157770000D01*
X77007000Y-157850000D01*
X76795000Y-157842000D01*
X76219000Y-157717000D01*
X75702000Y-157458000D01*
X75266000Y-157086000D01*
X74932000Y-156619000D01*
X74722000Y-156079000D01*
X74685000Y-155895000D01*
X74666000Y-155648000D01*
X74668000Y-155359000D01*
X74684000Y-155176000D01*
X74850000Y-154608000D01*
X75141000Y-154114000D01*
X75537000Y-153712000D01*
X76014000Y-153416000D01*
X76552000Y-153243000D01*
X77129000Y-153208000D01*
X77344000Y-153233000D01*
G37*
G36*
X48192000Y-114037000D02*
G01*
X49257000Y-115034000D01*
X50298000Y-116004000D01*
X51307000Y-116939000D01*
X52276000Y-117832000D01*
X53196000Y-118676000D01*
X54059000Y-119461000D01*
X54855000Y-120180000D01*
X55576000Y-120826000D01*
X56213000Y-121391000D01*
X56758000Y-121866000D01*
X57203000Y-122244000D01*
X57455000Y-122451000D01*
X57735000Y-122672000D01*
X57953000Y-122821000D01*
X58153000Y-122914000D01*
X58381000Y-122963000D01*
X58680000Y-122986000D01*
X59089000Y-122996000D01*
X59395000Y-122999000D01*
X59693000Y-122998000D01*
X60008000Y-122991000D01*
X60361000Y-122976000D01*
X60777000Y-122952000D01*
X61279000Y-122920000D01*
X61890000Y-122876000D01*
X62633000Y-122820000D01*
X62771000Y-122809000D01*
X63191000Y-122778000D01*
X63550000Y-122752000D01*
X63820000Y-122734000D01*
X63972000Y-122726000D01*
X63996000Y-122726000D01*
X63988000Y-122801000D01*
X63965000Y-122904000D01*
X63896000Y-123410000D01*
X63905000Y-123757000D01*
X63928000Y-123944000D01*
X63946000Y-124047000D01*
X63965000Y-124123000D01*
X63965000Y-124124000D01*
X63896000Y-124137000D01*
X63740000Y-124150000D01*
X63576000Y-124161000D01*
X63291000Y-124182000D01*
X62924000Y-124209000D01*
X62514000Y-124239000D01*
X62475000Y-124242000D01*
X61599000Y-124306000D01*
X60861000Y-124356000D01*
X60240000Y-124390000D01*
X59716000Y-124412000D01*
X59268000Y-124420000D01*
X58874000Y-124417000D01*
X58515000Y-124403000D01*
X58465000Y-124400000D01*
X57929000Y-124344000D01*
X57496000Y-124250000D01*
X57261000Y-124160000D01*
X56962000Y-123978000D01*
X56555000Y-123679000D01*
X56040000Y-123263000D01*
X55420000Y-122731000D01*
X54693000Y-122083000D01*
X53862000Y-121321000D01*
X52925000Y-120445000D01*
X51885000Y-119454000D01*
X50741000Y-118351000D01*
X49495000Y-117135000D01*
X48695000Y-116349000D01*
X48331000Y-115990000D01*
X48001000Y-115663000D01*
X47723000Y-115389000D01*
X47517000Y-115185000D01*
X47401000Y-115069000D01*
X47387000Y-115055000D01*
X47279000Y-114944000D01*
X47485000Y-114748000D01*
X47889000Y-114281000D01*
X48009000Y-114087000D01*
X48089000Y-113940000D01*
X48192000Y-114037000D01*
G37*
G36*
X76350000Y-50062000D02*
G01*
X77431000Y-50335000D01*
X78396000Y-50649000D01*
X79232000Y-50998000D01*
X79929000Y-51379000D01*
X80357000Y-51684000D01*
X80562000Y-51872000D01*
X80763000Y-52087000D01*
X80900000Y-52265000D01*
X80902000Y-52269000D01*
X81073000Y-52680000D01*
X81083000Y-53082000D01*
X80934000Y-53482000D01*
X80862000Y-53597000D01*
X80759000Y-53726000D01*
X80556000Y-53964000D01*
X80258000Y-54304000D01*
X79872000Y-54737000D01*
X79554000Y-55091000D01*
X78398000Y-56351000D01*
X77320000Y-57478000D01*
X76320000Y-58470000D01*
X75399000Y-59327000D01*
X74556000Y-60049000D01*
X73794000Y-60636000D01*
X73111000Y-61086000D01*
X72510000Y-61400000D01*
X71989000Y-61577000D01*
X71955000Y-61584000D01*
X71630000Y-61618000D01*
X71315000Y-61571000D01*
X71140000Y-61530000D01*
X70865000Y-61469000D01*
X70545000Y-61400000D01*
X70505000Y-61391000D01*
X69913000Y-61260000D01*
X69432000Y-61146000D01*
X69019000Y-61037000D01*
X68626000Y-60921000D01*
X68335000Y-60828000D01*
X67485000Y-60530000D01*
X66582000Y-60171000D01*
X65602000Y-59742000D01*
X64523000Y-59234000D01*
X64145000Y-59049000D01*
X63395000Y-58679000D01*
X63328000Y-58496000D01*
X62991000Y-57780000D01*
X62516000Y-57083000D01*
X62434000Y-56982000D01*
X62292000Y-56811000D01*
X63983000Y-53668000D01*
X64334000Y-53017000D01*
X64660000Y-52412000D01*
X64955000Y-51865000D01*
X65211000Y-51392000D01*
X65419000Y-51006000D01*
X65573000Y-50722000D01*
X65665000Y-50554000D01*
X65688000Y-50512000D01*
X65754000Y-50544000D01*
X65895000Y-50637000D01*
X65898000Y-50638000D01*
X66837000Y-51207000D01*
X67832000Y-51627000D01*
X68894000Y-51904000D01*
X69315000Y-51973000D01*
X69595000Y-51999000D01*
X69964000Y-52017000D01*
X70349000Y-52025000D01*
X70678000Y-52020000D01*
X70711000Y-52018000D01*
X71739000Y-51903000D01*
X72788000Y-51668000D01*
X72803000Y-51663000D01*
X73096000Y-51573000D01*
X73354000Y-51471000D01*
X73626000Y-51335000D01*
X73965000Y-51140000D01*
X74095000Y-51062000D01*
X74348000Y-50909000D01*
X74654000Y-50723000D01*
X74846000Y-50606000D01*
X75291000Y-50348000D01*
X75661000Y-50155000D01*
X75930000Y-50043000D01*
X76065000Y-49999000D01*
X76350000Y-50062000D01*
G37*
G36*
X170685000Y-114087000D02*
G01*
X171160000Y-114548000D01*
X171424000Y-114726000D01*
X171540000Y-114801000D01*
X171568000Y-114828000D01*
X171510000Y-114887000D01*
X171345000Y-115049000D01*
X171079000Y-115306000D01*
X170722000Y-115649000D01*
X170280000Y-116072000D01*
X169764000Y-116565000D01*
X169180000Y-117122000D01*
X168664000Y-117613000D01*
X167513000Y-118706000D01*
X166450000Y-119712000D01*
X165479000Y-120625000D01*
X164603000Y-121445000D01*
X163824000Y-122167000D01*
X163148000Y-122788000D01*
X162576000Y-123306000D01*
X162111000Y-123718000D01*
X161775000Y-124006000D01*
X161531000Y-124197000D01*
X161321000Y-124313000D01*
X161083000Y-124382000D01*
X160750000Y-124430000D01*
X160742000Y-124431000D01*
X160504000Y-124451000D01*
X160166000Y-124470000D01*
X159785000Y-124485000D01*
X159422000Y-124495000D01*
X159135000Y-124498000D01*
X159105000Y-124497000D01*
X158875000Y-124493000D01*
X158611000Y-124489000D01*
X158605000Y-124489000D01*
X158369000Y-124484000D01*
X158021000Y-124476000D01*
X157597000Y-124466000D01*
X157132000Y-124455000D01*
X156662000Y-124443000D01*
X156222000Y-124431000D01*
X155848000Y-124421000D01*
X155575000Y-124413000D01*
X155468000Y-124410000D01*
X155161000Y-124398000D01*
X155170000Y-124315000D01*
X155169000Y-124094000D01*
X155138000Y-123804000D01*
X155085000Y-123532000D01*
X155084000Y-123530000D01*
X155042000Y-123363000D01*
X155025000Y-123287000D01*
X155098000Y-123283000D01*
X155293000Y-123284000D01*
X155570000Y-123288000D01*
X155630000Y-123289000D01*
X156326000Y-123305000D01*
X156885000Y-123317000D01*
X157329000Y-123325000D01*
X157682000Y-123330000D01*
X157965000Y-123332000D01*
X158201000Y-123331000D01*
X158413000Y-123328000D01*
X158594000Y-123323000D01*
X159140000Y-123300000D01*
X159565000Y-123269000D01*
X159909000Y-123224000D01*
X160210000Y-123163000D01*
X160225000Y-123159000D01*
X160385000Y-123116000D01*
X160519000Y-123062000D01*
X160659000Y-122976000D01*
X160835000Y-122837000D01*
X161078000Y-122625000D01*
X161285000Y-122439000D01*
X161445000Y-122294000D01*
X161713000Y-122052000D01*
X162077000Y-121723000D01*
X162527000Y-121316000D01*
X163051000Y-120842000D01*
X163638000Y-120311000D01*
X164278000Y-119733000D01*
X164959000Y-119118000D01*
X165669000Y-118475000D01*
X166255000Y-117945000D01*
X170615000Y-114002000D01*
X170685000Y-114087000D01*
G37*
G36*
X64457000Y-60017000D02*
G01*
X65795000Y-60472000D01*
X67008000Y-60897000D01*
X68092000Y-61292000D01*
X69044000Y-61653000D01*
X69861000Y-61981000D01*
X70539000Y-62273000D01*
X71073000Y-62528000D01*
X71461000Y-62745000D01*
X71699000Y-62922000D01*
X71731000Y-62956000D01*
X71744000Y-62980000D01*
X71731000Y-63023000D01*
X71676000Y-63111000D01*
X71562000Y-63268000D01*
X71372000Y-63522000D01*
X71309000Y-63605000D01*
X70245000Y-65045000D01*
X69232000Y-66473000D01*
X68280000Y-67873000D01*
X67399000Y-69230000D01*
X66598000Y-70530000D01*
X65887000Y-71757000D01*
X65275000Y-72897000D01*
X64948000Y-73558000D01*
X64494000Y-74568000D01*
X64150000Y-75474000D01*
X63912000Y-76285000D01*
X63777000Y-77009000D01*
X63760000Y-77167000D01*
X63737000Y-77422000D01*
X63666000Y-77421000D01*
X63542000Y-77402000D01*
X63375000Y-77363000D01*
X62868000Y-77217000D01*
X62234000Y-77013000D01*
X61493000Y-76759000D01*
X60664000Y-76463000D01*
X59766000Y-76132000D01*
X58820000Y-75774000D01*
X57844000Y-75396000D01*
X56858000Y-75007000D01*
X55881000Y-74614000D01*
X54932000Y-74225000D01*
X54032000Y-73847000D01*
X53199000Y-73488000D01*
X52453000Y-73156000D01*
X51813000Y-72857000D01*
X51299000Y-72601000D01*
X51197000Y-72548000D01*
X50972000Y-72421000D01*
X50773000Y-72302000D01*
X50642000Y-72216000D01*
X50613000Y-72187000D01*
X50689000Y-72207000D01*
X50903000Y-72266000D01*
X51239000Y-72361000D01*
X51681000Y-72486000D01*
X52215000Y-72638000D01*
X52822000Y-72811000D01*
X53489000Y-73001000D01*
X53908000Y-73121000D01*
X57195000Y-74062000D01*
X57248000Y-73998000D01*
X57492000Y-73616000D01*
X57692000Y-73137000D01*
X57816000Y-72652000D01*
X57844000Y-72398000D01*
X57859000Y-72061000D01*
X57860000Y-71718000D01*
X57847000Y-71478000D01*
X57687000Y-70564000D01*
X57391000Y-69636000D01*
X56975000Y-68732000D01*
X56517000Y-67983000D01*
X56386000Y-67794000D01*
X56467000Y-67643000D01*
X56519000Y-67545000D01*
X56640000Y-67321000D01*
X56822000Y-66982000D01*
X57058000Y-66543000D01*
X57341000Y-66018000D01*
X57663000Y-65419000D01*
X58017000Y-64761000D01*
X58396000Y-64057000D01*
X58581000Y-63712000D01*
X60615000Y-59932000D01*
X61135000Y-59939000D01*
X61744000Y-59930000D01*
X62288000Y-59880000D01*
X62852000Y-59779000D01*
X63157000Y-59709000D01*
X63379000Y-59655000D01*
X64457000Y-60017000D01*
G37*
G36*
X142902000Y-50148000D02*
G01*
X143178000Y-50275000D01*
X143554000Y-50479000D01*
X144042000Y-50767000D01*
X144260000Y-50900000D01*
X144685000Y-51159000D01*
X145006000Y-51348000D01*
X145251000Y-51482000D01*
X145452000Y-51576000D01*
X145638000Y-51648000D01*
X145781000Y-51694000D01*
X146907000Y-51964000D01*
X148028000Y-52090000D01*
X149123000Y-52072000D01*
X150175000Y-51908000D01*
X150335000Y-51869000D01*
X151092000Y-51629000D01*
X151835000Y-51309000D01*
X152232000Y-51098000D01*
X152350000Y-51040000D01*
X152384000Y-51035000D01*
X152424000Y-51106000D01*
X152534000Y-51304000D01*
X152704000Y-51613000D01*
X152927000Y-52018000D01*
X153196000Y-52507000D01*
X153501000Y-53063000D01*
X153836000Y-53674000D01*
X154052000Y-54068000D01*
X154452000Y-54797000D01*
X154781000Y-55398000D01*
X155046000Y-55884000D01*
X155255000Y-56267000D01*
X155413000Y-56560000D01*
X155527000Y-56776000D01*
X155604000Y-56926000D01*
X155650000Y-57024000D01*
X155672000Y-57081000D01*
X155678000Y-57112000D01*
X155672000Y-57127000D01*
X155670000Y-57129000D01*
X155597000Y-57218000D01*
X155494000Y-57343000D01*
X154979000Y-58071000D01*
X154648000Y-58744000D01*
X154538000Y-58969000D01*
X154499000Y-59017000D01*
X154383000Y-59093000D01*
X154146000Y-59221000D01*
X153813000Y-59389000D01*
X153410000Y-59586000D01*
X152963000Y-59798000D01*
X152496000Y-60015000D01*
X152036000Y-60224000D01*
X151606000Y-60412000D01*
X151385000Y-60506000D01*
X150686000Y-60787000D01*
X150071000Y-61008000D01*
X149484000Y-61186000D01*
X148870000Y-61337000D01*
X148335000Y-61450000D01*
X148013000Y-61515000D01*
X147718000Y-61577000D01*
X147526000Y-61621000D01*
X147295000Y-61669000D01*
X147128000Y-61675000D01*
X147013000Y-61660000D01*
X146734000Y-61579000D01*
X146376000Y-61426000D01*
X145993000Y-61224000D01*
X145903000Y-61171000D01*
X145222000Y-60719000D01*
X144453000Y-60136000D01*
X143596000Y-59421000D01*
X142654000Y-58576000D01*
X141626000Y-57601000D01*
X141108000Y-57092000D01*
X140597000Y-56580000D01*
X140077000Y-56050000D01*
X139567000Y-55521000D01*
X139088000Y-55015000D01*
X138657000Y-54551000D01*
X138294000Y-54151000D01*
X138019000Y-53834000D01*
X137941000Y-53739000D01*
X137718000Y-53359000D01*
X137650000Y-52971000D01*
X137731000Y-52582000D01*
X137957000Y-52195000D01*
X138323000Y-51816000D01*
X138823000Y-51449000D01*
X139454000Y-51100000D01*
X140209000Y-50774000D01*
X141085000Y-50475000D01*
X141295000Y-50412000D01*
X141693000Y-50303000D01*
X142069000Y-50209000D01*
X142390000Y-50137000D01*
X142619000Y-50096000D01*
X142713000Y-50091000D01*
X142902000Y-50148000D01*
G37*
G36*
X154645000Y-60018000D02*
G01*
X154867000Y-60063000D01*
X154902000Y-60071000D01*
X155939000Y-60246000D01*
X156845000Y-60271000D01*
X157096000Y-60262000D01*
X157288000Y-60255000D01*
X157340000Y-60254000D01*
X157445000Y-60252000D01*
X159701000Y-64362000D01*
X161957000Y-68472000D01*
X161847000Y-68662000D01*
X161585000Y-69171000D01*
X161340000Y-69740000D01*
X161196000Y-70141000D01*
X160977000Y-71000000D01*
X160888000Y-71822000D01*
X160885000Y-71995000D01*
X160943000Y-72737000D01*
X161122000Y-73386000D01*
X161300000Y-73760000D01*
X161441000Y-73961000D01*
X161588000Y-74047000D01*
X161660000Y-74058000D01*
X161726000Y-74057000D01*
X161827000Y-74040000D01*
X161989000Y-74000000D01*
X162244000Y-73930000D01*
X162619000Y-73823000D01*
X162685000Y-73804000D01*
X163065000Y-73697000D01*
X163378000Y-73612000D01*
X163594000Y-73558000D01*
X163679000Y-73542000D01*
X163810000Y-73560000D01*
X163819000Y-73563000D01*
X163960000Y-73667000D01*
X164037000Y-73776000D01*
X164059000Y-73993000D01*
X163972000Y-74193000D01*
X163908000Y-74252000D01*
X163788000Y-74311000D01*
X163539000Y-74419000D01*
X163181000Y-74567000D01*
X162733000Y-74749000D01*
X162215000Y-74957000D01*
X161647000Y-75181000D01*
X161050000Y-75415000D01*
X160444000Y-75650000D01*
X159847000Y-75879000D01*
X159281000Y-76093000D01*
X159195000Y-76126000D01*
X158502000Y-76382000D01*
X157834000Y-76624000D01*
X157210000Y-76844000D01*
X156646000Y-77038000D01*
X156161000Y-77198000D01*
X155773000Y-77320000D01*
X155499000Y-77396000D01*
X155359000Y-77422000D01*
X155231000Y-77391000D01*
X155215000Y-77384000D01*
X155084000Y-77300000D01*
X155006000Y-77168000D01*
X154953000Y-76935000D01*
X154947000Y-76899000D01*
X154779000Y-76145000D01*
X154506000Y-75306000D01*
X154127000Y-74378000D01*
X153639000Y-73359000D01*
X153041000Y-72245000D01*
X152332000Y-71034000D01*
X151510000Y-69723000D01*
X150573000Y-68309000D01*
X149681000Y-67016000D01*
X149494000Y-66752000D01*
X149257000Y-66418000D01*
X148960000Y-66002000D01*
X148592000Y-65488000D01*
X148143000Y-64862000D01*
X148040000Y-64720000D01*
X147698000Y-64240000D01*
X147442000Y-63874000D01*
X147262000Y-63606000D01*
X147149000Y-63424000D01*
X147094000Y-63311000D01*
X147085000Y-63268000D01*
X147049000Y-63176000D01*
X147036000Y-63152000D01*
X146988000Y-62987000D01*
X147063000Y-62857000D01*
X147222000Y-62728000D01*
X147488000Y-62574000D01*
X147870000Y-62391000D01*
X148373000Y-62176000D01*
X149004000Y-61926000D01*
X149772000Y-61639000D01*
X150681000Y-61312000D01*
X151315000Y-61089000D01*
X151653000Y-60972000D01*
X152057000Y-60833000D01*
X152502000Y-60683000D01*
X152961000Y-60528000D01*
X153406000Y-60380000D01*
X153812000Y-60245000D01*
X154150000Y-60134000D01*
X154396000Y-60054000D01*
X154522000Y-60016000D01*
X154530000Y-60014000D01*
X154645000Y-60018000D01*
G37*
G36*
X153318000Y-127059000D02*
G01*
X153292000Y-127663000D01*
X153266000Y-128356000D01*
X153240000Y-129149000D01*
X153212000Y-130050000D01*
X153183000Y-131070000D01*
X153152000Y-132219000D01*
X153119000Y-133506000D01*
X153084000Y-134941000D01*
X153075000Y-135302000D01*
X153035000Y-136948000D01*
X152999000Y-138443000D01*
X152965000Y-139796000D01*
X152934000Y-141018000D01*
X152904000Y-142116000D01*
X152877000Y-143101000D01*
X152852000Y-143982000D01*
X152827000Y-144768000D01*
X152804000Y-145469000D01*
X152781000Y-146093000D01*
X152759000Y-146650000D01*
X152737000Y-147149000D01*
X152714000Y-147600000D01*
X152692000Y-148012000D01*
X152668000Y-148393000D01*
X152654000Y-148602000D01*
X152613000Y-149129000D01*
X152571000Y-149517000D01*
X152525000Y-149783000D01*
X152473000Y-149949000D01*
X152453000Y-149985000D01*
X152294000Y-150181000D01*
X152012000Y-150465000D01*
X151613000Y-150829000D01*
X151104000Y-151268000D01*
X150493000Y-151777000D01*
X149786000Y-152349000D01*
X149135000Y-152864000D01*
X148793000Y-153132000D01*
X148388000Y-153445000D01*
X147938000Y-153792000D01*
X147460000Y-154159000D01*
X146970000Y-154534000D01*
X146484000Y-154905000D01*
X146020000Y-155258000D01*
X145593000Y-155581000D01*
X145222000Y-155861000D01*
X144922000Y-156085000D01*
X144709000Y-156242000D01*
X144602000Y-156317000D01*
X144592000Y-156322000D01*
X144594000Y-156277000D01*
X144606000Y-156173000D01*
X144618000Y-155983000D01*
X144619000Y-155972000D01*
X144570000Y-155332000D01*
X144365000Y-154714000D01*
X144351000Y-154685000D01*
X144290000Y-154540000D01*
X144278000Y-154482000D01*
X144351000Y-154439000D01*
X144529000Y-154336000D01*
X144780000Y-154192000D01*
X144885000Y-154132000D01*
X146105000Y-153417000D01*
X147191000Y-152740000D01*
X148139000Y-152104000D01*
X148948000Y-151509000D01*
X149614000Y-150959000D01*
X150134000Y-150455000D01*
X150505000Y-149999000D01*
X150542000Y-149944000D01*
X150648000Y-149765000D01*
X150723000Y-149583000D01*
X150778000Y-149360000D01*
X150821000Y-149056000D01*
X150861000Y-148635000D01*
X150864000Y-148592000D01*
X150892000Y-148237000D01*
X150920000Y-147837000D01*
X150947000Y-147383000D01*
X150976000Y-146866000D01*
X151005000Y-146274000D01*
X151036000Y-145600000D01*
X151069000Y-144833000D01*
X151104000Y-143964000D01*
X151141000Y-142982000D01*
X151182000Y-141879000D01*
X151226000Y-140645000D01*
X151274000Y-139270000D01*
X151325000Y-137772000D01*
X151374000Y-136350000D01*
X151421000Y-134995000D01*
X151467000Y-133716000D01*
X151511000Y-132521000D01*
X151552000Y-131418000D01*
X151591000Y-130415000D01*
X151627000Y-129520000D01*
X151660000Y-128742000D01*
X151689000Y-128088000D01*
X151714000Y-127566000D01*
X151735000Y-127185000D01*
X151752000Y-126953000D01*
X151757000Y-126905000D01*
X151779000Y-126828000D01*
X151822000Y-126830000D01*
X152493000Y-126901000D01*
X153145000Y-126814000D01*
X153152000Y-126812000D01*
X153331000Y-126766000D01*
X153318000Y-127059000D01*
G37*
G36*
X162809000Y-76437000D02*
G01*
X163280000Y-76515000D01*
X163595000Y-76603000D01*
X163761000Y-76658000D01*
X163920000Y-76720000D01*
X164123000Y-76808000D01*
X164418000Y-76944000D01*
X164843000Y-77132000D01*
X165194000Y-77259000D01*
X165538000Y-77345000D01*
X165938000Y-77411000D01*
X165955000Y-77414000D01*
X166088000Y-77424000D01*
X166319000Y-77434000D01*
X166471000Y-77440000D01*
X166887000Y-77452000D01*
X169503000Y-82221000D01*
X172120000Y-86989000D01*
X171993000Y-87173000D01*
X171532000Y-87938000D01*
X171121000Y-88814000D01*
X170781000Y-89757000D01*
X170537000Y-90682000D01*
X170400000Y-91527000D01*
X170355000Y-92331000D01*
X170400000Y-93073000D01*
X170535000Y-93729000D01*
X170757000Y-94277000D01*
X170804000Y-94360000D01*
X170946000Y-94533000D01*
X171118000Y-94590000D01*
X171165000Y-94591000D01*
X171234000Y-94583000D01*
X171331000Y-94553000D01*
X171491000Y-94486000D01*
X171746000Y-94369000D01*
X171883000Y-94305000D01*
X172171000Y-94172000D01*
X172406000Y-94067000D01*
X172547000Y-94006000D01*
X172566000Y-93999000D01*
X172769000Y-94009000D01*
X172869000Y-94060000D01*
X173013000Y-94231000D01*
X173040000Y-94448000D01*
X172948000Y-94645000D01*
X172900000Y-94689000D01*
X172770000Y-94772000D01*
X172529000Y-94915000D01*
X172206000Y-95100000D01*
X171831000Y-95311000D01*
X171435000Y-95531000D01*
X171046000Y-95744000D01*
X170695000Y-95932000D01*
X170555000Y-96005000D01*
X169936000Y-96319000D01*
X169441000Y-96550000D01*
X169060000Y-96704000D01*
X168782000Y-96785000D01*
X168639000Y-96800000D01*
X168521000Y-96787000D01*
X168275000Y-96750000D01*
X167931000Y-96696000D01*
X167519000Y-96629000D01*
X167245000Y-96583000D01*
X165623000Y-96302000D01*
X164155000Y-96038000D01*
X162834000Y-95790000D01*
X161655000Y-95555000D01*
X160613000Y-95333000D01*
X159700000Y-95123000D01*
X159205000Y-95001000D01*
X158724000Y-94873000D01*
X158359000Y-94765000D01*
X158127000Y-94684000D01*
X158061000Y-94651000D01*
X158003000Y-94611000D01*
X157963000Y-94563000D01*
X157938000Y-94479000D01*
X157923000Y-94331000D01*
X157917000Y-94093000D01*
X157915000Y-93737000D01*
X157914000Y-93482000D01*
X157911000Y-92965000D01*
X157903000Y-92527000D01*
X157889000Y-92109000D01*
X157866000Y-91650000D01*
X157834000Y-91102000D01*
X157698000Y-89293000D01*
X157515000Y-87438000D01*
X157292000Y-85612000D01*
X157114000Y-84372000D01*
X156903000Y-83099000D01*
X156681000Y-81951000D01*
X156450000Y-80935000D01*
X156212000Y-80057000D01*
X155968000Y-79325000D01*
X155720000Y-78746000D01*
X155714000Y-78734000D01*
X155637000Y-78564000D01*
X155605000Y-78464000D01*
X155684000Y-78301000D01*
X155917000Y-78118000D01*
X156301000Y-77917000D01*
X156832000Y-77700000D01*
X157290000Y-77539000D01*
X158029000Y-77311000D01*
X158880000Y-77076000D01*
X159799000Y-76847000D01*
X160738000Y-76636000D01*
X161465000Y-76489000D01*
X161710000Y-76444000D01*
X161890000Y-76422000D01*
X162089000Y-76415000D01*
X162265000Y-76414000D01*
X162809000Y-76437000D01*
G37*
G36*
X67443000Y-126193000D02*
G01*
X67451000Y-126434000D01*
X67460000Y-126825000D01*
X67468000Y-127360000D01*
X67477000Y-128032000D01*
X67486000Y-128837000D01*
X67495000Y-129769000D01*
X67504000Y-130822000D01*
X67513000Y-131992000D01*
X67522000Y-133272000D01*
X67530000Y-134657000D01*
X67539000Y-136142000D01*
X67545000Y-137482000D01*
X67552000Y-138802000D01*
X67560000Y-139977000D01*
X67567000Y-141021000D01*
X67576000Y-141949000D01*
X67585000Y-142775000D01*
X67596000Y-143513000D01*
X67608000Y-144179000D01*
X67621000Y-144786000D01*
X67636000Y-145350000D01*
X67653000Y-145884000D01*
X67665000Y-146222000D01*
X67707000Y-147149000D01*
X67756000Y-147918000D01*
X67812000Y-148528000D01*
X67876000Y-148979000D01*
X67947000Y-149270000D01*
X67965000Y-149317000D01*
X68084000Y-149478000D01*
X68330000Y-149720000D01*
X68699000Y-150038000D01*
X69182000Y-150429000D01*
X69775000Y-150886000D01*
X70470000Y-151404000D01*
X71260000Y-151980000D01*
X72140000Y-152607000D01*
X73102000Y-153282000D01*
X73985000Y-153891000D01*
X74238000Y-154065000D01*
X74435000Y-154201000D01*
X74541000Y-154275000D01*
X74552000Y-154283000D01*
X74539000Y-154357000D01*
X74509000Y-154435000D01*
X74338000Y-154987000D01*
X74283000Y-155561000D01*
X74315000Y-155921000D01*
X74336000Y-156058000D01*
X74338000Y-156095000D01*
X74276000Y-156049000D01*
X74097000Y-155912000D01*
X73814000Y-155694000D01*
X73436000Y-155403000D01*
X72974000Y-155046000D01*
X72438000Y-154633000D01*
X71840000Y-154170000D01*
X71190000Y-153667000D01*
X70498000Y-153132000D01*
X70304000Y-152981000D01*
X69602000Y-152437000D01*
X68938000Y-151922000D01*
X68322000Y-151444000D01*
X67767000Y-151012000D01*
X67281000Y-150634000D01*
X66877000Y-150319000D01*
X66564000Y-150074000D01*
X66353000Y-149908000D01*
X66255000Y-149829000D01*
X66250000Y-149824000D01*
X66203000Y-149680000D01*
X66158000Y-149396000D01*
X66118000Y-148992000D01*
X66086000Y-148487000D01*
X66086000Y-148482000D01*
X66075000Y-148253000D01*
X66064000Y-148030000D01*
X66056000Y-147803000D01*
X66048000Y-147560000D01*
X66041000Y-147292000D01*
X66036000Y-146989000D01*
X66031000Y-146639000D01*
X66027000Y-146232000D01*
X66024000Y-145759000D01*
X66022000Y-145207000D01*
X66021000Y-144568000D01*
X66020000Y-143830000D01*
X66019000Y-142983000D01*
X66019000Y-142017000D01*
X66020000Y-140921000D01*
X66020000Y-139685000D01*
X66021000Y-138462000D01*
X66022000Y-136964000D01*
X66023000Y-135616000D01*
X66023000Y-134408000D01*
X66022000Y-133329000D01*
X66021000Y-132369000D01*
X66019000Y-131518000D01*
X66017000Y-130766000D01*
X66013000Y-130103000D01*
X66009000Y-129517000D01*
X66004000Y-129000000D01*
X65998000Y-128541000D01*
X65991000Y-128130000D01*
X65983000Y-127757000D01*
X65974000Y-127410000D01*
X65965000Y-127132000D01*
X65954000Y-126809000D01*
X65942000Y-126526000D01*
X65933000Y-126342000D01*
X65933000Y-126334000D01*
X65929000Y-126182000D01*
X65939000Y-126148000D01*
X66022000Y-126169000D01*
X66145000Y-126192000D01*
X66605000Y-126224000D01*
X67088000Y-126182000D01*
X67321000Y-126129000D01*
X67422000Y-126105000D01*
X67435000Y-126105000D01*
X67443000Y-126193000D01*
G37*
G36*
X56734000Y-76339000D02*
G01*
X56937000Y-76357000D01*
X57065000Y-76379000D01*
X57928000Y-76549000D01*
X58852000Y-76755000D01*
X59625000Y-76944000D01*
X60519000Y-77186000D01*
X61293000Y-77420000D01*
X61941000Y-77645000D01*
X62457000Y-77857000D01*
X62834000Y-78054000D01*
X63065000Y-78234000D01*
X63145000Y-78393000D01*
X63145000Y-78394000D01*
X63113000Y-78484000D01*
X63057000Y-78600000D01*
X62794000Y-79202000D01*
X62538000Y-79960000D01*
X62290000Y-80870000D01*
X62051000Y-81930000D01*
X61822000Y-83136000D01*
X61604000Y-84484000D01*
X61545000Y-84881000D01*
X61357000Y-86293000D01*
X61191000Y-87736000D01*
X61053000Y-89170000D01*
X60945000Y-90560000D01*
X60870000Y-91868000D01*
X60832000Y-93002000D01*
X60830000Y-93482000D01*
X60838000Y-93919000D01*
X60857000Y-94273000D01*
X60877000Y-94462000D01*
X60890000Y-94538000D01*
X60577000Y-94641000D01*
X59988000Y-94817000D01*
X59245000Y-95010000D01*
X58356000Y-95218000D01*
X57326000Y-95440000D01*
X56161000Y-95675000D01*
X54869000Y-95922000D01*
X53454000Y-96179000D01*
X51922000Y-96445000D01*
X51111000Y-96581000D01*
X50735000Y-96643000D01*
X50418000Y-96694000D01*
X50193000Y-96728000D01*
X50092000Y-96741000D01*
X50091000Y-96741000D01*
X49973000Y-96720000D01*
X49900000Y-96701000D01*
X49556000Y-96578000D01*
X49096000Y-96375000D01*
X48536000Y-96102000D01*
X47892000Y-95768000D01*
X47182000Y-95382000D01*
X46420000Y-94954000D01*
X45625000Y-94492000D01*
X44811000Y-94006000D01*
X43997000Y-93506000D01*
X43198000Y-93000000D01*
X42430000Y-92498000D01*
X42306000Y-92415000D01*
X42036000Y-92230000D01*
X41757000Y-92035000D01*
X41501000Y-91852000D01*
X41299000Y-91702000D01*
X41182000Y-91609000D01*
X41165000Y-91590000D01*
X41180000Y-91589000D01*
X41268000Y-91632000D01*
X41481000Y-91734000D01*
X41803000Y-91884000D01*
X42214000Y-92076000D01*
X42697000Y-92301000D01*
X43235000Y-92551000D01*
X43809000Y-92817000D01*
X44403000Y-93092000D01*
X44998000Y-93367000D01*
X45577000Y-93634000D01*
X46121000Y-93885000D01*
X46614000Y-94112000D01*
X47037000Y-94306000D01*
X47373000Y-94460000D01*
X47604000Y-94564000D01*
X47713000Y-94611000D01*
X47719000Y-94613000D01*
X47784000Y-94539000D01*
X47888000Y-94380000D01*
X47996000Y-94194000D01*
X48045000Y-94097000D01*
X48237000Y-93551000D01*
X48356000Y-92919000D01*
X48366000Y-92816000D01*
X48380000Y-92513000D01*
X48380000Y-92128000D01*
X48366000Y-91736000D01*
X48340000Y-91414000D01*
X48337000Y-91387000D01*
X48147000Y-90364000D01*
X47853000Y-89352000D01*
X47469000Y-88388000D01*
X47009000Y-87505000D01*
X46487000Y-86738000D01*
X46469000Y-86715000D01*
X46312000Y-86518000D01*
X47518000Y-84275000D01*
X47886000Y-83591000D01*
X48305000Y-82813000D01*
X48750000Y-81984000D01*
X49198000Y-81151000D01*
X49623000Y-80359000D01*
X49990000Y-79676000D01*
X51255000Y-77320000D01*
X51378000Y-77331000D01*
X51842000Y-77362000D01*
X52294000Y-77369000D01*
X52520000Y-77362000D01*
X52940000Y-77323000D01*
X53317000Y-77252000D01*
X53699000Y-77135000D01*
X54134000Y-76958000D01*
X54507000Y-76786000D01*
X55135000Y-76531000D01*
X55746000Y-76387000D01*
X56417000Y-76336000D01*
X56465000Y-76336000D01*
X56734000Y-76339000D01*
G37*
G36*
X60587000Y-95370000D02*
G01*
X60595000Y-95375000D01*
X60662000Y-95493000D01*
X60763000Y-95694000D01*
X60865000Y-95915000D01*
X60934000Y-96080000D01*
X61098000Y-96620000D01*
X61181000Y-97199000D01*
X61195000Y-97432000D01*
X61225000Y-98008000D01*
X61273000Y-98549000D01*
X61344000Y-99093000D01*
X61444000Y-99678000D01*
X61578000Y-100342000D01*
X61743000Y-101082000D01*
X61921000Y-101870000D01*
X62059000Y-102509000D01*
X62159000Y-103006000D01*
X62222000Y-103368000D01*
X62228000Y-103410000D01*
X62254000Y-103587000D01*
X62153000Y-103680000D01*
X61979000Y-103808000D01*
X61700000Y-103969000D01*
X61312000Y-104164000D01*
X60810000Y-104395000D01*
X60188000Y-104664000D01*
X59441000Y-104974000D01*
X58565000Y-105327000D01*
X57555000Y-105724000D01*
X56406000Y-106168000D01*
X55112000Y-106660000D01*
X54525000Y-106882000D01*
X54054000Y-107060000D01*
X53481000Y-107275000D01*
X52854000Y-107511000D01*
X52223000Y-107748000D01*
X51634000Y-107969000D01*
X51625000Y-107972000D01*
X50537000Y-108381000D01*
X49584000Y-108741000D01*
X48753000Y-109057000D01*
X48029000Y-109335000D01*
X47396000Y-109581000D01*
X46841000Y-109800000D01*
X46475000Y-109946000D01*
X46055000Y-110116000D01*
X45905000Y-110097000D01*
X45497000Y-110092000D01*
X45041000Y-110158000D01*
X44731000Y-110244000D01*
X44159000Y-110526000D01*
X43676000Y-110929000D01*
X43299000Y-111432000D01*
X43048000Y-112011000D01*
X42973000Y-112339000D01*
X42942000Y-112726000D01*
X42960000Y-113128000D01*
X42976000Y-113241000D01*
X42999000Y-113395000D01*
X43002000Y-113452000D01*
X42927000Y-113478000D01*
X42713000Y-113550000D01*
X42374000Y-113665000D01*
X41922000Y-113817000D01*
X41371000Y-114002000D01*
X40734000Y-114217000D01*
X40023000Y-114456000D01*
X39253000Y-114714000D01*
X38435000Y-114989000D01*
X37584000Y-115275000D01*
X36711000Y-115568000D01*
X35831000Y-115863000D01*
X34956000Y-116156000D01*
X34100000Y-116444000D01*
X33275000Y-116720000D01*
X32495000Y-116981000D01*
X31772000Y-117223000D01*
X31121000Y-117442000D01*
X30553000Y-117632000D01*
X30082000Y-117789000D01*
X29721000Y-117909000D01*
X29484000Y-117988000D01*
X29382000Y-118021000D01*
X29379000Y-118022000D01*
X29392000Y-117968000D01*
X29397000Y-117957000D01*
X29438000Y-117880000D01*
X29550000Y-117673000D01*
X29727000Y-117343000D01*
X29965000Y-116901000D01*
X30258000Y-116356000D01*
X30601000Y-115718000D01*
X30990000Y-114994000D01*
X31419000Y-114196000D01*
X31884000Y-113332000D01*
X32379000Y-112412000D01*
X32899000Y-111445000D01*
X33439000Y-110440000D01*
X33995000Y-109407000D01*
X34561000Y-108354000D01*
X35132000Y-107292000D01*
X35704000Y-106230000D01*
X36270000Y-105176000D01*
X36827000Y-104141000D01*
X37369000Y-103134000D01*
X37891000Y-102163000D01*
X38388000Y-101239000D01*
X38855000Y-100371000D01*
X39288000Y-99568000D01*
X39680000Y-98839000D01*
X40027000Y-98193000D01*
X40324000Y-97641000D01*
X40567000Y-97191000D01*
X40749000Y-96853000D01*
X40866000Y-96636000D01*
X40912000Y-96549000D01*
X40913000Y-96548000D01*
X40980000Y-96561000D01*
X41026000Y-96573000D01*
X41256000Y-96624000D01*
X41559000Y-96678000D01*
X41849000Y-96720000D01*
X41885000Y-96724000D01*
X42147000Y-96741000D01*
X42499000Y-96749000D01*
X42871000Y-96747000D01*
X43196000Y-96736000D01*
X43345000Y-96725000D01*
X43784000Y-96663000D01*
X44320000Y-96568000D01*
X44760000Y-96480000D01*
X45232000Y-96382000D01*
X45588000Y-96314000D01*
X45868000Y-96270000D01*
X46111000Y-96244000D01*
X46357000Y-96230000D01*
X46395000Y-96229000D01*
X47088000Y-96259000D01*
X47749000Y-96408000D01*
X48423000Y-96688000D01*
X48606000Y-96784000D01*
X48878000Y-96943000D01*
X49186000Y-97143000D01*
X49388000Y-97285000D01*
X49520000Y-97382000D01*
X55044000Y-96361000D01*
X56111000Y-96163000D01*
X57030000Y-95993000D01*
X57815000Y-95849000D01*
X58474000Y-95727000D01*
X59020000Y-95628000D01*
X59462000Y-95547000D01*
X59813000Y-95485000D01*
X60082000Y-95438000D01*
X60280000Y-95404000D01*
X60419000Y-95383000D01*
X60509000Y-95371000D01*
X60562000Y-95368000D01*
X60587000Y-95370000D01*
G37*
G36*
X158459000Y-95476000D02*
G01*
X158694000Y-95517000D01*
X159060000Y-95583000D01*
X159545000Y-95670000D01*
X160134000Y-95778000D01*
X160815000Y-95902000D01*
X161575000Y-96042000D01*
X162401000Y-96193000D01*
X163279000Y-96356000D01*
X163754000Y-96443000D01*
X164872000Y-96650000D01*
X165841000Y-96829000D01*
X166668000Y-96981000D01*
X167362000Y-97108000D01*
X167930000Y-97210000D01*
X168380000Y-97291000D01*
X168721000Y-97350000D01*
X168959000Y-97390000D01*
X169103000Y-97412000D01*
X169159000Y-97417000D01*
X169239000Y-97402000D01*
X169338000Y-97353000D01*
X169507000Y-97246000D01*
X169579000Y-97198000D01*
X170108000Y-96869000D01*
X170578000Y-96632000D01*
X170883000Y-96514000D01*
X171381000Y-96371000D01*
X171877000Y-96299000D01*
X172410000Y-96298000D01*
X173017000Y-96365000D01*
X173565000Y-96465000D01*
X173898000Y-96532000D01*
X174248000Y-96604000D01*
X174335000Y-96621000D01*
X174948000Y-96733000D01*
X175481000Y-96796000D01*
X176004000Y-96819000D01*
X176305000Y-96816000D01*
X176915000Y-96782000D01*
X177342000Y-96722000D01*
X177449000Y-96722000D01*
X177457000Y-96728000D01*
X177496000Y-96799000D01*
X177607000Y-97000000D01*
X177785000Y-97323000D01*
X178025000Y-97759000D01*
X178321000Y-98298000D01*
X178670000Y-98931000D01*
X179064000Y-99649000D01*
X179500000Y-100443000D01*
X179973000Y-101303000D01*
X180477000Y-102220000D01*
X181007000Y-103185000D01*
X181558000Y-104189000D01*
X182125000Y-105223000D01*
X182704000Y-106276000D01*
X183288000Y-107340000D01*
X183874000Y-108407000D01*
X184455000Y-109465000D01*
X185027000Y-110507000D01*
X185584000Y-111523000D01*
X186123000Y-112504000D01*
X186637000Y-113440000D01*
X187121000Y-114323000D01*
X187571000Y-115143000D01*
X187981000Y-115891000D01*
X188346000Y-116557000D01*
X188662000Y-117132000D01*
X188922000Y-117608000D01*
X189080000Y-117897000D01*
X189130000Y-118002000D01*
X189132000Y-118021000D01*
X189055000Y-117996000D01*
X188838000Y-117924000D01*
X188490000Y-117808000D01*
X188022000Y-117652000D01*
X187446000Y-117459000D01*
X186771000Y-117233000D01*
X186008000Y-116978000D01*
X185169000Y-116697000D01*
X184263000Y-116394000D01*
X183302000Y-116072000D01*
X182296000Y-115735000D01*
X182215000Y-115708000D01*
X181206000Y-115370000D01*
X180242000Y-115046000D01*
X179332000Y-114741000D01*
X178488000Y-114458000D01*
X177720000Y-114201000D01*
X177039000Y-113973000D01*
X176456000Y-113777000D01*
X175981000Y-113618000D01*
X175624000Y-113498000D01*
X175398000Y-113422000D01*
X175311000Y-113393000D01*
X175329000Y-113327000D01*
X175354000Y-113251000D01*
X175438000Y-112938000D01*
X175476000Y-112587000D01*
X175479000Y-112508000D01*
X175460000Y-112007000D01*
X175355000Y-111556000D01*
X175285000Y-111371000D01*
X174972000Y-110808000D01*
X174542000Y-110341000D01*
X174017000Y-109989000D01*
X173417000Y-109768000D01*
X173230000Y-109730000D01*
X172875000Y-109703000D01*
X172486000Y-109720000D01*
X172175000Y-109772000D01*
X172005000Y-109817000D01*
X171923000Y-109836000D01*
X171833000Y-109817000D01*
X171622000Y-109744000D01*
X171278000Y-109614000D01*
X171103000Y-109546000D01*
X170767000Y-109415000D01*
X170427000Y-109283000D01*
X170065000Y-109144000D01*
X169662000Y-108989000D01*
X169200000Y-108814000D01*
X168661000Y-108609000D01*
X168026000Y-108370000D01*
X167278000Y-108087000D01*
X166415000Y-107762000D01*
X165168000Y-107292000D01*
X164060000Y-106872000D01*
X163077000Y-106499000D01*
X162209000Y-106167000D01*
X161443000Y-105871000D01*
X160767000Y-105608000D01*
X160169000Y-105372000D01*
X159638000Y-105158000D01*
X159160000Y-104963000D01*
X158725000Y-104781000D01*
X158321000Y-104607000D01*
X158105000Y-104513000D01*
X157738000Y-104345000D01*
X157367000Y-104166000D01*
X157034000Y-103995000D01*
X156784000Y-103857000D01*
X156705000Y-103807000D01*
X156564000Y-103701000D01*
X156491000Y-103604000D01*
X156480000Y-103582000D01*
X156403000Y-103297000D01*
X156404000Y-102898000D01*
X156483000Y-102374000D01*
X156607000Y-101845000D01*
X156666000Y-101626000D01*
X156753000Y-101310000D01*
X156853000Y-100954000D01*
X156887000Y-100837000D01*
X157081000Y-100142000D01*
X157232000Y-99568000D01*
X157347000Y-99083000D01*
X157430000Y-98655000D01*
X157490000Y-98252000D01*
X157531000Y-97843000D01*
X157555000Y-97511000D01*
X157599000Y-97013000D01*
X157672000Y-96609000D01*
X157788000Y-96232000D01*
X157856000Y-96058000D01*
X157977000Y-95780000D01*
X158072000Y-95615000D01*
X158167000Y-95524000D01*
X158205000Y-95502000D01*
X158355000Y-95462000D01*
X158368000Y-95462000D01*
X158459000Y-95476000D01*
G37*
G36*
X80242000Y-152071000D02*
G01*
X80474000Y-152072000D01*
X80859000Y-152074000D01*
X81392000Y-152075000D01*
X82066000Y-152077000D01*
X82874000Y-152080000D01*
X83811000Y-152082000D01*
X84871000Y-152085000D01*
X86047000Y-152088000D01*
X87332000Y-152091000D01*
X88720000Y-152094000D01*
X90206000Y-152098000D01*
X91783000Y-152102000D01*
X93444000Y-152106000D01*
X95184000Y-152110000D01*
X96995000Y-152114000D01*
X98872000Y-152118000D01*
X100809000Y-152122000D01*
X102799000Y-152127000D01*
X104835000Y-152131000D01*
X106912000Y-152136000D01*
X109024000Y-152140000D01*
X110195000Y-152143000D01*
X112313000Y-152148000D01*
X114395000Y-152152000D01*
X116436000Y-152157000D01*
X118429000Y-152161000D01*
X120369000Y-152166000D01*
X122249000Y-152170000D01*
X124063000Y-152174000D01*
X125806000Y-152178000D01*
X127471000Y-152182000D01*
X129052000Y-152186000D01*
X130544000Y-152190000D01*
X131939000Y-152193000D01*
X133233000Y-152196000D01*
X134419000Y-152200000D01*
X135491000Y-152202000D01*
X136443000Y-152205000D01*
X137268000Y-152207000D01*
X137962000Y-152210000D01*
X138518000Y-152211000D01*
X138930000Y-152213000D01*
X139191000Y-152214000D01*
X139275000Y-152215000D01*
X140395000Y-152227000D01*
X140625000Y-152638000D01*
X140764000Y-152887000D01*
X140880000Y-153095000D01*
X140931000Y-153187000D01*
X141007000Y-153323000D01*
X140944000Y-153345000D01*
X140751000Y-153431000D01*
X140520000Y-153555000D01*
X140392000Y-153634000D01*
X139904000Y-154062000D01*
X139536000Y-154592000D01*
X139300000Y-155198000D01*
X139263000Y-155352000D01*
X139244000Y-155488000D01*
X139238000Y-155675000D01*
X139237000Y-155822000D01*
X139243000Y-156145000D01*
X139273000Y-156391000D01*
X139339000Y-156639000D01*
X139359000Y-156701000D01*
X139623000Y-157267000D01*
X140012000Y-157766000D01*
X140321000Y-158036000D01*
X140591000Y-158206000D01*
X140905000Y-158361000D01*
X141096000Y-158433000D01*
X141746000Y-158551000D01*
X142391000Y-158514000D01*
X143009000Y-158327000D01*
X143460000Y-158076000D01*
X143624000Y-157964000D01*
X143702000Y-158098000D01*
X143823000Y-158310000D01*
X143956000Y-158546000D01*
X144075000Y-158760000D01*
X144156000Y-158909000D01*
X144177000Y-158949000D01*
X144170000Y-158952000D01*
X144145000Y-158954000D01*
X144098000Y-158957000D01*
X144023000Y-158959000D01*
X143917000Y-158961000D01*
X143775000Y-158963000D01*
X143593000Y-158965000D01*
X143367000Y-158967000D01*
X143092000Y-158968000D01*
X142763000Y-158970000D01*
X142377000Y-158971000D01*
X141929000Y-158972000D01*
X141414000Y-158973000D01*
X140829000Y-158975000D01*
X140169000Y-158976000D01*
X139429000Y-158976000D01*
X138605000Y-158977000D01*
X137693000Y-158978000D01*
X136689000Y-158979000D01*
X135587000Y-158979000D01*
X134384000Y-158980000D01*
X133076000Y-158980000D01*
X131657000Y-158981000D01*
X130124000Y-158981000D01*
X128472000Y-158981000D01*
X126697000Y-158981000D01*
X124794000Y-158982000D01*
X122759000Y-158982000D01*
X120588000Y-158982000D01*
X118277000Y-158982000D01*
X115820000Y-158982000D01*
X113214000Y-158982000D01*
X110454000Y-158982000D01*
X109257000Y-158982000D01*
X106902000Y-158982000D01*
X104587000Y-158982000D01*
X102318000Y-158982000D01*
X100100000Y-158982000D01*
X97939000Y-158981000D01*
X95838000Y-158981000D01*
X93804000Y-158981000D01*
X91841000Y-158980000D01*
X89954000Y-158980000D01*
X88150000Y-158980000D01*
X86432000Y-158979000D01*
X84806000Y-158979000D01*
X83277000Y-158978000D01*
X81850000Y-158977000D01*
X80531000Y-158977000D01*
X79324000Y-158976000D01*
X78234000Y-158975000D01*
X77268000Y-158975000D01*
X76429000Y-158974000D01*
X75723000Y-158973000D01*
X75155000Y-158973000D01*
X74730000Y-158972000D01*
X74454000Y-158971000D01*
X74331000Y-158970000D01*
X74325000Y-158970000D01*
X74362000Y-158900000D01*
X74457000Y-158726000D01*
X74592000Y-158487000D01*
X74745000Y-158217000D01*
X74896000Y-157952000D01*
X75025000Y-157729000D01*
X75110000Y-157583000D01*
X75133000Y-157547000D01*
X75184000Y-157551000D01*
X75256000Y-157605000D01*
X75769000Y-157937000D01*
X76356000Y-158152000D01*
X76570000Y-158195000D01*
X76914000Y-158220000D01*
X77294000Y-158205000D01*
X77557000Y-158165000D01*
X78171000Y-157947000D01*
X78700000Y-157607000D01*
X79130000Y-157163000D01*
X79446000Y-156636000D01*
X79634000Y-156043000D01*
X79679000Y-155422000D01*
X79639000Y-155040000D01*
X79538000Y-154661000D01*
X79532000Y-154642000D01*
X79321000Y-154170000D01*
X79007000Y-153749000D01*
X78885000Y-153621000D01*
X78435000Y-153247000D01*
X77938000Y-152998000D01*
X77872000Y-152974000D01*
X77750000Y-152932000D01*
X78000000Y-152496000D01*
X78250000Y-152060000D01*
X80242000Y-152071000D01*
G37*
G36*
X121005000Y-30164000D02*
G01*
X122835000Y-30176000D01*
X124509000Y-30187000D01*
X126031000Y-30197000D01*
X127405000Y-30207000D01*
X128636000Y-30216000D01*
X129726000Y-30224000D01*
X130681000Y-30231000D01*
X131503000Y-30238000D01*
X132198000Y-30245000D01*
X132770000Y-30250000D01*
X133221000Y-30255000D01*
X133557000Y-30260000D01*
X133781000Y-30264000D01*
X133897000Y-30268000D01*
X133917000Y-30270000D01*
X133950000Y-30346000D01*
X134037000Y-30557000D01*
X134171000Y-30889000D01*
X134347000Y-31328000D01*
X134561000Y-31860000D01*
X134805000Y-32470000D01*
X135074000Y-33145000D01*
X135364000Y-33871000D01*
X135466000Y-34127000D01*
X136992000Y-37962000D01*
X141003000Y-37962000D01*
X145015000Y-37963000D01*
X144905000Y-38026000D01*
X144048000Y-38581000D01*
X143326000Y-39195000D01*
X142719000Y-39885000D01*
X142653000Y-39974000D01*
X142136000Y-40818000D01*
X141743000Y-41760000D01*
X141476000Y-42794000D01*
X141345000Y-43803000D01*
X141331000Y-44118000D01*
X141325000Y-44522000D01*
X141327000Y-44945000D01*
X141337000Y-45316000D01*
X141345000Y-45462000D01*
X141402000Y-46069000D01*
X141484000Y-46714000D01*
X141582000Y-47330000D01*
X141677000Y-47806000D01*
X141791000Y-48035000D01*
X141984000Y-48151000D01*
X142120000Y-48155000D01*
X142209000Y-48125000D01*
X142431000Y-48044000D01*
X142769000Y-47918000D01*
X143207000Y-47754000D01*
X143728000Y-47558000D01*
X144315000Y-47336000D01*
X144952000Y-47095000D01*
X145095000Y-47041000D01*
X145856000Y-46752000D01*
X146480000Y-46516000D01*
X146981000Y-46327000D01*
X147370000Y-46182000D01*
X147662000Y-46075000D01*
X147868000Y-46002000D01*
X148003000Y-45958000D01*
X148077000Y-45939000D01*
X148095000Y-45937000D01*
X148315000Y-46000000D01*
X148458000Y-46164000D01*
X148492000Y-46381000D01*
X148454000Y-46502000D01*
X148393000Y-46582000D01*
X148268000Y-46688000D01*
X148045000Y-46843000D01*
X147965000Y-46897000D01*
X146746000Y-47653000D01*
X145527000Y-48301000D01*
X144335000Y-48827000D01*
X143550000Y-49110000D01*
X143073000Y-49252000D01*
X142597000Y-49361000D01*
X142053000Y-49453000D01*
X141845000Y-49483000D01*
X140717000Y-49690000D01*
X139593000Y-49995000D01*
X138528000Y-50382000D01*
X137885000Y-50674000D01*
X137055000Y-51142000D01*
X136377000Y-51643000D01*
X135854000Y-52178000D01*
X135533000Y-52652000D01*
X135465000Y-52797000D01*
X135392000Y-52976000D01*
X135339000Y-53128000D01*
X135327000Y-53190000D01*
X135403000Y-53255000D01*
X135582000Y-53414000D01*
X135850000Y-53653000D01*
X136193000Y-53960000D01*
X136596000Y-54320000D01*
X137043000Y-54721000D01*
X137521000Y-55149000D01*
X138013000Y-55590000D01*
X138506000Y-56032000D01*
X138985000Y-56462000D01*
X139433000Y-56865000D01*
X139838000Y-57229000D01*
X140184000Y-57541000D01*
X140404000Y-57740000D01*
X141024000Y-58301000D01*
X141540000Y-58771000D01*
X141969000Y-59164000D01*
X142327000Y-59496000D01*
X142630000Y-59781000D01*
X142893000Y-60035000D01*
X143134000Y-60273000D01*
X143367000Y-60510000D01*
X143418000Y-60562000D01*
X145307000Y-62614000D01*
X147062000Y-64752000D01*
X148680000Y-66969000D01*
X150160000Y-69264000D01*
X151501000Y-71630000D01*
X152699000Y-74064000D01*
X153754000Y-76561000D01*
X154664000Y-79118000D01*
X155425000Y-81729000D01*
X156037000Y-84392000D01*
X156498000Y-87100000D01*
X156806000Y-89851000D01*
X156876000Y-90802000D01*
X156911000Y-91469000D01*
X156939000Y-92189000D01*
X156957000Y-92920000D01*
X156965000Y-93623000D01*
X156963000Y-94257000D01*
X156949000Y-94780000D01*
X156945000Y-94872000D01*
X156831000Y-96317000D01*
X156632000Y-97897000D01*
X156347000Y-99613000D01*
X155978000Y-101462000D01*
X155524000Y-103446000D01*
X155303000Y-104338000D01*
X155225000Y-104650000D01*
X155164000Y-104897000D01*
X155130000Y-105042000D01*
X155125000Y-105065000D01*
X155174000Y-105038000D01*
X155240000Y-104981000D01*
X155594000Y-104736000D01*
X155953000Y-104648000D01*
X156175000Y-104669000D01*
X156261000Y-104700000D01*
X156484000Y-104784000D01*
X156831000Y-104916000D01*
X157291000Y-105092000D01*
X157852000Y-105307000D01*
X158500000Y-105556000D01*
X159225000Y-105834000D01*
X160013000Y-106137000D01*
X160853000Y-106461000D01*
X161732000Y-106800000D01*
X162638000Y-107149000D01*
X163559000Y-107504000D01*
X164483000Y-107861000D01*
X165397000Y-108214000D01*
X166289000Y-108559000D01*
X167148000Y-108891000D01*
X167960000Y-109205000D01*
X168714000Y-109497000D01*
X169397000Y-109762000D01*
X169997000Y-109995000D01*
X170502000Y-110192000D01*
X170900000Y-110348000D01*
X170945000Y-110365000D01*
X170995000Y-110385000D01*
X170942000Y-110424000D01*
X170841000Y-110524000D01*
X170697000Y-110692000D01*
X170562000Y-110868000D01*
X170531000Y-110912000D01*
X170353000Y-111229000D01*
X170235000Y-111507000D01*
X170186000Y-111632000D01*
X170169000Y-111662000D01*
X170093000Y-111637000D01*
X169876000Y-111565000D01*
X169527000Y-111448000D01*
X169057000Y-111291000D01*
X168476000Y-111097000D01*
X167793000Y-110868000D01*
X167019000Y-110609000D01*
X166164000Y-110323000D01*
X165239000Y-110012000D01*
X164252000Y-109682000D01*
X163215000Y-109334000D01*
X162463000Y-109082000D01*
X154768000Y-106502000D01*
X135487000Y-106502000D01*
X116207000Y-106502000D01*
X116216000Y-106797000D01*
X116220000Y-106951000D01*
X116226000Y-107242000D01*
X116234000Y-107647000D01*
X116243000Y-108143000D01*
X116253000Y-108707000D01*
X116263000Y-109317000D01*
X116266000Y-109482000D01*
X116276000Y-110093000D01*
X116286000Y-110659000D01*
X116294000Y-111159000D01*
X116301000Y-111570000D01*
X116307000Y-111871000D01*
X116310000Y-112040000D01*
X116310000Y-112062000D01*
X116315000Y-112251000D01*
X116565000Y-112388000D01*
X117215000Y-112737000D01*
X117964000Y-113130000D01*
X118767000Y-113544000D01*
X119579000Y-113955000D01*
X120354000Y-114340000D01*
X120595000Y-114458000D01*
X121409000Y-114853000D01*
X122201000Y-115232000D01*
X122989000Y-115605000D01*
X123794000Y-115979000D01*
X124636000Y-116366000D01*
X125534000Y-116773000D01*
X126510000Y-117209000D01*
X127582000Y-117685000D01*
X128770000Y-118208000D01*
X129475000Y-118518000D01*
X130182000Y-118827000D01*
X130757000Y-119080000D01*
X131214000Y-119282000D01*
X131570000Y-119441000D01*
X131837000Y-119564000D01*
X132032000Y-119657000D01*
X132168000Y-119728000D01*
X132260000Y-119784000D01*
X132323000Y-119832000D01*
X132372000Y-119879000D01*
X132409000Y-119917000D01*
X132656000Y-120262000D01*
X132869000Y-120711000D01*
X132926000Y-120872000D01*
X132977000Y-121023000D01*
X132997000Y-121079000D01*
X133062000Y-121051000D01*
X133200000Y-120977000D01*
X134110000Y-120555000D01*
X135109000Y-120253000D01*
X136171000Y-120078000D01*
X136372000Y-120061000D01*
X136734000Y-120046000D01*
X137175000Y-120049000D01*
X137611000Y-120066000D01*
X137925000Y-120092000D01*
X139052000Y-120293000D01*
X140115000Y-120627000D01*
X141101000Y-121087000D01*
X141999000Y-121666000D01*
X142795000Y-122357000D01*
X143433000Y-123095000D01*
X143978000Y-123951000D01*
X144383000Y-124869000D01*
X144640000Y-125829000D01*
X144665000Y-125975000D01*
X144715000Y-126474000D01*
X144726000Y-127108000D01*
X144699000Y-127852000D01*
X144686000Y-128052000D01*
X144665000Y-128377000D01*
X144646000Y-128668000D01*
X144634000Y-128862000D01*
X144620000Y-129092000D01*
X144948000Y-129354000D01*
X145417000Y-129742000D01*
X145810000Y-130091000D01*
X146111000Y-130384000D01*
X146301000Y-130606000D01*
X146317000Y-130630000D01*
X146383000Y-130752000D01*
X146401000Y-130892000D01*
X146401000Y-130900000D01*
X146408000Y-131052000D01*
X144514000Y-133132000D01*
X144072000Y-133616000D01*
X143664000Y-134062000D01*
X143302000Y-134456000D01*
X142998000Y-134783000D01*
X142766000Y-135032000D01*
X142618000Y-135187000D01*
X142568000Y-135236000D01*
X142395000Y-135260000D01*
X142208000Y-135225000D01*
X142063000Y-135152000D01*
X141898000Y-135024000D01*
X141675000Y-134810000D01*
X141645000Y-134780000D01*
X141057000Y-134259000D01*
X140400000Y-133799000D01*
X139717000Y-133428000D01*
X139054000Y-133174000D01*
X139017000Y-133164000D01*
X138614000Y-133070000D01*
X138199000Y-133019000D01*
X137702000Y-133002000D01*
X137657000Y-133002000D01*
X136750000Y-133070000D01*
X135916000Y-133275000D01*
X135375000Y-133500000D01*
X134718000Y-133892000D01*
X134166000Y-134363000D01*
X133620000Y-135013000D01*
X133178000Y-135769000D01*
X132850000Y-136610000D01*
X132643000Y-137517000D01*
X132565000Y-138467000D01*
X132565000Y-138542000D01*
X132634000Y-139510000D01*
X132836000Y-140432000D01*
X133165000Y-141291000D01*
X133612000Y-142066000D01*
X134114000Y-142680000D01*
X134760000Y-143238000D01*
X135492000Y-143663000D01*
X136305000Y-143952000D01*
X137194000Y-144104000D01*
X138051000Y-144121000D01*
X138592000Y-144079000D01*
X139014000Y-144002000D01*
X139019000Y-144000000D01*
X139567000Y-143830000D01*
X140105000Y-143599000D01*
X140655000Y-143292000D01*
X141243000Y-142896000D01*
X141895000Y-142395000D01*
X142221000Y-142127000D01*
X142691000Y-141734000D01*
X142822000Y-141873000D01*
X142908000Y-141963000D01*
X143091000Y-142153000D01*
X143356000Y-142428000D01*
X143691000Y-142775000D01*
X144080000Y-143179000D01*
X144510000Y-143624000D01*
X144814000Y-143939000D01*
X145257000Y-144398000D01*
X145662000Y-144818000D01*
X146017000Y-145187000D01*
X146308000Y-145490000D01*
X146524000Y-145715000D01*
X146651000Y-145848000D01*
X146680000Y-145879000D01*
X146632000Y-145939000D01*
X146500000Y-146083000D01*
X146314000Y-146280000D01*
X146310000Y-146285000D01*
X145435000Y-147149000D01*
X144585000Y-147875000D01*
X143737000Y-148478000D01*
X142867000Y-148974000D01*
X141953000Y-149377000D01*
X141139000Y-149654000D01*
X139912000Y-149947000D01*
X138618000Y-150117000D01*
X137294000Y-150160000D01*
X136052000Y-150081000D01*
X134684000Y-149854000D01*
X133392000Y-149488000D01*
X132169000Y-148981000D01*
X132154000Y-148973000D01*
X130982000Y-148316000D01*
X129908000Y-147533000D01*
X129757000Y-147407000D01*
X129516000Y-147188000D01*
X129221000Y-146905000D01*
X128925000Y-146608000D01*
X128683000Y-146351000D01*
X128657000Y-146322000D01*
X127826000Y-145266000D01*
X127129000Y-144125000D01*
X126571000Y-142911000D01*
X126159000Y-141635000D01*
X126055000Y-141197000D01*
X126021000Y-141042000D01*
X119613000Y-141042000D01*
X118616000Y-141042000D01*
X117667000Y-141043000D01*
X116777000Y-141043000D01*
X115958000Y-141044000D01*
X115223000Y-141045000D01*
X114583000Y-141047000D01*
X114051000Y-141048000D01*
X113638000Y-141050000D01*
X113356000Y-141052000D01*
X113218000Y-141054000D01*
X113205000Y-141055000D01*
X113228000Y-141153000D01*
X113285000Y-141337000D01*
X113354000Y-141543000D01*
X113406000Y-141684000D01*
X113784000Y-142436000D01*
X114275000Y-143076000D01*
X114876000Y-143601000D01*
X115585000Y-144009000D01*
X116398000Y-144300000D01*
X117313000Y-144470000D01*
X117422000Y-144482000D01*
X117624000Y-144494000D01*
X117903000Y-144501000D01*
X118052000Y-144502000D01*
X118975000Y-144446000D01*
X119825000Y-144273000D01*
X120648000Y-143972000D01*
X120969000Y-143819000D01*
X121712000Y-143393000D01*
X122317000Y-142940000D01*
X122402000Y-142863000D01*
X122670000Y-142618000D01*
X122854000Y-142464000D01*
X122985000Y-142378000D01*
X123095000Y-142342000D01*
X123206000Y-142334000D01*
X123361000Y-142351000D01*
X123452000Y-142392000D01*
X123530000Y-142449000D01*
X123690000Y-142582000D01*
X123937000Y-142797000D01*
X124279000Y-143100000D01*
X124724000Y-143499000D01*
X125279000Y-143999000D01*
X125304000Y-144022000D01*
X125820000Y-144488000D01*
X126227000Y-144858000D01*
X126538000Y-145142000D01*
X126763000Y-145351000D01*
X126914000Y-145496000D01*
X127003000Y-145587000D01*
X127041000Y-145634000D01*
X127044000Y-145643000D01*
X127008000Y-145828000D01*
X126918000Y-146036000D01*
X126910000Y-146050000D01*
X126693000Y-146349000D01*
X126357000Y-146726000D01*
X126126000Y-146962000D01*
X125673000Y-147394000D01*
X125238000Y-147761000D01*
X124975000Y-147962000D01*
X123918000Y-148647000D01*
X122770000Y-149210000D01*
X121545000Y-149646000D01*
X120258000Y-149951000D01*
X118925000Y-150121000D01*
X117560000Y-150154000D01*
X116575000Y-150090000D01*
X115227000Y-149881000D01*
X113926000Y-149537000D01*
X112689000Y-149062000D01*
X111530000Y-148466000D01*
X110466000Y-147753000D01*
X109741000Y-147148000D01*
X109573000Y-146980000D01*
X109356000Y-146746000D01*
X109186000Y-146552000D01*
X109010000Y-146348000D01*
X108880000Y-146201000D01*
X108825000Y-146145000D01*
X108780000Y-146202000D01*
X108722000Y-146315000D01*
X108280000Y-147089000D01*
X107700000Y-147823000D01*
X107003000Y-148493000D01*
X106765000Y-148684000D01*
X106001000Y-149193000D01*
X105128000Y-149635000D01*
X104189000Y-149990000D01*
X103806000Y-150102000D01*
X102850000Y-150312000D01*
X101804000Y-150455000D01*
X100726000Y-150526000D01*
X99705000Y-150522000D01*
X98166000Y-150377000D01*
X96608000Y-150077000D01*
X95038000Y-149622000D01*
X94279000Y-149349000D01*
X94049000Y-149258000D01*
X93763000Y-149141000D01*
X93471000Y-149019000D01*
X93220000Y-148911000D01*
X93059000Y-148839000D01*
X93040000Y-148829000D01*
X92985000Y-148801000D01*
X92985000Y-145657000D01*
X92985000Y-142514000D01*
X93030000Y-142397000D01*
X93167000Y-142190000D01*
X93260000Y-142099000D01*
X93500000Y-142219000D01*
X93753000Y-142352000D01*
X94011000Y-142500000D01*
X94330000Y-142699000D01*
X94425000Y-142759000D01*
X95685000Y-143474000D01*
X96845000Y-143997000D01*
X97949000Y-144385000D01*
X99011000Y-144643000D01*
X100017000Y-144769000D01*
X100955000Y-144762000D01*
X101055000Y-144753000D01*
X101695000Y-144643000D01*
X102194000Y-144460000D01*
X102554000Y-144201000D01*
X102777000Y-143866000D01*
X102813000Y-143762000D01*
X102841000Y-143567000D01*
X102845000Y-143318000D01*
X102825000Y-143131000D01*
X102686000Y-142843000D01*
X102397000Y-142560000D01*
X101956000Y-142280000D01*
X101361000Y-142000000D01*
X100825000Y-141796000D01*
X100425000Y-141658000D01*
X99995000Y-141518000D01*
X99497000Y-141365000D01*
X98895000Y-141186000D01*
X98675000Y-141122000D01*
X97950000Y-140908000D01*
X97349000Y-140722000D01*
X96840000Y-140552000D01*
X96390000Y-140389000D01*
X96115000Y-140282000D01*
X95204000Y-139877000D01*
X94409000Y-139434000D01*
X93689000Y-138927000D01*
X93149000Y-138467000D01*
X93023000Y-138352000D01*
X93004000Y-136772000D01*
X92998000Y-136258000D01*
X92990000Y-135774000D01*
X92981000Y-135352000D01*
X92973000Y-135025000D01*
X92965000Y-134825000D01*
X92965000Y-134822000D01*
X92878000Y-133808000D01*
X92743000Y-132972000D01*
X97851000Y-132972000D01*
X97886000Y-133326000D01*
X97893000Y-133347000D01*
X98040000Y-133618000D01*
X98291000Y-133872000D01*
X98666000Y-134126000D01*
X99075000Y-134343000D01*
X99395000Y-134493000D01*
X99738000Y-134641000D01*
X100129000Y-134795000D01*
X100592000Y-134966000D01*
X101152000Y-135161000D01*
X101832000Y-135391000D01*
X102075000Y-135472000D01*
X102722000Y-135687000D01*
X103240000Y-135861000D01*
X103655000Y-136004000D01*
X103991000Y-136126000D01*
X104270000Y-136235000D01*
X104518000Y-136342000D01*
X104758000Y-136456000D01*
X105014000Y-136587000D01*
X105311000Y-136745000D01*
X105435000Y-136811000D01*
X105763000Y-136985000D01*
X106034000Y-137127000D01*
X106221000Y-137221000D01*
X106295000Y-137255000D01*
X106319000Y-137182000D01*
X106330000Y-137100000D01*
X106432000Y-136462000D01*
X113090000Y-136462000D01*
X117238000Y-136462000D01*
X118158000Y-136462000D01*
X118930000Y-136462000D01*
X119568000Y-136461000D01*
X120085000Y-136461000D01*
X120493000Y-136459000D01*
X120806000Y-136457000D01*
X121035000Y-136455000D01*
X121194000Y-136451000D01*
X121296000Y-136447000D01*
X121353000Y-136441000D01*
X121378000Y-136434000D01*
X121385000Y-136426000D01*
X121385000Y-136422000D01*
X121366000Y-136297000D01*
X121320000Y-136083000D01*
X121262000Y-135843000D01*
X121214000Y-135669000D01*
X120900000Y-134872000D01*
X120479000Y-134179000D01*
X119958000Y-133599000D01*
X119346000Y-133142000D01*
X118653000Y-132816000D01*
X118452000Y-132751000D01*
X117797000Y-132629000D01*
X117081000Y-132611000D01*
X116366000Y-132699000D01*
X116095000Y-132763000D01*
X115481000Y-133005000D01*
X114886000Y-133379000D01*
X114430000Y-133777000D01*
X113879000Y-134448000D01*
X113462000Y-135206000D01*
X113179000Y-136050000D01*
X113137000Y-136237000D01*
X113090000Y-136462000D01*
X106432000Y-136462000D01*
X106520000Y-135908000D01*
X106836000Y-134710000D01*
X107260000Y-133571000D01*
X107342000Y-133388000D01*
X107970000Y-132199000D01*
X108713000Y-131111000D01*
X109565000Y-130133000D01*
X110518000Y-129272000D01*
X111565000Y-128535000D01*
X112700000Y-127929000D01*
X112895000Y-127841000D01*
X113155000Y-127729000D01*
X113171000Y-126840000D01*
X113175000Y-126480000D01*
X113178000Y-126009000D01*
X113180000Y-125452000D01*
X113180000Y-124834000D01*
X113179000Y-124179000D01*
X113177000Y-123512000D01*
X113174000Y-122856000D01*
X113170000Y-122236000D01*
X113165000Y-121677000D01*
X113160000Y-121202000D01*
X113154000Y-120837000D01*
X113147000Y-120605000D01*
X113147000Y-120592000D01*
X113134000Y-120362000D01*
X113113000Y-120008000D01*
X113085000Y-119566000D01*
X113054000Y-119072000D01*
X113025000Y-118632000D01*
X112919000Y-116989000D01*
X112819000Y-115350000D01*
X112816460Y-115305000D01*
X113734000Y-115305000D01*
X113738000Y-115532000D01*
X113744000Y-115894000D01*
X113752000Y-116379000D01*
X113763000Y-116975000D01*
X113776000Y-117668000D01*
X113791000Y-118448000D01*
X113807000Y-119301000D01*
X113825000Y-120216000D01*
X113844000Y-121179000D01*
X113846000Y-121273000D01*
X113865000Y-122242000D01*
X113883000Y-123165000D01*
X113900000Y-124029000D01*
X113915000Y-124821000D01*
X113929000Y-125530000D01*
X113941000Y-126142000D01*
X113951000Y-126646000D01*
X113958000Y-127028000D01*
X113963000Y-127276000D01*
X113965000Y-127378000D01*
X113965000Y-127379000D01*
X113982000Y-127438000D01*
X114010000Y-127434000D01*
X115057000Y-127182000D01*
X116160000Y-127018000D01*
X116251000Y-127008000D01*
X116535000Y-126989000D01*
X116922000Y-126977000D01*
X117360000Y-126971000D01*
X117799000Y-126972000D01*
X118184000Y-126981000D01*
X118464000Y-126997000D01*
X118475000Y-126998000D01*
X119712000Y-127181000D01*
X120862000Y-127479000D01*
X121958000Y-127902000D01*
X122295000Y-128062000D01*
X123043000Y-128468000D01*
X123696000Y-128897000D01*
X123885000Y-129040000D01*
X124026000Y-129143000D01*
X124078000Y-129147000D01*
X124077000Y-129087000D01*
X124074000Y-128991000D01*
X124071000Y-128755000D01*
X124067000Y-128399000D01*
X124063000Y-127941000D01*
X124060000Y-127402000D01*
X124056000Y-126801000D01*
X124055000Y-126442000D01*
X124048000Y-125103000D01*
X124040000Y-123919000D01*
X124032000Y-122884000D01*
X124022000Y-121994000D01*
X124012000Y-121244000D01*
X124000000Y-120627000D01*
X123988000Y-120140000D01*
X123973000Y-119777000D01*
X123958000Y-119532000D01*
X123941000Y-119401000D01*
X123934000Y-119380000D01*
X123829000Y-119279000D01*
X123613000Y-119138000D01*
X123323000Y-118981000D01*
X123315000Y-118977000D01*
X123022000Y-118836000D01*
X122678000Y-118683000D01*
X122269000Y-118510000D01*
X121783000Y-118314000D01*
X121205000Y-118088000D01*
X120523000Y-117828000D01*
X119724000Y-117529000D01*
X118795000Y-117185000D01*
X118225000Y-116975000D01*
X117318000Y-116642000D01*
X116547000Y-116357000D01*
X115900000Y-116115000D01*
X115364000Y-115911000D01*
X114923000Y-115740000D01*
X114566000Y-115596000D01*
X114277000Y-115474000D01*
X114045000Y-115370000D01*
X113885000Y-115292000D01*
X113765000Y-115236000D01*
X113734000Y-115226000D01*
X113734000Y-115305000D01*
X112816460Y-115305000D01*
X112812000Y-115226000D01*
X112722000Y-113683000D01*
X112628000Y-111957000D01*
X112627000Y-111936000D01*
X113270000Y-111936000D01*
X113281000Y-112247000D01*
X113283000Y-112282000D01*
X113325000Y-112709000D01*
X113383000Y-113130000D01*
X113449000Y-113504000D01*
X113518000Y-113790000D01*
X113566000Y-113923000D01*
X113719000Y-114099000D01*
X114019000Y-114314000D01*
X114471000Y-114570000D01*
X114665000Y-114669000D01*
X115017000Y-114841000D01*
X115407000Y-115021000D01*
X115851000Y-115217000D01*
X116365000Y-115435000D01*
X116964000Y-115682000D01*
X117664000Y-115963000D01*
X118482000Y-116286000D01*
X119432000Y-116658000D01*
X119545000Y-116702000D01*
X120490000Y-117071000D01*
X121298000Y-117390000D01*
X121983000Y-117664000D01*
X122557000Y-117899000D01*
X123033000Y-118100000D01*
X123426000Y-118273000D01*
X123748000Y-118424000D01*
X124012000Y-118558000D01*
X124232000Y-118681000D01*
X124233000Y-118682000D01*
X124471000Y-118849000D01*
X124579000Y-118999000D01*
X124583000Y-119012000D01*
X124605000Y-119140000D01*
X124631000Y-119349000D01*
X124634000Y-119382000D01*
X124663000Y-119721000D01*
X124689000Y-120148000D01*
X124711000Y-120673000D01*
X124732000Y-121304000D01*
X124749000Y-122049000D01*
X124765000Y-122917000D01*
X124778000Y-123915000D01*
X124790000Y-125053000D01*
X124799000Y-126339000D01*
X124803000Y-126976000D01*
X124820000Y-129840000D01*
X125058000Y-130096000D01*
X125857000Y-131059000D01*
X126371000Y-131837000D01*
X126566000Y-132188000D01*
X126759000Y-132590000D01*
X126876000Y-132857000D01*
X126966000Y-133066000D01*
X127025000Y-133198000D01*
X127037000Y-133222000D01*
X127073000Y-133159000D01*
X127157000Y-133000000D01*
X127196000Y-132927000D01*
X127804000Y-131906000D01*
X128121000Y-131463000D01*
X128313000Y-131216000D01*
X128492000Y-131004000D01*
X128696000Y-130788000D01*
X128960000Y-130526000D01*
X129142000Y-130351000D01*
X129384000Y-130118000D01*
X129585000Y-129922000D01*
X129713000Y-129792000D01*
X129741000Y-129762000D01*
X129784000Y-129700000D01*
X129809000Y-129614000D01*
X129831000Y-129444000D01*
X129838000Y-129378000D01*
X129852000Y-129217000D01*
X129859000Y-129040000D01*
X129861000Y-128807000D01*
X129858000Y-128481000D01*
X129852000Y-128152000D01*
X129840000Y-127390000D01*
X129840000Y-127347000D01*
X133658000Y-127347000D01*
X133660000Y-127492000D01*
X133675000Y-127522000D01*
X133760000Y-127503000D01*
X133909000Y-127463000D01*
X134971000Y-127218000D01*
X136149000Y-127045000D01*
X136305000Y-127028000D01*
X136580000Y-127011000D01*
X136966000Y-126998000D01*
X137416000Y-126992000D01*
X137879000Y-126991000D01*
X138307000Y-126997000D01*
X138652000Y-127009000D01*
X138785000Y-127018000D01*
X139388000Y-127079000D01*
X139933000Y-127150000D01*
X140341000Y-127215000D01*
X140537000Y-127246000D01*
X140646000Y-127259000D01*
X140654000Y-127259000D01*
X140651000Y-127181000D01*
X140632000Y-127014000D01*
X140604000Y-126830000D01*
X140593000Y-126772000D01*
X140382000Y-126099000D01*
X140042000Y-125514000D01*
X139580000Y-125024000D01*
X139008000Y-124639000D01*
X138333000Y-124367000D01*
X137875000Y-124260000D01*
X137484000Y-124219000D01*
X137036000Y-124213000D01*
X136630000Y-124242000D01*
X136585000Y-124248000D01*
X135812000Y-124442000D01*
X135128000Y-124768000D01*
X134887000Y-124929000D01*
X134644000Y-125135000D01*
X134395000Y-125390000D01*
X134268000Y-125542000D01*
X133965000Y-126054000D01*
X133760000Y-126626000D01*
X133757000Y-126639000D01*
X133711000Y-126871000D01*
X133677000Y-127124000D01*
X133658000Y-127347000D01*
X129840000Y-127347000D01*
X129836000Y-126776000D01*
X129838000Y-126296000D01*
X129849000Y-125939000D01*
X129867000Y-125691000D01*
X129872000Y-125652000D01*
X130000000Y-124971000D01*
X130201000Y-124355000D01*
X130448000Y-123822000D01*
X130837000Y-123168000D01*
X131302000Y-122543000D01*
X131801000Y-122003000D01*
X131946000Y-121870000D01*
X132096000Y-121733000D01*
X132157000Y-121658000D01*
X132165000Y-121621000D01*
X132156000Y-121512000D01*
X132132000Y-121310000D01*
X132124000Y-121241000D01*
X132055000Y-120822000D01*
X131967000Y-120532000D01*
X131844000Y-120338000D01*
X131673000Y-120208000D01*
X131669000Y-120206000D01*
X131525000Y-120141000D01*
X131300000Y-120051000D01*
X131198000Y-120013000D01*
X131056000Y-119960000D01*
X130930000Y-119912000D01*
X130797000Y-119859000D01*
X130632000Y-119791000D01*
X130412000Y-119696000D01*
X130110000Y-119565000D01*
X129704000Y-119388000D01*
X129335000Y-119227000D01*
X127188000Y-118284000D01*
X125183000Y-117390000D01*
X123312000Y-116541000D01*
X121566000Y-115735000D01*
X119940000Y-114968000D01*
X119547000Y-114779000D01*
X119071000Y-114546000D01*
X118544000Y-114286000D01*
X117998000Y-114015000D01*
X117466000Y-113749000D01*
X116977000Y-113503000D01*
X116566000Y-113293000D01*
X116262000Y-113136000D01*
X116235000Y-113121000D01*
X115380000Y-112656000D01*
X114671000Y-112247000D01*
X114107000Y-111895000D01*
X113686000Y-111596000D01*
X113460000Y-111405000D01*
X113361000Y-111321000D01*
X113333000Y-111307000D01*
X113298000Y-111420000D01*
X113276000Y-111645000D01*
X113270000Y-111936000D01*
X112627000Y-111936000D01*
X112534000Y-110138000D01*
X112439000Y-108197000D01*
X112425000Y-107914000D01*
X112404000Y-107479000D01*
X112387000Y-107099000D01*
X112374000Y-106803000D01*
X112366000Y-106621000D01*
X112365000Y-106580000D01*
X112365000Y-106502000D01*
X113129000Y-106502000D01*
X113137000Y-106697000D01*
X113143000Y-106844000D01*
X113153000Y-107116000D01*
X113165000Y-107482000D01*
X113179000Y-107907000D01*
X113186000Y-108112000D01*
X113207000Y-108762000D01*
X113224000Y-109271000D01*
X113238000Y-109656000D01*
X113250000Y-109935000D01*
X113261000Y-110128000D01*
X113272000Y-110251000D01*
X113283000Y-110324000D01*
X113297000Y-110363000D01*
X113310000Y-110386000D01*
X113430000Y-110506000D01*
X113657000Y-110697000D01*
X113967000Y-110938000D01*
X114025000Y-110981000D01*
X114220000Y-111124000D01*
X114469000Y-111303000D01*
X114739000Y-111495000D01*
X114998000Y-111677000D01*
X115214000Y-111826000D01*
X115354000Y-111920000D01*
X115390000Y-111941000D01*
X115394000Y-111865000D01*
X115397000Y-111646000D01*
X115400000Y-111304000D01*
X115402000Y-110858000D01*
X115404000Y-110325000D01*
X115405000Y-109723000D01*
X115405000Y-109222000D01*
X115405000Y-106502000D01*
X114267000Y-106502000D01*
X113129000Y-106502000D01*
X112365000Y-106502000D01*
X112215000Y-106502000D01*
X109802000Y-106497000D01*
X107239000Y-106492000D01*
X107252000Y-107892000D01*
X107258000Y-108642000D01*
X107264000Y-109441000D01*
X107268000Y-110269000D01*
X107272000Y-111105000D01*
X107275000Y-111928000D01*
X107277000Y-112719000D01*
X107278000Y-113458000D01*
X107278000Y-114123000D01*
X107277000Y-114695000D01*
X107275000Y-115153000D01*
X107271000Y-115477000D01*
X107270000Y-115539000D01*
X107262000Y-115900000D01*
X107255000Y-116131000D01*
X107247000Y-116263000D01*
X107235000Y-116327000D01*
X107218000Y-116352000D01*
X107215000Y-116355000D01*
X107078000Y-116413000D01*
X106794000Y-116500000D01*
X106374000Y-116611000D01*
X106132000Y-116672000D01*
X105390000Y-116853000D01*
X104779000Y-117004000D01*
X104278000Y-117129000D01*
X103862000Y-117235000D01*
X103508000Y-117328000D01*
X103193000Y-117415000D01*
X102893000Y-117500000D01*
X102648000Y-117572000D01*
X101552000Y-117919000D01*
X100609000Y-118269000D01*
X99813000Y-118623000D01*
X99157000Y-118985000D01*
X98792000Y-119234000D01*
X98587000Y-119400000D01*
X98463000Y-119544000D01*
X98376000Y-119705000D01*
X98241000Y-120090000D01*
X98143000Y-120600000D01*
X98080000Y-121243000D01*
X98051000Y-122027000D01*
X98056000Y-122959000D01*
X98061000Y-123157000D01*
X98073000Y-123563000D01*
X98089000Y-124014000D01*
X98106000Y-124485000D01*
X98125000Y-124948000D01*
X98143000Y-125374000D01*
X98160000Y-125738000D01*
X98174000Y-126011000D01*
X98185000Y-126167000D01*
X98189000Y-126192000D01*
X98260000Y-126187000D01*
X98315000Y-126180000D01*
X99388000Y-126085000D01*
X100542000Y-126086000D01*
X101729000Y-126184000D01*
X102471000Y-126293000D01*
X103947000Y-126620000D01*
X105401000Y-127079000D01*
X106800000Y-127655000D01*
X108111000Y-128338000D01*
X108490000Y-128566000D01*
X108744000Y-128725000D01*
X108845000Y-128911000D01*
X108919000Y-129056000D01*
X108945000Y-129118000D01*
X108908000Y-129189000D01*
X108804000Y-129380000D01*
X108645000Y-129672000D01*
X108440000Y-130046000D01*
X108200000Y-130482000D01*
X107936000Y-130962000D01*
X107659000Y-131465000D01*
X107379000Y-131973000D01*
X107107000Y-132465000D01*
X106854000Y-132924000D01*
X106630000Y-133328000D01*
X106447000Y-133659000D01*
X106314000Y-133898000D01*
X106243000Y-134024000D01*
X106233000Y-134039000D01*
X106166000Y-134009000D01*
X105994000Y-133923000D01*
X105761000Y-133802000D01*
X105475000Y-133651000D01*
X105209000Y-133512000D01*
X105055000Y-133431000D01*
X104737000Y-133271000D01*
X104339000Y-133080000D01*
X103927000Y-132888000D01*
X103570000Y-132729000D01*
X103565000Y-132727000D01*
X102480000Y-132305000D01*
X101488000Y-132011000D01*
X100589000Y-131845000D01*
X99784000Y-131807000D01*
X99074000Y-131898000D01*
X98807000Y-131973000D01*
X98398000Y-132164000D01*
X98215000Y-132305000D01*
X97964000Y-132622000D01*
X97851000Y-132972000D01*
X92743000Y-132972000D01*
X92734000Y-132916000D01*
X92526000Y-132116000D01*
X92247000Y-131379000D01*
X91991000Y-130856000D01*
X91863000Y-130619000D01*
X92018000Y-130336000D01*
X92626000Y-129374000D01*
X93338000Y-128535000D01*
X94153000Y-127817000D01*
X95075000Y-127218000D01*
X95525000Y-126986000D01*
X96172000Y-126713000D01*
X96857000Y-126482000D01*
X97497000Y-126322000D01*
X97502000Y-126321000D01*
X97628000Y-126296000D01*
X97617000Y-126134000D01*
X97604000Y-125924000D01*
X97595000Y-125762000D01*
X97586000Y-125607000D01*
X97569000Y-125328000D01*
X97547000Y-124962000D01*
X97522000Y-124546000D01*
X97515000Y-124442000D01*
X97474000Y-123769000D01*
X97441000Y-123227000D01*
X97417000Y-122790000D01*
X97400000Y-122428000D01*
X97389000Y-122114000D01*
X97382000Y-121819000D01*
X97378000Y-121517000D01*
X97377000Y-121192000D01*
X97379000Y-120658000D01*
X97389000Y-120248000D01*
X97410000Y-119929000D01*
X97443000Y-119663000D01*
X97493000Y-119417000D01*
X97509000Y-119352000D01*
X97625000Y-119058000D01*
X97829000Y-118806000D01*
X98145000Y-118572000D01*
X98515000Y-118372000D01*
X98838000Y-118224000D01*
X99214000Y-118073000D01*
X99665000Y-117910000D01*
X100212000Y-117729000D01*
X100877000Y-117521000D01*
X101435000Y-117352000D01*
X102182000Y-117129000D01*
X102797000Y-116944000D01*
X103301000Y-116790000D01*
X103716000Y-116661000D01*
X104064000Y-116551000D01*
X104365000Y-116451000D01*
X104642000Y-116357000D01*
X104864000Y-116279000D01*
X105317000Y-116114000D01*
X105720000Y-115959000D01*
X106048000Y-115826000D01*
X106275000Y-115724000D01*
X106378000Y-115664000D01*
X106379000Y-115663000D01*
X106438000Y-115502000D01*
X106488000Y-115200000D01*
X106527000Y-114775000D01*
X106553000Y-114245000D01*
X106565000Y-113629000D01*
X106565000Y-113469000D01*
X106555000Y-112731000D01*
X106525000Y-112136000D01*
X106476000Y-111690000D01*
X106407000Y-111398000D01*
X106404000Y-111389000D01*
X106381000Y-111358000D01*
X106319000Y-111397000D01*
X106259000Y-111448000D01*
X105966000Y-111664000D01*
X105539000Y-111928000D01*
X104975000Y-112241000D01*
X104270000Y-112606000D01*
X103421000Y-113025000D01*
X102565000Y-113432000D01*
X101974000Y-113707000D01*
X101313000Y-114011000D01*
X100571000Y-114347000D01*
X99735000Y-114722000D01*
X98795000Y-115141000D01*
X97740000Y-115608000D01*
X96557000Y-116128000D01*
X95555000Y-116568000D01*
X94780000Y-116907000D01*
X94131000Y-117192000D01*
X93590000Y-117429000D01*
X93138000Y-117627000D01*
X92754000Y-117796000D01*
X92419000Y-117944000D01*
X92113000Y-118079000D01*
X91818000Y-118210000D01*
X91513000Y-118345000D01*
X91375000Y-118407000D01*
X90162000Y-118950000D01*
X89093000Y-119437000D01*
X88164000Y-119870000D01*
X87369000Y-120251000D01*
X86705000Y-120584000D01*
X86167000Y-120869000D01*
X85749000Y-121109000D01*
X85449000Y-121308000D01*
X85260000Y-121466000D01*
X85185000Y-121568000D01*
X85122000Y-121801000D01*
X85069000Y-122184000D01*
X85027000Y-122706000D01*
X85006000Y-123132000D01*
X84994000Y-123528000D01*
X84985000Y-124028000D01*
X84977000Y-124585000D01*
X84973000Y-125153000D01*
X84973000Y-125685000D01*
X84976000Y-126134000D01*
X84980000Y-126362000D01*
X84995000Y-126932000D01*
X85312000Y-126946000D01*
X86394000Y-127063000D01*
X87412000Y-127316000D01*
X88354000Y-127699000D01*
X89210000Y-128208000D01*
X89969000Y-128838000D01*
X90106000Y-128976000D01*
X90774000Y-129783000D01*
X91329000Y-130700000D01*
X91770000Y-131726000D01*
X92099000Y-132864000D01*
X92316000Y-134115000D01*
X92404000Y-135122000D01*
X92425000Y-135592000D01*
X92441000Y-136195000D01*
X92454000Y-136901000D01*
X92462000Y-137683000D01*
X92466000Y-138513000D01*
X92465000Y-139363000D01*
X92460000Y-140205000D01*
X92450000Y-141010000D01*
X92445000Y-141282000D01*
X92436000Y-141769000D01*
X92425000Y-142344000D01*
X92413000Y-142933000D01*
X92403000Y-143452000D01*
X92396000Y-143920000D01*
X92390000Y-144480000D01*
X92386000Y-145102000D01*
X92383000Y-145757000D01*
X92382000Y-146416000D01*
X92383000Y-147050000D01*
X92386000Y-147629000D01*
X92390000Y-148124000D01*
X92396000Y-148506000D01*
X92401000Y-148672000D01*
X92417000Y-149152000D01*
X92296000Y-149427000D01*
X92175000Y-149702000D01*
X88985000Y-149702000D01*
X85794000Y-149702000D01*
X85640000Y-149547000D01*
X85485000Y-149391000D01*
X85485000Y-142902000D01*
X85485000Y-141518000D01*
X85484000Y-140294000D01*
X85483000Y-139230000D01*
X85481000Y-138325000D01*
X85478000Y-137580000D01*
X85476000Y-136993000D01*
X85472000Y-136566000D01*
X85468000Y-136297000D01*
X85464000Y-136192000D01*
X85325000Y-135484000D01*
X85051000Y-134847000D01*
X84891000Y-134597000D01*
X84751000Y-134424000D01*
X84577000Y-134235000D01*
X84574000Y-134233000D01*
X84028000Y-133796000D01*
X83393000Y-133479000D01*
X82697000Y-133294000D01*
X81967000Y-133248000D01*
X81945000Y-133249000D01*
X81208000Y-133356000D01*
X80537000Y-133606000D01*
X79942000Y-133996000D01*
X79814000Y-134106000D01*
X79558000Y-134388000D01*
X79312000Y-134734000D01*
X79198000Y-134936000D01*
X79011000Y-135377000D01*
X78838000Y-135919000D01*
X78786000Y-136115000D01*
X78779000Y-136146000D01*
X78772000Y-136184000D01*
X78767000Y-136239000D01*
X78762000Y-136322000D01*
X78758000Y-136443000D01*
X78755000Y-136612000D01*
X78752000Y-136841000D01*
X78750000Y-137138000D01*
X78748000Y-137516000D01*
X78747000Y-137985000D01*
X78746000Y-138554000D01*
X78746000Y-139235000D01*
X78745000Y-140037000D01*
X78745000Y-140972000D01*
X78745000Y-142049000D01*
X78745000Y-142826000D01*
X78745000Y-149373000D01*
X78580000Y-149537000D01*
X78414000Y-149702000D01*
X75264000Y-149702000D01*
X72114000Y-149702000D01*
X71960000Y-149547000D01*
X71805000Y-149391000D01*
X71805000Y-139310000D01*
X71805000Y-129228000D01*
X74978000Y-127600000D01*
X75706000Y-127227000D01*
X76363000Y-126891000D01*
X76940000Y-126598000D01*
X77424000Y-126354000D01*
X77805000Y-126163000D01*
X78070000Y-126032000D01*
X78209000Y-125967000D01*
X78226000Y-125961000D01*
X78445000Y-126000000D01*
X78639000Y-126152000D01*
X78691000Y-126229000D01*
X78735000Y-126312000D01*
X78740000Y-127992000D01*
X78746000Y-129672000D01*
X79020000Y-129405000D01*
X79891000Y-128632000D01*
X80759000Y-128013000D01*
X81637000Y-127541000D01*
X82534000Y-127211000D01*
X83406000Y-127024000D01*
X83644000Y-126992000D01*
X83835000Y-126972000D01*
X83990000Y-126958000D01*
X84043000Y-126950000D01*
X84091000Y-126940000D01*
X84074000Y-125636000D01*
X84064000Y-124802000D01*
X84059000Y-124116000D01*
X84057000Y-123568000D01*
X84060000Y-123145000D01*
X84068000Y-122836000D01*
X84079000Y-122630000D01*
X84082000Y-122602000D01*
X84154000Y-122023000D01*
X84253000Y-121392000D01*
X84287000Y-121202000D01*
X84337000Y-120941000D01*
X84384000Y-120787000D01*
X84459000Y-120691000D01*
X84594000Y-120603000D01*
X84705000Y-120540000D01*
X84913000Y-120425000D01*
X85172000Y-120291000D01*
X85490000Y-120132000D01*
X85874000Y-119947000D01*
X86333000Y-119730000D01*
X86874000Y-119479000D01*
X87507000Y-119189000D01*
X88238000Y-118858000D01*
X89076000Y-118480000D01*
X90028000Y-118053000D01*
X91104000Y-117573000D01*
X92310000Y-117036000D01*
X93605000Y-116461000D01*
X94927000Y-115875000D01*
X96114000Y-115347000D01*
X97178000Y-114873000D01*
X98133000Y-114447000D01*
X98988000Y-114063000D01*
X99758000Y-113717000D01*
X100453000Y-113403000D01*
X101085000Y-113115000D01*
X101667000Y-112848000D01*
X102210000Y-112596000D01*
X102728000Y-112355000D01*
X103230000Y-112118000D01*
X103295000Y-112088000D01*
X103715000Y-111889000D01*
X103728000Y-110731000D01*
X103735000Y-110189000D01*
X103740000Y-109928000D01*
X104337000Y-109928000D01*
X104338000Y-110377000D01*
X104342000Y-110719000D01*
X104347000Y-110971000D01*
X104355000Y-111150000D01*
X104356000Y-111162000D01*
X104371000Y-111388000D01*
X104381000Y-111532000D01*
X104383000Y-111558000D01*
X104450000Y-111529000D01*
X104623000Y-111444000D01*
X104867000Y-111321000D01*
X105147000Y-111177000D01*
X105428000Y-111031000D01*
X105675000Y-110900000D01*
X105852000Y-110804000D01*
X105870000Y-110794000D01*
X106198000Y-110600000D01*
X106407000Y-110458000D01*
X106480000Y-110396000D01*
X106545000Y-110334000D01*
X106545000Y-108418000D01*
X106545000Y-106502000D01*
X105448000Y-106502000D01*
X104351000Y-106502000D01*
X104341000Y-108637000D01*
X104338000Y-109354000D01*
X104337000Y-109928000D01*
X103740000Y-109928000D01*
X103746000Y-109585000D01*
X103759000Y-108992000D01*
X103772000Y-108512000D01*
X103785000Y-108065000D01*
X103798000Y-107627000D01*
X103809000Y-107249000D01*
X103817000Y-106980000D01*
X103817000Y-106977000D01*
X103830000Y-106502000D01*
X83791000Y-106502000D01*
X63752000Y-106502000D01*
X55944000Y-109120000D01*
X48135000Y-111737000D01*
X48032000Y-111539000D01*
X47684000Y-111022000D01*
X47302000Y-110657000D01*
X47193000Y-110569000D01*
X47165000Y-110541000D01*
X47238000Y-110511000D01*
X47451000Y-110427000D01*
X47793000Y-110294000D01*
X48256000Y-110113000D01*
X48830000Y-109890000D01*
X49504000Y-109628000D01*
X50270000Y-109331000D01*
X51118000Y-109002000D01*
X52037000Y-108646000D01*
X53020000Y-108265000D01*
X54054000Y-107865000D01*
X55133000Y-107448000D01*
X55170000Y-107433000D01*
X56250000Y-107016000D01*
X57286000Y-106614000D01*
X58271000Y-106233000D01*
X59194000Y-105876000D01*
X60045000Y-105547000D01*
X60354000Y-105427000D01*
X76306000Y-105427000D01*
X76384000Y-105429000D01*
X76615000Y-105430000D01*
X76989000Y-105432000D01*
X77498000Y-105433000D01*
X78135000Y-105434000D01*
X78891000Y-105436000D01*
X79759000Y-105437000D01*
X80729000Y-105438000D01*
X81793000Y-105439000D01*
X82944000Y-105440000D01*
X84174000Y-105441000D01*
X85474000Y-105441000D01*
X86836000Y-105442000D01*
X88251000Y-105442000D01*
X89713000Y-105442000D01*
X90075000Y-105442000D01*
X103845000Y-105442000D01*
X103845000Y-105285000D01*
X103849000Y-105095000D01*
X103852139Y-105012000D01*
X104365000Y-105012000D01*
X104365000Y-105442000D01*
X105455000Y-105442000D01*
X106545000Y-105442000D01*
X106545000Y-105012000D01*
X106545000Y-104739000D01*
X107225000Y-104739000D01*
X107229000Y-104929000D01*
X107238000Y-105167000D01*
X107238000Y-105169000D01*
X107251000Y-105442000D01*
X109783000Y-105442000D01*
X112315000Y-105442000D01*
X112299000Y-105037000D01*
X112288000Y-104801000D01*
X112279000Y-104643000D01*
X112274000Y-104607000D01*
X112241000Y-104600000D01*
X112138000Y-104594000D01*
X111951000Y-104590000D01*
X111666000Y-104586000D01*
X111269000Y-104584000D01*
X110746000Y-104583000D01*
X110083000Y-104582000D01*
X113079000Y-104582000D01*
X113092000Y-104837000D01*
X113101000Y-105079000D01*
X113105000Y-105267000D01*
X113105000Y-105442000D01*
X114255000Y-105442000D01*
X115405000Y-105442000D01*
X115405000Y-105012000D01*
X115405000Y-104582000D01*
X114242000Y-104582000D01*
X113079000Y-104582000D01*
X110083000Y-104582000D01*
X109746000Y-104582000D01*
X107225000Y-104582000D01*
X107225000Y-104739000D01*
X106545000Y-104739000D01*
X106545000Y-104582000D01*
X105455000Y-104582000D01*
X104365000Y-104582000D01*
X104365000Y-105012000D01*
X103852139Y-105012000D01*
X103858000Y-104857000D01*
X103858000Y-104855000D01*
X103871000Y-104582000D01*
X90828000Y-104582000D01*
X89397000Y-104582000D01*
X88009000Y-104582000D01*
X86674000Y-104582000D01*
X85400000Y-104581000D01*
X84194000Y-104581000D01*
X83066000Y-104580000D01*
X82024000Y-104580000D01*
X81077000Y-104579000D01*
X80232000Y-104578000D01*
X79498000Y-104577000D01*
X78883000Y-104577000D01*
X78396000Y-104576000D01*
X78046000Y-104575000D01*
X77840000Y-104574000D01*
X77785000Y-104573000D01*
X77822000Y-104503000D01*
X77926000Y-104319000D01*
X78081000Y-104043000D01*
X78275000Y-103701000D01*
X78493000Y-103316000D01*
X78723000Y-102912000D01*
X78950000Y-102513000D01*
X79161000Y-102144000D01*
X79342000Y-101827000D01*
X79479000Y-101588000D01*
X79560000Y-101450000D01*
X79574000Y-101426000D01*
X79602000Y-101423000D01*
X79683000Y-101420000D01*
X79824000Y-101417000D01*
X80032000Y-101415000D01*
X80313000Y-101413000D01*
X80674000Y-101412000D01*
X81122000Y-101411000D01*
X81664000Y-101410000D01*
X82305000Y-101410000D01*
X83054000Y-101410000D01*
X83916000Y-101411000D01*
X84898000Y-101412000D01*
X86007000Y-101413000D01*
X87250000Y-101415000D01*
X88633000Y-101417000D01*
X90163000Y-101420000D01*
X91743000Y-101423000D01*
X93124000Y-101425000D01*
X94461000Y-101427000D01*
X95745000Y-101429000D01*
X96967000Y-101431000D01*
X98119000Y-101433000D01*
X99192000Y-101434000D01*
X100177000Y-101436000D01*
X101066000Y-101437000D01*
X101850000Y-101437000D01*
X102520000Y-101438000D01*
X103068000Y-101438000D01*
X103484000Y-101438000D01*
X103761000Y-101438000D01*
X103889000Y-101437000D01*
X103897000Y-101437000D01*
X103904000Y-101360000D01*
X103912000Y-101171000D01*
X103917853Y-101012000D01*
X104405000Y-101012000D01*
X104405000Y-101442000D01*
X105475000Y-101442000D01*
X106545000Y-101442000D01*
X106545000Y-101012000D01*
X106545000Y-101011000D01*
X107205000Y-101011000D01*
X107205000Y-101442000D01*
X109678000Y-101442000D01*
X112151000Y-101442000D01*
X112139000Y-101029000D01*
X112130000Y-100796000D01*
X112123000Y-100644000D01*
X112120000Y-100612000D01*
X112042000Y-100610000D01*
X111823000Y-100608000D01*
X111484000Y-100605000D01*
X111042000Y-100602000D01*
X112979000Y-100602000D01*
X112992000Y-100857000D01*
X113001000Y-101094000D01*
X113005000Y-101276000D01*
X113009000Y-101406000D01*
X113035000Y-101444000D01*
X113050000Y-101448000D01*
X113142000Y-101451000D01*
X113364000Y-101454000D01*
X113687000Y-101457000D01*
X114081000Y-101459000D01*
X114250000Y-101459000D01*
X115405000Y-101462000D01*
X115405000Y-101032000D01*
X115405000Y-100602000D01*
X114192000Y-100602000D01*
X112979000Y-100602000D01*
X111042000Y-100602000D01*
X111039000Y-100602000D01*
X110775000Y-100600000D01*
X116103000Y-100600000D01*
X116117000Y-101026000D01*
X116125000Y-101263000D01*
X116131000Y-101419000D01*
X116133000Y-101455000D01*
X116211000Y-101456000D01*
X116441000Y-101456000D01*
X116813000Y-101457000D01*
X117318000Y-101458000D01*
X117947000Y-101459000D01*
X118692000Y-101460000D01*
X119542000Y-101462000D01*
X120490000Y-101463000D01*
X121526000Y-101465000D01*
X122641000Y-101466000D01*
X123827000Y-101468000D01*
X125074000Y-101470000D01*
X126374000Y-101472000D01*
X127560000Y-101473000D01*
X129270000Y-101475000D01*
X130825000Y-101478000D01*
X132229000Y-101480000D01*
X133486000Y-101482000D01*
X134602000Y-101485000D01*
X135580000Y-101487000D01*
X136425000Y-101490000D01*
X137142000Y-101492000D01*
X137735000Y-101495000D01*
X138209000Y-101498000D01*
X138568000Y-101501000D01*
X138817000Y-101504000D01*
X138960000Y-101507000D01*
X139003000Y-101510000D01*
X139049000Y-101588000D01*
X139172000Y-101804000D01*
X139373000Y-102158000D01*
X139650000Y-102648000D01*
X140002000Y-103273000D01*
X140430000Y-104032000D01*
X140617000Y-104363000D01*
X140696000Y-104507000D01*
X140725000Y-104568000D01*
X140646000Y-104570000D01*
X140417000Y-104571000D01*
X140044000Y-104573000D01*
X139537000Y-104574000D01*
X138905000Y-104575000D01*
X138156000Y-104577000D01*
X137299000Y-104578000D01*
X136343000Y-104579000D01*
X135296000Y-104580000D01*
X134166000Y-104580000D01*
X132963000Y-104581000D01*
X131696000Y-104582000D01*
X130372000Y-104582000D01*
X129000000Y-104582000D01*
X128455000Y-104582000D01*
X116185000Y-104582000D01*
X116185000Y-104919000D01*
X116188000Y-105152000D01*
X116195000Y-105321000D01*
X116198000Y-105349000D01*
X116210000Y-105442000D01*
X129206000Y-105442000D01*
X142202000Y-105442000D01*
X141382000Y-103987000D01*
X141091000Y-103471000D01*
X140785000Y-102927000D01*
X140488000Y-102400000D01*
X140224000Y-101931000D01*
X140031000Y-101589000D01*
X139501000Y-100647000D01*
X136118000Y-100635000D01*
X135547000Y-100633000D01*
X134832000Y-100631000D01*
X133992000Y-100629000D01*
X133043000Y-100627000D01*
X132003000Y-100624000D01*
X130887000Y-100622000D01*
X129713000Y-100620000D01*
X128499000Y-100618000D01*
X127261000Y-100616000D01*
X126017000Y-100614000D01*
X124782000Y-100612000D01*
X124419000Y-100612000D01*
X116103000Y-100600000D01*
X110775000Y-100600000D01*
X110517000Y-100599000D01*
X109930000Y-100595000D01*
X109660000Y-100593000D01*
X107205000Y-100580000D01*
X107205000Y-101011000D01*
X106545000Y-101011000D01*
X106545000Y-100582000D01*
X105475000Y-100582000D01*
X104405000Y-100582000D01*
X104405000Y-101012000D01*
X103917853Y-101012000D01*
X103918000Y-101008000D01*
X103931000Y-100587000D01*
X100492000Y-100582000D01*
X98935000Y-100580000D01*
X96173000Y-100575000D01*
X94940000Y-100573000D01*
X93658000Y-100571000D01*
X92349000Y-100569000D01*
X91035000Y-100567000D01*
X89737000Y-100565000D01*
X88477000Y-100564000D01*
X87277000Y-100562000D01*
X86158000Y-100560000D01*
X85141000Y-100559000D01*
X84249000Y-100558000D01*
X83747000Y-100557000D01*
X79078000Y-100552000D01*
X77692000Y-102982000D01*
X77370000Y-103548000D01*
X77074000Y-104069000D01*
X76813000Y-104527000D01*
X76597000Y-104908000D01*
X76435000Y-105195000D01*
X76335000Y-105373000D01*
X76306000Y-105427000D01*
X60354000Y-105427000D01*
X60814000Y-105249000D01*
X61493000Y-104986000D01*
X62071000Y-104762000D01*
X62539000Y-104580000D01*
X62887000Y-104445000D01*
X63105000Y-104360000D01*
X63184000Y-104329000D01*
X63174000Y-104256000D01*
X63147000Y-104136000D01*
X62715000Y-102315000D01*
X62353000Y-100627000D01*
X62059000Y-99065000D01*
X61832000Y-97619000D01*
X61670000Y-96281000D01*
X61667000Y-96252000D01*
X61612000Y-95659000D01*
X61574000Y-95149000D01*
X61553000Y-94658000D01*
X61543000Y-94121000D01*
X61542000Y-93652000D01*
X61550000Y-93252000D01*
X64260000Y-93252000D01*
X64271000Y-94032000D01*
X64291000Y-94750000D01*
X64332000Y-95415000D01*
X64401000Y-96126000D01*
X64414000Y-96242000D01*
X64458000Y-96617000D01*
X64488000Y-96860000D01*
X64509000Y-96996000D01*
X64524000Y-97054000D01*
X64533000Y-97062000D01*
X64616000Y-97038000D01*
X64842000Y-96969000D01*
X65200000Y-96856000D01*
X65680000Y-96705000D01*
X66273000Y-96517000D01*
X66968000Y-96297000D01*
X67756000Y-96046000D01*
X68626000Y-95769000D01*
X69569000Y-95469000D01*
X70575000Y-95148000D01*
X71633000Y-94811000D01*
X72733000Y-94459000D01*
X73867000Y-94097000D01*
X75022000Y-93727000D01*
X76191000Y-93353000D01*
X77362000Y-92978000D01*
X78526000Y-92604000D01*
X79673000Y-92236000D01*
X80475000Y-91979000D01*
X81313000Y-91709000D01*
X82223000Y-91417000D01*
X83191000Y-91105000D01*
X84204000Y-90779000D01*
X85248000Y-90443000D01*
X86310000Y-90100000D01*
X87377000Y-89757000D01*
X88434000Y-89416000D01*
X89468000Y-89082000D01*
X90467000Y-88760000D01*
X91416000Y-88454000D01*
X92303000Y-88168000D01*
X93112000Y-87906000D01*
X93833000Y-87673000D01*
X94449000Y-87474000D01*
X94949000Y-87312000D01*
X95319000Y-87192000D01*
X95482000Y-87139000D01*
X95675000Y-87078000D01*
X95786000Y-87047000D01*
X95796000Y-87047000D01*
X95827000Y-87119000D01*
X95892000Y-87288000D01*
X95973000Y-87503000D01*
X96050000Y-87712000D01*
X96105000Y-87866000D01*
X96120000Y-87913000D01*
X96047000Y-87944000D01*
X95835000Y-88033000D01*
X95494000Y-88175000D01*
X95032000Y-88367000D01*
X94459000Y-88606000D01*
X93783000Y-88888000D01*
X93014000Y-89208000D01*
X92160000Y-89563000D01*
X91231000Y-89950000D01*
X90235000Y-90364000D01*
X89183000Y-90802000D01*
X88082000Y-91260000D01*
X87285000Y-91592000D01*
X78455000Y-95264000D01*
X71865000Y-98216000D01*
X70898000Y-98649000D01*
X69973000Y-99063000D01*
X69101000Y-99454000D01*
X68292000Y-99816000D01*
X67557000Y-100146000D01*
X66906000Y-100438000D01*
X66349000Y-100688000D01*
X65896000Y-100891000D01*
X65558000Y-101043000D01*
X65345000Y-101139000D01*
X65267000Y-101174000D01*
X65279000Y-101253000D01*
X65323000Y-101460000D01*
X65393000Y-101768000D01*
X65482000Y-102150000D01*
X65584000Y-102580000D01*
X65680000Y-102977000D01*
X65873000Y-103762000D01*
X70856000Y-103762000D01*
X75839000Y-103762000D01*
X77025000Y-101677000D01*
X77324000Y-101153000D01*
X77596000Y-100675000D01*
X77833000Y-100261000D01*
X78024000Y-99929000D01*
X78159000Y-99694000D01*
X78229000Y-99576000D01*
X78236000Y-99565000D01*
X78260000Y-99561000D01*
X78328000Y-99557000D01*
X78449000Y-99554000D01*
X78630000Y-99552000D01*
X78879000Y-99550000D01*
X79203000Y-99548000D01*
X79611000Y-99547000D01*
X80110000Y-99547000D01*
X80707000Y-99547000D01*
X81411000Y-99547000D01*
X82229000Y-99548000D01*
X83169000Y-99550000D01*
X84238000Y-99551000D01*
X85444000Y-99554000D01*
X86796000Y-99556000D01*
X88228000Y-99559000D01*
X89542000Y-99562000D01*
X90854000Y-99565000D01*
X92150000Y-99568000D01*
X93417000Y-99572000D01*
X94640000Y-99575000D01*
X95806000Y-99578000D01*
X96902000Y-99580000D01*
X97913000Y-99583000D01*
X98827000Y-99586000D01*
X99628000Y-99588000D01*
X100305000Y-99591000D01*
X100843000Y-99592000D01*
X101073000Y-99593000D01*
X103952000Y-99606000D01*
X103938000Y-98799000D01*
X103930000Y-98438000D01*
X103921000Y-98123000D01*
X103911000Y-97898000D01*
X103906000Y-97824000D01*
X103887000Y-97657000D01*
X101690000Y-95454000D01*
X101056000Y-94818000D01*
X100526000Y-94285000D01*
X100091000Y-93846000D01*
X99741000Y-93491000D01*
X99467000Y-93210000D01*
X99259000Y-92994000D01*
X99110000Y-92832000D01*
X99008000Y-92716000D01*
X98946000Y-92636000D01*
X98913000Y-92582000D01*
X98903000Y-92556000D01*
X98892000Y-92460000D01*
X98889000Y-92272000D01*
X98894000Y-91973000D01*
X98908000Y-91547000D01*
X98908000Y-91532000D01*
X99396000Y-91532000D01*
X99398000Y-91930000D01*
X99413000Y-92207000D01*
X99447000Y-92403000D01*
X99508000Y-92555000D01*
X99605000Y-92705000D01*
X99640000Y-92752000D01*
X99816000Y-92976000D01*
X100035000Y-93232000D01*
X100306000Y-93532000D01*
X100639000Y-93887000D01*
X101045000Y-94305000D01*
X101533000Y-94798000D01*
X102113000Y-95375000D01*
X102796000Y-96048000D01*
X103120000Y-96366000D01*
X104405000Y-97626000D01*
X104405000Y-98614000D01*
X104405000Y-99602000D01*
X105475000Y-99602000D01*
X106545000Y-99602000D01*
X106545000Y-97727000D01*
X106544000Y-97146000D01*
X106541000Y-96574000D01*
X106537000Y-96046000D01*
X106533000Y-95595000D01*
X106527000Y-95256000D01*
X106525000Y-95162000D01*
X106509000Y-94625000D01*
X106503000Y-94485000D01*
X106491000Y-94159000D01*
X106487718Y-94091000D01*
X107051000Y-94091000D01*
X107051000Y-94485000D01*
X107061000Y-94960000D01*
X107079000Y-95477000D01*
X107106000Y-95994000D01*
X107139000Y-96474000D01*
X107145000Y-96542000D01*
X107155000Y-96741000D01*
X107162000Y-97033000D01*
X107165000Y-97332000D01*
X107166000Y-97664000D01*
X107170000Y-98087000D01*
X107175000Y-98532000D01*
X107178000Y-98747000D01*
X107192000Y-99602000D01*
X108763000Y-99607000D01*
X109325000Y-99609000D01*
X109902000Y-99611000D01*
X110449000Y-99613000D01*
X110920000Y-99616000D01*
X111216000Y-99617000D01*
X112098000Y-99622000D01*
X112091000Y-99507000D01*
X112085000Y-99325000D01*
X112076000Y-99011000D01*
X112066000Y-98595000D01*
X112061510Y-98395000D01*
X112947000Y-98395000D01*
X112949000Y-98807000D01*
X112952000Y-99110000D01*
X112955000Y-99237000D01*
X112969000Y-99622000D01*
X114187000Y-99622000D01*
X115405000Y-99622000D01*
X115405000Y-97065000D01*
X115405000Y-94508000D01*
X115628000Y-94250000D01*
X116323000Y-93464000D01*
X116947000Y-92795000D01*
X117517000Y-92227000D01*
X117780000Y-91981000D01*
X117966000Y-91812000D01*
X117994000Y-91672000D01*
X118033000Y-91434000D01*
X118058000Y-91148000D01*
X118071000Y-90775000D01*
X118074000Y-90362000D01*
X118070000Y-89899000D01*
X118057000Y-89570000D01*
X118032000Y-89348000D01*
X117994000Y-89207000D01*
X117930000Y-89144000D01*
X117831000Y-89221000D01*
X117802000Y-89257000D01*
X117508000Y-89615000D01*
X117149000Y-90011000D01*
X116784000Y-90381000D01*
X116638000Y-90519000D01*
X115922000Y-91128000D01*
X115204000Y-91643000D01*
X114421000Y-92108000D01*
X114028000Y-92314000D01*
X113643000Y-92529000D01*
X113376000Y-92733000D01*
X113236000Y-92888000D01*
X113158000Y-93011000D01*
X113100000Y-93165000D01*
X113057000Y-93381000D01*
X113022000Y-93689000D01*
X112989000Y-94121000D01*
X112983000Y-94222000D01*
X112976000Y-94404000D01*
X112970000Y-94720000D01*
X112964000Y-95142000D01*
X112959000Y-95643000D01*
X112954000Y-96196000D01*
X112951000Y-96775000D01*
X112948000Y-97352000D01*
X112947000Y-97901000D01*
X112947000Y-98395000D01*
X112061510Y-98395000D01*
X112055000Y-98105000D01*
X112051000Y-97901000D01*
X112044000Y-97570000D01*
X112034000Y-97019000D01*
X112025000Y-96480000D01*
X112024000Y-96432000D01*
X112015000Y-95595000D01*
X112016000Y-94906000D01*
X112025000Y-94412000D01*
X112040000Y-93966000D01*
X112057000Y-93657000D01*
X112077000Y-93461000D01*
X112104000Y-93355000D01*
X112130000Y-93320000D01*
X112098000Y-93272000D01*
X112082000Y-93260000D01*
X111976000Y-93217000D01*
X111800000Y-93203000D01*
X111529000Y-93219000D01*
X111140000Y-93264000D01*
X110865000Y-93303000D01*
X109568000Y-93415000D01*
X108288000Y-93379000D01*
X108009000Y-93350000D01*
X107607000Y-93335000D01*
X107277000Y-93382000D01*
X107238000Y-93394000D01*
X107148000Y-93443000D01*
X107099000Y-93544000D01*
X107069000Y-93745000D01*
X107062000Y-93816000D01*
X107051000Y-94091000D01*
X106487718Y-94091000D01*
X106473000Y-93786000D01*
X106456000Y-93531000D01*
X106443000Y-93419000D01*
X106347000Y-93262000D01*
X106140000Y-93060000D01*
X106097000Y-93025000D01*
X105976000Y-92937000D01*
X105836000Y-92871000D01*
X105685000Y-92817000D01*
X105425000Y-92722000D01*
X105141000Y-92611000D01*
X105105000Y-92596000D01*
X103912000Y-92013000D01*
X102809000Y-91298000D01*
X101800000Y-90455000D01*
X100892000Y-89489000D01*
X100515000Y-89012000D01*
X100371000Y-88814000D01*
X100255000Y-88647000D01*
X100167000Y-88531000D01*
X100131000Y-88502000D01*
X100036000Y-88565000D01*
X99902000Y-88724000D01*
X99765000Y-88930000D01*
X99656000Y-89136000D01*
X99625000Y-89217000D01*
X99551000Y-89542000D01*
X99486000Y-89986000D01*
X99437000Y-90508000D01*
X99405000Y-91067000D01*
X99396000Y-91532000D01*
X98908000Y-91532000D01*
X98927000Y-91072000D01*
X98938000Y-90625000D01*
X98940000Y-90062000D01*
X98936000Y-89598000D01*
X98923000Y-88663000D01*
X99121000Y-88454000D01*
X99357000Y-88159000D01*
X99476000Y-87879000D01*
X99500000Y-87559000D01*
X99500000Y-87542000D01*
X99488000Y-87405000D01*
X99457000Y-87289000D01*
X99382000Y-87118000D01*
X99366000Y-87082000D01*
X98891000Y-85864000D01*
X98572000Y-84607000D01*
X98408000Y-83311000D01*
X98384000Y-82583000D01*
X98391000Y-82070000D01*
X98418000Y-81624000D01*
X98466000Y-81179000D01*
X98706000Y-79908000D01*
X99094000Y-78681000D01*
X99624000Y-77512000D01*
X100288000Y-76413000D01*
X101077000Y-75396000D01*
X101985000Y-74475000D01*
X102995000Y-73668000D01*
X104101000Y-72984000D01*
X105269000Y-72442000D01*
X106486000Y-72044000D01*
X107738000Y-71793000D01*
X109011000Y-71689000D01*
X110290000Y-71736000D01*
X111563000Y-71936000D01*
X112755000Y-72269000D01*
X113965000Y-72767000D01*
X115096000Y-73399000D01*
X116138000Y-74157000D01*
X117082000Y-75030000D01*
X117918000Y-76009000D01*
X118637000Y-77086000D01*
X119230000Y-78250000D01*
X119517000Y-78977000D01*
X119850000Y-80137000D01*
X120051000Y-81355000D01*
X120118000Y-82595000D01*
X120054000Y-83742000D01*
X119828000Y-85045000D01*
X119451000Y-86300000D01*
X118923000Y-87501000D01*
X118590000Y-88103000D01*
X118485000Y-88283000D01*
X118435000Y-88395000D01*
X118413000Y-88509000D01*
X118405000Y-88568000D01*
X118394000Y-88729000D01*
X118393000Y-88964000D01*
X118401000Y-89310000D01*
X118404000Y-89398000D01*
X118428000Y-90121000D01*
X118443000Y-90699000D01*
X118450000Y-91148000D01*
X118449000Y-91482000D01*
X118440000Y-91718000D01*
X118422000Y-91870000D01*
X118405000Y-91932000D01*
X118367000Y-92003000D01*
X118291000Y-92105000D01*
X118163000Y-92253000D01*
X117971000Y-92460000D01*
X117703000Y-92740000D01*
X117344000Y-93108000D01*
X116950000Y-93508000D01*
X116005000Y-94466000D01*
X116005000Y-94679000D01*
X116006000Y-94828000D01*
X116010000Y-95102000D01*
X116016000Y-95477000D01*
X116023000Y-95930000D01*
X116032000Y-96437000D01*
X116042000Y-96974000D01*
X116052000Y-97519000D01*
X116062000Y-98047000D01*
X116071000Y-98535000D01*
X116080000Y-98960000D01*
X116087000Y-99298000D01*
X116093000Y-99525000D01*
X116096000Y-99618000D01*
X116096000Y-99619000D01*
X116175000Y-99620000D01*
X116405000Y-99621000D01*
X116778000Y-99623000D01*
X117283000Y-99625000D01*
X117911000Y-99627000D01*
X118655000Y-99630000D01*
X119504000Y-99633000D01*
X120450000Y-99635000D01*
X121483000Y-99639000D01*
X122595000Y-99642000D01*
X123776000Y-99645000D01*
X125018000Y-99648000D01*
X126311000Y-99652000D01*
X127319000Y-99654000D01*
X128663000Y-99657000D01*
X129975000Y-99661000D01*
X131244000Y-99664000D01*
X132460000Y-99667000D01*
X133613000Y-99670000D01*
X134693000Y-99673000D01*
X135690000Y-99676000D01*
X136594000Y-99678000D01*
X137394000Y-99681000D01*
X138081000Y-99683000D01*
X138644000Y-99684000D01*
X139074000Y-99686000D01*
X139361000Y-99687000D01*
X139463000Y-99687000D01*
X140391000Y-99692000D01*
X141536000Y-101722000D01*
X142680000Y-103752000D01*
X147658000Y-103757000D01*
X152636000Y-103762000D01*
X152691000Y-103539000D01*
X152728000Y-103377000D01*
X152738000Y-103309000D01*
X152667000Y-103274000D01*
X152457000Y-103174000D01*
X152116000Y-103010000D01*
X151651000Y-102788000D01*
X151068000Y-102509000D01*
X150374000Y-102177000D01*
X149575000Y-101795000D01*
X148679000Y-101367000D01*
X147691000Y-100895000D01*
X146618000Y-100382000D01*
X145468000Y-99832000D01*
X144246000Y-99248000D01*
X142959000Y-98634000D01*
X141614000Y-97991000D01*
X140218000Y-97324000D01*
X138777000Y-96636000D01*
X137403000Y-95979000D01*
X135926000Y-95274000D01*
X134488000Y-94587000D01*
X133095000Y-93921000D01*
X131754000Y-93281000D01*
X130472000Y-92668000D01*
X129255000Y-92086000D01*
X128110000Y-91539000D01*
X127043000Y-91029000D01*
X126061000Y-90560000D01*
X125171000Y-90135000D01*
X124380000Y-89757000D01*
X123693000Y-89428000D01*
X123118000Y-89154000D01*
X122662000Y-88935000D01*
X122330000Y-88776000D01*
X122130000Y-88681000D01*
X122068000Y-88651000D01*
X122092000Y-88580000D01*
X122162000Y-88394000D01*
X122264000Y-88128000D01*
X122385000Y-87816000D01*
X122511000Y-87492000D01*
X122629000Y-87190000D01*
X122726000Y-86946000D01*
X122789000Y-86792000D01*
X122805000Y-86757000D01*
X122882000Y-86776000D01*
X123106000Y-86836000D01*
X123470000Y-86935000D01*
X123966000Y-87070000D01*
X124588000Y-87240000D01*
X125327000Y-87443000D01*
X126177000Y-87676000D01*
X127131000Y-87937000D01*
X128181000Y-88226000D01*
X129320000Y-88539000D01*
X130541000Y-88874000D01*
X131836000Y-89231000D01*
X133198000Y-89606000D01*
X134620000Y-89998000D01*
X136095000Y-90404000D01*
X137616000Y-90823000D01*
X138482000Y-91062000D01*
X140025000Y-91487000D01*
X141527000Y-91901000D01*
X142979000Y-92302000D01*
X144376000Y-92687000D01*
X145710000Y-93055000D01*
X146973000Y-93403000D01*
X148159000Y-93730000D01*
X149260000Y-94033000D01*
X150268000Y-94311000D01*
X151178000Y-94561000D01*
X151980000Y-94782000D01*
X152669000Y-94972000D01*
X153236000Y-95128000D01*
X153675000Y-95248000D01*
X153978000Y-95332000D01*
X154139000Y-95375000D01*
X154163000Y-95382000D01*
X154182000Y-95302000D01*
X154200000Y-95065000D01*
X154216000Y-94671000D01*
X154218000Y-94612000D01*
X154231000Y-94212000D01*
X140863000Y-90764000D01*
X139436000Y-90396000D01*
X138051000Y-90038000D01*
X136717000Y-89694000D01*
X135440000Y-89364000D01*
X134230000Y-89052000D01*
X133093000Y-88758000D01*
X132038000Y-88485000D01*
X131072000Y-88236000D01*
X130204000Y-88011000D01*
X129442000Y-87814000D01*
X128792000Y-87646000D01*
X128265000Y-87509000D01*
X127866000Y-87405000D01*
X127604000Y-87337000D01*
X127487000Y-87306000D01*
X127482000Y-87304000D01*
X127492000Y-87228000D01*
X127529000Y-87038000D01*
X127582000Y-86775000D01*
X127643000Y-86480000D01*
X127704000Y-86196000D01*
X127756000Y-85963000D01*
X127789000Y-85825000D01*
X127797000Y-85804000D01*
X127875000Y-85818000D01*
X128102000Y-85860000D01*
X128470000Y-85930000D01*
X128971000Y-86025000D01*
X129596000Y-86144000D01*
X130338000Y-86286000D01*
X131188000Y-86448000D01*
X132138000Y-86630000D01*
X133180000Y-86829000D01*
X134306000Y-87045000D01*
X135507000Y-87276000D01*
X136777000Y-87519000D01*
X138105000Y-87774000D01*
X139485000Y-88039000D01*
X140908000Y-88312000D01*
X140940000Y-88319000D01*
X142365000Y-88592000D01*
X143747000Y-88858000D01*
X145077000Y-89113000D01*
X146349000Y-89357000D01*
X147554000Y-89589000D01*
X148683000Y-89805000D01*
X149729000Y-90006000D01*
X150684000Y-90189000D01*
X151538000Y-90352000D01*
X152285000Y-90495000D01*
X152915000Y-90615000D01*
X153421000Y-90712000D01*
X153795000Y-90783000D01*
X154028000Y-90827000D01*
X154112000Y-90842000D01*
X154142000Y-90810000D01*
X154138000Y-90767000D01*
X154124000Y-90633000D01*
X154114000Y-90502000D01*
X154094000Y-90222000D01*
X154062000Y-89849000D01*
X154025000Y-89448000D01*
X153989000Y-89085000D01*
X153983000Y-89032000D01*
X153640000Y-86485000D01*
X153156000Y-83983000D01*
X152524000Y-81500000D01*
X152011000Y-79819000D01*
X151799000Y-79166000D01*
X151527000Y-79176000D01*
X151345000Y-79181000D01*
X151019000Y-79190000D01*
X150560000Y-79203000D01*
X149976000Y-79218000D01*
X149279000Y-79236000D01*
X148477000Y-79257000D01*
X147581000Y-79280000D01*
X146601000Y-79305000D01*
X145545000Y-79332000D01*
X144425000Y-79361000D01*
X143249000Y-79391000D01*
X142028000Y-79422000D01*
X140772000Y-79453000D01*
X139489000Y-79486000D01*
X138191000Y-79518000D01*
X136887000Y-79551000D01*
X135586000Y-79584000D01*
X134299000Y-79616000D01*
X133034000Y-79647000D01*
X131804000Y-79678000D01*
X130615000Y-79708000D01*
X129480000Y-79736000D01*
X128407000Y-79762000D01*
X127407000Y-79787000D01*
X126488000Y-79809000D01*
X125662000Y-79829000D01*
X124937000Y-79847000D01*
X124324000Y-79861000D01*
X123832000Y-79873000D01*
X123472000Y-79881000D01*
X123252000Y-79885000D01*
X123183000Y-79886000D01*
X123160000Y-79810000D01*
X123107000Y-79616000D01*
X123034000Y-79343000D01*
X122951000Y-79028000D01*
X122867000Y-78707000D01*
X122793000Y-78418000D01*
X122737000Y-78197000D01*
X122710000Y-78082000D01*
X122709000Y-78073000D01*
X122787000Y-78057000D01*
X123013000Y-78010000D01*
X123379000Y-77933000D01*
X123878000Y-77830000D01*
X124502000Y-77700000D01*
X125241000Y-77547000D01*
X126088000Y-77371000D01*
X127035000Y-77174000D01*
X128074000Y-76958000D01*
X129196000Y-76725000D01*
X130394000Y-76477000D01*
X131660000Y-76214000D01*
X132985000Y-75939000D01*
X134360000Y-75654000D01*
X135779000Y-75359000D01*
X135815000Y-75352000D01*
X137235000Y-75057000D01*
X138612000Y-74772000D01*
X139938000Y-74497000D01*
X141205000Y-74234000D01*
X142405000Y-73984000D01*
X143530000Y-73751000D01*
X144571000Y-73535000D01*
X145520000Y-73337000D01*
X146370000Y-73161000D01*
X147112000Y-73007000D01*
X147739000Y-72876000D01*
X148241000Y-72772000D01*
X148611000Y-72695000D01*
X148841000Y-72646000D01*
X148923000Y-72629000D01*
X148893000Y-72561000D01*
X148805000Y-72394000D01*
X148680000Y-72168000D01*
X148540000Y-71921000D01*
X148408000Y-71693000D01*
X148305000Y-71522000D01*
X148254000Y-71449000D01*
X148253000Y-71448000D01*
X148243000Y-71446000D01*
X148220000Y-71447000D01*
X148168000Y-71456000D01*
X148070000Y-71474000D01*
X147911000Y-71507000D01*
X147674000Y-71556000D01*
X147343000Y-71625000D01*
X146903000Y-71718000D01*
X146337000Y-71837000D01*
X145685000Y-71974000D01*
X143447000Y-72449000D01*
X141314000Y-72904000D01*
X139292000Y-73340000D01*
X137386000Y-73754000D01*
X135601000Y-74146000D01*
X133943000Y-74515000D01*
X132416000Y-74859000D01*
X131026000Y-75178000D01*
X129779000Y-75469000D01*
X128679000Y-75733000D01*
X127866000Y-75933000D01*
X127511000Y-76022000D01*
X127220000Y-76093000D01*
X127023000Y-76140000D01*
X126952000Y-76156000D01*
X126922000Y-76084000D01*
X126854000Y-75914000D01*
X126768000Y-75697000D01*
X126685000Y-75482000D01*
X126625000Y-75322000D01*
X126605000Y-75266000D01*
X126680000Y-75240000D01*
X126898000Y-75169000D01*
X127251000Y-75055000D01*
X127730000Y-74902000D01*
X128326000Y-74711000D01*
X129030000Y-74486000D01*
X129833000Y-74231000D01*
X130726000Y-73946000D01*
X131701000Y-73636000D01*
X132748000Y-73304000D01*
X133858000Y-72951000D01*
X135023000Y-72582000D01*
X136234000Y-72198000D01*
X136635000Y-72071000D01*
X137858000Y-71683000D01*
X139039000Y-71308000D01*
X140168000Y-70950000D01*
X141237000Y-70611000D01*
X142236000Y-70294000D01*
X143156000Y-70001000D01*
X143989000Y-69736000D01*
X144726000Y-69501000D01*
X145358000Y-69300000D01*
X145876000Y-69134000D01*
X146271000Y-69008000D01*
X146534000Y-68923000D01*
X146657000Y-68883000D01*
X146665000Y-68880000D01*
X146622000Y-68810000D01*
X146508000Y-68641000D01*
X146344000Y-68402000D01*
X146151000Y-68126000D01*
X145951000Y-67842000D01*
X145765000Y-67581000D01*
X145715000Y-67512000D01*
X144604000Y-66047000D01*
X143425000Y-64618000D01*
X142205000Y-63250000D01*
X140967000Y-61973000D01*
X139737000Y-60813000D01*
X139325000Y-60451000D01*
X139178000Y-60326000D01*
X139095000Y-60258000D01*
X139092000Y-60256000D01*
X139024000Y-60299000D01*
X138833000Y-60429000D01*
X138528000Y-60641000D01*
X138115000Y-60928000D01*
X137603000Y-61287000D01*
X137000000Y-61711000D01*
X136312000Y-62194000D01*
X135549000Y-62732000D01*
X134718000Y-63319000D01*
X133826000Y-63949000D01*
X133492000Y-64185000D01*
X131931000Y-65289000D01*
X130495000Y-66304000D01*
X129180000Y-67234000D01*
X127980000Y-68083000D01*
X126889000Y-68854000D01*
X125903000Y-69550000D01*
X125017000Y-70177000D01*
X124225000Y-70736000D01*
X123522000Y-71233000D01*
X122903000Y-71670000D01*
X122363000Y-72051000D01*
X121896000Y-72380000D01*
X121498000Y-72661000D01*
X121162000Y-72897000D01*
X120885000Y-73092000D01*
X120660000Y-73249000D01*
X120483000Y-73373000D01*
X120348000Y-73467000D01*
X120251000Y-73534000D01*
X120185000Y-73578000D01*
X120146000Y-73603000D01*
X120129000Y-73613000D01*
X120127000Y-73613000D01*
X120067000Y-73554000D01*
X119944000Y-73423000D01*
X119929000Y-73406000D01*
X119748000Y-73210000D01*
X128305000Y-65871000D01*
X129314000Y-65005000D01*
X130290000Y-64169000D01*
X131224000Y-63367000D01*
X132111000Y-62606000D01*
X132944000Y-61891000D01*
X133715000Y-61229000D01*
X134419000Y-60625000D01*
X135047000Y-60085000D01*
X135594000Y-59615000D01*
X136052000Y-59222000D01*
X136414000Y-58910000D01*
X136674000Y-58686000D01*
X136825000Y-58555000D01*
X136863000Y-58522000D01*
X136806000Y-58477000D01*
X136671000Y-58381000D01*
X136512000Y-58272000D01*
X136386000Y-58189000D01*
X136347000Y-58166000D01*
X136285000Y-58217000D01*
X136111000Y-58366000D01*
X135832000Y-58607000D01*
X135455000Y-58933000D01*
X134989000Y-59338000D01*
X134441000Y-59815000D01*
X133818000Y-60356000D01*
X133130000Y-60956000D01*
X132382000Y-61607000D01*
X131584000Y-62304000D01*
X130742000Y-63038000D01*
X129864000Y-63804000D01*
X129696000Y-63951000D01*
X128813000Y-64722000D01*
X127963000Y-65463000D01*
X127156000Y-66168000D01*
X126398000Y-66828000D01*
X125698000Y-67439000D01*
X125062000Y-67992000D01*
X124500000Y-68482000D01*
X124017000Y-68901000D01*
X123623000Y-69244000D01*
X123325000Y-69502000D01*
X123130000Y-69670000D01*
X123047000Y-69740000D01*
X123044000Y-69742000D01*
X122982000Y-69691000D01*
X122820000Y-69547000D01*
X122577000Y-69327000D01*
X122269000Y-69048000D01*
X121917000Y-68725000D01*
X121845000Y-68660000D01*
X120666000Y-67577000D01*
X120871000Y-67335000D01*
X121090000Y-67075000D01*
X121401000Y-66706000D01*
X121792000Y-66242000D01*
X122251000Y-65694000D01*
X122769000Y-65078000D01*
X123333000Y-64406000D01*
X123933000Y-63692000D01*
X124556000Y-62948000D01*
X125193000Y-62190000D01*
X125831000Y-61428000D01*
X126459000Y-60679000D01*
X127067000Y-59953000D01*
X127642000Y-59266000D01*
X128175000Y-58631000D01*
X128653000Y-58060000D01*
X128926000Y-57732000D01*
X129447000Y-57109000D01*
X129875000Y-56597000D01*
X130217000Y-56187000D01*
X130484000Y-55867000D01*
X130685000Y-55625000D01*
X130827000Y-55453000D01*
X130922000Y-55337000D01*
X130977000Y-55268000D01*
X131001000Y-55235000D01*
X131005000Y-55228000D01*
X130935000Y-55188000D01*
X130746000Y-55103000D01*
X130468000Y-54985000D01*
X130131000Y-54846000D01*
X129765000Y-54698000D01*
X129400000Y-54555000D01*
X129355000Y-54538000D01*
X127227000Y-53793000D01*
X125005000Y-53155000D01*
X122677000Y-52618000D01*
X121555000Y-52403000D01*
X121111000Y-52324000D01*
X120809000Y-52273000D01*
X120635000Y-52248000D01*
X120575000Y-52245000D01*
X120543000Y-52319000D01*
X120452000Y-52530000D01*
X120306000Y-52870000D01*
X120110000Y-53329000D01*
X119866000Y-53898000D01*
X119579000Y-54569000D01*
X119253000Y-55331000D01*
X118893000Y-56175000D01*
X118500000Y-57093000D01*
X118081000Y-58074000D01*
X117639000Y-59110000D01*
X117177000Y-60192000D01*
X116992000Y-60623000D01*
X116524000Y-61720000D01*
X116074000Y-62775000D01*
X115645000Y-63778000D01*
X115242000Y-64722000D01*
X114869000Y-65595000D01*
X114530000Y-66390000D01*
X114228000Y-67097000D01*
X113967000Y-67706000D01*
X113753000Y-68209000D01*
X113587000Y-68596000D01*
X113475000Y-68858000D01*
X113420000Y-68986000D01*
X113415000Y-68997000D01*
X113341000Y-68984000D01*
X113141000Y-68945000D01*
X112848000Y-68886000D01*
X112493000Y-68814000D01*
X112108000Y-68736000D01*
X111724000Y-68658000D01*
X111372000Y-68586000D01*
X111085000Y-68527000D01*
X110894000Y-68487000D01*
X110830000Y-68472000D01*
X110837000Y-68394000D01*
X110861000Y-68166000D01*
X110899000Y-67801000D01*
X110952000Y-67307000D01*
X111017000Y-66695000D01*
X111094000Y-65976000D01*
X111181000Y-65160000D01*
X111277000Y-64257000D01*
X111382000Y-63277000D01*
X111495000Y-62232000D01*
X111613000Y-61130000D01*
X111736000Y-59983000D01*
X111859000Y-58836000D01*
X111978000Y-57734000D01*
X112090000Y-56688000D01*
X112195000Y-55708000D01*
X112291000Y-54805000D01*
X112378000Y-53989000D01*
X112455000Y-53270000D01*
X112520000Y-52658000D01*
X112572000Y-52164000D01*
X112611000Y-51798000D01*
X112634000Y-51571000D01*
X112642000Y-51493000D01*
X112566000Y-51488000D01*
X112374000Y-51480000D01*
X112111000Y-51471000D01*
X111821000Y-51461000D01*
X111546000Y-51453000D01*
X111331000Y-51448000D01*
X111221000Y-51447000D01*
X111214000Y-51447000D01*
X111209000Y-51526000D01*
X111193000Y-51752000D01*
X111168000Y-52113000D01*
X111135000Y-52598000D01*
X111095000Y-53193000D01*
X111048000Y-53887000D01*
X110995000Y-54668000D01*
X110937000Y-55523000D01*
X110876000Y-56440000D01*
X110811000Y-57407000D01*
X110797000Y-57611000D01*
X110731000Y-58587000D01*
X110669000Y-59516000D01*
X110610000Y-60385000D01*
X110556000Y-61182000D01*
X110508000Y-61895000D01*
X110466000Y-62512000D01*
X110431000Y-63020000D01*
X110404000Y-63408000D01*
X110386000Y-63663000D01*
X110378000Y-63773000D01*
X110377000Y-63776000D01*
X110298000Y-63780000D01*
X110110000Y-63775000D01*
X109864000Y-63765000D01*
X109609000Y-63752000D01*
X109397000Y-63738000D01*
X109277000Y-63726000D01*
X109266000Y-63723000D01*
X109263000Y-63642000D01*
X109259000Y-63414000D01*
X109255000Y-63056000D01*
X109251000Y-62581000D01*
X109246000Y-62004000D01*
X109241000Y-61339000D01*
X109236000Y-60600000D01*
X109232000Y-59802000D01*
X109228000Y-59237000D01*
X109223000Y-58341000D01*
X109218000Y-57440000D01*
X109213000Y-56558000D01*
X109208000Y-55716000D01*
X109203000Y-54938000D01*
X109199000Y-54245000D01*
X109195000Y-53660000D01*
X109192000Y-53205000D01*
X109191000Y-53094000D01*
X109178000Y-51417000D01*
X108297000Y-51430000D01*
X106778000Y-51462000D01*
X105384000Y-51509000D01*
X104079000Y-51576000D01*
X102828000Y-51662000D01*
X101597000Y-51770000D01*
X101365000Y-51793000D01*
X100954000Y-51836000D01*
X100547000Y-51880000D01*
X100174000Y-51924000D01*
X99867000Y-51961000D01*
X99657000Y-51990000D01*
X99575000Y-52006000D01*
X99596000Y-52082000D01*
X99662000Y-52302000D01*
X99769000Y-52654000D01*
X99915000Y-53131000D01*
X100096000Y-53722000D01*
X100309000Y-54417000D01*
X100552000Y-55206000D01*
X100821000Y-56081000D01*
X101114000Y-57030000D01*
X101427000Y-58045000D01*
X101758000Y-59116000D01*
X102103000Y-60233000D01*
X102196000Y-60535000D01*
X102544000Y-61662000D01*
X102880000Y-62746000D01*
X103198000Y-63777000D01*
X103497000Y-64746000D01*
X103774000Y-65641000D01*
X104025000Y-66455000D01*
X104248000Y-67176000D01*
X104439000Y-67796000D01*
X104596000Y-68304000D01*
X104716000Y-68691000D01*
X104795000Y-68947000D01*
X104830000Y-69063000D01*
X104832000Y-69069000D01*
X104765000Y-69103000D01*
X104589000Y-69177000D01*
X104344000Y-69274000D01*
X104072000Y-69379000D01*
X103812000Y-69475000D01*
X103606000Y-69549000D01*
X103494000Y-69583000D01*
X103485000Y-69583000D01*
X103448000Y-69510000D01*
X103343000Y-69304000D01*
X103174000Y-68974000D01*
X102947000Y-68527000D01*
X102664000Y-67972000D01*
X102332000Y-67320000D01*
X101953000Y-66577000D01*
X101534000Y-65754000D01*
X101078000Y-64859000D01*
X100590000Y-63901000D01*
X100074000Y-62889000D01*
X99536000Y-61831000D01*
X99207000Y-61186000D01*
X94941000Y-52808000D01*
X94688000Y-52866000D01*
X92450000Y-53440000D01*
X90274000Y-54129000D01*
X88181000Y-54925000D01*
X86191000Y-55821000D01*
X85495000Y-56172000D01*
X85081000Y-56386000D01*
X85388000Y-56699000D01*
X85549000Y-56863000D01*
X85795000Y-57114000D01*
X86100000Y-57425000D01*
X86436000Y-57769000D01*
X86655000Y-57992000D01*
X87327000Y-58678000D01*
X88045000Y-59408000D01*
X88817000Y-60192000D01*
X89654000Y-61039000D01*
X90566000Y-61961000D01*
X91563000Y-62966000D01*
X92654000Y-64065000D01*
X93714000Y-65130000D01*
X96914000Y-68348000D01*
X96633000Y-68620000D01*
X96420000Y-68826000D01*
X96156000Y-69080000D01*
X95959000Y-69269000D01*
X95565000Y-69647000D01*
X92980000Y-67577000D01*
X91927000Y-66734000D01*
X90844000Y-65867000D01*
X89748000Y-64989000D01*
X88653000Y-64111000D01*
X87574000Y-63245000D01*
X86527000Y-62405000D01*
X85525000Y-61601000D01*
X84584000Y-60845000D01*
X83719000Y-60150000D01*
X82945000Y-59528000D01*
X82277000Y-58990000D01*
X82112000Y-58857000D01*
X81669000Y-58499000D01*
X81332000Y-58743000D01*
X79920000Y-59829000D01*
X79309000Y-60339000D01*
X79100000Y-60519000D01*
X78989000Y-60621000D01*
X78949000Y-60673000D01*
X78956000Y-60699000D01*
X78959000Y-60703000D01*
X79027000Y-60753000D01*
X79216000Y-60892000D01*
X79521000Y-61116000D01*
X79932000Y-61417000D01*
X80444000Y-61792000D01*
X81049000Y-62235000D01*
X81740000Y-62741000D01*
X82509000Y-63304000D01*
X83350000Y-63919000D01*
X84255000Y-64581000D01*
X85217000Y-65285000D01*
X86228000Y-66025000D01*
X87282000Y-66795000D01*
X88328000Y-67561000D01*
X97662000Y-74385000D01*
X97423000Y-74749000D01*
X97288000Y-74955000D01*
X97193000Y-75099000D01*
X97167000Y-75140000D01*
X97136000Y-75127000D01*
X97046000Y-75079000D01*
X96891000Y-74992000D01*
X96665000Y-74863000D01*
X96364000Y-74689000D01*
X95982000Y-74467000D01*
X95514000Y-74194000D01*
X94955000Y-73866000D01*
X94299000Y-73482000D01*
X93542000Y-73037000D01*
X92677000Y-72528000D01*
X91700000Y-71953000D01*
X90605000Y-71308000D01*
X89387000Y-70591000D01*
X88041000Y-69798000D01*
X86850000Y-69095000D01*
X85670000Y-68399000D01*
X84527000Y-67726000D01*
X83431000Y-67080000D01*
X82387000Y-66465000D01*
X81404000Y-65886000D01*
X80489000Y-65347000D01*
X79650000Y-64853000D01*
X78894000Y-64409000D01*
X78229000Y-64018000D01*
X77663000Y-63685000D01*
X77202000Y-63415000D01*
X76856000Y-63211000D01*
X76630000Y-63080000D01*
X76533000Y-63024000D01*
X76530000Y-63022000D01*
X76458000Y-63080000D01*
X76301000Y-63241000D01*
X76074000Y-63485000D01*
X75797000Y-63793000D01*
X75484000Y-64146000D01*
X75155000Y-64524000D01*
X74826000Y-64908000D01*
X74514000Y-65279000D01*
X74313000Y-65522000D01*
X74097000Y-65790000D01*
X73852000Y-66100000D01*
X73597000Y-66426000D01*
X73352000Y-66745000D01*
X73135000Y-67030000D01*
X72967000Y-67257000D01*
X72866000Y-67399000D01*
X72845000Y-67436000D01*
X72917000Y-67468000D01*
X73125000Y-67556000D01*
X73455000Y-67695000D01*
X73896000Y-67878000D01*
X74435000Y-68102000D01*
X75060000Y-68360000D01*
X75758000Y-68649000D01*
X76517000Y-68961000D01*
X77324000Y-69294000D01*
X77510000Y-69370000D01*
X78907000Y-69945000D01*
X80208000Y-70484000D01*
X81455000Y-71002000D01*
X82684000Y-71516000D01*
X83934000Y-72041000D01*
X85245000Y-72595000D01*
X86655000Y-73192000D01*
X86995000Y-73337000D01*
X87823000Y-73689000D01*
X88607000Y-74022000D01*
X89333000Y-74331000D01*
X89991000Y-74612000D01*
X90567000Y-74857000D01*
X91050000Y-75064000D01*
X91427000Y-75225000D01*
X91686000Y-75336000D01*
X91815000Y-75393000D01*
X91828000Y-75398000D01*
X91807000Y-75472000D01*
X91745000Y-75663000D01*
X91654000Y-75937000D01*
X91545000Y-76261000D01*
X91429000Y-76601000D01*
X91318000Y-76922000D01*
X91225000Y-77192000D01*
X91159000Y-77375000D01*
X91133000Y-77439000D01*
X91057000Y-77421000D01*
X90834000Y-77364000D01*
X90474000Y-77272000D01*
X89986000Y-77147000D01*
X89378000Y-76991000D01*
X88660000Y-76806000D01*
X87840000Y-76595000D01*
X86928000Y-76360000D01*
X85931000Y-76103000D01*
X84860000Y-75827000D01*
X83723000Y-75533000D01*
X82528000Y-75225000D01*
X81285000Y-74904000D01*
X80545000Y-74713000D01*
X79278000Y-74385000D01*
X78053000Y-74069000D01*
X76881000Y-73767000D01*
X75769000Y-73480000D01*
X74727000Y-73212000D01*
X73763000Y-72964000D01*
X72887000Y-72739000D01*
X72107000Y-72539000D01*
X71432000Y-72366000D01*
X70872000Y-72223000D01*
X70434000Y-72112000D01*
X70129000Y-72035000D01*
X69964000Y-71994000D01*
X69937000Y-71988000D01*
X69883000Y-72063000D01*
X69773000Y-72252000D01*
X69622000Y-72528000D01*
X69443000Y-72864000D01*
X69250000Y-73232000D01*
X69058000Y-73607000D01*
X68880000Y-73960000D01*
X68730000Y-74265000D01*
X68623000Y-74493000D01*
X68573000Y-74619000D01*
X68571000Y-74635000D01*
X68650000Y-74651000D01*
X68878000Y-74695000D01*
X69247000Y-74766000D01*
X69749000Y-74863000D01*
X70375000Y-74982000D01*
X71119000Y-75124000D01*
X71971000Y-75287000D01*
X72924000Y-75468000D01*
X73970000Y-75667000D01*
X75100000Y-75882000D01*
X76306000Y-76112000D01*
X77581000Y-76354000D01*
X78917000Y-76608000D01*
X80304000Y-76871000D01*
X81736000Y-77143000D01*
X81970000Y-77187000D01*
X83408000Y-77460000D01*
X84803000Y-77725000D01*
X86147000Y-77980000D01*
X87432000Y-78224000D01*
X88650000Y-78455000D01*
X89792000Y-78672000D01*
X90852000Y-78874000D01*
X91820000Y-79058000D01*
X92689000Y-79223000D01*
X93450000Y-79368000D01*
X94095000Y-79491000D01*
X94617000Y-79591000D01*
X95008000Y-79665000D01*
X95258000Y-79714000D01*
X95361000Y-79734000D01*
X95363000Y-79734000D01*
X95354000Y-79810000D01*
X95322000Y-79999000D01*
X95283000Y-80217000D01*
X95231000Y-80482000D01*
X95198000Y-80626000D01*
X95173000Y-80686000D01*
X95154000Y-80696000D01*
X95072000Y-80690000D01*
X94838000Y-80669000D01*
X94461000Y-80636000D01*
X93949000Y-80590000D01*
X93310000Y-80533000D01*
X92551000Y-80464000D01*
X91682000Y-80386000D01*
X90711000Y-80298000D01*
X89644000Y-80201000D01*
X88491000Y-80097000D01*
X87259000Y-79985000D01*
X85956000Y-79867000D01*
X84591000Y-79743000D01*
X83172000Y-79614000D01*
X81706000Y-79481000D01*
X81099000Y-79425000D01*
X79122000Y-79246000D01*
X77303000Y-79080000D01*
X75639000Y-78930000D01*
X74129000Y-78793000D01*
X72771000Y-78670000D01*
X71562000Y-78562000D01*
X70502000Y-78467000D01*
X69588000Y-78385000D01*
X68818000Y-78317000D01*
X68190000Y-78262000D01*
X67703000Y-78220000D01*
X67355000Y-78191000D01*
X67143000Y-78175000D01*
X67067000Y-78171000D01*
X67066000Y-78171000D01*
X67033000Y-78251000D01*
X66962000Y-78439000D01*
X66885000Y-78652000D01*
X66170000Y-80826000D01*
X65559000Y-83070000D01*
X65070000Y-85316000D01*
X65054000Y-85401000D01*
X65008000Y-85656000D01*
X64980000Y-85836000D01*
X64974000Y-85898000D01*
X65054000Y-85899000D01*
X65255000Y-85890000D01*
X65541000Y-85873000D01*
X65661000Y-85866000D01*
X67945000Y-85716000D01*
X70191000Y-85568000D01*
X72387000Y-85424000D01*
X74524000Y-85283000D01*
X76589000Y-85146000D01*
X78574000Y-85014000D01*
X80467000Y-84888000D01*
X82258000Y-84768000D01*
X83936000Y-84655000D01*
X85490000Y-84550000D01*
X86911000Y-84454000D01*
X88187000Y-84366000D01*
X88685000Y-84332000D01*
X89176000Y-84298000D01*
X89613000Y-84268000D01*
X89971000Y-84244000D01*
X90225000Y-84226000D01*
X90349000Y-84218000D01*
X90354000Y-84217000D01*
X90434000Y-84212000D01*
X90696000Y-85592000D01*
X90780000Y-86039000D01*
X90852000Y-86427000D01*
X90907000Y-86731000D01*
X90939000Y-86925000D01*
X90947000Y-86985000D01*
X90869000Y-87007000D01*
X90668000Y-87058000D01*
X90377000Y-87128000D01*
X90115000Y-87189000D01*
X89662000Y-87295000D01*
X89071000Y-87433000D01*
X88361000Y-87599000D01*
X87550000Y-87788000D01*
X86657000Y-87997000D01*
X85699000Y-88221000D01*
X84695000Y-88455000D01*
X83664000Y-88696000D01*
X82623000Y-88940000D01*
X81591000Y-89181000D01*
X80587000Y-89416000D01*
X79627000Y-89641000D01*
X78732000Y-89850000D01*
X77919000Y-90041000D01*
X77206000Y-90208000D01*
X77145000Y-90222000D01*
X76454000Y-90384000D01*
X75765000Y-90546000D01*
X75066000Y-90710000D01*
X74342000Y-90880000D01*
X73580000Y-91058000D01*
X72767000Y-91250000D01*
X71889000Y-91456000D01*
X70932000Y-91681000D01*
X69883000Y-91928000D01*
X68728000Y-92200000D01*
X67454000Y-92500000D01*
X66047000Y-92831000D01*
X65007000Y-93076000D01*
X64260000Y-93252000D01*
X61550000Y-93252000D01*
X61585000Y-91689000D01*
X61711000Y-89733000D01*
X61717000Y-89672000D01*
X62033000Y-86934000D01*
X62504000Y-84233000D01*
X63127000Y-81575000D01*
X63899000Y-78964000D01*
X64820000Y-76407000D01*
X65886000Y-73908000D01*
X67094000Y-71473000D01*
X68444000Y-69107000D01*
X69932000Y-66816000D01*
X71556000Y-64605000D01*
X73314000Y-62479000D01*
X73505000Y-62262000D01*
X74165000Y-61538000D01*
X74933000Y-60731000D01*
X75811000Y-59840000D01*
X76803000Y-58861000D01*
X77910000Y-57794000D01*
X79134000Y-56635000D01*
X80478000Y-55382000D01*
X81945000Y-54033000D01*
X82535000Y-53494000D01*
X82812000Y-53242000D01*
X83043000Y-53031000D01*
X83205000Y-52883000D01*
X83273000Y-52821000D01*
X83296000Y-52783000D01*
X83271000Y-52707000D01*
X83227000Y-52619000D01*
X82885000Y-52099000D01*
X82395000Y-51597000D01*
X81771000Y-51121000D01*
X81024000Y-50679000D01*
X80168000Y-50282000D01*
X79727000Y-50112000D01*
X78911000Y-49846000D01*
X78044000Y-49621000D01*
X77208000Y-49455000D01*
X76995000Y-49423000D01*
X76484000Y-49347000D01*
X76078000Y-49274000D01*
X75719000Y-49190000D01*
X75354000Y-49084000D01*
X75135000Y-49013000D01*
X74049000Y-48600000D01*
X72919000Y-48071000D01*
X71784000Y-47448000D01*
X70681000Y-46751000D01*
X69648000Y-46002000D01*
X69223000Y-45659000D01*
X69025000Y-45492000D01*
X68821000Y-45314000D01*
X68646000Y-45158000D01*
X68534000Y-45054000D01*
X68511000Y-45029000D01*
X68585000Y-45056000D01*
X68794000Y-45134000D01*
X69127000Y-45260000D01*
X69569000Y-45427000D01*
X70107000Y-45630000D01*
X70728000Y-45866000D01*
X71418000Y-46127000D01*
X72164000Y-46411000D01*
X72731000Y-46626000D01*
X73510000Y-46922000D01*
X74242000Y-47199000D01*
X74915000Y-47454000D01*
X75515000Y-47680000D01*
X76029000Y-47873000D01*
X76443000Y-48028000D01*
X76743000Y-48140000D01*
X76918000Y-48203000D01*
X76957000Y-48217000D01*
X76985000Y-48129000D01*
X77032000Y-47924000D01*
X77090000Y-47641000D01*
X77153000Y-47319000D01*
X77211000Y-46997000D01*
X77254000Y-46742000D01*
X77383000Y-45637000D01*
X77427000Y-44565000D01*
X77385000Y-43569000D01*
X77354000Y-43272000D01*
X77154000Y-42216000D01*
X76832000Y-41240000D01*
X76393000Y-40360000D01*
X76070000Y-39876000D01*
X75416000Y-39124000D01*
X74644000Y-38465000D01*
X74087000Y-38096000D01*
X73880000Y-37972000D01*
X77338000Y-37967000D01*
X80796000Y-37962000D01*
X82379000Y-34027000D01*
X83962000Y-30092000D01*
X96039000Y-30086000D01*
X108115000Y-30080000D01*
X121005000Y-30164000D01*
G37*
%TD*%
D11*
%TO.C,SW605*%
X162600000Y-127800114D03*
X168600000Y-127800114D03*
X162600000Y-131499886D03*
X168600000Y-131499886D03*
%TD*%
%TO.C,SW604*%
X56750000Y-121600114D03*
X62750000Y-121600114D03*
X56750000Y-125299886D03*
X62750000Y-125299886D03*
%TD*%
D12*
%TO.C,J701*%
X52630990Y-82816974D03*
X55170995Y-82816974D03*
X57711000Y-82816974D03*
X57711000Y-88225000D03*
X55170995Y-88225000D03*
X52630990Y-88225000D03*
%TD*%
D11*
%TO.C,SW603*%
X44250000Y-121600114D03*
X50250000Y-121600114D03*
X44250000Y-125299886D03*
X50250000Y-125299886D03*
%TD*%
D12*
%TO.C,J702*%
X161259995Y-82816974D03*
X163800000Y-82816974D03*
X166340005Y-82816974D03*
X166340005Y-88225000D03*
X163800000Y-88225000D03*
X161259995Y-88225000D03*
%TD*%
D13*
%TO.C,U1101*%
X105104470Y-57150064D03*
X105104470Y-57850089D03*
D14*
X107045314Y-57850089D03*
D13*
X107095326Y-57150064D03*
%TD*%
D11*
%TO.C,SW601*%
X50500000Y-115350114D03*
X56500000Y-115350114D03*
X50500000Y-119049886D03*
X56500000Y-119049886D03*
%TD*%
D15*
%TO.C,J901*%
X70111000Y-164450000D03*
D16*
X70111000Y-167110000D03*
D15*
X71381000Y-164450000D03*
D16*
X71381000Y-167110000D03*
D15*
X72641000Y-164450000D03*
D16*
X72641000Y-167110000D03*
D15*
X73921000Y-164450000D03*
D16*
X73921000Y-167110000D03*
D15*
X75191000Y-164450000D03*
D16*
X75191000Y-167110000D03*
D15*
X76461000Y-164450000D03*
D16*
X76461000Y-167110000D03*
D15*
X77731000Y-164450000D03*
D16*
X77731000Y-167110000D03*
D15*
X79001000Y-164450000D03*
D16*
X79001000Y-167110000D03*
D15*
X80271000Y-164450000D03*
D16*
X80271000Y-167110000D03*
D15*
X81541000Y-164450000D03*
D16*
X81541000Y-167110000D03*
D15*
X82811000Y-164450000D03*
D16*
X82811000Y-167110000D03*
D15*
X84071000Y-164450000D03*
D16*
X84071000Y-167110000D03*
D15*
X85351000Y-164450000D03*
D16*
X85351000Y-167110000D03*
D15*
X86621000Y-164450000D03*
D16*
X86621000Y-167110000D03*
D15*
X87891000Y-164450000D03*
D16*
X87891000Y-167110000D03*
D15*
X89161000Y-164450000D03*
D16*
X89161000Y-167110000D03*
D15*
X90431000Y-164450000D03*
D16*
X90431000Y-167110000D03*
D15*
X91701000Y-164450000D03*
D16*
X91701000Y-167110000D03*
D15*
X92961000Y-164450000D03*
D16*
X92961000Y-167110000D03*
D15*
X94241000Y-164450000D03*
D16*
X94241000Y-167110000D03*
D15*
X95501000Y-164450000D03*
D16*
X95501000Y-167110000D03*
D15*
X96781000Y-164450000D03*
D16*
X96781000Y-167110000D03*
D15*
X98051000Y-164450000D03*
D16*
X98051000Y-167110000D03*
D15*
X99321000Y-164450000D03*
D16*
X99321000Y-167110000D03*
D15*
X100591000Y-164450000D03*
D16*
X100591000Y-167110000D03*
D15*
X101861000Y-164450000D03*
D16*
X101861000Y-167110000D03*
D15*
X103131000Y-164450000D03*
D16*
X103131000Y-167110000D03*
D15*
X104401000Y-164450000D03*
D16*
X104401000Y-167110000D03*
D15*
X105671000Y-164450000D03*
D16*
X105671000Y-167110000D03*
D15*
X106941000Y-164450000D03*
D16*
X106941000Y-167110000D03*
D15*
X108211000Y-164450000D03*
D16*
X108211000Y-167110000D03*
D15*
X109481000Y-164450000D03*
D16*
X109481000Y-167110000D03*
D15*
X110751000Y-164450000D03*
D16*
X110751000Y-167110000D03*
D15*
X112021000Y-164450000D03*
D16*
X112021000Y-167110000D03*
D15*
X113291000Y-164450000D03*
D16*
X113291000Y-167110000D03*
D15*
X114561000Y-164450000D03*
D16*
X114561000Y-167110000D03*
D15*
X115831000Y-164450000D03*
D16*
X115831000Y-167110000D03*
D15*
X117101000Y-164450000D03*
D16*
X117101000Y-167110000D03*
D15*
X118371000Y-164450000D03*
D16*
X118371000Y-167110000D03*
D15*
X119641000Y-164450000D03*
D16*
X119641000Y-167110000D03*
D15*
X120911000Y-164450000D03*
D16*
X120911000Y-167110000D03*
D15*
X122181000Y-164450000D03*
D16*
X122181000Y-167110000D03*
D15*
X123451000Y-164450000D03*
D16*
X123451000Y-167110000D03*
D15*
X124721000Y-164450000D03*
D16*
X124721000Y-167110000D03*
D15*
X125991000Y-164450000D03*
D16*
X125991000Y-167110000D03*
D15*
X127261000Y-164450000D03*
D16*
X127261000Y-167110000D03*
D15*
X128531000Y-164450000D03*
D16*
X128531000Y-167110000D03*
D15*
X129801000Y-164450000D03*
D16*
X129801000Y-167110000D03*
D15*
X131071000Y-164450000D03*
D16*
X131071000Y-167110000D03*
D15*
X134881000Y-164450000D03*
D16*
X134881000Y-167110000D03*
D15*
X136151000Y-164450000D03*
D16*
X136151000Y-167110000D03*
D15*
X137421000Y-164450000D03*
D16*
X137421000Y-167110000D03*
D15*
X138691000Y-164450000D03*
D16*
X138691000Y-167110000D03*
D15*
X139961000Y-164450000D03*
D16*
X139961000Y-167110000D03*
D15*
X141231000Y-164450000D03*
D16*
X141231000Y-167110000D03*
D15*
X142501000Y-164450000D03*
D16*
X142501000Y-167110000D03*
D15*
X143771000Y-164450000D03*
D16*
X143771000Y-167110000D03*
D15*
X145041000Y-164450000D03*
D16*
X145041000Y-167110000D03*
D15*
X146311000Y-164450000D03*
D16*
X146311000Y-167110000D03*
D15*
X147571000Y-164450000D03*
D16*
X147571000Y-167110000D03*
%TD*%
D11*
%TO.C,SW602*%
X50500000Y-127850114D03*
X56500000Y-127850114D03*
X50500000Y-131549886D03*
X56500000Y-131549886D03*
%TD*%
%TO.C,SW606*%
X168850000Y-121550114D03*
X174850000Y-121550114D03*
X168850000Y-125249886D03*
X174850000Y-125249886D03*
%TD*%
D17*
%TO.C,U401*%
X177556079Y-111485503D03*
X181749799Y-119051175D03*
D18*
X185405562Y-117024753D03*
X181211842Y-109459082D03*
%TD*%
M02*
